  0
SECTION
  2
HEADER
  9
$ACADVER
  1
AC1021
  9
$ACADMAINTVER
 70
25
  9
$DWGCODEPAGE
  3
ANSI_936
  9
$LASTSAVEDBY
  1
admin
  9
$INSBASE
 10
0.0
 20
0.0
 30
0.0
  9
$EXTMIN
 10
-250.0
 20
-275.0
 30
0.0
  9
$EXTMAX
 10
430.0
 20
400.0
 30
12.0
  9
$LIMMIN
 10
0.0
 20
0.0
  9
$LIMMAX
 10
1600.0
 20
1200.0
  9
$ORTHOMODE
 70
0
  9
$REGENMODE
 70
1
  9
$FILLMODE
 70
1
  9
$QTEXTMODE
 70
0
  9
$MIRRTEXT
 70
0
  9
$LTSCALE
 40
1.0
  9
$ATTMODE
 70
1
  9
$TEXTSIZE
 40
2.5
  9
$TRACEWID
 40
1.0
  9
$TEXTSTYLE
  7
Standard
  9
$CLAYER
  8
0
  9
$CELTYPE
  6
ByLayer
  9
$CECOLOR
 62
256
  9
$CELTSCALE
 40
1.0
  9
$DISPSILH
 70
0
  9
$DIMSCALE
 40
0.05
  9
$DIMASZ
 40
200.0
  9
$DIMEXO
 40
2.0
  9
$DIMDLI
 40
100.0
  9
$DIMRND
 40
0.0
  9
$DIMDLE
 40
0.0
  9
$DIMEXE
 40
200.0
  9
$DIMTP
 40
0.0
  9
$DIMTM
 40
0.0
  9
$DIMTXT
 40
350.0
  9
$DIMCEN
 40
2.5
  9
$DIMTSZ
 40
0.0
  9
$DIMTOL
 70
0
  9
$DIMLIM
 70
0
  9
$DIMTIH
 70
0
  9
$DIMTOH
 70
0
  9
$DIMSE1
 70
0
  9
$DIMSE2
 70
0
  9
$DIMTAD
 70
1
  9
$DIMZIN
 70
8
  9
$DIMBLK
  1

  9
$DIMASO
 70
1
  9
$DIMSHO
 70
1
  9
$DIMPOST
  1

  9
$DIMAPOST
  1

  9
$DIMALT
 70
0
  9
$DIMALTD
 70
3
  9
$DIMALTF
 40
0.03937007874016
  9
$DIMLFAC
 40
1.0
  9
$DIMTOFL
 70
1
  9
$DIMTVP
 40
0.0
  9
$DIMTIX
 70
0
  9
$DIMSOXD
 70
0
  9
$DIMSAH
 70
0
  9
$DIMBLK1
  1

  9
$DIMBLK2
  1

  9
$DIMSTYLE
  2
ISO-25
  9
$DIMCLRD
 70
6
  9
$DIMCLRE
 70
6
  9
$DIMCLRT
 70
3
  9
$DIMTFAC
 40
1.0
  9
$DIMGAP
 40
100.0
  9
$DIMJUST
 70
0
  9
$DIMSD1
 70
0
  9
$DIMSD2
 70
0
  9
$DIMTOLJ
 70
0
  9
$DIMTZIN
 70
8
  9
$DIMALTZ
 70
0
  9
$DIMALTTZ
 70
0
  9
$DIMUPT
 70
0
  9
$DIMDEC
 70
1
  9
$DIMTDEC
 70
1
  9
$DIMALTU
 70
2
  9
$DIMALTTD
 70
3
  9
$DIMTXSTY
  7
Standard
  9
$DIMAUNIT
 70
0
  9
$DIMADEC
 70
0
  9
$DIMALTRND
 40
0.0
  9
$DIMAZIN
 70
0
  9
$DIMDSEP
 70
46
  9
$DIMATFIT
 70
3
  9
$DIMFRAC
 70
0
  9
$DIMLDRBLK
  1

  9
$DIMLUNIT
 70
2
  9
$DIMLWD
 70
-2
  9
$DIMLWE
 70
-2
  9
$DIMTMOVE
 70
0
  9
$DIMFXL
 40
1.0
  9
$DIMFXLON
 70
0
  9
$DIMJOGANG
 40
0.7853981633974483
  9
$DIMTFILL
 70
0
  9
$DIMTFILLCLR
 70
0
  9
$DIMARCSYM
 70
0
  9
$DIMLTYPE
  6

  9
$DIMLTEX1
  6

  9
$DIMLTEX2
  6

  9
$LUNITS
 70
2
  9
$LUPREC
 70
3
  9
$SKETCHINC
 40
1.0
  9
$FILLETRAD
 40
10.0
  9
$AUNITS
 70
0
  9
$AUPREC
 70
0
  9
$MENU
  1

  9
$ELEVATION
 40
0.0
  9
$PELEVATION
 40
0.0
  9
$THICKNESS
 40
0.0
  9
$LIMCHECK
 70
0
  9
$CHAMFERA
 40
10.0
  9
$CHAMFERB
 40
10.0
  9
$CHAMFERC
 40
20.0
  9
$CHAMFERD
 40
0.0
  9
$SKPOLY
 70
0
  9
$TDCREATE
 40
2455022.970692847
  9
$TDUCREATE
 40
2455022.637359514
  9
$TDUPDATE
 40
2458518.356494503
  9
$TDUUPDATE
 40
2458518.023161169
  9
$TDINDWG
 40
0.0102706829
  9
$TDUSRTIMER
 40
2456833.531150197
  9
$USRTIMER
 70
1
  9
$ANGBASE
 50
0.0
  9
$ANGDIR
 70
0
  9
$PDMODE
 70
3
  9
$PDSIZE
 40
0.2
  9
$PLINEWID
 40
0.0
  9
$SPLFRAME
 70
0
  9
$SPLINETYPE
 70
6
  9
$SPLINESEGS
 70
8
  9
$HANDSEED
  5
27E3
  9
$SURFTAB1
 70
6
  9
$SURFTAB2
 70
6
  9
$SURFTYPE
 70
6
  9
$SURFU
 70
6
  9
$SURFV
 70
6
  9
$UCSBASE
  2

  9
$UCSNAME
  2

  9
$UCSORG
 10
0.0
 20
0.0
 30
0.0
  9
$UCSXDIR
 10
1.0
 20
0.0
 30
0.0
  9
$UCSYDIR
 10
0.0
 20
1.0
 30
0.0
  9
$UCSORTHOREF
  2

  9
$UCSORTHOVIEW
 70
0
  9
$UCSORGTOP
 10
0.0
 20
0.0
 30
0.0
  9
$UCSORGBOTTOM
 10
0.0
 20
0.0
 30
0.0
  9
$UCSORGLEFT
 10
0.0
 20
0.0
 30
0.0
  9
$UCSORGRIGHT
 10
0.0
 20
0.0
 30
0.0
  9
$UCSORGFRONT
 10
0.0
 20
0.0
 30
0.0
  9
$UCSORGBACK
 10
0.0
 20
0.0
 30
0.0
  9
$PUCSBASE
  2

  9
$PUCSNAME
  2

  9
$PUCSORG
 10
0.0
 20
0.0
 30
0.0
  9
$PUCSXDIR
 10
1.0
 20
0.0
 30
0.0
  9
$PUCSYDIR
 10
0.0
 20
1.0
 30
0.0
  9
$PUCSORTHOREF
  2

  9
$PUCSORTHOVIEW
 70
0
  9
$PUCSORGTOP
 10
0.0
 20
0.0
 30
0.0
  9
$PUCSORGBOTTOM
 10
0.0
 20
0.0
 30
0.0
  9
$PUCSORGLEFT
 10
0.0
 20
0.0
 30
0.0
  9
$PUCSORGRIGHT
 10
0.0
 20
0.0
 30
0.0
  9
$PUCSORGFRONT
 10
0.0
 20
0.0
 30
0.0
  9
$PUCSORGBACK
 10
0.0
 20
0.0
 30
0.0
  9
$USERI1
 70
0
  9
$USERI2
 70
0
  9
$USERI3
 70
0
  9
$USERI4
 70
0
  9
$USERI5
 70
0
  9
$USERR1
 40
0.0
  9
$USERR2
 40
0.0
  9
$USERR3
 40
0.0
  9
$USERR4
 40
0.0
  9
$USERR5
 40
0.0
  9
$WORLDVIEW
 70
1
  9
$SHADEDGE
 70
3
  9
$SHADEDIF
 70
70
  9
$TILEMODE
 70
1
  9
$MAXACTVP
 70
64
  9
$PINSBASE
 10
0.0
 20
0.0
 30
0.0
  9
$PLIMCHECK
 70
0
  9
$PEXTMIN
 10
1.0E20
 20
1.0E20
 30
1.0E20
  9
$PEXTMAX
 10
-1.0E20
 20
-1.0E20
 30
-1.0E20
  9
$PLIMMIN
 10
0.0
 20
0.0
  9
$PLIMMAX
 10
0.0
 20
0.0
  9
$UNITMODE
 70
0
  9
$VISRETAIN
 70
1
  9
$PLINEGEN
 70
0
  9
$PSLTSCALE
 70
1
  9
$TREEDEPTH
 70
3020
  9
$CMLSTYLE
  2
Standard
  9
$CMLJUST
 70
0
  9
$CMLSCALE
 40
20.0
  9
$PROXYGRAPHICS
 70
1
  9
$MEASUREMENT
 70
1
  9
$CELWEIGHT
370
-1
  9
$ENDCAPS
280
0
  9
$JOINSTYLE
280
0
  9
$LWDISPLAY
290
  0
  9
$INSUNITS
 70
4
  9
$HYPERLINKBASE
  1

  9
$STYLESHEET
  1

  9
$XEDIT
290
  0
  9
$CEPSNTYPE
380
0
  9
$PSTYLEMODE
290
  0
  9
$FINGERPRINTGUID
  2
{EC6BB858-51AA-46EC-B484-6C9CC7AB3E2E}
  9
$VERSIONGUID
  2
{23B1F04D-C0DA-4E0E-BE9E-C1E169E74BE0}
  9
$EXTNAMES
290
  0
  9
$PSVPSCALE
 40
0.0
  9
$OLESTARTUP
290
  0
  9
$SORTENTS
280
127
  9
$INDEXCTL
280
0
  9
$HIDETEXT
280
0
  9
$XCLIPFRAME
290
  0
  9
$HALOGAP
280
0
  9
$OBSCOLOR
 70
257
  9
$OBSLTYPE
280
0
  9
$INTERSECTIONDISPLAY
280
0
  9
$INTERSECTIONCOLOR
 70
257
  9
$DIMASSOC
280
1
  9
$PROJECTNAME
  1

  9
$CAMERADISPLAY
290
  0
  9
$LENSLENGTH
 40
50.0
  9
$CAMERAHEIGHT
 40
0.0
  9
$STEPSPERSEC
 40
2.0
  9
$STEPSIZE
 40
6.0
  9
$3DDWFPREC
 40
2.0
  9
$PSOLWIDTH
 40
0.25
  9
$PSOLHEIGHT
 40
4.0
  9
$LOFTANG1
 40
1.570796326794896
  9
$LOFTANG2
 40
1.570796326794896
  9
$LOFTMAG1
 40
0.0
  9
$LOFTMAG2
 40
0.0
  9
$LOFTPARAM
 70
7
  9
$LOFTNORMALS
280
1
  9
$LATITUDE
 40
37.795
  9
$LONGITUDE
 40
-122.394
  9
$NORTHDIRECTION
 40
0.0
  9
$TIMEZONE
 70
-8000
  9
$LIGHTGLYPHDISPLAY
280
1
  9
$TILEMODELIGHTSYNCH
280
1
  9
$CMATERIAL
347
D7
  9
$SOLIDHIST
280
1
  9
$SHOWHIST
280
1
  9
$DWFFRAME
280
2
  9
$DGNFRAME
280
0
  9
$REALWORLDSCALE
290
  0
  9
$INTERFERECOLOR
 62
1
  9
$INTERFEREOBJVS
345
F9
  9
$INTERFEREVPVS
346
F6
  9
$CSHADOW
280
0
  9
$SHADOWPLANELOCATION
 40
0.0
  0
ENDSEC
  0
SECTION
  2
TABLES
  0
TABLE
  2
VPORT
  5
27B5
330
  0
100
AcDbSymbolTable
 70
1
  0
VPORT
  5
31
330
8
100
AcDbSymbolTableRecord
100
AcDbViewportTableRecord
  2
*Active
 70
0
 10
0.0
 20
0.0
 11
1.0
 21
1.0
 12
132.0
 22
-44.0
 13
0.0
 23
0.0
 14
10.0
 24
10.0
 15
10.0
 25
10.0
 16
0.0
 26
0.0
 36
1.0
 17
0.0
 27
0.0
 37
0.0
 40
840.0
 41
1.86
 42
50.0
 43
0.0
 44
0.0
 50
0.0
 51
0.0
 71
0
 72
100.0
 73
1.0
 74
3
 75
  0
 76
  0
 77
0
 78
0
281
0
 65
1
 110
0.0
 120
0.0
 130
0.0
 111
1.0
 121
0.0
 131
0.0
 112
0.0
 122
1.0
 132
0.0
 79
0
146
0.0
348
F5
 60
3
 61
5
292
  1
282
1
141
0.0
142
0.0
 63
250
421
3355443
  0
ENDTAB
  0
TABLE
  2
LTYPE
  5
27B6
330
  0
100
AcDbSymbolTable
 70
4
  0
LTYPE
  5
27BB
330
5
100
AcDbSymbolTableRecord
100
AcDbLinetypeTableRecord
  2
BYBLOCK
 70
0
  3

 72
65
 73
0
 40
0.0
  0
LTYPE
  5
27BC
330
5
100
AcDbSymbolTableRecord
100
AcDbLinetypeTableRecord
  2
BYLAYER
 70
0
  3

 72
65
 73
0
 40
0.0
  0
LTYPE
  5
27BD
330
5
100
AcDbSymbolTableRecord
100
AcDbLinetypeTableRecord
  2
CONTINUOUS
 70
0
  3

 72
65
 73
0
 40
0.0
  0
LTYPE
  5
27BE
330
5
100
AcDbSymbolTableRecord
100
AcDbLinetypeTableRecord
  2
PHANTOM
 70
0
  3
Phantom ______  __  __  ______  __  __  ______
 72
65
 73
6
 40
63.50000000000001
 49
31.75
 74
0
 49
-6.35
 74
0
 49
6.35
 74
0
 49
-6.35
 74
0
 49
6.35
 74
0
 49
-6.35
 74
0
 46
1.0
  0
ENDTAB
  0
TABLE
  2
LAYER
  5
27BF
330
  0
100
AcDbSymbolTable
 70
1
  0
LAYER
  5
27E2
100
AcDbSymbolTableRecord
100
AcDbLayerTableRecord
  2
0
 70
0
 62
1
  6
CONTINUOUS
290
1
370
100
390
F
347
E7
  0
LAYER
  5
27C0
100
AcDbSymbolTableRecord
100
AcDbLayerTableRecord
  2
calle
 70
0
 62
174
  6
CONTINUOUS
290
1
370
100
390
F
347
E7
  0
LAYER
  5
27C1
100
AcDbSymbolTableRecord
100
AcDbLayerTableRecord
  2
camino
 70
0
 62
174
  6
CONTINUOUS
290
1
370
100
390
F
347
E7
  0
LAYER
  5
27C2
100
AcDbSymbolTableRecord
100
AcDbLayerTableRecord
  2
corregido
 70
0
 62
174
  6
CONTINUOUS
290
1
370
100
390
F
347
E7
  0
LAYER
  5
27C3
100
AcDbSymbolTableRecord
100
AcDbLayerTableRecord
  2
l10
 70
0
 62
174
  6
CONTINUOUS
290
1
370
100
390
F
347
E7
  0
LAYER
  5
27C4
100
AcDbSymbolTableRecord
100
AcDbLayerTableRecord
  2
lote 11 y 12
 70
0
 62
174
  6
CONTINUOUS
290
1
370
100
390
F
347
E7
  0
LAYER
  5
27C5
100
AcDbSymbolTableRecord
100
AcDbLayerTableRecord
  2
lote 13
 70
0
 62
174
  6
CONTINUOUS
290
1
370
100
390
F
347
E7
  0
LAYER
  5
27C6
100
AcDbSymbolTableRecord
100
AcDbLayerTableRecord
  2
lote 21
 70
0
 62
174
  6
CONTINUOUS
290
1
370
100
390
F
347
E7
  0
LAYER
  5
27C7
100
AcDbSymbolTableRecord
100
AcDbLayerTableRecord
  2
lote 24
 70
0
 62
174
  6
CONTINUOUS
290
1
370
100
390
F
347
E7
  0
LAYER
  5
27C8
100
AcDbSymbolTableRecord
100
AcDbLayerTableRecord
  2
lote 25
 70
0
 62
174
  6
CONTINUOUS
290
1
370
100
390
F
347
E7
  0
LAYER
  5
27C9
100
AcDbSymbolTableRecord
100
AcDbLayerTableRecord
  2
lote 27
 70
0
 62
174
  6
CONTINUOUS
290
1
370
100
390
F
347
E7
  0
LAYER
  5
27CA
100
AcDbSymbolTableRecord
100
AcDbLayerTableRecord
  2
lote 29
 70
0
 62
174
  6
CONTINUOUS
290
1
370
100
390
F
347
E7
  0
LAYER
  5
27CB
100
AcDbSymbolTableRecord
100
AcDbLayerTableRecord
  2
lote 30
 70
0
 62
174
  6
CONTINUOUS
290
1
370
100
390
F
347
E7
  0
LAYER
  5
27CC
100
AcDbSymbolTableRecord
100
AcDbLayerTableRecord
  2
lote 5
 70
0
 62
174
  6
CONTINUOUS
290
1
370
100
390
F
347
E7
  0
LAYER
  5
27CD
100
AcDbSymbolTableRecord
100
AcDbLayerTableRecord
  2
lote 7
 70
0
 62
174
  6
CONTINUOUS
290
1
370
100
390
F
347
E7
  0
LAYER
  5
27CE
100
AcDbSymbolTableRecord
100
AcDbLayerTableRecord
  2
lote 9
 70
0
 62
174
  6
CONTINUOUS
290
1
370
100
390
F
347
E7
  0
LAYER
  5
27CF
100
AcDbSymbolTableRecord
100
AcDbLayerTableRecord
  2
lote10
 70
0
 62
174
  6
CONTINUOUS
290
1
370
100
390
F
347
E7
  0
LAYER
  5
27D0
100
AcDbSymbolTableRecord
100
AcDbLayerTableRecord
  2
lote13
 70
0
 62
174
  6
CONTINUOUS
290
1
370
100
390
F
347
E7
  0
LAYER
  5
27D1
100
AcDbSymbolTableRecord
100
AcDbLayerTableRecord
  2
lote16
 70
0
 62
174
  6
CONTINUOUS
290
1
370
100
390
F
347
E7
  0
LAYER
  5
27D2
100
AcDbSymbolTableRecord
100
AcDbLayerTableRecord
  2
lote17
 70
0
 62
174
  6
CONTINUOUS
290
1
370
100
390
F
347
E7
  0
LAYER
  5
27D3
100
AcDbSymbolTableRecord
100
AcDbLayerTableRecord
  2
lote18
 70
0
 62
174
  6
CONTINUOUS
290
1
370
100
390
F
347
E7
  0
LAYER
  5
27D4
100
AcDbSymbolTableRecord
100
AcDbLayerTableRecord
  2
lote19
 70
0
 62
174
  6
CONTINUOUS
290
1
370
100
390
F
347
E7
  0
LAYER
  5
27D5
100
AcDbSymbolTableRecord
100
AcDbLayerTableRecord
  2
lote26
 70
0
 62
174
  6
CONTINUOUS
290
1
370
100
390
F
347
E7
  0
LAYER
  5
27D6
100
AcDbSymbolTableRecord
100
AcDbLayerTableRecord
  2
punto
 70
0
 62
174
  6
CONTINUOUS
290
1
370
100
390
F
347
E7
  0
LAYER
  5
27D7
100
AcDbSymbolTableRecord
100
AcDbLayerTableRecord
  2
área verde
 70
0
 62
174
  6
CONTINUOUS
290
1
370
100
390
F
347
E7
  0
LAYER
  5
27D8
100
AcDbSymbolTableRecord
100
AcDbLayerTableRecord
  2
Point
 70
0
 62
5
  6
CONTINUOUS
290
1
370
100
390
F
347
E7
  0
LAYER
  5
27D9
100
AcDbSymbolTableRecord
100
AcDbLayerTableRecord
  2
Point_Name
 70
0
 62
1
  6
CONTINUOUS
290
1
370
100
390
F
347
E7
  0
LAYER
  5
27DA
100
AcDbSymbolTableRecord
100
AcDbLayerTableRecord
  2
Point_Height
 70
0
 62
5
  6
CONTINUOUS
290
1
370
100
390
F
347
E7
  0
LAYER
  5
27DB
100
AcDbSymbolTableRecord
100
AcDbLayerTableRecord
  2
Line
 70
0
 62
250
  6
CONTINUOUS
290
1
370
100
390
F
347
E7
  0
LAYER
  5
27DC
100
AcDbSymbolTableRecord
100
AcDbLayerTableRecord
  2
Line_Name
 70
0
 62
1
  6
CONTINUOUS
290
1
370
100
390
F
347
E7
  0
LAYER
  5
27DD
100
AcDbSymbolTableRecord
100
AcDbLayerTableRecord
  2
Line_Height
 70
0
 62
5
  6
CONTINUOUS
290
1
370
100
390
F
347
E7
  0
LAYER
  5
27DE
100
AcDbSymbolTableRecord
100
AcDbLayerTableRecord
  2
Surface
 70
0
 62
250
  6
CONTINUOUS
290
1
370
100
390
F
347
E7
  0
LAYER
  5
27DF
100
AcDbSymbolTableRecord
100
AcDbLayerTableRecord
  2
Surface_Name
 70
0
 62
1
  6
CONTINUOUS
290
1
370
100
390
F
347
E7
  0
LAYER
  5
27E0
100
AcDbSymbolTableRecord
100
AcDbLayerTableRecord
  2
Surface_Height
 70
0
 62
5
  6
CONTINUOUS
290
1
370
100
390
F
347
E7
  0
ENDTAB
  0
TABLE
  2
STYLE
  5
3
330
0
100
AcDbSymbolTable
 70
     2
  0
STYLE
  5
11
330
3
100
AcDbSymbolTableRecord
100
AcDbTextStyleTableRecord
  2
Standard
 70
     0
 40
0.0
 41
0.65
 50
0.0
 71
     0
 42
2.5
  3
arial.ttf
  4

1001
ACAD
1000
Arial
1071
       34
  0
STYLE
  5
2C
330
3
100
AcDbSymbolTableRecord
100
AcDbTextStyleTableRecord
  2

 70
     1
 40
0.0
 41
1.0
 50
0.0
 71
     0
 42
2.5
  3
ltypeshp.shx
  4

  0
ENDTAB
  0
TABLE
  2
VIEW
  5
6
330
0
100
AcDbSymbolTable
 70
     0
  0
ENDTAB
  0
TABLE
  2
UCS
  5
7
330
0
100
AcDbSymbolTable
 70
     0
  0
ENDTAB
  0
TABLE
  2
APPID
  5
9
330
0
100
AcDbSymbolTable
 70
     4
  0
APPID
  5
12
330
9
100
AcDbSymbolTableRecord
100
AcDbRegAppTableRecord
  2
ACAD
 70
     0
  0
APPID
  5
127
330
9
100
AcDbSymbolTableRecord
100
AcDbRegAppTableRecord
  2
ACAD_MLEADERVER
 70
     0
  0
APPID
  5
139
330
9
100
AcDbSymbolTableRecord
100
AcDbRegAppTableRecord
  2
ACAD_DSTYLE_DIMRADIAL_EXTENSION
 70
     0
  0
APPID
  5
2311
330
9
100
AcDbSymbolTableRecord
100
AcDbRegAppTableRecord
  2
AcAecLayerStandard
 70
     0
  0
ENDTAB
  0
TABLE
  2
DIMSTYLE
  5
A
330
0
100
AcDbSymbolTable
 70
     1
100
AcDbDimStyleTable
 71
     0
  0
DIMSTYLE
105
27
330
A
100
AcDbSymbolTableRecord
100
AcDbDimStyleTableRecord
  2
ISO-25
 70
     0
 41
2.5
 42
0.625
 43
3.75
 44
1.25
 73
     0
 74
     0
 77
     1
 78
     8
140
2.5
141
2.5
143
0.03937007874016
147
0.625
171
     3
172
     1
271
     2
272
     2
274
     3
278
    44
283
     0
284
     8
340
11
  0
ENDTAB
  0
TABLE
  2
BLOCK_RECORD
  5
1
330
0
100
AcDbSymbolTable
 70
     1
  0
BLOCK_RECORD
  5
1F
330
1
100
AcDbSymbolTableRecord
100
AcDbBlockTableRecord
  2
*Model_Space
340
22
 70
     0
280
     1
281
     0
  0
BLOCK_RECORD
  5
1B
330
1
100
AcDbSymbolTableRecord
100
AcDbBlockTableRecord
  2
*Paper_Space
340
1E
 70
     0
280
     1
281
     0
  0
BLOCK_RECORD
  5
23
330
1
100
AcDbSymbolTableRecord
100
AcDbBlockTableRecord
  2
*Paper_Space0
340
26
 70
     0
280
     1
281
     0
  0
ENDTAB
  0
ENDSEC
  0
SECTION
  2
BLOCKS
  0
BLOCK
  5
20
330
1F
100
AcDbEntity
  8
0
100
AcDbBlockBegin
  2
*Model_Space
 70
     0
 10
0.0
 20
0.0
 30
0.0
  3
*Model_Space
  1

  0
ENDBLK
  5
21
330
1F
100
AcDbEntity
  8
0
100
AcDbBlockEnd
  0
BLOCK
  5
1C
330
1B
100
AcDbEntity
 67
     1
  8
0
100
AcDbBlockBegin
  2
*Paper_Space
 70
     0
 10
0.0
 20
0.0
 30
0.0
  3
*Paper_Space
  1

  0
ENDBLK
  5
1D
330
1B
100
AcDbEntity
 67
     1
  8
0
100
AcDbBlockEnd
  0
BLOCK
  5
24
330
23
100
AcDbEntity
 67
     1
  8
0
100
AcDbBlockBegin
  2
*Paper_Space0
 70
     0
 10
0.0
 20
0.0
 30
0.0
  3
*Paper_Space0
  1

  0
ENDBLK
  5
25
330
23
100
AcDbEntity
 67
     1
  8
0
100
AcDbBlockEnd
  0
ENDSEC
  0
SECTION
  2
ENTITIES
  0
POINT
  5
2500
330
1F
100
AcDbEntity
  8
lote 5
100
AcDbPoint
 10
613304.2121413436
 20
1321923.1737298353
 30
58.918196373732
  0
TEXT
  5
2503
330
1F
  100
AcDbEntity
  8
lote 5
  100
AcDbText
  10
613304.2121413436
  20
1321923.4237298353
  30
0.0
  40
0.5
  1
p73
  39
0.0
  50
0.0
  100
AcDbText
  0
TEXT
  5
2506
330
1F
  100
AcDbEntity
  8
lote 5
  100
AcDbText
  10
613304.2121413436
  20
1321922.4237298353
  30
0.0
  40
0.5
  1
lote 5
  39
0.0
  50
0.0
  100
AcDbText
  0
POINT
  5
2507
330
1F
100
AcDbEntity
  8
lote 5
100
AcDbPoint
 10
613313.4295052168
 20
1321939.361177351
 30
58.001375477296
  0
TEXT
  5
250A
330
1F
  100
AcDbEntity
  8
lote 5
  100
AcDbText
  10
613313.4295052168
  20
1321939.611177351
  30
0.0
  40
0.5
  1
p74
  39
0.0
  50
0.0
  100
AcDbText
  0
TEXT
  5
250D
330
1F
  100
AcDbEntity
  8
lote 5
  100
AcDbText
  10
613313.4295052168
  20
1321938.611177351
  30
0.0
  40
0.5
  1
lote 5
  39
0.0
  50
0.0
  100
AcDbText
  0
POINT
  5
250E
330
1F
100
AcDbEntity
  8
lote 5
100
AcDbPoint
 10
613304.8787026964
 20
1321944.789215297
 30
57.991163452971
  0
TEXT
  5
2511
330
1F
  100
AcDbEntity
  8
lote 5
  100
AcDbText
  10
613304.8787026964
  20
1321945.039215297
  30
0.0
  40
0.5
  1
p75
  39
0.0
  50
0.0
  100
AcDbText
  0
TEXT
  5
2514
330
1F
  100
AcDbEntity
  8
lote 5
  100
AcDbText
  10
613304.8787026964
  20
1321944.039215297
  30
0.0
  40
0.5
  1
lote 5
  39
0.0
  50
0.0
  100
AcDbText
  0
POINT
  5
2515
330
1F
100
AcDbEntity
  8
lote 5
100
AcDbPoint
 10
613295.8727136048
 20
1321949.924435055
 30
58.05850125973
  0
TEXT
  5
2518
330
1F
  100
AcDbEntity
  8
lote 5
  100
AcDbText
  10
613295.8727136048
  20
1321950.174435055
  30
0.0
  40
0.5
  1
p76
  39
0.0
  50
0.0
  100
AcDbText
  0
TEXT
  5
251B
330
1F
  100
AcDbEntity
  8
lote 5
  100
AcDbText
  10
613295.8727136048
  20
1321949.174435055
  30
0.0
  40
0.5
  1
lote 5
  39
0.0
  50
0.0
  100
AcDbText
  0
POINT
  5
251C
330
1F
100
AcDbEntity
  8
lote 5
100
AcDbPoint
 10
613318.3792593335
 20
1321936.6514682316
 30
58.155574164904
  0
TEXT
  5
251F
330
1F
  100
AcDbEntity
  8
lote 5
  100
AcDbText
  10
613318.3792593335
  20
1321936.9014682316
  30
0.0
  40
0.5
  1
p77
  39
0.0
  50
0.0
  100
AcDbText
  0
TEXT
  5
2522
330
1F
  100
AcDbEntity
  8
lote 5
  100
AcDbText
  10
613318.3792593335
  20
1321935.9014682316
  30
0.0
  40
0.5
  1
lote 5
  39
0.0
  50
0.0
  100
AcDbText
  0
POINT
  5
2523
330
1F
100
AcDbEntity
  8
calle
100
AcDbPoint
 10
613318.386841605
 20
1321936.616183889
 30
58.16073148977
  0
TEXT
  5
2526
330
1F
  100
AcDbEntity
  8
calle
  100
AcDbText
  10
613318.386841605
  20
1321936.866183889
  30
0.0
  40
0.5
  1
p78
  39
0.0
  50
0.0
  100
AcDbText
  0
TEXT
  5
2529
330
1F
  100
AcDbEntity
  8
calle
  100
AcDbText
  10
613318.386841605
  20
1321935.866183889
  30
0.0
  40
0.5
  1
calle
  39
0.0
  50
0.0
  100
AcDbText
  0
POINT
  5
252A
330
1F
100
AcDbEntity
  8
calle
100
AcDbPoint
 10
613317.6065228636
 20
1321931.6286623403
 30
58.134881193651
  0
TEXT
  5
252D
330
1F
  100
AcDbEntity
  8
calle
  100
AcDbText
  10
613317.6065228636
  20
1321931.8786623403
  30
0.0
  40
0.5
  1
p79
  39
0.0
  50
0.0
  100
AcDbText
  0
TEXT
  5
2530
330
1F
  100
AcDbEntity
  8
calle
  100
AcDbText
  10
613317.6065228636
  20
1321930.8786623403
  30
0.0
  40
0.5
  1
calle
  39
0.0
  50
0.0
  100
AcDbText
  0
POINT
  5
2531
330
1F
100
AcDbEntity
  8
área verde
100
AcDbPoint
 10
613314.7601884679
 20
1321927.2679239414
 30
57.517115347189
  0
TEXT
  5
2534
330
1F
  100
AcDbEntity
  8
área verde
  100
AcDbText
  10
613314.7601884679
  20
1321927.5179239414
  30
0.0
  40
0.5
  1
p80
  39
0.0
  50
0.0
  100
AcDbText
  0
TEXT
  5
2537
330
1F
  100
AcDbEntity
  8
área verde
  100
AcDbText
  10
613314.7601884679
  20
1321926.5179239414
  30
0.0
  40
0.5
  1
\U+00e1rea verde
  39
0.0
  50
0.0
  100
AcDbText
  0
POINT
  5
2538
330
1F
100
AcDbEntity
  8
área verde
100
AcDbPoint
 10
613312.4131528466
 20
1321924.679178127
 30
57.709744742303
  0
TEXT
  5
253B
330
1F
  100
AcDbEntity
  8
área verde
  100
AcDbText
  10
613312.4131528466
  20
1321924.929178127
  30
0.0
  40
0.5
  1
p81
  39
0.0
  50
0.0
  100
AcDbText
  0
TEXT
  5
253E
330
1F
  100
AcDbEntity
  8
área verde
  100
AcDbText
  10
613312.4131528466
  20
1321923.929178127
  30
0.0
  40
0.5
  1
\U+00e1rea verde
  39
0.0
  50
0.0
  100
AcDbText
  0
POINT
  5
253F
330
1F
100
AcDbEntity
  8
área verde
100
AcDbPoint
 10
613309.7528082049
 20
1321920.9277678088
 30
57.479205189215
  0
TEXT
  5
2542
330
1F
  100
AcDbEntity
  8
área verde
  100
AcDbText
  10
613309.7528082049
  20
1321921.1777678088
  30
0.0
  40
0.5
  1
p82
  39
0.0
  50
0.0
  100
AcDbText
  0
TEXT
  5
2545
330
1F
  100
AcDbEntity
  8
área verde
  100
AcDbText
  10
613309.7528082049
  20
1321920.1777678088
  30
0.0
  40
0.5
  1
\U+00e1rea verde
  39
0.0
  50
0.0
  100
AcDbText
  0
POINT
  5
2546
330
1F
100
AcDbEntity
  8
área verde
100
AcDbPoint
 10
613307.8331712766
 20
1321918.167381979
 30
57.531896913597
  0
TEXT
  5
2549
330
1F
  100
AcDbEntity
  8
área verde
  100
AcDbText
  10
613307.8331712766
  20
1321918.417381979
  30
0.0
  40
0.5
  1
p83
  39
0.0
  50
0.0
  100
AcDbText
  0
TEXT
  5
254C
330
1F
  100
AcDbEntity
  8
área verde
  100
AcDbText
  10
613307.8331712766
  20
1321917.417381979
  30
0.0
  40
0.5
  1
\U+00e1rea verde
  39
0.0
  50
0.0
  100
AcDbText
  0
POINT
  5
254D
330
1F
100
AcDbEntity
  8
área verde
100
AcDbPoint
 10
613305.9690780297
 20
1321914.2966613928
 30
57.441062180556
  0
TEXT
  5
2550
330
1F
  100
AcDbEntity
  8
área verde
  100
AcDbText
  10
613305.9690780297
  20
1321914.5466613928
  30
0.0
  40
0.5
  1
p84
  39
0.0
  50
0.0
  100
AcDbText
  0
TEXT
  5
2553
330
1F
  100
AcDbEntity
  8
área verde
  100
AcDbText
  10
613305.9690780297
  20
1321913.5466613928
  30
0.0
  40
0.5
  1
\U+00e1rea verde
  39
0.0
  50
0.0
  100
AcDbText
  0
POINT
  5
2554
330
1F
100
AcDbEntity
  8
área verde
100
AcDbPoint
 10
613301.5609579448
 20
1321908.1126354206
 30
57.592924615662
  0
TEXT
  5
2557
330
1F
  100
AcDbEntity
  8
área verde
  100
AcDbText
  10
613301.5609579448
  20
1321908.3626354206
  30
0.0
  40
0.5
  1
p85
  39
0.0
  50
0.0
  100
AcDbText
  0
TEXT
  5
255A
330
1F
  100
AcDbEntity
  8
área verde
  100
AcDbText
  10
613301.5609579448
  20
1321907.3626354206
  30
0.0
  40
0.5
  1
\U+00e1rea verde
  39
0.0
  50
0.0
  100
AcDbText
  0
POINT
  5
255B
330
1F
100
AcDbEntity
  8
área verde
100
AcDbPoint
 10
613304.08553629
 20
1321904.6003259113
 30
57.981303763025
  0
TEXT
  5
255E
330
1F
  100
AcDbEntity
  8
área verde
  100
AcDbText
  10
613304.08553629
  20
1321904.8503259113
  30
0.0
  40
0.5
  1
p86
  39
0.0
  50
0.0
  100
AcDbText
  0
TEXT
  5
2561
330
1F
  100
AcDbEntity
  8
área verde
  100
AcDbText
  10
613304.08553629
  20
1321903.8503259113
  30
0.0
  40
0.5
  1
\U+00e1rea verde
  39
0.0
  50
0.0
  100
AcDbText
  0
POINT
  5
2562
330
1F
100
AcDbEntity
  8
corregido
100
AcDbPoint
 10
613290.8524724903
 20
1321906.6920334222
 30
58.900863350879
  0
TEXT
  5
2565
330
1F
  100
AcDbEntity
  8
corregido
  100
AcDbText
  10
613290.8524724903
  20
1321906.9420334222
  30
0.0
  40
0.5
  1
p87
  39
0.0
  50
0.0
  100
AcDbText
  0
TEXT
  5
2568
330
1F
  100
AcDbEntity
  8
corregido
  100
AcDbText
  10
613290.8524724903
  20
1321905.9420334222
  30
0.0
  40
0.5
  1
corregido
  39
0.0
  50
0.0
  100
AcDbText
  0
POINT
  5
2569
330
1F
100
AcDbEntity
  8
corregido
100
AcDbPoint
 10
613299.1173305018
 20
1321920.2979802531
 30
58.575156150332
  0
TEXT
  5
256C
330
1F
  100
AcDbEntity
  8
corregido
  100
AcDbText
  10
613299.1173305018
  20
1321920.5479802531
  30
0.0
  40
0.5
  1
p88
  39
0.0
  50
0.0
  100
AcDbText
  0
TEXT
  5
256F
330
1F
  100
AcDbEntity
  8
corregido
  100
AcDbText
  10
613299.1173305018
  20
1321919.5479802531
  30
0.0
  40
0.5
  1
corregido
  39
0.0
  50
0.0
  100
AcDbText
  0
POINT
  5
2570
330
1F
100
AcDbEntity
  8
corregido
100
AcDbPoint
 10
613288.9765059269
 20
1321926.2290830773
 30
58.541568548365
  0
TEXT
  5
2573
330
1F
  100
AcDbEntity
  8
corregido
  100
AcDbText
  10
613288.9765059269
  20
1321926.4790830773
  30
0.0
  40
0.5
  1
p89
  39
0.0
  50
0.0
  100
AcDbText
  0
TEXT
  5
2576
330
1F
  100
AcDbEntity
  8
corregido
  100
AcDbText
  10
613288.9765059269
  20
1321925.4790830773
  30
0.0
  40
0.5
  1
corregido
  39
0.0
  50
0.0
  100
AcDbText
  0
POINT
  5
2577
330
1F
100
AcDbEntity
  8
corregido
100
AcDbPoint
 10
613280.7257520553
 20
1321912.5786678798
 30
58.872248578704
  0
TEXT
  5
257A
330
1F
  100
AcDbEntity
  8
corregido
  100
AcDbText
  10
613280.7257520553
  20
1321912.8286678798
  30
0.0
  40
0.5
  1
p90
  39
0.0
  50
0.0
  100
AcDbText
  0
TEXT
  5
257D
330
1F
  100
AcDbEntity
  8
corregido
  100
AcDbText
  10
613280.7257520553
  20
1321911.8286678798
  30
0.0
  40
0.5
  1
corregido
  39
0.0
  50
0.0
  100
AcDbText
  0
POINT
  5
257E
330
1F
100
AcDbEntity
  8
corregido
100
AcDbPoint
 10
613270.7447287053
 20
1321918.6284866352
 30
58.818663883779
  0
TEXT
  5
2581
330
1F
  100
AcDbEntity
  8
corregido
  100
AcDbText
  10
613270.7447287053
  20
1321918.8784866352
  30
0.0
  40
0.5
  1
p91
  39
0.0
  50
0.0
  100
AcDbText
  0
TEXT
  5
2584
330
1F
  100
AcDbEntity
  8
corregido
  100
AcDbText
  10
613270.7447287053
  20
1321917.8784866352
  30
0.0
  40
0.5
  1
corregido
  39
0.0
  50
0.0
  100
AcDbText
  0
POINT
  5
2585
330
1F
100
AcDbEntity
  8
corregido
100
AcDbPoint
 10
613278.8806354557
 20
1321932.312512604
 30
58.483791738128
  0
TEXT
  5
2588
330
1F
  100
AcDbEntity
  8
corregido
  100
AcDbText
  10
613278.8806354557
  20
1321932.562512604
  30
0.0
  40
0.5
  1
p92
  39
0.0
  50
0.0
  100
AcDbText
  0
TEXT
  5
258B
330
1F
  100
AcDbEntity
  8
corregido
  100
AcDbText
  10
613278.8806354557
  20
1321931.562512604
  30
0.0
  40
0.5
  1
corregido
  39
0.0
  50
0.0
  100
AcDbText
  0
POINT
  5
258C
330
1F
100
AcDbEntity
  8
corregido
100
AcDbPoint
 10
613268.8136230157
 20
1321938.2935424906
 30
58.290843257017
  0
TEXT
  5
258F
330
1F
  100
AcDbEntity
  8
corregido
  100
AcDbText
  10
613268.8136230157
  20
1321938.5435424906
  30
0.0
  40
0.5
  1
p93
  39
0.0
  50
0.0
  100
AcDbText
  0
TEXT
  5
2592
330
1F
  100
AcDbEntity
  8
corregido
  100
AcDbText
  10
613268.8136230157
  20
1321937.5435424906
  30
0.0
  40
0.5
  1
corregido
  39
0.0
  50
0.0
  100
AcDbText
  0
POINT
  5
2593
330
1F
100
AcDbEntity
  8
corregido
100
AcDbPoint
 10
613260.6637353897
 20
1321924.5432621916
 30
58.676019701159
  0
TEXT
  5
2596
330
1F
  100
AcDbEntity
  8
corregido
  100
AcDbText
  10
613260.6637353897
  20
1321924.7932621916
  30
0.0
  40
0.5
  1
p94
  39
0.0
  50
0.0
  100
AcDbText
  0
TEXT
  5
2599
330
1F
  100
AcDbEntity
  8
corregido
  100
AcDbText
  10
613260.6637353897
  20
1321923.7932621916
  30
0.0
  40
0.5
  1
corregido
  39
0.0
  50
0.0
  100
AcDbText
  0
POINT
  5
259A
330
1F
100
AcDbEntity
  8
corregido
100
AcDbPoint
 10
613250.5722365694
 20
1321930.454858364
 30
58.534311718043
  0
TEXT
  5
259D
330
1F
  100
AcDbEntity
  8
corregido
  100
AcDbText
  10
613250.5722365694
  20
1321930.704858364
  30
0.0
  40
0.5
  1
p95
  39
0.0
  50
0.0
  100
AcDbText
  0
TEXT
  5
25A0
330
1F
  100
AcDbEntity
  8
corregido
  100
AcDbText
  10
613250.5722365694
  20
1321929.704858364
  30
0.0
  40
0.5
  1
corregido
  39
0.0
  50
0.0
  100
AcDbText
  0
POINT
  5
25A1
330
1F
100
AcDbEntity
  8
corregido
100
AcDbPoint
 10
613258.7023243299
 20
1321944.2293116366
 30
58.067467079541
  0
TEXT
  5
25A4
330
1F
  100
AcDbEntity
  8
corregido
  100
AcDbText
  10
613258.7023243299
  20
1321944.4793116366
  30
0.0
  40
0.5
  1
p96
  39
0.0
  50
0.0
  100
AcDbText
  0
TEXT
  5
25A7
330
1F
  100
AcDbEntity
  8
corregido
  100
AcDbText
  10
613258.7023243299
  20
1321943.4793116366
  30
0.0
  40
0.5
  1
corregido
  39
0.0
  50
0.0
  100
AcDbText
  0
POINT
  5
25A8
330
1F
100
AcDbEntity
  8
corregido
100
AcDbPoint
 10
613248.6567015138
 20
1321950.2542329365
 30
58.055890270733
  0
TEXT
  5
25AB
330
1F
  100
AcDbEntity
  8
corregido
  100
AcDbText
  10
613248.6567015138
  20
1321950.5042329365
  30
0.0
  40
0.5
  1
p97
  39
0.0
  50
0.0
  100
AcDbText
  0
TEXT
  5
25AE
330
1F
  100
AcDbEntity
  8
corregido
  100
AcDbText
  10
613248.6567015138
  20
1321949.5042329365
  30
0.0
  40
0.5
  1
corregido
  39
0.0
  50
0.0
  100
AcDbText
  0
POINT
  5
25AF
330
1F
100
AcDbEntity
  8
corregido
100
AcDbPoint
 10
613240.6142830026
 20
1321936.6090354144
 30
58.321256761243
  0
TEXT
  5
25B2
330
1F
  100
AcDbEntity
  8
corregido
  100
AcDbText
  10
613240.6142830026
  20
1321936.8590354144
  30
0.0
  40
0.5
  1
p98
  39
0.0
  50
0.0
  100
AcDbText
  0
TEXT
  5
25B5
330
1F
  100
AcDbEntity
  8
corregido
  100
AcDbText
  10
613240.6142830026
  20
1321935.8590354144
  30
0.0
  40
0.5
  1
corregido
  39
0.0
  50
0.0
  100
AcDbText
  0
POINT
  5
25B6
330
1F
100
AcDbEntity
  8
corregido
100
AcDbPoint
 10
613230.4341578679
 20
1321942.3720627744
 30
58.374842297301
  0
TEXT
  5
25B9
330
1F
  100
AcDbEntity
  8
corregido
  100
AcDbText
  10
613230.4341578679
  20
1321942.6220627744
  30
0.0
  40
0.5
  1
p99
  39
0.0
  50
0.0
  100
AcDbText
  0
TEXT
  5
25BC
330
1F
  100
AcDbEntity
  8
corregido
  100
AcDbText
  10
613230.4341578679
  20
1321941.6220627744
  30
0.0
  40
0.5
  1
corregido
  39
0.0
  50
0.0
  100
AcDbText
  0
POINT
  5
25BD
330
1F
100
AcDbEntity
  8
corregido
100
AcDbPoint
 10
613238.5215362726
 20
1321956.1527744222
 30
58.037857895038
  0
TEXT
  5
25C0
330
1F
  100
AcDbEntity
  8
corregido
  100
AcDbText
  10
613238.5215362726
  20
1321956.4027744222
  30
0.0
  40
0.5
  1
p100
  39
0.0
  50
0.0
  100
AcDbText
  0
TEXT
  5
25C3
330
1F
  100
AcDbEntity
  8
corregido
  100
AcDbText
  10
613238.5215362726
  20
1321955.4027744222
  30
0.0
  40
0.5
  1
corregido
  39
0.0
  50
0.0
  100
AcDbText
  0
POINT
  5
25C4
330
1F
100
AcDbEntity
  8
corregido
100
AcDbPoint
 10
613216.0211230102
 20
1321969.4757952162
 30
57.208649738606
  0
TEXT
  5
25C7
330
1F
  100
AcDbEntity
  8
corregido
  100
AcDbText
  10
613216.0211230102
  20
1321969.7257952162
  30
0.0
  40
0.5
  1
p102
  39
0.0
  50
0.0
  100
AcDbText
  0
TEXT
  5
25CA
330
1F
  100
AcDbEntity
  8
corregido
  100
AcDbText
  10
613216.0211230102
  20
1321968.7257952162
  30
0.0
  40
0.5
  1
corregido
  39
0.0
  50
0.0
  100
AcDbText
  0
POINT
  5
25CB
330
1F
100
AcDbEntity
  8
lote 13
100
AcDbPoint
 10
613242.0586057423
 20
1321936.0617322011
 30
61.771367634464
  0
TEXT
  5
25CE
330
1F
  100
AcDbEntity
  8
lote 13
  100
AcDbText
  10
613242.0586057423
  20
1321936.3117322011
  30
0.0
  40
0.5
  1
p41
  39
0.0
  50
0.0
  100
AcDbText
  0
TEXT
  5
25D1
330
1F
  100
AcDbEntity
  8
lote 13
  100
AcDbText
  10
613242.0586057423
  20
1321935.3117322011
  30
0.0
  40
0.5
  1
lote 13
  39
0.0
  50
0.0
  100
AcDbText
  0
POINT
  5
25D2
330
1F
100
AcDbEntity
  8
lote 13
100
AcDbPoint
 10
613252.019040584
 20
1321929.9147255716
 30
61.829982953355
  0
TEXT
  5
25D5
330
1F
  100
AcDbEntity
  8
lote 13
  100
AcDbText
  10
613252.019040584
  20
1321930.1647255716
  30
0.0
  40
0.5
  1
p42
  39
0.0
  50
0.0
  100
AcDbText
  0
TEXT
  5
25D8
330
1F
  100
AcDbEntity
  8
lote 13
  100
AcDbText
  10
613252.019040584
  20
1321929.1647255716
  30
0.0
  40
0.5
  1
lote 13
  39
0.0
  50
0.0
  100
AcDbText
  0
POINT
  5
25D9
330
1F
100
AcDbEntity
  8
lote16
100
AcDbPoint
 10
613262.0830619105
 20
1321924.094013735
 30
61.885876272298
  0
TEXT
  5
25DC
330
1F
  100
AcDbEntity
  8
lote16
  100
AcDbText
  10
613262.0830619105
  20
1321924.344013735
  30
0.0
  40
0.5
  1
p43
  39
0.0
  50
0.0
  100
AcDbText
  0
TEXT
  5
25DF
330
1F
  100
AcDbEntity
  8
lote16
  100
AcDbText
  10
613262.0830619105
  20
1321923.344013735
  30
0.0
  40
0.5
  1
lote16
  39
0.0
  50
0.0
  100
AcDbText
  0
POINT
  5
25E0
330
1F
100
AcDbEntity
  8
lote17
100
AcDbPoint
 10
613272.1434708044
 20
1321918.1941102261
 30
62.17375910947
  0
TEXT
  5
25E3
330
1F
  100
AcDbEntity
  8
lote17
  100
AcDbText
  10
613272.1434708044
  20
1321918.4441102261
  30
0.0
  40
0.5
  1
p44
  39
0.0
  50
0.0
  100
AcDbText
  0
TEXT
  5
25E6
330
1F
  100
AcDbEntity
  8
lote17
  100
AcDbText
  10
613272.1434708044
  20
1321917.4441102261
  30
0.0
  40
0.5
  1
lote17
  39
0.0
  50
0.0
  100
AcDbText
  0
POINT
  5
25E7
330
1F
100
AcDbEntity
  8
lote18
100
AcDbPoint
 10
613282.215210333
 20
1321912.1411135816
 30
62.246738942428
  0
TEXT
  5
25EA
330
1F
  100
AcDbEntity
  8
lote18
  100
AcDbText
  10
613282.215210333
  20
1321912.3911135816
  30
0.0
  40
0.5
  1
p45
  39
0.0
  50
0.0
  100
AcDbText
  0
TEXT
  5
25ED
330
1F
  100
AcDbEntity
  8
lote18
  100
AcDbText
  10
613282.215210333
  20
1321911.3911135816
  30
0.0
  40
0.5
  1
lote18
  39
0.0
  50
0.0
  100
AcDbText
  0
POINT
  5
25EE
330
1F
100
AcDbEntity
  8
lote19
100
AcDbPoint
 10
613292.281040243
 20
1321906.1330945108
 30
62.213555597912
  0
TEXT
  5
25F1
330
1F
  100
AcDbEntity
  8
lote19
  100
AcDbText
  10
613292.281040243
  20
1321906.3830945108
  30
0.0
  40
0.5
  1
p46
  39
0.0
  50
0.0
  100
AcDbText
  0
TEXT
  5
25F4
330
1F
  100
AcDbEntity
  8
lote19
  100
AcDbText
  10
613292.281040243
  20
1321905.3830945108
  30
0.0
  40
0.5
  1
lote19
  39
0.0
  50
0.0
  100
AcDbText
  0
POINT
  5
25F5
330
1F
100
AcDbEntity
  8
lote19
100
AcDbPoint
 10
613300.4289176399
 20
1321919.809343693
 30
61.878678740971
  0
TEXT
  5
25F8
330
1F
  100
AcDbEntity
  8
lote19
  100
AcDbText
  10
613300.4289176399
  20
1321920.059343693
  30
0.0
  40
0.5
  1
p47
  39
0.0
  50
0.0
  100
AcDbText
  0
TEXT
  5
25FB
330
1F
  100
AcDbEntity
  8
lote19
  100
AcDbText
  10
613300.4289176399
  20
1321919.059343693
  30
0.0
  40
0.5
  1
lote19
  39
0.0
  50
0.0
  100
AcDbText
  0
POINT
  5
25FC
330
1F
100
AcDbEntity
  8
lote19
100
AcDbPoint
 10
613290.3178167641
 20
1321925.8029505939
 30
61.936277191393
  0
TEXT
  5
25FF
330
1F
  100
AcDbEntity
  8
lote19
  100
AcDbText
  10
613290.3178167641
  20
1321926.0529505939
  30
0.0
  40
0.5
  1
p48
  39
0.0
  50
0.0
  100
AcDbText
  0
TEXT
  5
2602
330
1F
  100
AcDbEntity
  8
lote19
  100
AcDbText
  10
613290.3178167641
  20
1321925.0529505939
  30
0.0
  40
0.5
  1
lote19
  39
0.0
  50
0.0
  100
AcDbText
  0
POINT
  5
2603
330
1F
100
AcDbEntity
  8
lote18
100
AcDbPoint
 10
613280.2496688938
 20
1321931.7730653298
 30
61.88313790767
  0
TEXT
  5
2606
330
1F
  100
AcDbEntity
  8
lote18
  100
AcDbText
  10
613280.2496688938
  20
1321932.0230653298
  30
0.0
  40
0.5
  1
p49
  39
0.0
  50
0.0
  100
AcDbText
  0
TEXT
  5
2609
330
1F
  100
AcDbEntity
  8
lote18
  100
AcDbText
  10
613280.2496688938
  20
1321931.0230653298
  30
0.0
  40
0.5
  1
lote18
  39
0.0
  50
0.0
  100
AcDbText
  0
POINT
  5
260A
330
1F
100
AcDbEntity
  8
lote17
100
AcDbPoint
 10
613270.2487099868
 20
1321937.7067830027
 30
61.730979375606
  0
TEXT
  5
260D
330
1F
  100
AcDbEntity
  8
lote17
  100
AcDbText
  10
613270.2487099868
  20
1321937.9567830027
  30
0.0
  40
0.5
  1
p50
  39
0.0
  50
0.0
  100
AcDbText
  0
TEXT
  5
2610
330
1F
  100
AcDbEntity
  8
lote17
  100
AcDbText
  10
613270.2487099868
  20
1321936.9567830027
  30
0.0
  40
0.5
  1
lote17
  39
0.0
  50
0.0
  100
AcDbText
  0
POINT
  5
2611
330
1F
100
AcDbEntity
  8
lote16
100
AcDbPoint
 10
613260.1973165268
 20
1321943.6915972317
 30
61.468801591556
  0
TEXT
  5
2614
330
1F
  100
AcDbEntity
  8
lote16
  100
AcDbText
  10
613260.1973165268
  20
1321943.9415972317
  30
0.0
  40
0.5
  1
p51
  39
0.0
  50
0.0
  100
AcDbText
  0
TEXT
  5
2617
330
1F
  100
AcDbEntity
  8
lote16
  100
AcDbText
  10
613260.1973165268
  20
1321942.9415972317
  30
0.0
  40
0.5
  1
lote16
  39
0.0
  50
0.0
  100
AcDbText
  0
POINT
  5
2618
330
1F
100
AcDbEntity
  8
lote13
100
AcDbPoint
 10
613250.1222775249
 20
1321949.7253430376
 30
61.444671565693
  0
TEXT
  5
261B
330
1F
  100
AcDbEntity
  8
lote13
  100
AcDbText
  10
613250.1222775249
  20
1321949.9753430376
  30
0.0
  40
0.5
  1
p52
  39
0.0
  50
0.0
  100
AcDbText
  0
TEXT
  5
261E
330
1F
  100
AcDbEntity
  8
lote13
  100
AcDbText
  10
613250.1222775249
  20
1321948.9753430376
  30
0.0
  40
0.5
  1
lote13
  39
0.0
  50
0.0
  100
AcDbText
  0
POINT
  5
261F
330
1F
100
AcDbEntity
  8
lote10
100
AcDbPoint
 10
613215.4318197136
 20
1321977.3218876258
 30
60.262448639076
  0
TEXT
  5
2622
330
1F
  100
AcDbEntity
  8
lote10
  100
AcDbText
  10
613215.4318197136
  20
1321977.5718876258
  30
0.0
  40
0.5
  1
p53
  39
0.0
  50
0.0
  100
AcDbText
  0
TEXT
  5
2625
330
1F
  100
AcDbEntity
  8
lote10
  100
AcDbText
  10
613215.4318197136
  20
1321976.5718876258
  30
0.0
  40
0.5
  1
lote10
  39
0.0
  50
0.0
  100
AcDbText
  0
POINT
  5
2626
330
1F
100
AcDbEntity
  8
lote10
100
AcDbPoint
 10
613224.7099273814
 20
1321992.729564038
 30
60.052709077919
  0
TEXT
  5
2629
330
1F
  100
AcDbEntity
  8
lote10
  100
AcDbText
  10
613224.7099273814
  20
1321992.979564038
  30
0.0
  40
0.5
  1
p54
  39
0.0
  50
0.0
  100
AcDbText
  0
TEXT
  5
262C
330
1F
  100
AcDbEntity
  8
lote10
  100
AcDbText
  10
613224.7099273814
  20
1321991.979564038
  30
0.0
  40
0.5
  1
lote10
  39
0.0
  50
0.0
  100
AcDbText
  0
POINT
  5
262D
330
1F
100
AcDbEntity
  8
lote10
100
AcDbPoint
 10
613233.6737962547
 20
1321987.5131230985
 30
60.322889551569
  0
TEXT
  5
2630
330
1F
  100
AcDbEntity
  8
lote10
  100
AcDbText
  10
613233.6737962547
  20
1321987.7631230985
  30
0.0
  40
0.5
  1
p55
  39
0.0
  50
0.0
  100
AcDbText
  0
TEXT
  5
2633
330
1F
  100
AcDbEntity
  8
lote10
  100
AcDbText
  10
613233.6737962547
  20
1321986.7631230985
  30
0.0
  40
0.5
  1
lote10
  39
0.0
  50
0.0
  100
AcDbText
  0
POINT
  5
2634
330
1F
100
AcDbEntity
  8
lote10
100
AcDbPoint
 10
613224.1767952051
 20
1321971.9591644632
 30
60.665187717194
  0
TEXT
  5
2637
330
1F
  100
AcDbEntity
  8
lote10
  100
AcDbText
  10
613224.1767952051
  20
1321972.2091644632
  30
0.0
  40
0.5
  1
p57
  39
0.0
  50
0.0
  100
AcDbText
  0
TEXT
  5
263A
330
1F
  100
AcDbEntity
  8
lote10
  100
AcDbText
  10
613224.1767952051
  20
1321971.2091644632
  30
0.0
  40
0.5
  1
lote10
  39
0.0
  50
0.0
  100
AcDbText
  0
POINT
  5
263B
330
1F
100
AcDbEntity
  8
lote 9
100
AcDbPoint
 10
613233.1302220472
 20
1321966.779264704
 30
60.942317220647
  0
TEXT
  5
263E
330
1F
  100
AcDbEntity
  8
lote 9
  100
AcDbText
  10
613233.1302220472
  20
1321967.029264704
  30
0.0
  40
0.5
  1
p58
  39
0.0
  50
0.0
  100
AcDbText
  0
TEXT
  5
2641
330
1F
  100
AcDbEntity
  8
lote 9
  100
AcDbText
  10
613233.1302220472
  20
1321966.029264704
  30
0.0
  40
0.5
  1
lote 9
  39
0.0
  50
0.0
  100
AcDbText
  0
POINT
  5
2642
330
1F
100
AcDbEntity
  8
lote 9
100
AcDbPoint
 10
613242.5057371974
 20
1321982.3573925556
 30
60.599327632228
  0
TEXT
  5
2645
330
1F
  100
AcDbEntity
  8
lote 9
  100
AcDbText
  10
613242.5057371974
  20
1321982.6073925556
  30
0.0
  40
0.5
  1
p59
  39
0.0
  50
0.0
  100
AcDbText
  0
TEXT
  5
2648
330
1F
  100
AcDbEntity
  8
lote 9
  100
AcDbText
  10
613242.5057371974
  20
1321981.6073925556
  30
0.0
  40
0.5
  1
lote 9
  39
0.0
  50
0.0
  100
AcDbText
  0
POINT
  5
2649
330
1F
100
AcDbEntity
  8
lote 7
100
AcDbPoint
 10
613242.1084176699
 20
1321961.4218244792
 30
61.123563539356
  0
TEXT
  5
264C
330
1F
  100
AcDbEntity
  8
lote 7
  100
AcDbText
  10
613242.1084176699
  20
1321961.6718244792
  30
0.0
  40
0.5
  1
p60
  39
0.0
  50
0.0
  100
AcDbText
  0
TEXT
  5
264F
330
1F
  100
AcDbEntity
  8
lote 7
  100
AcDbText
  10
613242.1084176699
  20
1321960.6718244792
  30
0.0
  40
0.5
  1
lote 7
  39
0.0
  50
0.0
  100
AcDbText
  0
POINT
  5
2650
330
1F
100
AcDbEntity
  8
lote 7
100
AcDbPoint
 10
613250.9556841645
 20
1321956.0742423446
 30
61.377982198586
  0
TEXT
  5
2653
330
1F
  100
AcDbEntity
  8
lote 7
  100
AcDbText
  10
613250.9556841645
  20
1321956.3242423446
  30
0.0
  40
0.5
  1
p61
  39
0.0
  50
0.0
  100
AcDbText
  0
TEXT
  5
2656
330
1F
  100
AcDbEntity
  8
lote 7
  100
AcDbText
  10
613250.9556841645
  20
1321955.3242423446
  30
0.0
  40
0.5
  1
lote 7
  39
0.0
  50
0.0
  100
AcDbText
  0
POINT
  5
2657
330
1F
100
AcDbEntity
  8
lote 7
100
AcDbPoint
 10
613260.2384235236
 20
1321971.7390098423
 30
60.822530763117
  0
TEXT
  5
265A
330
1F
  100
AcDbEntity
  8
lote 7
  100
AcDbText
  10
613260.2384235236
  20
1321971.9890098423
  30
0.0
  40
0.5
  1
p62
  39
0.0
  50
0.0
  100
AcDbText
  0
TEXT
  5
265D
330
1F
  100
AcDbEntity
  8
lote 7
  100
AcDbText
  10
613260.2384235236
  20
1321970.9890098423
  30
0.0
  40
0.5
  1
lote 7
  39
0.0
  50
0.0
  100
AcDbText
  0
POINT
  5
265E
330
1F
100
AcDbEntity
  8
lote 7
100
AcDbPoint
 10
613269.1514044036
 20
1321966.602263238
 30
60.934703180396
  0
TEXT
  5
2661
330
1F
  100
AcDbEntity
  8
lote 7
  100
AcDbText
  10
613269.1514044036
  20
1321966.852263238
  30
0.0
  40
0.5
  1
p63
  39
0.0
  50
0.0
  100
AcDbText
  0
TEXT
  5
2664
330
1F
  100
AcDbEntity
  8
lote 7
  100
AcDbText
  10
613269.1514044036
  20
1321965.852263238
  30
0.0
  40
0.5
  1
lote 7
  39
0.0
  50
0.0
  100
AcDbText
  0
POINT
  5
2665
330
1F
100
AcDbEntity
  8
lote 5
100
AcDbPoint
 10
613259.958106663
 20
1321950.9237109702
 30
61.304725975418
  0
TEXT
  5
2668
330
1F
  100
AcDbEntity
  8
lote 5
  100
AcDbText
  10
613259.958106663
  20
1321951.1737109702
  30
0.0
  40
0.5
  1
p64
  39
0.0
  50
0.0
  100
AcDbText
  0
TEXT
  5
266B
330
1F
  100
AcDbEntity
  8
lote 5
  100
AcDbText
  10
613259.958106663
  20
1321950.1737109702
  30
0.0
  40
0.5
  1
lote 5
  39
0.0
  50
0.0
  100
AcDbText
  0
POINT
  5
266C
330
1F
100
AcDbEntity
  8
lote 5
100
AcDbPoint
 10
613268.7935837598
 20
1321945.5803697226
 30
61.366341749629
  0
TEXT
  5
266F
330
1F
  100
AcDbEntity
  8
lote 5
  100
AcDbText
  10
613268.7935837598
  20
1321945.8303697226
  30
0.0
  40
0.5
  1
p65
  39
0.0
  50
0.0
  100
AcDbText
  0
TEXT
  5
2672
330
1F
  100
AcDbEntity
  8
lote 5
  100
AcDbText
  10
613268.7935837598
  20
1321944.8303697226
  30
0.0
  40
0.5
  1
lote 5
  39
0.0
  50
0.0
  100
AcDbText
  0
POINT
  5
2673
330
1F
100
AcDbEntity
  8
lote 5
100
AcDbPoint
 10
613278.2145997443
 20
1321961.179998182
 30
61.095284093275
  0
TEXT
  5
2676
330
1F
  100
AcDbEntity
  8
lote 5
  100
AcDbText
  10
613278.2145997443
  20
1321961.429998182
  30
0.0
  40
0.5
  1
p66
  39
0.0
  50
0.0
  100
AcDbText
  0
TEXT
  5
2679
330
1F
  100
AcDbEntity
  8
lote 5
  100
AcDbText
  10
613278.2145997443
  20
1321960.429998182
  30
0.0
  40
0.5
  1
lote 5
  39
0.0
  50
0.0
  100
AcDbText
  0
POINT
  5
267A
330
1F
100
AcDbEntity
  8
lote 5
100
AcDbPoint
 10
613286.8806563225
 20
1321955.8412762228
 30
61.064730894902
  0
TEXT
  5
267D
330
1F
  100
AcDbEntity
  8
lote 5
  100
AcDbText
  10
613286.8806563225
  20
1321956.0912762228
  30
0.0
  40
0.5
  1
p67
  39
0.0
  50
0.0
  100
AcDbText
  0
TEXT
  5
2680
330
1F
  100
AcDbEntity
  8
lote 5
  100
AcDbText
  10
613286.8806563225
  20
1321955.0912762228
  30
0.0
  40
0.5
  1
lote 5
  39
0.0
  50
0.0
  100
AcDbText
  0
POINT
  5
2681
330
1F
100
AcDbEntity
  8
lote 5
100
AcDbPoint
 10
613277.5268803644
 20
1321940.081621598
 30
61.413091414655
  0
TEXT
  5
2684
330
1F
  100
AcDbEntity
  8
lote 5
  100
AcDbText
  10
613277.5268803644
  20
1321940.331621598
  30
0.0
  40
0.5
  1
p68
  39
0.0
  50
0.0
  100
AcDbText
  0
TEXT
  5
2687
330
1F
  100
AcDbEntity
  8
lote 5
  100
AcDbText
  10
613277.5268803644
  20
1321939.331621598
  30
0.0
  40
0.5
  1
lote 5
  39
0.0
  50
0.0
  100
AcDbText
  0
POINT
  5
2688
330
1F
100
AcDbEntity
  8
lote 5
100
AcDbPoint
 10
613295.6267197285
 20
1321950.7397605905
 30
61.223036779755
  0
TEXT
  5
268B
330
1F
  100
AcDbEntity
  8
lote 5
  100
AcDbText
  10
613295.6267197285
  20
1321950.9897605905
  30
0.0
  40
0.5
  1
p69
  39
0.0
  50
0.0
  100
AcDbText
  0
TEXT
  5
268E
330
1F
  100
AcDbEntity
  8
lote 5
  100
AcDbText
  10
613295.6267197285
  20
1321949.9897605905
  30
0.0
  40
0.5
  1
lote 5
  39
0.0
  50
0.0
  100
AcDbText
  0
POINT
  5
268F
330
1F
100
AcDbEntity
  8
lote 5
100
AcDbPoint
 10
613286.4345844857
 20
1321934.8718596934
 30
61.520130552141
  0
TEXT
  5
2692
330
1F
  100
AcDbEntity
  8
lote 5
  100
AcDbText
  10
613286.4345844857
  20
1321935.1218596934
  30
0.0
  40
0.5
  1
p70
  39
0.0
  50
0.0
  100
AcDbText
  0
TEXT
  5
2695
330
1F
  100
AcDbEntity
  8
lote 5
  100
AcDbText
  10
613286.4345844857
  20
1321934.1218596934
  30
0.0
  40
0.5
  1
lote 5
  39
0.0
  50
0.0
  100
AcDbText
  0
POINT
  5
2696
330
1F
100
AcDbEntity
  8
lote 5
100
AcDbPoint
 10
613295.3212665373
 20
1321929.7768288348
 30
61.667065682334
  0
TEXT
  5
2699
330
1F
  100
AcDbEntity
  8
lote 5
  100
AcDbText
  10
613295.3212665373
  20
1321930.0268288348
  30
0.0
  40
0.5
  1
p71
  39
0.0
  50
0.0
  100
AcDbText
  0
TEXT
  5
269C
330
1F
  100
AcDbEntity
  8
lote 5
  100
AcDbText
  10
613295.3212665373
  20
1321929.0268288348
  30
0.0
  40
0.5
  1
lote 5
  39
0.0
  50
0.0
  100
AcDbText
  0
POINT
  5
269D
330
1F
100
AcDbEntity
  8
lote 5
100
AcDbPoint
 10
613295.3508437262
 20
1321929.773217683
 30
61.463755828158
  0
TEXT
  5
26A0
330
1F
  100
AcDbEntity
  8
lote 5
  100
AcDbText
  10
613295.3508437262
  20
1321930.023217683
  30
0.0
  40
0.5
  1
p72
  39
0.0
  50
0.0
  100
AcDbText
  0
TEXT
  5
26A3
330
1F
  100
AcDbEntity
  8
lote 5
  100
AcDbText
  10
613295.3508437262
  20
1321929.023217683
  30
0.0
  40
0.5
  1
lote 5
  39
0.0
  50
0.0
  100
AcDbText
  0
POINT
  5
26A4
330
1F
100
AcDbEntity
  8
punto
100
AcDbPoint
 10
613322.4025588789
 20
1321934.4175157214
 30
52.140387729542
  0
TEXT
  5
26A7
330
1F
  100
AcDbEntity
  8
punto
  100
AcDbText
  10
613322.4025588789
  20
1321934.6675157214
  30
0.0
  40
0.5
  1
p1
  39
0.0
  50
0.0
  100
AcDbText
  0
TEXT
  5
26AA
330
1F
  100
AcDbEntity
  8
punto
  100
AcDbText
  10
613322.4025588789
  20
1321933.6675157214
  30
0.0
  40
0.5
  1
punto
  39
0.0
  50
0.0
  100
AcDbText
  0
POINT
  5
26AB
330
1F
100
AcDbEntity
  8
camino
100
AcDbPoint
 10
613329.7973904952
 20
1321933.6404261265
 30
52.662115158825
  0
TEXT
  5
26AE
330
1F
  100
AcDbEntity
  8
camino
  100
AcDbText
  10
613329.7973904952
  20
1321933.8904261265
  30
0.0
  40
0.5
  1
p2
  39
0.0
  50
0.0
  100
AcDbText
  0
TEXT
  5
26B1
330
1F
  100
AcDbEntity
  8
camino
  100
AcDbText
  10
613329.7973904952
  20
1321932.8904261265
  30
0.0
  40
0.5
  1
camino
  39
0.0
  50
0.0
  100
AcDbText
  0
POINT
  5
26B2
330
1F
100
AcDbEntity
  8
punto
100
AcDbPoint
 10
613320.7027463806
 20
1321923.1096955799
 30
52.359625905201
  0
TEXT
  5
26B5
330
1F
  100
AcDbEntity
  8
punto
  100
AcDbText
  10
613320.7027463806
  20
1321923.3596955799
  30
0.0
  40
0.5
  1
p3
  39
0.0
  50
0.0
  100
AcDbText
  0
TEXT
  5
26B8
330
1F
  100
AcDbEntity
  8
punto
  100
AcDbText
  10
613320.7027463806
  20
1321922.3596955799
  30
0.0
  40
0.5
  1
punto
  39
0.0
  50
0.0
  100
AcDbText
  0
POINT
  5
26B9
330
1F
100
AcDbEntity
  8
camino
100
AcDbPoint
 10
613328.1316396603
 20
1321922.3072324034
 30
53.053828610096
  0
TEXT
  5
26BC
330
1F
  100
AcDbEntity
  8
camino
  100
AcDbText
  10
613328.1316396603
  20
1321922.5572324034
  30
0.0
  40
0.5
  1
p4
  39
0.0
  50
0.0
  100
AcDbText
  0
TEXT
  5
26BF
330
1F
  100
AcDbEntity
  8
camino
  100
AcDbText
  10
613328.1316396603
  20
1321921.5572324034
  30
0.0
  40
0.5
  1
camino
  39
0.0
  50
0.0
  100
AcDbText
  0
POINT
  5
26C0
330
1F
100
AcDbEntity
  8
punto
100
AcDbPoint
 10
613308.1122323509
 20
1321882.7911111931
 30
52.687264519559
  0
TEXT
  5
26C3
330
1F
  100
AcDbEntity
  8
punto
  100
AcDbText
  10
613308.1122323509
  20
1321883.0411111931
  30
0.0
  40
0.5
  1
p5
  39
0.0
  50
0.0
  100
AcDbText
  0
TEXT
  5
26C6
330
1F
  100
AcDbEntity
  8
punto
  100
AcDbText
  10
613308.1122323509
  20
1321882.0411111931
  30
0.0
  40
0.5
  1
punto
  39
0.0
  50
0.0
  100
AcDbText
  0
POINT
  5
26C7
330
1F
100
AcDbEntity
  8
camino
100
AcDbPoint
 10
613315.5276131848
 20
1321876.3987297916
 30
54.496885268821
  0
TEXT
  5
26CA
330
1F
  100
AcDbEntity
  8
camino
  100
AcDbText
  10
613315.5276131848
  20
1321876.6487297916
  30
0.0
  40
0.5
  1
p6
  39
0.0
  50
0.0
  100
AcDbText
  0
TEXT
  5
26CD
330
1F
  100
AcDbEntity
  8
camino
  100
AcDbText
  10
613315.5276131848
  20
1321875.6487297916
  30
0.0
  40
0.5
  1
camino
  39
0.0
  50
0.0
  100
AcDbText
  0
POINT
  5
26CE
330
1F
100
AcDbEntity
  8
punto
100
AcDbPoint
 10
613303.0394193602
 20
1321885.6702481331
 30
56.084980072776
  0
TEXT
  5
26D1
330
1F
  100
AcDbEntity
  8
punto
  100
AcDbText
  10
613303.0394193602
  20
1321885.9202481331
  30
0.0
  40
0.5
  1
p7
  39
0.0
  50
0.0
  100
AcDbText
  0
TEXT
  5
26D4
330
1F
  100
AcDbEntity
  8
punto
  100
AcDbText
  10
613303.0394193602
  20
1321884.9202481331
  30
0.0
  40
0.5
  1
punto
  39
0.0
  50
0.0
  100
AcDbText
  0
POINT
  5
26D5
330
1F
100
AcDbEntity
  8
punto
100
AcDbPoint
 10
613298.6294141714
 20
1321881.0005518196
 30
56.605483171925
  0
TEXT
  5
26D8
330
1F
  100
AcDbEntity
  8
punto
  100
AcDbText
  10
613298.6294141714
  20
1321881.2505518196
  30
0.0
  40
0.5
  1
p8
  39
0.0
  50
0.0
  100
AcDbText
  0
TEXT
  5
26DB
330
1F
  100
AcDbEntity
  8
punto
  100
AcDbText
  10
613298.6294141714
  20
1321880.2505518196
  30
0.0
  40
0.5
  1
punto
  39
0.0
  50
0.0
  100
AcDbText
  0
POINT
  5
26DC
330
1F
100
AcDbEntity
  8
punto
100
AcDbPoint
 10
613294.783572395
 20
1321875.5648856717
 30
56.347442496861
  0
TEXT
  5
26DF
330
1F
  100
AcDbEntity
  8
punto
  100
AcDbText
  10
613294.783572395
  20
1321875.8148856717
  30
0.0
  40
0.5
  1
p9
  39
0.0
  50
0.0
  100
AcDbText
  0
TEXT
  5
26E2
330
1F
  100
AcDbEntity
  8
punto
  100
AcDbText
  10
613294.783572395
  20
1321874.8148856717
  30
0.0
  40
0.5
  1
punto
  39
0.0
  50
0.0
  100
AcDbText
  0
POINT
  5
26E3
330
1F
100
AcDbEntity
  8
l10
100
AcDbPoint
 10
613289.3263012554
 20
1321878.094542919
 30
56.243087198913
  0
TEXT
  5
26E6
330
1F
  100
AcDbEntity
  8
l10
  100
AcDbText
  10
613289.3263012554
  20
1321878.344542919
  30
0.0
  40
0.5
  1
p10
  39
0.0
  50
0.0
  100
AcDbText
  0
TEXT
  5
26E9
330
1F
  100
AcDbEntity
  8
l10
  100
AcDbText
  10
613289.3263012554
  20
1321877.344542919
  30
0.0
  40
0.5
  1
l10
  39
0.0
  50
0.0
  100
AcDbText
  0
POINT
  5
26EA
330
1F
100
AcDbEntity
  8
l10
100
AcDbPoint
 10
613298.532257761
 20
1321893.7939810758
 30
55.795867436226
  0
TEXT
  5
26ED
330
1F
  100
AcDbEntity
  8
l10
  100
AcDbText
  10
613298.532257761
  20
1321894.0439810758
  30
0.0
  40
0.5
  1
p11
  39
0.0
  50
0.0
  100
AcDbText
  0
TEXT
  5
26F0
330
1F
  100
AcDbEntity
  8
l10
  100
AcDbText
  10
613298.532257761
  20
1321893.0439810758
  30
0.0
  40
0.5
  1
l10
  39
0.0
  50
0.0
  100
AcDbText
  0
POINT
  5
26F1
330
1F
100
AcDbEntity
  8
l10
100
AcDbPoint
 10
613289.8386748359
 20
1321898.9996787987
 30
55.883359626501
  0
TEXT
  5
26F4
330
1F
  100
AcDbEntity
  8
l10
  100
AcDbText
  10
613289.8386748359
  20
1321899.2496787987
  30
0.0
  40
0.5
  1
p12
  39
0.0
  50
0.0
  100
AcDbText
  0
TEXT
  5
26F7
330
1F
  100
AcDbEntity
  8
l10
  100
AcDbText
  10
613289.8386748359
  20
1321898.2496787987
  30
0.0
  40
0.5
  1
l10
  39
0.0
  50
0.0
  100
AcDbText
  0
POINT
  5
26F8
330
1F
100
AcDbEntity
  8
l10
100
AcDbPoint
 10
613280.3015264666
 20
1321882.9508447526
 30
56.359156717837
  0
TEXT
  5
26FB
330
1F
  100
AcDbEntity
  8
l10
  100
AcDbText
  10
613280.3015264666
  20
1321883.2008447526
  30
0.0
  40
0.5
  1
p13
  39
0.0
  50
0.0
  100
AcDbText
  0
TEXT
  5
26FE
330
1F
  100
AcDbEntity
  8
l10
  100
AcDbText
  10
613280.3015264666
  20
1321882.2008447526
  30
0.0
  40
0.5
  1
l10
  39
0.0
  50
0.0
  100
AcDbText
  0
POINT
  5
26FF
330
1F
100
AcDbEntity
  8
lote 21
100
AcDbPoint
 10
613271.5580430363
 20
1321888.4332600527
 30
56.277291390862
  0
TEXT
  5
2702
330
1F
  100
AcDbEntity
  8
lote 21
  100
AcDbText
  10
613271.5580430363
  20
1321888.6832600527
  30
0.0
  40
0.5
  1
p14
  39
0.0
  50
0.0
  100
AcDbText
  0
TEXT
  5
2705
330
1F
  100
AcDbEntity
  8
lote 21
  100
AcDbText
  10
613271.5580430363
  20
1321887.6832600527
  30
0.0
  40
0.5
  1
lote 21
  39
0.0
  50
0.0
  100
AcDbText
  0
POINT
  5
2706
330
1F
100
AcDbEntity
  8
lote 21
100
AcDbPoint
 10
613280.8013344894
 20
1321904.1385270641
 30
56.016698326182
  0
TEXT
  5
2709
330
1F
  100
AcDbEntity
  8
lote 21
  100
AcDbText
  10
613280.8013344894
  20
1321904.3885270641
  30
0.0
  40
0.5
  1
p15
  39
0.0
  50
0.0
  100
AcDbText
  0
TEXT
  5
270C
330
1F
  100
AcDbEntity
  8
lote 21
  100
AcDbText
  10
613280.8013344894
  20
1321903.3885270641
  30
0.0
  40
0.5
  1
lote 21
  39
0.0
  50
0.0
  100
AcDbText
  0
POINT
  5
270D
330
1F
100
AcDbEntity
  8
lote 21
100
AcDbPoint
 10
613272.1578348938
 20
1321909.4900650515
 30
55.719715297868
  0
TEXT
  5
2710
330
1F
  100
AcDbEntity
  8
lote 21
  100
AcDbText
  10
613272.1578348938
  20
1321909.7400650515
  30
0.0
  40
0.5
  1
p16
  39
0.0
  50
0.0
  100
AcDbText
  0
TEXT
  5
2713
330
1F
  100
AcDbEntity
  8
lote 21
  100
AcDbText
  10
613272.1578348938
  20
1321908.7400650515
  30
0.0
  40
0.5
  1
lote 21
  39
0.0
  50
0.0
  100
AcDbText
  0
POINT
  5
2714
330
1F
100
AcDbEntity
  8
lote 21
100
AcDbPoint
 10
613262.8184479788
 20
1321893.499345744
 30
56.096123789175
  0
TEXT
  5
2717
330
1F
  100
AcDbEntity
  8
lote 21
  100
AcDbText
  10
613262.8184479788
  20
1321893.749345744
  30
0.0
  40
0.5
  1
p17
  39
0.0
  50
0.0
  100
AcDbText
  0
TEXT
  5
271A
330
1F
  100
AcDbEntity
  8
lote 21
  100
AcDbText
  10
613262.8184479788
  20
1321892.749345744
  30
0.0
  40
0.5
  1
lote 21
  39
0.0
  50
0.0
  100
AcDbText
  0
POINT
  5
271B
330
1F
100
AcDbEntity
  8
lote 24
100
AcDbPoint
 10
613253.8873831462
 20
1321898.9371516765
 30
55.869743034474
  0
TEXT
  5
271E
330
1F
  100
AcDbEntity
  8
lote 24
  100
AcDbText
  10
613253.8873831462
  20
1321899.1871516765
  30
0.0
  40
0.5
  1
p18
  39
0.0
  50
0.0
  100
AcDbText
  0
TEXT
  5
2721
330
1F
  100
AcDbEntity
  8
lote 24
  100
AcDbText
  10
613253.8873831462
  20
1321898.1871516765
  30
0.0
  40
0.5
  1
lote 24
  39
0.0
  50
0.0
  100
AcDbText
  0
POINT
  5
2722
330
1F
100
AcDbEntity
  8
lote 24
100
AcDbPoint
 10
613263.2015196545
 20
1321914.5370384452
 30
55.760212404435
  0
TEXT
  5
2725
330
1F
  100
AcDbEntity
  8
lote 24
  100
AcDbText
  10
613263.2015196545
  20
1321914.7870384452
  30
0.0
  40
0.5
  1
p19
  39
0.0
  50
0.0
  100
AcDbText
  0
TEXT
  5
2728
330
1F
  100
AcDbEntity
  8
lote 24
  100
AcDbText
  10
613263.2015196545
  20
1321913.7870384452
  30
0.0
  40
0.5
  1
lote 24
  39
0.0
  50
0.0
  100
AcDbText
  0
POINT
  5
2729
330
1F
100
AcDbEntity
  8
lote 24
100
AcDbPoint
 10
613254.5075240404
 20
1321919.8900230043
 30
55.475011863653
  0
TEXT
  5
272C
330
1F
  100
AcDbEntity
  8
lote 24
  100
AcDbText
  10
613254.5075240404
  20
1321920.1400230043
  30
0.0
  40
0.5
  1
p20
  39
0.0
  50
0.0
  100
AcDbText
  0
TEXT
  5
272F
330
1F
  100
AcDbEntity
  8
lote 24
  100
AcDbText
  10
613254.5075240404
  20
1321919.1400230043
  30
0.0
  40
0.5
  1
lote 24
  39
0.0
  50
0.0
  100
AcDbText
  0
POINT
  5
2730
330
1F
100
AcDbEntity
  8
lote 25
100
AcDbPoint
 10
613245.1790487177
 20
1321904.3744041575
 30
55.831052156877
  0
TEXT
  5
2733
330
1F
  100
AcDbEntity
  8
lote 25
  100
AcDbText
  10
613245.1790487177
  20
1321904.6244041575
  30
0.0
  40
0.5
  1
p21
  39
0.0
  50
0.0
  100
AcDbText
  0
TEXT
  5
2736
330
1F
  100
AcDbEntity
  8
lote 25
  100
AcDbText
  10
613245.1790487177
  20
1321903.6244041575
  30
0.0
  40
0.5
  1
lote 25
  39
0.0
  50
0.0
  100
AcDbText
  0
POINT
  5
2737
330
1F
100
AcDbEntity
  8
lote 25
100
AcDbPoint
 10
613245.6780691822
 20
1321925.3558411552
 30
55.583441404319
  0
TEXT
  5
273A
330
1F
  100
AcDbEntity
  8
lote 25
  100
AcDbText
  10
613245.6780691822
  20
1321925.6058411552
  30
0.0
  40
0.5
  1
p22
  39
0.0
  50
0.0
  100
AcDbText
  0
TEXT
  5
273D
330
1F
  100
AcDbEntity
  8
lote 25
  100
AcDbText
  10
613245.6780691822
  20
1321924.6058411552
  30
0.0
  40
0.5
  1
lote 25
  39
0.0
  50
0.0
  100
AcDbText
  0
POINT
  5
273E
330
1F
100
AcDbEntity
  8
lote 25
100
AcDbPoint
 10
613236.3124640606
 20
1321909.51800067
 30
55.775839493134
  0
TEXT
  5
2741
330
1F
  100
AcDbEntity
  8
lote 25
  100
AcDbText
  10
613236.3124640606
  20
1321909.76800067
  30
0.0
  40
0.5
  1
p24
  39
0.0
  50
0.0
  100
AcDbText
  0
TEXT
  5
2744
330
1F
  100
AcDbEntity
  8
lote 25
  100
AcDbText
  10
613236.3124640606
  20
1321908.76800067
  30
0.0
  40
0.5
  1
lote 25
  39
0.0
  50
0.0
  100
AcDbText
  0
POINT
  5
2745
330
1F
100
AcDbEntity
  8
lote26
100
AcDbPoint
 10
613236.9542107462
 20
1321930.5850066738
 30
55.287460632091
  0
TEXT
  5
2748
330
1F
  100
AcDbEntity
  8
lote26
  100
AcDbText
  10
613236.9542107462
  20
1321930.8350066738
  30
0.0
  40
0.5
  1
p25
  39
0.0
  50
0.0
  100
AcDbText
  0
TEXT
  5
274B
330
1F
  100
AcDbEntity
  8
lote26
  100
AcDbText
  10
613236.9542107462
  20
1321929.8350066738
  30
0.0
  40
0.5
  1
lote26
  39
0.0
  50
0.0
  100
AcDbText
  0
POINT
  5
274C
330
1F
100
AcDbEntity
  8
lote26
100
AcDbPoint
 10
613227.548691492
 20
1321914.8799461445
 30
55.557214431246
  0
TEXT
  5
274F
330
1F
  100
AcDbEntity
  8
lote26
  100
AcDbText
  10
613227.548691492
  20
1321915.1299461445
  30
0.0
  40
0.5
  1
p26
  39
0.0
  50
0.0
  100
AcDbText
  0
TEXT
  5
2752
330
1F
  100
AcDbEntity
  8
lote26
  100
AcDbText
  10
613227.548691492
  20
1321914.1299461445
  30
0.0
  40
0.5
  1
lote26
  39
0.0
  50
0.0
  100
AcDbText
  0
POINT
  5
2753
330
1F
100
AcDbEntity
  8
lote26
100
AcDbPoint
 10
613218.642569228
 20
1321919.9762781367
 30
55.37328961451
  0
TEXT
  5
2756
330
1F
  100
AcDbEntity
  8
lote26
  100
AcDbText
  10
613218.642569228
  20
1321920.2262781367
  30
0.0
  40
0.5
  1
p27
  39
0.0
  50
0.0
  100
AcDbText
  0
TEXT
  5
2759
330
1F
  100
AcDbEntity
  8
lote26
  100
AcDbText
  10
613218.642569228
  20
1321919.2262781367
  30
0.0
  40
0.5
  1
lote26
  39
0.0
  50
0.0
  100
AcDbText
  0
POINT
  5
275A
330
1F
100
AcDbEntity
  8
lote26
100
AcDbPoint
 10
613228.0426288143
 20
1321935.7289351316
 30
55.105745838443
  0
TEXT
  5
275D
330
1F
  100
AcDbEntity
  8
lote26
  100
AcDbText
  10
613228.0426288143
  20
1321935.9789351316
  30
0.0
  40
0.5
  1
p28
  39
0.0
  50
0.0
  100
AcDbText
  0
TEXT
  5
2760
330
1F
  100
AcDbEntity
  8
lote26
  100
AcDbText
  10
613228.0426288143
  20
1321934.9789351316
  30
0.0
  40
0.5
  1
lote26
  39
0.0
  50
0.0
  100
AcDbText
  0
POINT
  5
2761
330
1F
100
AcDbEntity
  8
lote 27
100
AcDbPoint
 10
613219.2584020576
 20
1321941.1266262266
 30
54.98577595182
  0
TEXT
  5
2764
330
1F
  100
AcDbEntity
  8
lote 27
  100
AcDbText
  10
613219.2584020576
  20
1321941.3766262266
  30
0.0
  40
0.5
  1
p29
  39
0.0
  50
0.0
  100
AcDbText
  0
TEXT
  5
2767
330
1F
  100
AcDbEntity
  8
lote 27
  100
AcDbText
  10
613219.2584020576
  20
1321940.3766262266
  30
0.0
  40
0.5
  1
lote 27
  39
0.0
  50
0.0
  100
AcDbText
  0
POINT
  5
2768
330
1F
100
AcDbEntity
  8
lote 27
100
AcDbPoint
 10
613209.6890210469
 20
1321925.299801145
 30
55.304029525269
  0
TEXT
  5
276B
330
1F
  100
AcDbEntity
  8
lote 27
  100
AcDbText
  10
613209.6890210469
  20
1321925.549801145
  30
0.0
  40
0.5
  1
p30
  39
0.0
  50
0.0
  100
AcDbText
  0
TEXT
  5
276E
330
1F
  100
AcDbEntity
  8
lote 27
  100
AcDbText
  10
613209.6890210469
  20
1321924.549801145
  30
0.0
  40
0.5
  1
lote 27
  39
0.0
  50
0.0
  100
AcDbText
  0
POINT
  5
276F
330
1F
100
AcDbEntity
  8
lote 29
100
AcDbPoint
 10
613201.0098939812
 20
1321930.7232455802
 30
55.600039547721
  0
TEXT
  5
2772
330
1F
  100
AcDbEntity
  8
lote 29
  100
AcDbText
  10
613201.0098939812
  20
1321930.9732455802
  30
0.0
  40
0.5
  1
p31
  39
0.0
  50
0.0
  100
AcDbText
  0
TEXT
  5
2775
330
1F
  100
AcDbEntity
  8
lote 29
  100
AcDbText
  10
613201.0098939812
  20
1321929.9732455802
  30
0.0
  40
0.5
  1
lote 29
  39
0.0
  50
0.0
  100
AcDbText
  0
POINT
  5
2776
330
1F
100
AcDbEntity
  8
lote 30
100
AcDbPoint
 10
613192.3390901106
 20
1321936.1449679486
 30
54.496541315645
  0
TEXT
  5
2779
330
1F
  100
AcDbEntity
  8
lote 30
  100
AcDbText
  10
613192.3390901106
  20
1321936.3949679486
  30
0.0
  40
0.5
  1
p32
  39
0.0
  50
0.0
  100
AcDbText
  0
TEXT
  5
277C
330
1F
  100
AcDbEntity
  8
lote 30
  100
AcDbText
  10
613192.3390901106
  20
1321935.3949679486
  30
0.0
  40
0.5
  1
lote 30
  39
0.0
  50
0.0
  100
AcDbText
  0
POINT
  5
277D
330
1F
100
AcDbEntity
  8
lote 30
100
AcDbPoint
 10
613212.5010653485
 20
1321946.668125468
 30
56.559994910846
  0
TEXT
  5
2780
330
1F
  100
AcDbEntity
  8
lote 30
  100
AcDbText
  10
613212.5010653485
  20
1321946.918125468
  30
0.0
  40
0.5
  1
p33
  39
0.0
  50
0.0
  100
AcDbText
  0
TEXT
  5
2783
330
1F
  100
AcDbEntity
  8
lote 30
  100
AcDbText
  10
613212.5010653485
  20
1321945.918125468
  30
0.0
  40
0.5
  1
lote 30
  39
0.0
  50
0.0
  100
AcDbText
  0
POINT
  5
2784
330
1F
100
AcDbEntity
  8
lote 30
100
AcDbPoint
 10
613203.7493890497
 20
1321952.471214245
 30
56.14216903208
  0
TEXT
  5
2787
330
1F
  100
AcDbEntity
  8
lote 30
  100
AcDbText
  10
613203.7493890497
  20
1321952.721214245
  30
0.0
  40
0.5
  1
p34
  39
0.0
  50
0.0
  100
AcDbText
  0
TEXT
  5
278A
330
1F
  100
AcDbEntity
  8
lote 30
  100
AcDbText
  10
613203.7493890497
  20
1321951.721214245
  30
0.0
  40
0.5
  1
lote 30
  39
0.0
  50
0.0
  100
AcDbText
  0
POINT
  5
278B
330
1F
100
AcDbEntity
  8
lote 11 y 12
100
AcDbPoint
 10
613211.5151915863
 20
1321954.3840756482
 30
56.329594884325
  0
TEXT
  5
278E
330
1F
  100
AcDbEntity
  8
lote 11 y 12
  100
AcDbText
  10
613211.5151915863
  20
1321954.6340756482
  30
0.0
  40
0.5
  1
p35
  39
0.0
  50
0.0
  100
AcDbText
  0
TEXT
  5
2791
330
1F
  100
AcDbEntity
  8
lote 11 y 12
  100
AcDbText
  10
613211.5151915863
  20
1321953.6340756482
  30
0.0
  40
0.5
  1
lote 11 y 12
  39
0.0
  50
0.0
  100
AcDbText
  0
POINT
  5
2792
330
1F
100
AcDbEntity
  8
lote 11 y 12
100
AcDbPoint
 10
613222.1849700472
 20
1321966.5663159124
 30
56.185334101035
  0
TEXT
  5
2795
330
1F
  100
AcDbEntity
  8
lote 11 y 12
  100
AcDbText
  10
613222.1849700472
  20
1321966.8163159124
  30
0.0
  40
0.5
  1
p36
  39
0.0
  50
0.0
  100
AcDbText
  0
TEXT
  5
2798
330
1F
  100
AcDbEntity
  8
lote 11 y 12
  100
AcDbText
  10
613222.1849700472
  20
1321965.8163159124
  30
0.0
  40
0.5
  1
lote 11 y 12
  39
0.0
  50
0.0
  100
AcDbText
  0
POINT
  5
2799
330
1F
100
AcDbEntity
  8
lote 11 y 12
100
AcDbPoint
 10
613223.4331077702
 20
1321965.7068529588
 30
56.226544554989
  0
TEXT
  5
279C
330
1F
  100
AcDbEntity
  8
lote 11 y 12
  100
AcDbText
  10
613223.4331077702
  20
1321965.9568529588
  30
0.0
  40
0.5
  1
p37
  39
0.0
  50
0.0
  100
AcDbText
  0
TEXT
  5
279F
330
1F
  100
AcDbEntity
  8
lote 11 y 12
  100
AcDbText
  10
613223.4331077702
  20
1321964.9568529588
  30
0.0
  40
0.5
  1
lote 11 y 12
  39
0.0
  50
0.0
  100
AcDbText
  0
POINT
  5
27A0
330
1F
100
AcDbEntity
  8
lote 11 y 12
100
AcDbPoint
 10
613242.2483598207
 20
1321954.4075186756
 30
56.871653307244
  0
TEXT
  5
27A3
330
1F
  100
AcDbEntity
  8
lote 11 y 12
  100
AcDbText
  10
613242.2483598207
  20
1321954.6575186756
  30
0.0
  40
0.5
  1
p38
  39
0.0
  50
0.0
  100
AcDbText
  0
TEXT
  5
27A6
330
1F
  100
AcDbEntity
  8
lote 11 y 12
  100
AcDbText
  10
613242.2483598207
  20
1321953.6575186756
  30
0.0
  40
0.5
  1
lote 11 y 12
  39
0.0
  50
0.0
  100
AcDbText
  0
POINT
  5
27A7
330
1F
100
AcDbEntity
  8
lote 11 y 12
100
AcDbPoint
 10
613234.2350821367
 20
1321940.716275876
 30
57.089133879241
  0
TEXT
  5
27AA
330
1F
  100
AcDbEntity
  8
lote 11 y 12
  100
AcDbText
  10
613234.2350821367
  20
1321940.966275876
  30
0.0
  40
0.5
  1
p39
  39
0.0
  50
0.0
  100
AcDbText
  0
TEXT
  5
27AD
330
1F
  100
AcDbEntity
  8
lote 11 y 12
  100
AcDbText
  10
613234.2350821367
  20
1321939.966275876
  30
0.0
  40
0.5
  1
lote 11 y 12
  39
0.0
  50
0.0
  100
AcDbText
  0
POINT
  5
27AE
330
1F
100
AcDbEntity
  8
lote 13
100
AcDbPoint
 10
613244.211283768
 20
1321934.8928670522
 30
57.193303225456
  0
TEXT
  5
27B1
330
1F
  100
AcDbEntity
  8
lote 13
  100
AcDbText
  10
613244.211283768
  20
1321935.1428670522
  30
0.0
  40
0.5
  1
p40
  39
0.0
  50
0.0
  100
AcDbText
  0
TEXT
  5
27B4
330
1F
  100
AcDbEntity
  8
lote 13
  100
AcDbText
  10
613244.211283768
  20
1321934.1428670522
  30
0.0
  40
0.5
  1
lote 13
  39
0.0
  50
0.0
  100
AcDbText
  0
ENDSEC
  0
SECTION
  2
OBJECTS
  0
DICTIONARY
  5
C
330
0
100
AcDbDictionary
281
     1
  3
ACAD_COLOR
350
100
  3
ACAD_GROUP
350
D
  3
ACAD_LAYOUT
350
1A
  3
ACAD_MATERIAL
350
D6
  3
ACAD_MLEADERSTYLE
350
125
  3
ACAD_MLINESTYLE
350
17
  3
ACAD_PLOTSETTINGS
350
19
  3
ACAD_PLOTSTYLENAME
350
E
  3
ACAD_SCALELIST
350
103
  3
ACAD_TABLESTYLE
350
101
  3
ACAD_VISUALSTYLE
350
EF
  3
ACDB_RECOMPOSE_DATA
350
2321
  3
AcDbVariableDictionary
350
2319
  0
DICTIONARY
  5
2312
330
2
100
AcDbDictionary
280
     1
281
     1
  3
ACAD_LAYERFILTERS
360
2314
  3
ACLYDICTIONARY
360
2313
  0
DICTIONARY
  5
2315
330
10
100
AcDbDictionary
280
     1
281
     1
  3
ADSK_XREC_LAYER_RECONCILED
360
2316
  0
DICTIONARY
  5
2317
330
2310
100
AcDbDictionary
280
     1
281
     1
  3
ADSK_XREC_LAYER_RECONCILED
360
2318
  0
DICTIONARY
  5
100
102
{ACAD_REACTORS
330
C
102
}
330
C
100
AcDbDictionary
281
     1
  0
DICTIONARY
  5
D
102
{ACAD_REACTORS
330
C
102
}
330
C
100
AcDbDictionary
281
     1
  0
DICTIONARY
  5
1A
102
{ACAD_REACTORS
330
C
102
}
330
C
100
AcDbDictionary
281
     1
  3
Layout1
350
1E
  3
Layout2
350
26
  3
Model
350
22
  0
DICTIONARY
  5
D6
102
{ACAD_REACTORS
330
C
102
}
330
C
100
AcDbDictionary
281
     1
  3
ByBlock
350
DF
  3
ByLayer
350
D7
  3
Global
350
E7
  0
DICTIONARY
  5
125
102
{ACAD_REACTORS
330
C
102
}
330
C
100
AcDbDictionary
281
     1
  3
Standard
350
126
  0
DICTIONARY
  5
17
102
{ACAD_REACTORS
330
C
102
}
330
C
100
AcDbDictionary
281
     1
  3
Standard
350
18
  0
DICTIONARY
  5
19
102
{ACAD_REACTORS
330
C
102
}
330
C
100
AcDbDictionary
281
     1
  0
ACDBDICTIONARYWDFLT
  5
E
102
{ACAD_REACTORS
330
C
102
}
330
C
100
AcDbDictionary
281
     1
  3
Normal
350
F
100
AcDbDictionaryWithDefault
340
F
  0
DICTIONARY
  5
103
102
{ACAD_REACTORS
330
C
102
}
330
C
100
AcDbDictionary
281
     1
  3
A0
350
104
  3
A1
350
105
  3
A2
350
106
  3
A3
350
107
  3
A4
350
108
  3
A5
350
109
  3
A6
350
10A
  3
A7
350
10B
  3
A8
350
10C
  3
A9
350
10D
  3
B0
350
10E
  3
B1
350
10F
  3
B2
350
110
  3
B3
350
111
  3
B4
350
112
  3
B5
350
113
  3
B6
350
114
  3
B7
350
115
  3
B8
350
116
  3
B9
350
117
  3
C0
350
118
  3
C1
350
119
  3
C2
350
11A
  3
C3
350
11B
  3
C4
350
11C
  3
C5
350
11D
  3
C6
350
11E
  3
C7
350
11F
  3
C8
350
120
  3
C9
350
121
  3
D0
350
122
  3
D1
350
123
  3
D2
350
124
  0
DICTIONARY
  5
101
102
{ACAD_REACTORS
330
C
102
}
330
C
100
AcDbDictionary
281
     1
  3
Standard
350
102
  0
DICTIONARY
  5
EF
102
{ACAD_REACTORS
330
C
102
}
330
C
100
AcDbDictionary
281
     1
  3
2dWireframe
350
F5
  3
3D Hidden
350
F7
  3
3dWireframe
350
F6
  3
Basic
350
F4
  3
Brighten
350
FB
  3
ColorChange
350
FF
  3
Conceptual
350
F8
  3
Dim
350
FA
  3
Facepattern
350
FE
  3
Flat
350
F0
  3
FlatWithEdges
350
F1
  3
Gouraud
350
F2
  3
GouraudWithEdges
350
F3
  3
Linepattern
350
FD
  3
Realistic
350
F9
  3
Thicken
350
FC
  0
XRECORD
  5
2321
102
{ACAD_REACTORS
330
C
102
}
330
C
100
AcDbXrecord
280
     1
 90
        1
330
102
  0
DICTIONARY
  5
2319
102
{ACAD_REACTORS
330
C
102
}
330
C
100
AcDbDictionary
281
     1
  3
CANNOSCALE
350
231D
  3
CMLEADERSTYLE
350
231B
  3
CTABLESTYLE
350
231A
  3
LIGHTINGUNITS
350
231E
  3
MSLTSCALE
350
231C
  0
DICTIONARY
  5
2314
102
{ACAD_REACTORS
330
2312
102
}
330
2312
100
AcDbDictionary
281
     1
  0
DICTIONARY
  5
2313
102
{ACAD_REACTORS
330
2312
102
}
330
2312
100
AcDbDictionary
281
     1
1001
ACAD
1000
<All
  0
XRECORD
  5
2316
102
{ACAD_REACTORS
330
2315
102
}
330
2315
100
AcDbXrecord
280
     1
290
     1
  0
XRECORD
  5
2318
102
{ACAD_REACTORS
330
2317
102
}
330
2317
100
AcDbXrecord
280
     1
290
     1
  0
LAYOUT
  5
1E
102
{ACAD_REACTORS
330
1A
102
}
330
1A
100
AcDbPlotSettings
  1

  2
Microsoft XPS Document Writer
  4

  6

 40
0.0
 41
0.0
 42
0.0
 43
0.0
 44
0.0
 45
0.0
 46
0.0
 47
0.0
 48
0.0
 49
0.0
140
0.0
141
0.0
142
1.0
143
1.0
 70
   688
 72
     0
 73
     0
 74
     5
  7

 75
    16
147
1.0
 76
     0
 77
     2
 78
   300
148
0.0
149
0.0
100
AcDbLayout
  1
Layout1
 70
     1
 71
     1
 10
0.0
 20
0.0
 11
0.0
 21
0.0
 12
0.0
 22
0.0
 32
0.0
 14
1.000000000000000E+20
 24
1.000000000000000E+20
 34
1.000000000000000E+20
 15
-1.000000000000000E+20
 25
-1.000000000000000E+20
 35
-1.000000000000000E+20
146
0.0
 13
0.0
 23
0.0
 33
0.0
 16
1.0
 26
0.0
 36
0.0
 17
0.0
 27
1.0
 37
0.0
 76
     0
330
1B
  0
LAYOUT
  5
26
102
{ACAD_REACTORS
330
1A
102
}
330
1A
100
AcDbPlotSettings
  1

  2
Microsoft XPS Document Writer
  4

  6

 40
0.0
 41
0.0
 42
0.0
 43
0.0
 44
0.0
 45
0.0
 46
0.0
 47
0.0
 48
0.0
 49
0.0
140
0.0
141
0.0
142
1.0
143
1.0
 70
   688
 72
     0
 73
     0
 74
     5
  7

 75
    16
147
1.0
 76
     0
 77
     2
 78
   300
148
0.0
149
0.0
100
AcDbLayout
  1
Layout2
 70
     1
 71
     2
 10
0.0
 20
0.0
 11
12.0
 21
9.0
 12
0.0
 22
0.0
 32
0.0
 14
0.0
 24
0.0
 34
0.0
 15
0.0
 25
0.0
 35
0.0
146
0.0
 13
0.0
 23
0.0
 33
0.0
 16
1.0
 26
0.0
 36
0.0
 17
0.0
 27
1.0
 37
0.0
 76
     0
330
23
  0
LAYOUT
  5
22
102
{ACAD_REACTORS
330
1A
102
}
330
1A
100
AcDbPlotSettings
  1

  2
Microsoft XPS Document Writer
  4

  6

 40
0.0
 41
0.0
 42
0.0
 43
0.0
 44
0.0
 45
0.0
 46
0.0
 47
0.0
 48
0.0
 49
0.0
140
0.0
141
0.0
142
1.0
143
1.0
 70
  1712
 72
     0
 73
     0
 74
     0
  7

 75
     0
147
1.0
 76
     0
 77
     2
 78
   300
148
0.0
149
0.0
100
AcDbLayout
  1
Model
 70
     1
 71
     0
 10
0.0
 20
0.0
 11
12.0
 21
9.0
 12
0.0
 22
0.0
 32
0.0
 14
0.0
 24
0.0
 34
0.0
 15
0.0
 25
0.0
 35
0.0
146
0.0
 13
0.0
 23
0.0
 33
0.0
 16
1.0
 26
0.0
 36
0.0
 17
0.0
 27
1.0
 37
0.0
 76
     0
330
1F
331
31
  0
MATERIAL
  5
DF
102
{ACAD_XDICTIONARY
360
E0
102
}
102
{ACAD_REACTORS
330
D6
102
}
330
D6
100
AcDbMaterial
  1
ByBlock
 72
     0
 43
0.0008202099737533
 43
0.0
 43
0.0
 43
0.0
 43
0.0
 43
0.0008202099737533
 43
0.0
 43
0.0
 43
0.0
 43
0.0
 43
1.0
 43
0.0
 43
0.0
 43
0.0
 43
0.0
 43
1.0
 77
     0
 47
0.0008202099737533
 47
0.0
 47
0.0
 47
0.0
 47
0.0
 47
0.0008202099737533
 47
0.0
 47
0.0
 47
0.0
 47
0.0
 47
1.0
 47
0.0
 47
0.0
 47
0.0
 47
0.0
 47
1.0
171
     0
 49
0.0008202099737533
 49
0.0
 49
0.0
 49
0.0
 49
0.0
 49
0.0008202099737533
 49
0.0
 49
0.0
 49
0.0
 49
0.0
 49
1.0
 49
0.0
 49
0.0
 49
0.0
 49
0.0
 49
1.0
175
     0
142
0.0008202099737533
142
0.0
142
0.0
142
0.0
142
0.0
142
0.0008202099737533
142
0.0
142
0.0
142
0.0
142
0.0
142
1.0
142
0.0
142
0.0
142
0.0
142
0.0
142
1.0
179
     0
144
0.0008202099737533
144
0.0
144
0.0
144
0.0
144
0.0
144
0.0008202099737533
144
0.0
144
0.0
144
0.0
144
0.0
144
1.0
144
0.0
144
0.0
144
0.0
144
0.0
144
1.0
147
0.0008202099737533
147
0.0
147
0.0
147
0.0
147
0.0
147
0.0008202099737533
147
0.0
147
0.0
147
0.0
147
0.0
147
1.0
147
0.0
147
0.0
147
0.0
147
0.0
147
1.0
  0
MATERIAL
  5
D7
102
{ACAD_XDICTIONARY
360
D8
102
}
102
{ACAD_REACTORS
330
D6
102
}
330
D6
100
AcDbMaterial
  1
ByLayer
 72
     0
 43
0.0008202099737533
 43
0.0
 43
0.0
 43
0.0
 43
0.0
 43
0.0008202099737533
 43
0.0
 43
0.0
 43
0.0
 43
0.0
 43
1.0
 43
0.0
 43
0.0
 43
0.0
 43
0.0
 43
1.0
 77
     0
 47
0.0008202099737533
 47
0.0
 47
0.0
 47
0.0
 47
0.0
 47
0.0008202099737533
 47
0.0
 47
0.0
 47
0.0
 47
0.0
 47
1.0
 47
0.0
 47
0.0
 47
0.0
 47
0.0
 47
1.0
171
     0
 49
0.0008202099737533
 49
0.0
 49
0.0
 49
0.0
 49
0.0
 49
0.0008202099737533
 49
0.0
 49
0.0
 49
0.0
 49
0.0
 49
1.0
 49
0.0
 49
0.0
 49
0.0
 49
0.0
 49
1.0
175
     0
142
0.0008202099737533
142
0.0
142
0.0
142
0.0
142
0.0
142
0.0008202099737533
142
0.0
142
0.0
142
0.0
142
0.0
142
1.0
142
0.0
142
0.0
142
0.0
142
0.0
142
1.0
179
     0
144
0.0008202099737533
144
0.0
144
0.0
144
0.0
144
0.0
144
0.0008202099737533
144
0.0
144
0.0
144
0.0
144
0.0
144
1.0
144
0.0
144
0.0
144
0.0
144
0.0
144
1.0
147
0.0008202099737533
147
0.0
147
0.0
147
0.0
147
0.0
147
0.0008202099737533
147
0.0
147
0.0
147
0.0
147
0.0
147
1.0
147
0.0
147
0.0
147
0.0
147
0.0
147
1.0
  0
MATERIAL
  5
E7
102
{ACAD_XDICTIONARY
360
E8
102
}
102
{ACAD_REACTORS
330
D6
102
}
330
D6
100
AcDbMaterial
  1
Global
 72
     0
 43
0.0008202099737533
 43
0.0
 43
0.0
 43
0.0
 43
0.0
 43
0.0008202099737533
 43
0.0
 43
0.0
 43
0.0
 43
0.0
 43
1.0
 43
0.0
 43
0.0
 43
0.0
 43
0.0
 43
1.0
 77
     0
 47
0.0008202099737533
 47
0.0
 47
0.0
 47
0.0
 47
0.0
 47
0.0008202099737533
 47
0.0
 47
0.0
 47
0.0
 47
0.0
 47
1.0
 47
0.0
 47
0.0
 47
0.0
 47
0.0
 47
1.0
171
     0
 49
0.0008202099737533
 49
0.0
 49
0.0
 49
0.0
 49
0.0
 49
0.0008202099737533
 49
0.0
 49
0.0
 49
0.0
 49
0.0
 49
1.0
 49
0.0
 49
0.0
 49
0.0
 49
0.0
 49
1.0
175
     0
142
0.0008202099737533
142
0.0
142
0.0
142
0.0
142
0.0
142
0.0008202099737533
142
0.0
142
0.0
142
0.0
142
0.0
142
1.0
142
0.0
142
0.0
142
0.0
142
0.0
142
1.0
179
     0
144
0.0008202099737533
144
0.0
144
0.0
144
0.0
144
0.0
144
0.0008202099737533
144
0.0
144
0.0
144
0.0
144
0.0
144
1.0
144
0.0
144
0.0
144
0.0
144
0.0
144
1.0
147
0.0008202099737533
147
0.0
147
0.0
147
0.0
147
0.0
147
0.0008202099737533
147
0.0
147
0.0
147
0.0
147
0.0
147
1.0
147
0.0
147
0.0
147
0.0
147
0.0
147
1.0
  0
MLEADERSTYLE
  5
126
102
{ACAD_REACTORS
330
125
102
}
330
125
100
AcDbMLeaderStyle
170
     2
171
     1
172
     0
 90
        2
 40
0.0
 41
0.0
173
     1
 91
-1056964608
340
14
 92
       -2
290
     1
 42
2.0
291
     1
 43
0.36
  3
Standard
 44
4.0
300

342
11
174
     1
178
     6
175
     1
176
     0
 93
-1056964608
 45
4.0
292
     0
297
     0
 46
4.0
 94
-1056964608
 47
1.0
 49
1.0
140
1.0
293
     1
141
0.0
294
     1
177
     0
142
1.0
295
     0
296
     0
143
0.125
1001
ACAD_MLEADERVER
1070
     2
  0
MLINESTYLE
  5
18
102
{ACAD_REACTORS
330
17
102
}
330
17
100
AcDbMlineStyle
  2
STANDARD
 70
     0
  3

 62
   256
 51
90.0
 52
90.0
 71
     2
 49
0.5
 62
   256
  6
BYLAYER
 49
-0.5
 62
   256
  6
BYLAYER
  0
ACDBPLACEHOLDER
  5
F
102
{ACAD_REACTORS
330
E
102
}
330
E
  0
SCALE
  5
104
102
{ACAD_REACTORS
330
103
102
}
330
103
100
AcDbScale
 70
     0
300
1:1
140
1.0
141
1.0
290
     1
  0
SCALE
  5
105
102
{ACAD_REACTORS
330
103
102
}
330
103
100
AcDbScale
 70
     0
300
1:2
140
1.0
141
2.0
290
     0
  0
SCALE
  5
106
102
{ACAD_REACTORS
330
103
102
}
330
103
100
AcDbScale
 70
     0
300
1:4
140
1.0
141
4.0
290
     0
  0
SCALE
  5
107
102
{ACAD_REACTORS
330
103
102
}
330
103
100
AcDbScale
 70
     0
300
1:5
140
1.0
141
5.0
290
     0
  0
SCALE
  5
108
102
{ACAD_REACTORS
330
103
102
}
330
103
100
AcDbScale
 70
     0
300
1:8
140
1.0
141
8.0
290
     0
  0
SCALE
  5
109
102
{ACAD_REACTORS
330
103
102
}
330
103
100
AcDbScale
 70
     0
300
1:10
140
1.0
141
10.0
290
     0
  0
SCALE
  5
10A
102
{ACAD_REACTORS
330
103
102
}
330
103
100
AcDbScale
 70
     0
300
1:16
140
1.0
141
16.0
290
     0
  0
SCALE
  5
10B
102
{ACAD_REACTORS
330
103
102
}
330
103
100
AcDbScale
 70
     0
300
1:20
140
1.0
141
20.0
290
     0
  0
SCALE
  5
10C
102
{ACAD_REACTORS
330
103
102
}
330
103
100
AcDbScale
 70
     0
300
1:30
140
1.0
141
30.0
290
     0
  0
SCALE
  5
10D
102
{ACAD_REACTORS
330
103
102
}
330
103
100
AcDbScale
 70
     0
300
1:40
140
1.0
141
40.0
290
     0
  0
SCALE
  5
10E
102
{ACAD_REACTORS
330
103
102
}
330
103
100
AcDbScale
 70
     0
300
1:50
140
1.0
141
50.0
290
     0
  0
SCALE
  5
10F
102
{ACAD_REACTORS
330
103
102
}
330
103
100
AcDbScale
 70
     0
300
1:100
140
1.0
141
100.0
290
     0
  0
SCALE
  5
110
102
{ACAD_REACTORS
330
103
102
}
330
103
100
AcDbScale
 70
     0
300
2:1
140
2.0
141
1.0
290
     0
  0
SCALE
  5
111
102
{ACAD_REACTORS
330
103
102
}
330
103
100
AcDbScale
 70
     0
300
4:1
140
4.0
141
1.0
290
     0
  0
SCALE
  5
112
102
{ACAD_REACTORS
330
103
102
}
330
103
100
AcDbScale
 70
     0
300
8:1
140
8.0
141
1.0
290
     0
  0
SCALE
  5
113
102
{ACAD_REACTORS
330
103
102
}
330
103
100
AcDbScale
 70
     0
300
10:1
140
10.0
141
1.0
290
     0
  0
SCALE
  5
114
102
{ACAD_REACTORS
330
103
102
}
330
103
100
AcDbScale
 70
     0
300
100:1
140
100.0
141
1.0
290
     0
  0
SCALE
  5
115
102
{ACAD_REACTORS
330
103
102
}
330
103
100
AcDbScale
 70
     0
300
1\128" = 1'-0"
140
0.0078125
141
12.0
290
     0
  0
SCALE
  5
116
102
{ACAD_REACTORS
330
103
102
}
330
103
100
AcDbScale
 70
     0
300
1\64" = 1'-0"
140
0.015625
141
12.0
290
     0
  0
SCALE
  5
117
102
{ACAD_REACTORS
330
103
102
}
330
103
100
AcDbScale
 70
     0
300
1\32" = 1'-0"
140
0.03125
141
12.0
290
     0
  0
SCALE
  5
118
102
{ACAD_REACTORS
330
103
102
}
330
103
100
AcDbScale
 70
     0
300
1\16" = 1'-0"
140
0.0625
141
12.0
290
     0
  0
SCALE
  5
119
102
{ACAD_REACTORS
330
103
102
}
330
103
100
AcDbScale
 70
     0
300
3\32" = 1'-0"
140
0.09375
141
12.0
290
     0
  0
SCALE
  5
11A
102
{ACAD_REACTORS
330
103
102
}
330
103
100
AcDbScale
 70
     0
300
1\8" = 1'-0"
140
0.125
141
12.0
290
     0
  0
SCALE
  5
11B
102
{ACAD_REACTORS
330
103
102
}
330
103
100
AcDbScale
 70
     0
300
3\16" = 1'-0"
140
0.1875
141
12.0
290
     0
  0
SCALE
  5
11C
102
{ACAD_REACTORS
330
103
102
}
330
103
100
AcDbScale
 70
     0
300
1\4" = 1'-0"
140
0.25
141
12.0
290
     0
  0
SCALE
  5
11D
102
{ACAD_REACTORS
330
103
102
}
330
103
100
AcDbScale
 70
     0
300
3\8" = 1'-0"
140
0.375
141
12.0
290
     0
  0
SCALE
  5
11E
102
{ACAD_REACTORS
330
103
102
}
330
103
100
AcDbScale
 70
     0
300
1\2" = 1'-0"
140
0.5
141
12.0
290
     0
  0
SCALE
  5
11F
102
{ACAD_REACTORS
330
103
102
}
330
103
100
AcDbScale
 70
     0
300
3\4" = 1'-0"
140
0.75
141
12.0
290
     0
  0
SCALE
  5
120
102
{ACAD_REACTORS
330
103
102
}
330
103
100
AcDbScale
 70
     0
300
1" = 1'-0"
140
1.0
141
12.0
290
     0
  0
SCALE
  5
121
102
{ACAD_REACTORS
330
103
102
}
330
103
100
AcDbScale
 70
     0
300
1-1\2" = 1'-0"
140
1.5
141
12.0
290
     0
  0
SCALE
  5
122
102
{ACAD_REACTORS
330
103
102
}
330
103
100
AcDbScale
 70
     0
300
3" = 1'-0"
140
3.0
141
12.0
290
     0
  0
SCALE
  5
123
102
{ACAD_REACTORS
330
103
102
}
330
103
100
AcDbScale
 70
     0
300
6" = 1'-0"
140
6.0
141
12.0
290
     0
  0
SCALE
  5
124
102
{ACAD_REACTORS
330
103
102
}
330
103
100
AcDbScale
 70
     0
300
1'-0" = 1'-0"
140
12.0
141
12.0
290
     0
  0
TABLESTYLE
  5
102
102
{ACAD_XDICTIONARY
360
231F
102
}
102
{ACAD_REACTORS
330
101
102
}
330
101
100
AcDbTableStyle
  3
Standard
 70
     0
 71
     0
 40
1.5
 41
1.5
280
     0
281
     0
  7
Standard
140
4.5
170
     2
 62
     0
 63
     7
283
     0
 90
      512
 91
        0
  1

274
    -2
284
     1
 64
     0
275
    -2
285
     1
 65
     0
276
    -2
286
     1
 66
     0
277
    -2
287
     1
 67
     0
278
    -2
288
     1
 68
     0
279
    -2
289
     1
 69
     0
  7
Standard
140
6.0
170
     5
 62
     0
 63
     7
283
     0
 90
      512
 91
        0
  1

274
    -2
284
     1
 64
     0
275
    -2
285
     1
 65
     0
276
    -2
286
     1
 66
     0
277
    -2
287
     1
 67
     0
278
    -2
288
     1
 68
     0
279
    -2
289
     1
 69
     0
  7
Standard
140
4.5
170
     5
 62
     0
 63
     7
283
     0
 90
      512
 91
        0
  1

274
    -2
284
     1
 64
     0
275
    -2
285
     1
 65
     0
276
    -2
286
     1
 66
     0
277
    -2
287
     1
 67
     0
278
    -2
288
     1
 68
     0
279
    -2
289
     1
 69
     0
  0
VISUALSTYLE
  5
F5
102
{ACAD_REACTORS
330
EF
102
}
330
EF
100
AcDbVisualStyle
  2
2dWireframe
 70
     4
 71
     0
 72
     2
 73
     0
 90
        0
 40
-0.6
 41
-30.0
 62
     5
 63
     7
421
 16777215
 74
     1
 91
        4
 64
     7
 65
   257
 75
     1
175
     1
 42
1.0
 92
        0
 66
   257
 43
1.0
 76
     1
 77
     6
 78
     2
 67
     7
 79
     5
170
     0
171
     0
290
     0
174
     0
 93
        1
 44
0.0
173
     0
291
     0
 45
0.0
  0
VISUALSTYLE
  5
F7
102
{ACAD_REACTORS
330
EF
102
}
330
EF
100
AcDbVisualStyle
  2
3D Hidden
 70
     6
 71
     1
 72
     2
 73
     2
 90
        0
 40
-0.6
 41
-30.0
 62
     5
 63
     7
421
 16777215
 74
     2
 91
        2
 64
     7
 65
   257
 75
     2
175
     1
 42
40.0
 92
        0
 66
   257
 43
1.0
 76
     1
 77
     6
 78
     2
 67
     7
 79
     3
170
     0
171
     0
290
     0
174
     0
 93
        1
 44
0.0
173
     0
291
     0
 45
0.0
  0
VISUALSTYLE
  5
F6
102
{ACAD_REACTORS
330
EF
102
}
330
EF
100
AcDbVisualStyle
  2
3dWireframe
 70
     5
 71
     0
 72
     2
 73
     0
 90
        0
 40
-0.6
 41
-30.0
 62
     5
 63
     7
421
 16777215
 74
     1
 91
        4
 64
     7
 65
   257
 75
     1
175
     1
 42
1.0
 92
        0
 66
   257
 43
1.0
 76
     1
 77
     6
 78
     2
 67
     7
 79
     5
170
     0
171
     0
290
     0
174
     0
 93
        1
 44
0.0
173
     0
291
     0
 45
0.0
  0
VISUALSTYLE
  5
F4
102
{ACAD_REACTORS
330
EF
102
}
330
EF
100
AcDbVisualStyle
  2
Basic
 70
     7
 71
     1
 72
     0
 73
     1
 90
        0
 40
-0.6
 41
-30.0
 62
     5
 63
     7
421
 16777215
 74
     0
 91
        4
 64
     7
 65
   257
 75
     1
175
     1
 42
1.0
 92
        8
 66
     7
 43
1.0
 76
     1
 77
     6
 78
     2
 67
     7
 79
     5
170
     0
171
     0
290
     0
174
     0
 93
        1
 44
0.0
173
     0
291
     1
 45
0.0
  0
VISUALSTYLE
  5
FB
102
{ACAD_REACTORS
330
EF
102
}
330
EF
100
AcDbVisualStyle
  2
Brighten
 70
    12
 71
     2
 72
     2
 73
     0
 90
        0
 40
-0.6
 41
-30.0
 62
     5
 63
     7
421
 16777215
 74
     1
 91
        4
 64
     7
 65
   257
 75
     1
175
     1
 42
1.0
 92
        8
 66
     7
 43
1.0
 76
     1
 77
     6
 78
     2
 67
     7
 79
     5
170
     0
171
     0
290
     0
174
     0
 93
        1
 44
50.0
173
     0
291
     1
 45
0.0
  0
VISUALSTYLE
  5
FF
102
{ACAD_REACTORS
330
EF
102
}
330
EF
100
AcDbVisualStyle
  2
ColorChange
 70
    16
 71
     2
 72
     2
 73
     3
 90
        0
 40
-0.6
 41
-30.0
 62
     5
 63
     8
421
  8421504
 74
     1
 91
        4
 64
     7
 65
   257
 75
     1
175
     1
 42
1.0
 92
        8
 66
     8
424
  8421504
 43
1.0
 76
     1
 77
     6
 78
     2
 67
     7
 79
     5
170
     0
171
     0
290
     0
174
     0
 93
        1
 44
0.0
173
     0
291
     1
 45
0.0
  0
VISUALSTYLE
  5
F8
102
{ACAD_REACTORS
330
EF
102
}
330
EF
100
AcDbVisualStyle
  2
Conceptual
 70
     9
 71
     3
 72
     2
 73
     0
 90
        0
 40
-0.6
 41
-30.0
 62
     5
 63
     7
421
 16777215
 74
     2
 91
        2
 64
     7
 65
   257
 75
     1
175
     1
 42
40.0
 92
        8
 66
     7
 43
1.0
 76
     1
 77
     6
 78
     2
 67
     7
 79
     3
170
     0
171
     0
290
     0
174
     0
 93
        1
 44
0.0
173
     0
291
     0
 45
0.0
  0
VISUALSTYLE
  5
FA
102
{ACAD_REACTORS
330
EF
102
}
330
EF
100
AcDbVisualStyle
  2
Dim
 70
    11
 71
     2
 72
     2
 73
     0
 90
        0
 40
-0.6
 41
-30.0
 62
     5
 63
     7
421
 16777215
 74
     1
 91
        4
 64
     7
 65
   257
 75
     1
175
     1
 42
1.0
 92
        8
 66
     7
 43
1.0
 76
     1
 77
     6
 78
     2
 67
     7
 79
     5
170
     0
171
     0
290
     0
174
     0
 93
        1
 44
-50.0
173
     0
291
     1
 45
0.0
  0
VISUALSTYLE
  5
FE
102
{ACAD_REACTORS
330
EF
102
}
330
EF
100
AcDbVisualStyle
  2
Facepattern
 70
    15
 71
     2
 72
     2
 73
     0
 90
        0
 40
-0.6
 41
-30.0
 62
     5
 63
     7
421
 16777215
 74
     1
 91
        4
 64
     7
 65
   257
 75
     1
175
     1
 42
1.0
 92
        8
 66
     7
 43
1.0
 76
     1
 77
     6
 78
     2
 67
     7
 79
     5
170
     0
171
     0
290
     0
174
     0
 93
        1
 44
0.0
173
     0
291
     1
 45
0.0
  0
VISUALSTYLE
  5
F0
102
{ACAD_REACTORS
330
EF
102
}
330
EF
100
AcDbVisualStyle
  2
Flat
 70
     0
 71
     2
 72
     1
 73
     1
 90
        2
 40
-0.6
 41
30.0
 62
     5
 63
     7
421
 16777215
 74
     0
 91
        4
 64
     7
 65
   257
 75
     1
175
     1
 42
1.0
 92
        8
 66
     7
 43
1.0
 76
     1
 77
     6
 78
     2
 67
     7
 79
     5
170
     0
171
     0
290
     0
174
     0
 93
       13
 44
0.0
173
     0
291
     1
 45
0.0
  0
VISUALSTYLE
  5
F1
102
{ACAD_REACTORS
330
EF
102
}
330
EF
100
AcDbVisualStyle
  2
FlatWithEdges
 70
     1
 71
     2
 72
     1
 73
     1
 90
        2
 40
-0.6
 41
30.0
 62
     5
 63
     7
421
 16777215
 74
     1
 91
        4
 64
     7
 65
   257
 75
     1
175
     1
 42
1.0
 92
        0
 66
   257
 43
1.0
 76
     1
 77
     6
 78
     2
 67
     7
 79
     5
170
     0
171
     0
290
     0
174
     0
 93
       13
 44
0.0
173
     0
291
     1
 45
0.0
  0
VISUALSTYLE
  5
F2
102
{ACAD_REACTORS
330
EF
102
}
330
EF
100
AcDbVisualStyle
  2
Gouraud
 70
     2
 71
     2
 72
     2
 73
     1
 90
        2
 40
-0.6
 41
30.0
 62
     5
 63
     7
421
 16777215
 74
     0
 91
        4
 64
     7
 65
   257
 75
     1
175
     1
 42
1.0
 92
        0
 66
     7
 43
1.0
 76
     1
 77
     6
 78
     2
 67
     7
 79
     5
170
     0
171
     0
290
     0
174
     0
 93
       13
 44
0.0
173
     0
291
     1
 45
0.0
  0
VISUALSTYLE
  5
F3
102
{ACAD_REACTORS
330
EF
102
}
330
EF
100
AcDbVisualStyle
  2
GouraudWithEdges
 70
     3
 71
     2
 72
     2
 73
     1
 90
        2
 40
-0.6
 41
30.0
 62
     5
 63
     7
421
 16777215
 74
     1
 91
        4
 64
     7
 65
   257
 75
     1
175
     1
 42
1.0
 92
        0
 66
   257
 43
1.0
 76
     1
 77
     6
 78
     2
 67
     7
 79
     5
170
     0
171
     0
290
     0
174
     0
 93
       13
 44
0.0
173
     0
291
     1
 45
0.0
  0
VISUALSTYLE
  5
FD
102
{ACAD_REACTORS
330
EF
102
}
330
EF
100
AcDbVisualStyle
  2
Linepattern
 70
    14
 71
     2
 72
     2
 73
     0
 90
        0
 40
-0.6
 41
-30.0
 62
     5
 63
     7
421
 16777215
 74
     1
 91
        4
 64
     7
 65
   257
 75
     7
175
     7
 42
1.0
 92
        8
 66
     7
 43
1.0
 76
     1
 77
     6
 78
     2
 67
     7
 79
     5
170
     0
171
     0
290
     0
174
     0
 93
        1
 44
0.0
173
     0
291
     1
 45
0.0
  0
VISUALSTYLE
  5
F9
102
{ACAD_REACTORS
330
EF
102
}
330
EF
100
AcDbVisualStyle
  2
Realistic
 70
     8
 71
     2
 72
     2
 73
     0
 90
        0
 40
-0.6
 41
-30.0
 62
     5
 63
     7
421
 16777215
 74
     1
 91
        0
 64
     7
 65
   257
 75
     1
175
     1
 42
1.0
 92
        8
 66
     8
424
  7895160
 43
1.0
 76
     1
 77
     6
 78
     2
 67
     7
 79
     5
170
     0
171
     0
290
     0
174
     0
 93
       13
 44
0.0
173
     0
291
     0
 45
0.0
  0
VISUALSTYLE
  5
FC
102
{ACAD_REACTORS
330
EF
102
}
330
EF
100
AcDbVisualStyle
  2
Thicken
 70
    13
 71
     2
 72
     2
 73
     0
 90
        0
 40
-0.6
 41
-30.0
 62
     5
 63
     7
421
 16777215
 74
     1
 91
        4
 64
     7
 65
   257
 75
     1
175
     1
 42
1.0
 92
       12
 66
     7
 43
1.0
 76
     1
 77
     6
 78
     2
 67
     7
 79
     5
170
     0
171
     0
290
     0
174
     0
 93
        1
 44
0.0
173
     0
291
     1
 45
0.0
  0
DICTIONARYVAR
  5
231D
102
{ACAD_REACTORS
330
2319
102
}
330
2319
100
DictionaryVariables
280
     0
  1
1:1
  0
DICTIONARYVAR
  5
231B
102
{ACAD_REACTORS
330
2319
102
}
330
2319
100
DictionaryVariables
280
     0
  1
STANDARD
  0
DICTIONARYVAR
  5
231A
102
{ACAD_REACTORS
330
2319
102
}
330
2319
100
DictionaryVariables
280
     0
  1
STANDARD
  0
DICTIONARYVAR
  5
231E
102
{ACAD_REACTORS
330
2319
102
}
330
2319
100
DictionaryVariables
280
     0
  1
0
  0
DICTIONARYVAR
  5
231C
102
{ACAD_REACTORS
330
2319
102
}
330
2319
100
DictionaryVariables
280
     0
  1
0
  0
DICTIONARY
  5
E0
330
DF
100
AcDbDictionary
280
     1
281
     1
  3
BUMPTILE
360
E2
  3
DIFFUSETILE
360
E1
  3
OPACITYTILE
360
E5
  3
REFLECTIONTILE
360
E4
  3
REFRACTIONTILE
360
E6
  3
SPECULARTILE
360
E3
  0
DICTIONARY
  5
D8
330
D7
100
AcDbDictionary
280
     1
281
     1
  3
BUMPTILE
360
DA
  3
DIFFUSETILE
360
D9
  3
OPACITYTILE
360
DD
  3
REFLECTIONTILE
360
DC
  3
REFRACTIONTILE
360
DE
  3
SPECULARTILE
360
DB
  0
DICTIONARY
  5
E8
330
E7
100
AcDbDictionary
280
     1
281
     1
  3
BUMPTILE
360
EA
  3
DIFFUSETILE
360
E9
  3
OPACITYTILE
360
ED
  3
REFLECTIONTILE
360
EC
  3
REFRACTIONTILE
360
EE
  3
SPECULARTILE
360
EB
  0
DICTIONARY
  5
231F
330
102
100
AcDbDictionary
280
     1
281
     1
  3
ACAD_ROUNDTRIP_2008_TABLESTYLE_CELLSTYLEMAP
360
2320
  0
XRECORD
  5
E2
102
{ACAD_REACTORS
330
E0
102
}
330
E0
100
AcDbXrecord
280
     1
270
     1
271
     1
  0
XRECORD
  5
E1
102
{ACAD_REACTORS
330
E0
102
}
330
E0
100
AcDbXrecord
280
     1
270
     1
271
     1
  0
XRECORD
  5
E5
102
{ACAD_REACTORS
330
E0
102
}
330
E0
100
AcDbXrecord
280
     1
270
     1
271
     1
  0
XRECORD
  5
E4
102
{ACAD_REACTORS
330
E0
102
}
330
E0
100
AcDbXrecord
280
     1
270
     1
271
     1
  0
XRECORD
  5
E6
102
{ACAD_REACTORS
330
E0
102
}
330
E0
100
AcDbXrecord
280
     1
270
     1
271
     1
  0
XRECORD
  5
E3
102
{ACAD_REACTORS
330
E0
102
}
330
E0
100
AcDbXrecord
280
     1
270
     1
271
     1
  0
XRECORD
  5
DA
102
{ACAD_REACTORS
330
D8
102
}
330
D8
100
AcDbXrecord
280
     1
270
     1
271
     1
  0
XRECORD
  5
D9
102
{ACAD_REACTORS
330
D8
102
}
330
D8
100
AcDbXrecord
280
     1
270
     1
271
     1
  0
XRECORD
  5
DD
102
{ACAD_REACTORS
330
D8
102
}
330
D8
100
AcDbXrecord
280
     1
270
     1
271
     1
  0
XRECORD
  5
DC
102
{ACAD_REACTORS
330
D8
102
}
330
D8
100
AcDbXrecord
280
     1
270
     1
271
     1
  0
XRECORD
  5
DE
102
{ACAD_REACTORS
330
D8
102
}
330
D8
100
AcDbXrecord
280
     1
270
     1
271
     1
  0
XRECORD
  5
DB
102
{ACAD_REACTORS
330
D8
102
}
330
D8
100
AcDbXrecord
280
     1
270
     1
271
     1
  0
XRECORD
  5
EA
102
{ACAD_REACTORS
330
E8
102
}
330
E8
100
AcDbXrecord
280
     1
270
     1
271
     1
  0
XRECORD
  5
E9
102
{ACAD_REACTORS
330
E8
102
}
330
E8
100
AcDbXrecord
280
     1
270
     1
271
     1
  0
XRECORD
  5
ED
102
{ACAD_REACTORS
330
E8
102
}
330
E8
100
AcDbXrecord
280
     1
270
     1
271
     1
  0
XRECORD
  5
EC
102
{ACAD_REACTORS
330
E8
102
}
330
E8
100
AcDbXrecord
280
     1
270
     1
271
     1
  0
XRECORD
  5
EE
102
{ACAD_REACTORS
330
E8
102
}
330
E8
100
AcDbXrecord
280
     1
270
     1
271
     1
  0
XRECORD
  5
EB
102
{ACAD_REACTORS
330
E8
102
}
330
E8
100
AcDbXrecord
280
     1
270
     1
271
     1
  0
CELLSTYLEMAP
  5
2320
102
{ACAD_REACTORS
330
231F
102
}
330
231F
100
AcDbCellStyleMap
 90
        3
300
CELLSTYLE
  1
TABLEFORMAT_BEGIN
 90
        5
170
     1
 91
        0
 92
    32768
 62
   257
 93
        1
300
CONTENTFORMAT
  1
CONTENTFORMAT_BEGIN
 90
        0
 91
        0
 92
      512
 93
        0
300

 40
0.0
140
1.0
 94
        5
 62
     0
340
11
144
6.0
309
CONTENTFORMAT_END
171
     1
301
MARGIN
  1
CELLMARGIN_BEGIN
 40
1.5
 40
1.5
 40
1.5
 40
1.5
 40
4.5
 40
4.5
309
CELLMARGIN_END
 94
        6
 95
        1
302
GRIDFORMAT
  1
GRIDFORMAT_BEGIN
 90
        0
 91
        1
 62
     0
 92
       -2
340
0
 93
        0
 40
1.125
309
GRIDFORMAT_END
 95
        2
302
GRIDFORMAT
  1
GRIDFORMAT_BEGIN
 90
        0
 91
        1
 62
     0
 92
       -2
340
0
 93
        0
 40
1.125
309
GRIDFORMAT_END
 95
        4
302
GRIDFORMAT
  1
GRIDFORMAT_BEGIN
 90
        0
 91
        1
 62
     0
 92
       -2
340
0
 93
        0
 40
1.125
309
GRIDFORMAT_END
 95
        8
302
GRIDFORMAT
  1
GRIDFORMAT_BEGIN
 90
        0
 91
        1
 62
     0
 92
       -2
340
0
 93
        0
 40
1.125
309
GRIDFORMAT_END
 95
       16
302
GRIDFORMAT
  1
GRIDFORMAT_BEGIN
 90
        0
 91
        1
 62
     0
 92
       -2
340
0
 93
        0
 40
1.125
309
GRIDFORMAT_END
 95
       32
302
GRIDFORMAT
  1
GRIDFORMAT_BEGIN
 90
        0
 91
        1
 62
     0
 92
       -2
340
0
 93
        0
 40
1.125
309
GRIDFORMAT_END
309
TABLEFORMAT_END
  1
CELLSTYLE_BEGIN
 90
        1
 91
        1
300
_TITLE
309
CELLSTYLE_END
300
CELLSTYLE
  1
TABLEFORMAT_BEGIN
 90
        5
170
     1
 91
        0
 92
        0
 62
   257
 93
        1
300
CONTENTFORMAT
  1
CONTENTFORMAT_BEGIN
 90
        0
 91
        0
 92
      512
 93
        0
300

 40
0.0
140
1.0
 94
        5
 62
     0
340
11
144
4.5
309
CONTENTFORMAT_END
171
     1
301
MARGIN
  1
CELLMARGIN_BEGIN
 40
1.5
 40
1.5
 40
1.5
 40
1.5
 40
4.5
 40
4.5
309
CELLMARGIN_END
 94
        6
 95
        1
302
GRIDFORMAT
  1
GRIDFORMAT_BEGIN
 90
        0
 91
        1
 62
     0
 92
       -2
340
0
 93
        0
 40
1.125
309
GRIDFORMAT_END
 95
        2
302
GRIDFORMAT
  1
GRIDFORMAT_BEGIN
 90
        0
 91
        1
 62
     0
 92
       -2
340
0
 93
        0
 40
1.125
309
GRIDFORMAT_END
 95
        4
302
GRIDFORMAT
  1
GRIDFORMAT_BEGIN
 90
        0
 91
        1
 62
     0
 92
       -2
340
0
 93
        0
 40
1.125
309
GRIDFORMAT_END
 95
        8
302
GRIDFORMAT
  1
GRIDFORMAT_BEGIN
 90
        0
 91
        1
 62
     0
 92
       -2
340
0
 93
        0
 40
1.125
309
GRIDFORMAT_END
 95
       16
302
GRIDFORMAT
  1
GRIDFORMAT_BEGIN
 90
        0
 91
        1
 62
     0
 92
       -2
340
0
 93
        0
 40
1.125
309
GRIDFORMAT_END
 95
       32
302
GRIDFORMAT
  1
GRIDFORMAT_BEGIN
 90
        0
 91
        1
 62
     0
 92
       -2
340
0
 93
        0
 40
1.125
309
GRIDFORMAT_END
309
TABLEFORMAT_END
  1
CELLSTYLE_BEGIN
 90
        2
 91
        1
300
_HEADER
309
CELLSTYLE_END
300
CELLSTYLE
  1
TABLEFORMAT_BEGIN
 90
        5
170
     1
 91
        0
 92
        0
 62
   257
 93
        1
300
CONTENTFORMAT
  1
CONTENTFORMAT_BEGIN
 90
        0
 91
        0
 92
      512
 93
        0
300

 40
0.0
140
1.0
 94
        2
 62
     0
340
11
144
4.5
309
CONTENTFORMAT_END
171
     1
301
MARGIN
  1
CELLMARGIN_BEGIN
 40
1.5
 40
1.5
 40
1.5
 40
1.5
 40
4.5
 40
4.5
309
CELLMARGIN_END
 94
        6
 95
        1
302
GRIDFORMAT
  1
GRIDFORMAT_BEGIN
 90
        0
 91
        1
 62
     0
 92
       -2
340
0
 93
        0
 40
1.125
309
GRIDFORMAT_END
 95
        2
302
GRIDFORMAT
  1
GRIDFORMAT_BEGIN
 90
        0
 91
        1
 62
     0
 92
       -2
340
0
 93
        0
 40
1.125
309
GRIDFORMAT_END
 95
        4
302
GRIDFORMAT
  1
GRIDFORMAT_BEGIN
 90
        0
 91
        1
 62
     0
 92
       -2
340
0
 93
        0
 40
1.125
309
GRIDFORMAT_END
 95
        8
302
GRIDFORMAT
  1
GRIDFORMAT_BEGIN
 90
        0
 91
        1
 62
     0
 92
       -2
340
0
 93
        0
 40
1.125
309
GRIDFORMAT_END
 95
       16
302
GRIDFORMAT
  1
GRIDFORMAT_BEGIN
 90
        0
 91
        1
 62
     0
 92
       -2
340
0
 93
        0
 40
1.125
309
GRIDFORMAT_END
 95
       32
302
GRIDFORMAT
  1
GRIDFORMAT_BEGIN
 90
        0
 91
        1
 62
     0
 92
       -2
340
0
 93
        0
 40
1.125
309
GRIDFORMAT_END
309
TABLEFORMAT_END
  1
CELLSTYLE_BEGIN
 90
        3
 91
        2
300
_DATA
309
CELLSTYLE_END
  0
ENDSEC
  0
EOF
