  0
SECTION
  2
HEADER
  9
$ACADVER
  1
AC1021
  9
$ACADMAINTVER
 70
25
  9
$DWGCODEPAGE
  3
ANSI_936
  9
$LASTSAVEDBY
  1
admin
  9
$INSBASE
 10
0.0
 20
0.0
 30
0.0
  9
$EXTMIN
 10
-250.0
 20
-275.0
 30
0.0
  9
$EXTMAX
 10
430.0
 20
400.0
 30
12.0
  9
$LIMMIN
 10
0.0
 20
0.0
  9
$LIMMAX
 10
1600.0
 20
1200.0
  9
$ORTHOMODE
 70
0
  9
$REGENMODE
 70
1
  9
$FILLMODE
 70
1
  9
$QTEXTMODE
 70
0
  9
$MIRRTEXT
 70
0
  9
$LTSCALE
 40
1.0
  9
$ATTMODE
 70
1
  9
$TEXTSIZE
 40
2.5
  9
$TRACEWID
 40
1.0
  9
$TEXTSTYLE
  7
Standard
  9
$CLAYER
  8
0
  9
$CELTYPE
  6
ByLayer
  9
$CECOLOR
 62
256
  9
$CELTSCALE
 40
1.0
  9
$DISPSILH
 70
0
  9
$DIMSCALE
 40
0.05
  9
$DIMASZ
 40
200.0
  9
$DIMEXO
 40
2.0
  9
$DIMDLI
 40
100.0
  9
$DIMRND
 40
0.0
  9
$DIMDLE
 40
0.0
  9
$DIMEXE
 40
200.0
  9
$DIMTP
 40
0.0
  9
$DIMTM
 40
0.0
  9
$DIMTXT
 40
350.0
  9
$DIMCEN
 40
2.5
  9
$DIMTSZ
 40
0.0
  9
$DIMTOL
 70
0
  9
$DIMLIM
 70
0
  9
$DIMTIH
 70
0
  9
$DIMTOH
 70
0
  9
$DIMSE1
 70
0
  9
$DIMSE2
 70
0
  9
$DIMTAD
 70
1
  9
$DIMZIN
 70
8
  9
$DIMBLK
  1

  9
$DIMASO
 70
1
  9
$DIMSHO
 70
1
  9
$DIMPOST
  1

  9
$DIMAPOST
  1

  9
$DIMALT
 70
0
  9
$DIMALTD
 70
3
  9
$DIMALTF
 40
0.03937007874016
  9
$DIMLFAC
 40
1.0
  9
$DIMTOFL
 70
1
  9
$DIMTVP
 40
0.0
  9
$DIMTIX
 70
0
  9
$DIMSOXD
 70
0
  9
$DIMSAH
 70
0
  9
$DIMBLK1
  1

  9
$DIMBLK2
  1

  9
$DIMSTYLE
  2
ISO-25
  9
$DIMCLRD
 70
6
  9
$DIMCLRE
 70
6
  9
$DIMCLRT
 70
3
  9
$DIMTFAC
 40
1.0
  9
$DIMGAP
 40
100.0
  9
$DIMJUST
 70
0
  9
$DIMSD1
 70
0
  9
$DIMSD2
 70
0
  9
$DIMTOLJ
 70
0
  9
$DIMTZIN
 70
8
  9
$DIMALTZ
 70
0
  9
$DIMALTTZ
 70
0
  9
$DIMUPT
 70
0
  9
$DIMDEC
 70
1
  9
$DIMTDEC
 70
1
  9
$DIMALTU
 70
2
  9
$DIMALTTD
 70
3
  9
$DIMTXSTY
  7
Standard
  9
$DIMAUNIT
 70
0
  9
$DIMADEC
 70
0
  9
$DIMALTRND
 40
0.0
  9
$DIMAZIN
 70
0
  9
$DIMDSEP
 70
46
  9
$DIMATFIT
 70
3
  9
$DIMFRAC
 70
0
  9
$DIMLDRBLK
  1

  9
$DIMLUNIT
 70
2
  9
$DIMLWD
 70
-2
  9
$DIMLWE
 70
-2
  9
$DIMTMOVE
 70
0
  9
$DIMFXL
 40
1.0
  9
$DIMFXLON
 70
0
  9
$DIMJOGANG
 40
0.7853981633974483
  9
$DIMTFILL
 70
0
  9
$DIMTFILLCLR
 70
0
  9
$DIMARCSYM
 70
0
  9
$DIMLTYPE
  6

  9
$DIMLTEX1
  6

  9
$DIMLTEX2
  6

  9
$LUNITS
 70
2
  9
$LUPREC
 70
3
  9
$SKETCHINC
 40
1.0
  9
$FILLETRAD
 40
10.0
  9
$AUNITS
 70
0
  9
$AUPREC
 70
0
  9
$MENU
  1

  9
$ELEVATION
 40
0.0
  9
$PELEVATION
 40
0.0
  9
$THICKNESS
 40
0.0
  9
$LIMCHECK
 70
0
  9
$CHAMFERA
 40
10.0
  9
$CHAMFERB
 40
10.0
  9
$CHAMFERC
 40
20.0
  9
$CHAMFERD
 40
0.0
  9
$SKPOLY
 70
0
  9
$TDCREATE
 40
2455022.970692847
  9
$TDUCREATE
 40
2455022.637359514
  9
$TDUPDATE
 40
2458518.356494503
  9
$TDUUPDATE
 40
2458518.023161169
  9
$TDINDWG
 40
0.0102706829
  9
$TDUSRTIMER
 40
2456833.531150197
  9
$USRTIMER
 70
1
  9
$ANGBASE
 50
0.0
  9
$ANGDIR
 70
0
  9
$PDMODE
 70
3
  9
$PDSIZE
 40
0.2
  9
$PLINEWID
 40
0.0
  9
$SPLFRAME
 70
0
  9
$SPLINETYPE
 70
6
  9
$SPLINESEGS
 70
8
  9
$HANDSEED
  5
2E84
  9
$SURFTAB1
 70
6
  9
$SURFTAB2
 70
6
  9
$SURFTYPE
 70
6
  9
$SURFU
 70
6
  9
$SURFV
 70
6
  9
$UCSBASE
  2

  9
$UCSNAME
  2

  9
$UCSORG
 10
0.0
 20
0.0
 30
0.0
  9
$UCSXDIR
 10
1.0
 20
0.0
 30
0.0
  9
$UCSYDIR
 10
0.0
 20
1.0
 30
0.0
  9
$UCSORTHOREF
  2

  9
$UCSORTHOVIEW
 70
0
  9
$UCSORGTOP
 10
0.0
 20
0.0
 30
0.0
  9
$UCSORGBOTTOM
 10
0.0
 20
0.0
 30
0.0
  9
$UCSORGLEFT
 10
0.0
 20
0.0
 30
0.0
  9
$UCSORGRIGHT
 10
0.0
 20
0.0
 30
0.0
  9
$UCSORGFRONT
 10
0.0
 20
0.0
 30
0.0
  9
$UCSORGBACK
 10
0.0
 20
0.0
 30
0.0
  9
$PUCSBASE
  2

  9
$PUCSNAME
  2

  9
$PUCSORG
 10
0.0
 20
0.0
 30
0.0
  9
$PUCSXDIR
 10
1.0
 20
0.0
 30
0.0
  9
$PUCSYDIR
 10
0.0
 20
1.0
 30
0.0
  9
$PUCSORTHOREF
  2

  9
$PUCSORTHOVIEW
 70
0
  9
$PUCSORGTOP
 10
0.0
 20
0.0
 30
0.0
  9
$PUCSORGBOTTOM
 10
0.0
 20
0.0
 30
0.0
  9
$PUCSORGLEFT
 10
0.0
 20
0.0
 30
0.0
  9
$PUCSORGRIGHT
 10
0.0
 20
0.0
 30
0.0
  9
$PUCSORGFRONT
 10
0.0
 20
0.0
 30
0.0
  9
$PUCSORGBACK
 10
0.0
 20
0.0
 30
0.0
  9
$USERI1
 70
0
  9
$USERI2
 70
0
  9
$USERI3
 70
0
  9
$USERI4
 70
0
  9
$USERI5
 70
0
  9
$USERR1
 40
0.0
  9
$USERR2
 40
0.0
  9
$USERR3
 40
0.0
  9
$USERR4
 40
0.0
  9
$USERR5
 40
0.0
  9
$WORLDVIEW
 70
1
  9
$SHADEDGE
 70
3
  9
$SHADEDIF
 70
70
  9
$TILEMODE
 70
1
  9
$MAXACTVP
 70
64
  9
$PINSBASE
 10
0.0
 20
0.0
 30
0.0
  9
$PLIMCHECK
 70
0
  9
$PEXTMIN
 10
1.0E20
 20
1.0E20
 30
1.0E20
  9
$PEXTMAX
 10
-1.0E20
 20
-1.0E20
 30
-1.0E20
  9
$PLIMMIN
 10
0.0
 20
0.0
  9
$PLIMMAX
 10
0.0
 20
0.0
  9
$UNITMODE
 70
0
  9
$VISRETAIN
 70
1
  9
$PLINEGEN
 70
0
  9
$PSLTSCALE
 70
1
  9
$TREEDEPTH
 70
3020
  9
$CMLSTYLE
  2
Standard
  9
$CMLJUST
 70
0
  9
$CMLSCALE
 40
20.0
  9
$PROXYGRAPHICS
 70
1
  9
$MEASUREMENT
 70
1
  9
$CELWEIGHT
370
-1
  9
$ENDCAPS
280
0
  9
$JOINSTYLE
280
0
  9
$LWDISPLAY
290
  0
  9
$INSUNITS
 70
4
  9
$HYPERLINKBASE
  1

  9
$STYLESHEET
  1

  9
$XEDIT
290
  0
  9
$CEPSNTYPE
380
0
  9
$PSTYLEMODE
290
  0
  9
$FINGERPRINTGUID
  2
{EC6BB858-51AA-46EC-B484-6C9CC7AB3E2E}
  9
$VERSIONGUID
  2
{23B1F04D-C0DA-4E0E-BE9E-C1E169E74BE0}
  9
$EXTNAMES
290
  0
  9
$PSVPSCALE
 40
0.0
  9
$OLESTARTUP
290
  0
  9
$SORTENTS
280
127
  9
$INDEXCTL
280
0
  9
$HIDETEXT
280
0
  9
$XCLIPFRAME
290
  0
  9
$HALOGAP
280
0
  9
$OBSCOLOR
 70
257
  9
$OBSLTYPE
280
0
  9
$INTERSECTIONDISPLAY
280
0
  9
$INTERSECTIONCOLOR
 70
257
  9
$DIMASSOC
280
1
  9
$PROJECTNAME
  1

  9
$CAMERADISPLAY
290
  0
  9
$LENSLENGTH
 40
50.0
  9
$CAMERAHEIGHT
 40
0.0
  9
$STEPSPERSEC
 40
2.0
  9
$STEPSIZE
 40
6.0
  9
$3DDWFPREC
 40
2.0
  9
$PSOLWIDTH
 40
0.25
  9
$PSOLHEIGHT
 40
4.0
  9
$LOFTANG1
 40
1.570796326794896
  9
$LOFTANG2
 40
1.570796326794896
  9
$LOFTMAG1
 40
0.0
  9
$LOFTMAG2
 40
0.0
  9
$LOFTPARAM
 70
7
  9
$LOFTNORMALS
280
1
  9
$LATITUDE
 40
37.795
  9
$LONGITUDE
 40
-122.394
  9
$NORTHDIRECTION
 40
0.0
  9
$TIMEZONE
 70
-8000
  9
$LIGHTGLYPHDISPLAY
280
1
  9
$TILEMODELIGHTSYNCH
280
1
  9
$CMATERIAL
347
D7
  9
$SOLIDHIST
280
1
  9
$SHOWHIST
280
1
  9
$DWFFRAME
280
2
  9
$DGNFRAME
280
0
  9
$REALWORLDSCALE
290
  0
  9
$INTERFERECOLOR
 62
1
  9
$INTERFEREOBJVS
345
F9
  9
$INTERFEREVPVS
346
F6
  9
$CSHADOW
280
0
  9
$SHADOWPLANELOCATION
 40
0.0
  0
ENDSEC
  0
SECTION
  2
TABLES
  0
TABLE
  2
VPORT
  5
2E5D
330
  0
100
AcDbSymbolTable
 70
1
  0
VPORT
  5
31
330
8
100
AcDbSymbolTableRecord
100
AcDbViewportTableRecord
  2
*Active
 70
0
 10
0.0
 20
0.0
 11
1.0
 21
1.0
 12
132.0
 22
-44.0
 13
0.0
 23
0.0
 14
10.0
 24
10.0
 15
10.0
 25
10.0
 16
0.0
 26
0.0
 36
1.0
 17
0.0
 27
0.0
 37
0.0
 40
840.0
 41
1.86
 42
50.0
 43
0.0
 44
0.0
 50
0.0
 51
0.0
 71
0
 72
100.0
 73
1.0
 74
3
 75
  0
 76
  0
 77
0
 78
0
281
0
 65
1
 110
0.0
 120
0.0
 130
0.0
 111
1.0
 121
0.0
 131
0.0
 112
0.0
 122
1.0
 132
0.0
 79
0
146
0.0
348
F5
 60
3
 61
5
292
  1
282
1
141
0.0
142
0.0
 63
250
421
3355443
  0
ENDTAB
  0
TABLE
  2
LTYPE
  5
2E5E
330
  0
100
AcDbSymbolTable
 70
4
  0
LTYPE
  5
2E63
330
5
100
AcDbSymbolTableRecord
100
AcDbLinetypeTableRecord
  2
BYBLOCK
 70
0
  3

 72
65
 73
0
 40
0.0
  0
LTYPE
  5
2E64
330
5
100
AcDbSymbolTableRecord
100
AcDbLinetypeTableRecord
  2
BYLAYER
 70
0
  3

 72
65
 73
0
 40
0.0
  0
LTYPE
  5
2E65
330
5
100
AcDbSymbolTableRecord
100
AcDbLinetypeTableRecord
  2
CONTINUOUS
 70
0
  3

 72
65
 73
0
 40
0.0
  0
LTYPE
  5
2E66
330
5
100
AcDbSymbolTableRecord
100
AcDbLinetypeTableRecord
  2
PHANTOM
 70
0
  3
Phantom ______  __  __  ______  __  __  ______
 72
65
 73
6
 40
63.50000000000001
 49
31.75
 74
0
 49
-6.35
 74
0
 49
6.35
 74
0
 49
-6.35
 74
0
 49
6.35
 74
0
 49
-6.35
 74
0
 46
1.0
  0
ENDTAB
  0
TABLE
  2
LAYER
  5
2E67
330
  0
100
AcDbSymbolTable
 70
1
  0
LAYER
  5
2E83
100
AcDbSymbolTableRecord
100
AcDbLayerTableRecord
  2
0
 70
0
 62
1
  6
CONTINUOUS
290
1
370
100
390
F
347
E7
  0
LAYER
  5
2E68
100
AcDbSymbolTableRecord
100
AcDbLayerTableRecord
  2
43
 70
0
 62
174
  6
CONTINUOUS
290
1
370
100
390
F
347
E7
  0
LAYER
  5
2E69
100
AcDbSymbolTableRecord
100
AcDbLayerTableRecord
  2
44
 70
0
 62
174
  6
CONTINUOUS
290
1
370
100
390
F
347
E7
  0
LAYER
  5
2E6A
100
AcDbSymbolTableRecord
100
AcDbLayerTableRecord
  2
45
 70
0
 62
174
  6
CONTINUOUS
290
1
370
100
390
F
347
E7
  0
LAYER
  5
2E6B
100
AcDbSymbolTableRecord
100
AcDbLayerTableRecord
  2
49,
 70
0
 62
174
  6
CONTINUOUS
290
1
370
100
390
F
347
E7
  0
LAYER
  5
2E6C
100
AcDbSymbolTableRecord
100
AcDbLayerTableRecord
  2
borde de rio
 70
0
 62
174
  6
CONTINUOUS
290
1
370
100
390
F
347
E7
  0
LAYER
  5
2E6D
100
AcDbSymbolTableRecord
100
AcDbLayerTableRecord
  2
borde quebrada
 70
0
 62
174
  6
CONTINUOUS
290
1
370
100
390
F
347
E7
  0
LAYER
  5
2E6E
100
AcDbSymbolTableRecord
100
AcDbLayerTableRecord
  2
cerco
 70
0
 62
174
  6
CONTINUOUS
290
1
370
100
390
F
347
E7
  0
LAYER
  5
2E6F
100
AcDbSymbolTableRecord
100
AcDbLayerTableRecord
  2
conf- rio
 70
0
 62
256
  6
CONTINUOUS
290
1
370
100
390
F
347
E7
  0
LAYER
  5
2E70
100
AcDbSymbolTableRecord
100
AcDbLayerTableRecord
  2
pto nuevo
 70
0
 62
174
  6
CONTINUOUS
290
1
370
100
390
F
347
E7
  0
LAYER
  5
2E71
100
AcDbSymbolTableRecord
100
AcDbLayerTableRecord
  2
punto
 70
0
 62
174
  6
CONTINUOUS
290
1
370
100
390
F
347
E7
  0
LAYER
  5
2E72
100
AcDbSymbolTableRecord
100
AcDbLayerTableRecord
  2
punto 1
 70
0
 62
174
  6
CONTINUOUS
290
1
370
100
390
F
347
E7
  0
LAYER
  5
2E73
100
AcDbSymbolTableRecord
100
AcDbLayerTableRecord
  2
punto42
 70
0
 62
174
  6
CONTINUOUS
290
1
370
100
390
F
347
E7
  0
LAYER
  5
2E74
100
AcDbSymbolTableRecord
100
AcDbLayerTableRecord
  2
r43
 70
0
 62
174
  6
CONTINUOUS
290
1
370
100
390
F
347
E7
  0
LAYER
  5
2E75
100
AcDbSymbolTableRecord
100
AcDbLayerTableRecord
  2
retiro
 70
0
 62
174
  6
CONTINUOUS
290
1
370
100
390
F
347
E7
  0
LAYER
  5
2E76
100
AcDbSymbolTableRecord
100
AcDbLayerTableRecord
  2
retiro 30m
 70
0
 62
174
  6
CONTINUOUS
290
1
370
100
390
F
347
E7
  0
LAYER
  5
2E77
100
AcDbSymbolTableRecord
100
AcDbLayerTableRecord
  2
retiro7m
 70
0
 62
174
  6
CONTINUOUS
290
1
370
100
390
F
347
E7
  0
LAYER
  5
2E78
100
AcDbSymbolTableRecord
100
AcDbLayerTableRecord
  2
retiro7mpunto
 70
0
 62
174
  6
CONTINUOUS
290
1
370
100
390
F
347
E7
  0
LAYER
  5
2E79
100
AcDbSymbolTableRecord
100
AcDbLayerTableRecord
  2
Point
 70
0
 62
5
  6
CONTINUOUS
290
1
370
100
390
F
347
E7
  0
LAYER
  5
2E7A
100
AcDbSymbolTableRecord
100
AcDbLayerTableRecord
  2
Point_Name
 70
0
 62
1
  6
CONTINUOUS
290
1
370
100
390
F
347
E7
  0
LAYER
  5
2E7B
100
AcDbSymbolTableRecord
100
AcDbLayerTableRecord
  2
Point_Height
 70
0
 62
5
  6
CONTINUOUS
290
1
370
100
390
F
347
E7
  0
LAYER
  5
2E7C
100
AcDbSymbolTableRecord
100
AcDbLayerTableRecord
  2
Line
 70
0
 62
250
  6
CONTINUOUS
290
1
370
100
390
F
347
E7
  0
LAYER
  5
2E7D
100
AcDbSymbolTableRecord
100
AcDbLayerTableRecord
  2
Line_Name
 70
0
 62
1
  6
CONTINUOUS
290
1
370
100
390
F
347
E7
  0
LAYER
  5
2E7E
100
AcDbSymbolTableRecord
100
AcDbLayerTableRecord
  2
Line_Height
 70
0
 62
5
  6
CONTINUOUS
290
1
370
100
390
F
347
E7
  0
LAYER
  5
2E7F
100
AcDbSymbolTableRecord
100
AcDbLayerTableRecord
  2
Surface
 70
0
 62
250
  6
CONTINUOUS
290
1
370
100
390
F
347
E7
  0
LAYER
  5
2E80
100
AcDbSymbolTableRecord
100
AcDbLayerTableRecord
  2
Surface_Name
 70
0
 62
1
  6
CONTINUOUS
290
1
370
100
390
F
347
E7
  0
LAYER
  5
2E81
100
AcDbSymbolTableRecord
100
AcDbLayerTableRecord
  2
Surface_Height
 70
0
 62
5
  6
CONTINUOUS
290
1
370
100
390
F
347
E7
  0
ENDTAB
  0
TABLE
  2
STYLE
  5
3
330
0
100
AcDbSymbolTable
 70
     2
  0
STYLE
  5
11
330
3
100
AcDbSymbolTableRecord
100
AcDbTextStyleTableRecord
  2
Standard
 70
     0
 40
0.0
 41
0.65
 50
0.0
 71
     0
 42
2.5
  3
arial.ttf
  4

1001
ACAD
1000
Arial
1071
       34
  0
STYLE
  5
2C
330
3
100
AcDbSymbolTableRecord
100
AcDbTextStyleTableRecord
  2

 70
     1
 40
0.0
 41
1.0
 50
0.0
 71
     0
 42
2.5
  3
ltypeshp.shx
  4

  0
ENDTAB
  0
TABLE
  2
VIEW
  5
6
330
0
100
AcDbSymbolTable
 70
     0
  0
ENDTAB
  0
TABLE
  2
UCS
  5
7
330
0
100
AcDbSymbolTable
 70
     0
  0
ENDTAB
  0
TABLE
  2
APPID
  5
9
330
0
100
AcDbSymbolTable
 70
     4
  0
APPID
  5
12
330
9
100
AcDbSymbolTableRecord
100
AcDbRegAppTableRecord
  2
ACAD
 70
     0
  0
APPID
  5
127
330
9
100
AcDbSymbolTableRecord
100
AcDbRegAppTableRecord
  2
ACAD_MLEADERVER
 70
     0
  0
APPID
  5
139
330
9
100
AcDbSymbolTableRecord
100
AcDbRegAppTableRecord
  2
ACAD_DSTYLE_DIMRADIAL_EXTENSION
 70
     0
  0
APPID
  5
2311
330
9
100
AcDbSymbolTableRecord
100
AcDbRegAppTableRecord
  2
AcAecLayerStandard
 70
     0
  0
ENDTAB
  0
TABLE
  2
DIMSTYLE
  5
A
330
0
100
AcDbSymbolTable
 70
     1
100
AcDbDimStyleTable
 71
     0
  0
DIMSTYLE
105
27
330
A
100
AcDbSymbolTableRecord
100
AcDbDimStyleTableRecord
  2
ISO-25
 70
     0
 41
2.5
 42
0.625
 43
3.75
 44
1.25
 73
     0
 74
     0
 77
     1
 78
     8
140
2.5
141
2.5
143
0.03937007874016
147
0.625
171
     3
172
     1
271
     2
272
     2
274
     3
278
    44
283
     0
284
     8
340
11
  0
ENDTAB
  0
TABLE
  2
BLOCK_RECORD
  5
1
330
0
100
AcDbSymbolTable
 70
     1
  0
BLOCK_RECORD
  5
1F
330
1
100
AcDbSymbolTableRecord
100
AcDbBlockTableRecord
  2
*Model_Space
340
22
 70
     0
280
     1
281
     0
  0
BLOCK_RECORD
  5
1B
330
1
100
AcDbSymbolTableRecord
100
AcDbBlockTableRecord
  2
*Paper_Space
340
1E
 70
     0
280
     1
281
     0
  0
BLOCK_RECORD
  5
23
330
1
100
AcDbSymbolTableRecord
100
AcDbBlockTableRecord
  2
*Paper_Space0
340
26
 70
     0
280
     1
281
     0
  0
ENDTAB
  0
ENDSEC
  0
SECTION
  2
BLOCKS
  0
BLOCK
  5
20
330
1F
100
AcDbEntity
  8
0
100
AcDbBlockBegin
  2
*Model_Space
 70
     0
 10
0.0
 20
0.0
 30
0.0
  3
*Model_Space
  1

  0
ENDBLK
  5
21
330
1F
100
AcDbEntity
  8
0
100
AcDbBlockEnd
  0
BLOCK
  5
1C
330
1B
100
AcDbEntity
 67
     1
  8
0
100
AcDbBlockBegin
  2
*Paper_Space
 70
     0
 10
0.0
 20
0.0
 30
0.0
  3
*Paper_Space
  1

  0
ENDBLK
  5
1D
330
1B
100
AcDbEntity
 67
     1
  8
0
100
AcDbBlockEnd
  0
BLOCK
  5
24
330
23
100
AcDbEntity
 67
     1
  8
0
100
AcDbBlockBegin
  2
*Paper_Space0
 70
     0
 10
0.0
 20
0.0
 30
0.0
  3
*Paper_Space0
  1

  0
ENDBLK
  5
25
330
23
100
AcDbEntity
 67
     1
  8
0
100
AcDbBlockEnd
  0
ENDSEC
  0
SECTION
  2
ENTITIES
  0
POINT
  5
2CB2
330
1F
100
AcDbEntity
  8
Point
100
AcDbPoint
 10
560651.0356461742
 20
1315927.9181551682
 30
158.922621805213
  0
TEXT
  5
2CB5
330
1F
  100
AcDbEntity
  8
Point_Name
  100
AcDbText
  10
560651.0356461742
  20
1315928.1681551682
  30
0.0
  40
0.5
  1
p8
  39
0.0
  50
0.0
  100
AcDbText
  0
TEXT
  5
2CB8
330
1F
  100
AcDbEntity
  8
Point_Code
  100
AcDbText
  10
560651.0356461742
  20
1315927.1681551682
  30
0.0
  40
0.5
  1
conf. rio
  39
0.0
  50
0.0
  100
AcDbText
  0
POINT
  5
2CB9
330
1F
100
AcDbEntity
  8
retiro7m
100
AcDbPoint
 10
560613.3098362883
 20
1315891.50678824
 30
156.844133210795
  0
TEXT
  5
2CBC
330
1F
  100
AcDbEntity
  8
retiro7m
  100
AcDbText
  10
560613.3098362883
  20
1315891.75678824
  30
0.0
  40
0.5
  1
p9
  39
0.0
  50
0.0
  100
AcDbText
  0
TEXT
  5
2CBF
330
1F
  100
AcDbEntity
  8
retiro7m
  100
AcDbText
  10
560613.3098362883
  20
1315890.75678824
  30
0.0
  40
0.5
  1
retiro7m
  39
0.0
  50
0.0
  100
AcDbText
  0
POINT
  5
2CC0
330
1F
100
AcDbEntity
  8
punto42
100
AcDbPoint
 10
560592.0689188397
 20
1315896.4276552605
 30
157.023604611562
  0
TEXT
  5
2CC3
330
1F
  100
AcDbEntity
  8
punto42
  100
AcDbText
  10
560592.0689188397
  20
1315896.6776552605
  30
0.0
  40
0.5
  1
p9
  39
0.0
  50
0.0
  100
AcDbText
  0
TEXT
  5
2CC6
330
1F
  100
AcDbEntity
  8
punto42
  100
AcDbText
  10
560592.0689188397
  20
1315895.6776552605
  30
0.0
  40
0.5
  1
punto42
  39
0.0
  50
0.0
  100
AcDbText
  0
POINT
  5
2CC7
330
1F
100
AcDbEntity
  8
43
100
AcDbPoint
 10
560586.685487473
 20
1315898.2484873733
 30
157.507071081716
  0
TEXT
  5
2CCA
330
1F
  100
AcDbEntity
  8
43
  100
AcDbText
  10
560586.685487473
  20
1315898.4984873733
  30
0.0
  40
0.5
  1
p10
  39
0.0
  50
0.0
  100
AcDbText
  0
TEXT
  5
2CCD
330
1F
  100
AcDbEntity
  8
43
  100
AcDbText
  10
560586.685487473
  20
1315897.4984873733
  30
0.0
  40
0.5
  1
43
  39
0.0
  50
0.0
  100
AcDbText
  0
POINT
  5
2CCE
330
1F
100
AcDbEntity
  8
retiro7m
100
AcDbPoint
 10
560591.6430189527
 20
1315889.9975439487
 30
155.84956300933
  0
TEXT
  5
2CD1
330
1F
  100
AcDbEntity
  8
retiro7m
  100
AcDbText
  10
560591.6430189527
  20
1315890.2475439487
  30
0.0
  40
0.5
  1
p12
  39
0.0
  50
0.0
  100
AcDbText
  0
TEXT
  5
2CD4
330
1F
  100
AcDbEntity
  8
retiro7m
  100
AcDbText
  10
560591.6430189527
  20
1315889.2475439487
  30
0.0
  40
0.5
  1
retiro7m
  39
0.0
  50
0.0
  100
AcDbText
  0
POINT
  5
2CD5
330
1F
100
AcDbEntity
  8
r43
100
AcDbPoint
 10
560586.5984392232
 20
1315898.5402121912
 30
156.057044402344
  0
TEXT
  5
2CD8
330
1F
  100
AcDbEntity
  8
r43
  100
AcDbText
  10
560586.5984392232
  20
1315898.7902121912
  30
0.0
  40
0.5
  1
p12
  39
0.0
  50
0.0
  100
AcDbText
  0
TEXT
  5
2CDB
330
1F
  100
AcDbEntity
  8
r43
  100
AcDbText
  10
560586.5984392232
  20
1315897.7902121912
  30
0.0
  40
0.5
  1
r43
  39
0.0
  50
0.0
  100
AcDbText
  0
POINT
  5
2CDC
330
1F
100
AcDbEntity
  8
44
100
AcDbPoint
 10
560550.323863893
 20
1315914.6511710673
 30
157.645432457387
  0
TEXT
  5
2CDF
330
1F
  100
AcDbEntity
  8
44
  100
AcDbText
  10
560550.323863893
  20
1315914.9011710673
  30
0.0
  40
0.5
  1
p13
  39
0.0
  50
0.0
  100
AcDbText
  0
TEXT
  5
2CE2
330
1F
  100
AcDbEntity
  8
44
  100
AcDbText
  10
560550.323863893
  20
1315913.9011710673
  30
0.0
  40
0.5
  1
44
  39
0.0
  50
0.0
  100
AcDbText
  0
POINT
  5
2CE3
330
1F
100
AcDbEntity
  8
45
100
AcDbPoint
 10
560525.5585928174
 20
1315931.0855054453
 30
153.417669557042
  0
TEXT
  5
2CE6
330
1F
  100
AcDbEntity
  8
45
  100
AcDbText
  10
560525.5585928174
  20
1315931.3355054453
  30
0.0
  40
0.5
  1
p14
  39
0.0
  50
0.0
  100
AcDbText
  0
TEXT
  5
2CE9
330
1F
  100
AcDbEntity
  8
45
  100
AcDbText
  10
560525.5585928174
  20
1315930.3355054453
  30
0.0
  40
0.5
  1
45
  39
0.0
  50
0.0
  100
AcDbText
  0
POINT
  5
2CEA
330
1F
100
AcDbEntity
  8
retiro7m
100
AcDbPoint
 10
560489.858194652
 20
1315934.4171073134
 30
151.24835854198
  0
TEXT
  5
2CED
330
1F
  100
AcDbEntity
  8
retiro7m
  100
AcDbText
  10
560489.858194652
  20
1315934.6671073134
  30
0.0
  40
0.5
  1
p15
  39
0.0
  50
0.0
  100
AcDbText
  0
TEXT
  5
2CF0
330
1F
  100
AcDbEntity
  8
retiro7m
  100
AcDbText
  10
560489.858194652
  20
1315933.6671073134
  30
0.0
  40
0.5
  1
retiro7m
  39
0.0
  50
0.0
  100
AcDbText
  0
POINT
  5
2CF1
330
1F
100
AcDbEntity
  8
pto nuevo
100
AcDbPoint
 10
560494.5209593175
 20
1315939.2601742034
 30
154.598147565154
  0
TEXT
  5
2CF4
330
1F
  100
AcDbEntity
  8
pto nuevo
  100
AcDbText
  10
560494.5209593175
  20
1315939.5101742034
  30
0.0
  40
0.5
  1
p17
  39
0.0
  50
0.0
  100
AcDbText
  0
TEXT
  5
2CF7
330
1F
  100
AcDbEntity
  8
pto nuevo
  100
AcDbText
  10
560494.5209593175
  20
1315938.5101742034
  30
0.0
  40
0.5
  1
pto nuevo
  39
0.0
  50
0.0
  100
AcDbText
  0
POINT
  5
2CF8
330
1F
100
AcDbEntity
  8
retiro7mpunto
100
AcDbPoint
 10
560469.7718885819
 20
1315956.0984645789
 30
157.522955465409
  0
TEXT
  5
2CFB
330
1F
  100
AcDbEntity
  8
retiro7mpunto
  100
AcDbText
  10
560469.7718885819
  20
1315956.3484645789
  30
0.0
  40
0.5
  1
p18
  39
0.0
  50
0.0
  100
AcDbText
  0
TEXT
  5
2CFE
330
1F
  100
AcDbEntity
  8
retiro7mpunto
  100
AcDbText
  10
560469.7718885819
  20
1315955.3484645789
  30
0.0
  40
0.5
  1
retiro7mpunto
  39
0.0
  50
0.0
  100
AcDbText
  0
POINT
  5
2CFF
330
1F
100
AcDbEntity
  8
retiro7mpunto
100
AcDbPoint
 10
560445.9047365945
 20
1315970.3326013908
 30
161.277229957325
  0
TEXT
  5
2D02
330
1F
  100
AcDbEntity
  8
retiro7mpunto
  100
AcDbText
  10
560445.9047365945
  20
1315970.5826013908
  30
0.0
  40
0.5
  1
p18
  39
0.0
  50
0.0
  100
AcDbText
  0
TEXT
  5
2D05
330
1F
  100
AcDbEntity
  8
retiro7mpunto
  100
AcDbText
  10
560445.9047365945
  20
1315969.5826013908
  30
0.0
  40
0.5
  1
retiro7mpunto
  39
0.0
  50
0.0
  100
AcDbText
  0
POINT
  5
2D06
330
1F
100
AcDbEntity
  8
49,
100
AcDbPoint
 10
560411.0697292975
 20
1315973.59004459
 30
162.363366161399
  0
TEXT
  5
2D09
330
1F
  100
AcDbEntity
  8
49,
  100
AcDbText
  10
560411.0697292975
  20
1315973.84004459
  30
0.0
  40
0.5
  1
p20
  39
0.0
  50
0.0
  100
AcDbText
  0
TEXT
  5
2D0C
330
1F
  100
AcDbEntity
  8
49,
  100
AcDbText
  10
560411.0697292975
  20
1315972.84004459
  30
0.0
  40
0.5
  1
49,
  39
0.0
  50
0.0
  100
AcDbText
  0
POINT
  5
2D0D
330
1F
100
AcDbEntity
  8
retiro7m
100
AcDbPoint
 10
560362.2145025801
 20
1315937.2374518253
 30
156.492817864095
  0
TEXT
  5
2D10
330
1F
  100
AcDbEntity
  8
retiro7m
  100
AcDbText
  10
560362.2145025801
  20
1315937.4874518253
  30
0.0
  40
0.5
  1
p22
  39
0.0
  50
0.0
  100
AcDbText
  0
TEXT
  5
2D13
330
1F
  100
AcDbEntity
  8
retiro7m
  100
AcDbText
  10
560362.2145025801
  20
1315936.4874518253
  30
0.0
  40
0.5
  1
retiro7m
  39
0.0
  50
0.0
  100
AcDbText
  0
POINT
  5
2D14
330
1F
100
AcDbEntity
  8
punto
100
AcDbPoint
 10
560358.7372115481
 20
1315939.1736449045
 30
156.467994659976
  0
TEXT
  5
2D17
330
1F
  100
AcDbEntity
  8
punto
  100
AcDbText
  10
560358.7372115481
  20
1315939.4236449045
  30
0.0
  40
0.5
  1
p23
  39
0.0
  50
0.0
  100
AcDbText
  0
TEXT
  5
2D1A
330
1F
  100
AcDbEntity
  8
punto
  100
AcDbText
  10
560358.7372115481
  20
1315938.4236449045
  30
0.0
  40
0.5
  1
punto
  39
0.0
  50
0.0
  100
AcDbText
  0
POINT
  5
2D1B
330
1F
100
AcDbEntity
  8
retiro
100
AcDbPoint
 10
560701.3538983979
 20
1316030.1751143998
 30
163.065045708746
  0
TEXT
  5
2D1E
330
1F
  100
AcDbEntity
  8
retiro
  100
AcDbText
  10
560701.3538983979
  20
1316030.4251143998
  30
0.0
  40
0.5
  1
p1
  39
0.0
  50
0.0
  100
AcDbText
  0
TEXT
  5
2D21
330
1F
  100
AcDbEntity
  8
retiro
  100
AcDbText
  10
560701.3538983979
  20
1316029.4251143998
  30
0.0
  40
0.5
  1
retiro
  39
0.0
  50
0.0
  100
AcDbText
  0
POINT
  5
2D22
330
1F
100
AcDbEntity
  8
borde quebrada
100
AcDbPoint
 10
560702.2753916115
 20
1316023.7810010174
 30
159.636829312745
  0
TEXT
  5
2D25
330
1F
  100
AcDbEntity
  8
borde quebrada
  100
AcDbText
  10
560702.2753916115
  20
1316024.0310010174
  30
0.0
  40
0.5
  1
p2
  39
0.0
  50
0.0
  100
AcDbText
  0
TEXT
  5
2D28
330
1F
  100
AcDbEntity
  8
borde quebrada
  100
AcDbText
  10
560702.2753916115
  20
1316023.0310010174
  30
0.0
  40
0.5
  1
borde quebrada
  39
0.0
  50
0.0
  100
AcDbText
  0
POINT
  5
2D29
330
1F
100
AcDbEntity
  8
borde quebrada
100
AcDbPoint
 10
560694.4224482891
 20
1316005.715176516
 30
159.033401804803
  0
TEXT
  5
2D2C
330
1F
  100
AcDbEntity
  8
borde quebrada
  100
AcDbText
  10
560694.4224482891
  20
1316005.965176516
  30
0.0
  40
0.5
  1
p3
  39
0.0
  50
0.0
  100
AcDbText
  0
TEXT
  5
2D2F
330
1F
  100
AcDbEntity
  8
borde quebrada
  100
AcDbText
  10
560694.4224482891
  20
1316004.965176516
  30
0.0
  40
0.5
  1
borde quebrada
  39
0.0
  50
0.0
  100
AcDbText
  0
POINT
  5
2D30
330
1F
100
AcDbEntity
  8
retiro
100
AcDbPoint
 10
560687.7005895494
 20
1316006.4830558996
 30
162.220292361177
  0
TEXT
  5
2D33
330
1F
  100
AcDbEntity
  8
retiro
  100
AcDbText
  10
560687.7005895494
  20
1316006.7330558996
  30
0.0
  40
0.5
  1
p4
  39
0.0
  50
0.0
  100
AcDbText
  0
TEXT
  5
2D36
330
1F
  100
AcDbEntity
  8
retiro
  100
AcDbText
  10
560687.7005895494
  20
1316005.7330558996
  30
0.0
  40
0.5
  1
retiro
  39
0.0
  50
0.0
  100
AcDbText
  0
POINT
  5
2D37
330
1F
100
AcDbEntity
  8
retiro
100
AcDbPoint
 10
560686.7662629207
 20
1316000.5078901297
 30
160.631273200171
  0
TEXT
  5
2D3A
330
1F
  100
AcDbEntity
  8
retiro
  100
AcDbText
  10
560686.7662629207
  20
1316000.7578901297
  30
0.0
  40
0.5
  1
p5
  39
0.0
  50
0.0
  100
AcDbText
  0
TEXT
  5
2D3D
330
1F
  100
AcDbEntity
  8
retiro
  100
AcDbText
  10
560686.7662629207
  20
1315999.7578901297
  30
0.0
  40
0.5
  1
retiro
  39
0.0
  50
0.0
  100
AcDbText
  0
POINT
  5
2D3E
330
1F
100
AcDbEntity
  8
borde quebrada
100
AcDbPoint
 10
560692.5041915714
 20
1315997.5656928401
 30
157.761018792009
  0
TEXT
  5
2D41
330
1F
  100
AcDbEntity
  8
borde quebrada
  100
AcDbText
  10
560692.5041915714
  20
1315997.8156928401
  30
0.0
  40
0.5
  1
p6
  39
0.0
  50
0.0
  100
AcDbText
  0
TEXT
  5
2D44
330
1F
  100
AcDbEntity
  8
borde quebrada
  100
AcDbText
  10
560692.5041915714
  20
1315996.8156928401
  30
0.0
  40
0.5
  1
borde quebrada
  39
0.0
  50
0.0
  100
AcDbText
  0
POINT
  5
2D45
330
1F
100
AcDbEntity
  8
retiro
100
AcDbPoint
 10
560687.4569426092
 20
1315975.5428552115
 30
157.501000560988
  0
TEXT
  5
2D48
330
1F
  100
AcDbEntity
  8
retiro
  100
AcDbText
  10
560687.4569426092
  20
1315975.7928552115
  30
0.0
  40
0.5
  1
p7
  39
0.0
  50
0.0
  100
AcDbText
  0
TEXT
  5
2D4B
330
1F
  100
AcDbEntity
  8
retiro
  100
AcDbText
  10
560687.4569426092
  20
1315974.7928552115
  30
0.0
  40
0.5
  1
retiro
  39
0.0
  50
0.0
  100
AcDbText
  0
POINT
  5
2D4C
330
1F
100
AcDbEntity
  8
borde quebrada
100
AcDbPoint
 10
560692.2268951345
 20
1315970.589426967
 30
156.018320349569
  0
TEXT
  5
2D4F
330
1F
  100
AcDbEntity
  8
borde quebrada
  100
AcDbText
  10
560692.2268951345
  20
1315970.839426967
  30
0.0
  40
0.5
  1
p8
  39
0.0
  50
0.0
  100
AcDbText
  0
TEXT
  5
2D52
330
1F
  100
AcDbEntity
  8
borde quebrada
  100
AcDbText
  10
560692.2268951345
  20
1315969.839426967
  30
0.0
  40
0.5
  1
borde quebrada
  39
0.0
  50
0.0
  100
AcDbText
  0
POINT
  5
2D53
330
1F
100
AcDbEntity
  8
retiro
100
AcDbPoint
 10
560669.6088086969
 20
1315975.0949040132
 30
158.333278927703
  0
TEXT
  5
2D56
330
1F
  100
AcDbEntity
  8
retiro
  100
AcDbText
  10
560669.6088086969
  20
1315975.3449040132
  30
0.0
  40
0.5
  1
p9
  39
0.0
  50
0.0
  100
AcDbText
  0
TEXT
  5
2D59
330
1F
  100
AcDbEntity
  8
retiro
  100
AcDbText
  10
560669.6088086969
  20
1315974.3449040132
  30
0.0
  40
0.5
  1
retiro
  39
0.0
  50
0.0
  100
AcDbText
  0
POINT
  5
2D5A
330
1F
100
AcDbEntity
  8
borde quebrada
100
AcDbPoint
 10
560674.2948514788
 20
1315970.2407835105
 30
155.907539817764
  0
TEXT
  5
2D5D
330
1F
  100
AcDbEntity
  8
borde quebrada
  100
AcDbText
  10
560674.2948514788
  20
1315970.4907835105
  30
0.0
  40
0.5
  1
p10
  39
0.0
  50
0.0
  100
AcDbText
  0
TEXT
  5
2D60
330
1F
  100
AcDbEntity
  8
borde quebrada
  100
AcDbText
  10
560674.2948514788
  20
1315969.4907835105
  30
0.0
  40
0.5
  1
borde quebrada
  39
0.0
  50
0.0
  100
AcDbText
  0
POINT
  5
2D61
330
1F
100
AcDbEntity
  8
borde quebrada
100
AcDbPoint
 10
560669.2158369955
 20
1315963.082735678
 30
156.248416049182
  0
TEXT
  5
2D64
330
1F
  100
AcDbEntity
  8
borde quebrada
  100
AcDbText
  10
560669.2158369955
  20
1315963.332735678
  30
0.0
  40
0.5
  1
p11
  39
0.0
  50
0.0
  100
AcDbText
  0
TEXT
  5
2D67
330
1F
  100
AcDbEntity
  8
borde quebrada
  100
AcDbText
  10
560669.2158369955
  20
1315962.332735678
  30
0.0
  40
0.5
  1
borde quebrada
  39
0.0
  50
0.0
  100
AcDbText
  0
POINT
  5
2D68
330
1F
100
AcDbEntity
  8
retiro
100
AcDbPoint
 10
560662.4892184566
 20
1315963.6084127433
 30
159.013992540049
  0
TEXT
  5
2D6B
330
1F
  100
AcDbEntity
  8
retiro
  100
AcDbText
  10
560662.4892184566
  20
1315963.8584127433
  30
0.0
  40
0.5
  1
p12
  39
0.0
  50
0.0
  100
AcDbText
  0
TEXT
  5
2D6E
330
1F
  100
AcDbEntity
  8
retiro
  100
AcDbText
  10
560662.4892184566
  20
1315962.8584127433
  30
0.0
  40
0.5
  1
retiro
  39
0.0
  50
0.0
  100
AcDbText
  0
POINT
  5
2D6F
330
1F
100
AcDbEntity
  8
retiro
100
AcDbPoint
 10
560675.5829475638
 20
1315914.413888379
 30
159.699907291102
  0
TEXT
  5
2D72
330
1F
  100
AcDbEntity
  8
retiro
  100
AcDbText
  10
560675.5829475638
  20
1315914.663888379
  30
0.0
  40
0.5
  1
p13
  39
0.0
  50
0.0
  100
AcDbText
  0
TEXT
  5
2D75
330
1F
  100
AcDbEntity
  8
retiro
  100
AcDbText
  10
560675.5829475638
  20
1315913.663888379
  30
0.0
  40
0.5
  1
retiro
  39
0.0
  50
0.0
  100
AcDbText
  0
POINT
  5
2D76
330
1F
100
AcDbEntity
  8
borde quebrada
100
AcDbPoint
 10
560680.4939015976
 20
1315918.2743554942
 30
156.039610043911
  0
TEXT
  5
2D79
330
1F
  100
AcDbEntity
  8
borde quebrada
  100
AcDbText
  10
560680.4939015976
  20
1315918.5243554942
  30
0.0
  40
0.5
  1
p14
  39
0.0
  50
0.0
  100
AcDbText
  0
TEXT
  5
2D7C
330
1F
  100
AcDbEntity
  8
borde quebrada
  100
AcDbText
  10
560680.4939015976
  20
1315917.5243554942
  30
0.0
  40
0.5
  1
borde quebrada
  39
0.0
  50
0.0
  100
AcDbText
  0
POINT
  5
2D7D
330
1F
100
AcDbEntity
  8
retiro
100
AcDbPoint
 10
560687.4327473196
 20
1315899.27610272
 30
157.552323770583
  0
TEXT
  5
2D80
330
1F
  100
AcDbEntity
  8
retiro
  100
AcDbText
  10
560687.4327473196
  20
1315899.52610272
  30
0.0
  40
0.5
  1
p15
  39
0.0
  50
0.0
  100
AcDbText
  0
TEXT
  5
2D83
330
1F
  100
AcDbEntity
  8
retiro
  100
AcDbText
  10
560687.4327473196
  20
1315898.52610272
  30
0.0
  40
0.5
  1
retiro
  39
0.0
  50
0.0
  100
AcDbText
  0
POINT
  5
2D84
330
1F
100
AcDbEntity
  8
borde quebrada
100
AcDbPoint
 10
560693.7562969725
 20
1315899.309570115
 30
154.470296723725
  0
TEXT
  5
2D87
330
1F
  100
AcDbEntity
  8
borde quebrada
  100
AcDbText
  10
560693.7562969725
  20
1315899.559570115
  30
0.0
  40
0.5
  1
p16
  39
0.0
  50
0.0
  100
AcDbText
  0
TEXT
  5
2D8A
330
1F
  100
AcDbEntity
  8
borde quebrada
  100
AcDbText
  10
560693.7562969725
  20
1315898.559570115
  30
0.0
  40
0.5
  1
borde quebrada
  39
0.0
  50
0.0
  100
AcDbText
  0
POINT
  5
2D8B
330
1F
100
AcDbEntity
  8
retiro
100
AcDbPoint
 10
560704.6673124257
 20
1315899.031641328
 30
156.427650206451
  0
TEXT
  5
2D8E
330
1F
  100
AcDbEntity
  8
retiro
  100
AcDbText
  10
560704.6673124257
  20
1315899.281641328
  30
0.0
  40
0.5
  1
p17
  39
0.0
  50
0.0
  100
AcDbText
  0
TEXT
  5
2D91
330
1F
  100
AcDbEntity
  8
retiro
  100
AcDbText
  10
560704.6673124257
  20
1315898.281641328
  30
0.0
  40
0.5
  1
retiro
  39
0.0
  50
0.0
  100
AcDbText
  0
POINT
  5
2D92
330
1F
100
AcDbEntity
  8
borde quebrada
100
AcDbPoint
 10
560698.253883483
 20
1315899.3788290762
 30
154.520873347047
  0
TEXT
  5
2D95
330
1F
  100
AcDbEntity
  8
borde quebrada
  100
AcDbText
  10
560698.253883483
  20
1315899.6288290762
  30
0.0
  40
0.5
  1
p18
  39
0.0
  50
0.0
  100
AcDbText
  0
TEXT
  5
2D98
330
1F
  100
AcDbEntity
  8
borde quebrada
  100
AcDbText
  10
560698.253883483
  20
1315898.6288290762
  30
0.0
  40
0.5
  1
borde quebrada
  39
0.0
  50
0.0
  100
AcDbText
  0
POINT
  5
2D99
330
1F
100
AcDbEntity
  8
borde quebrada
100
AcDbPoint
 10
560687.4037823842
 20
1315918.8989406582
 30
155.369409266913
  0
TEXT
  5
2D9C
330
1F
  100
AcDbEntity
  8
borde quebrada
  100
AcDbText
  10
560687.4037823842
  20
1315919.1489406582
  30
0.0
  40
0.5
  1
p19
  39
0.0
  50
0.0
  100
AcDbText
  0
TEXT
  5
2D9F
330
1F
  100
AcDbEntity
  8
borde quebrada
  100
AcDbText
  10
560687.4037823842
  20
1315918.1489406582
  30
0.0
  40
0.5
  1
borde quebrada
  39
0.0
  50
0.0
  100
AcDbText
  0
POINT
  5
2DA0
330
1F
100
AcDbEntity
  8
retiro
100
AcDbPoint
 10
560692.6149537375
 20
1315923.1774237861
 30
158.223581856028
  0
TEXT
  5
2DA3
330
1F
  100
AcDbEntity
  8
retiro
  100
AcDbText
  10
560692.6149537375
  20
1315923.4274237861
  30
0.0
  40
0.5
  1
p20
  39
0.0
  50
0.0
  100
AcDbText
  0
TEXT
  5
2DA6
330
1F
  100
AcDbEntity
  8
retiro
  100
AcDbText
  10
560692.6149537375
  20
1315922.4274237861
  30
0.0
  40
0.5
  1
retiro
  39
0.0
  50
0.0
  100
AcDbText
  0
POINT
  5
2DA7
330
1F
100
AcDbEntity
  8
borde quebrada
100
AcDbPoint
 10
560677.9741039224
 20
1315959.254649908
 30
156.329661375903
  0
TEXT
  5
2DAA
330
1F
  100
AcDbEntity
  8
borde quebrada
  100
AcDbText
  10
560677.9741039224
  20
1315959.504649908
  30
0.0
  40
0.5
  1
p21
  39
0.0
  50
0.0
  100
AcDbText
  0
TEXT
  5
2DAD
330
1F
  100
AcDbEntity
  8
borde quebrada
  100
AcDbText
  10
560677.9741039224
  20
1315958.504649908
  30
0.0
  40
0.5
  1
borde quebrada
  39
0.0
  50
0.0
  100
AcDbText
  0
POINT
  5
2DAE
330
1F
100
AcDbEntity
  8
retiro
100
AcDbPoint
 10
560684.1984761556
 20
1315956.5988468856
 30
158.170532499119
  0
TEXT
  5
2DB1
330
1F
  100
AcDbEntity
  8
retiro
  100
AcDbText
  10
560684.1984761556
  20
1315956.8488468856
  30
0.0
  40
0.5
  1
p22
  39
0.0
  50
0.0
  100
AcDbText
  0
TEXT
  5
2DB4
330
1F
  100
AcDbEntity
  8
retiro
  100
AcDbText
  10
560684.1984761556
  20
1315955.8488468856
  30
0.0
  40
0.5
  1
retiro
  39
0.0
  50
0.0
  100
AcDbText
  0
POINT
  5
2DB5
330
1F
100
AcDbEntity
  8
borde quebrada
100
AcDbPoint
 10
560700.6668215566
 20
1315962.7966966701
 30
157.039458187662
  0
TEXT
  5
2DB8
330
1F
  100
AcDbEntity
  8
borde quebrada
  100
AcDbText
  10
560700.6668215566
  20
1315963.0466966701
  30
0.0
  40
0.5
  1
p23
  39
0.0
  50
0.0
  100
AcDbText
  0
TEXT
  5
2DBB
330
1F
  100
AcDbEntity
  8
borde quebrada
  100
AcDbText
  10
560700.6668215566
  20
1315962.0466966701
  30
0.0
  40
0.5
  1
borde quebrada
  39
0.0
  50
0.0
  100
AcDbText
  0
POINT
  5
2DBC
330
1F
100
AcDbEntity
  8
retiro
100
AcDbPoint
 10
560703.9424630149
 20
1315956.958301774
 30
159.977586131364
  0
TEXT
  5
2DBF
330
1F
  100
AcDbEntity
  8
retiro
  100
AcDbText
  10
560703.9424630149
  20
1315957.208301774
  30
0.0
  40
0.5
  1
p24
  39
0.0
  50
0.0
  100
AcDbText
  0
TEXT
  5
2DC2
330
1F
  100
AcDbEntity
  8
retiro
  100
AcDbText
  10
560703.9424630149
  20
1315956.208301774
  30
0.0
  40
0.5
  1
retiro
  39
0.0
  50
0.0
  100
AcDbText
  0
POINT
  5
2DC3
330
1F
100
AcDbEntity
  8
borde quebrada
100
AcDbPoint
 10
560698.0251641409
 20
1315998.4529454769
 30
156.276642235529
  0
TEXT
  5
2DC6
330
1F
  100
AcDbEntity
  8
borde quebrada
  100
AcDbText
  10
560698.0251641409
  20
1315998.7029454769
  30
0.0
  40
0.5
  1
p25
  39
0.0
  50
0.0
  100
AcDbText
  0
TEXT
  5
2DC9
330
1F
  100
AcDbEntity
  8
borde quebrada
  100
AcDbText
  10
560698.0251641409
  20
1315997.7029454769
  30
0.0
  40
0.5
  1
borde quebrada
  39
0.0
  50
0.0
  100
AcDbText
  0
POINT
  5
2DCA
330
1F
100
AcDbEntity
  8
retiro
100
AcDbPoint
 10
560704.1845628845
 20
1315995.916385527
 30
157.882846552866
  0
TEXT
  5
2DCD
330
1F
  100
AcDbEntity
  8
retiro
  100
AcDbText
  10
560704.1845628845
  20
1315996.166385527
  30
0.0
  40
0.5
  1
p26
  39
0.0
  50
0.0
  100
AcDbText
  0
TEXT
  5
2DD0
330
1F
  100
AcDbEntity
  8
retiro
  100
AcDbText
  10
560704.1845628845
  20
1315995.166385527
  30
0.0
  40
0.5
  1
retiro
  39
0.0
  50
0.0
  100
AcDbText
  0
POINT
  5
2DD1
330
1F
100
AcDbEntity
  8
punto 1
100
AcDbPoint
 10
560703.5662717345
 20
1316016.5423104085
 30
156.2188511098
  0
TEXT
  5
2DD4
330
1F
  100
AcDbEntity
  8
punto 1
  100
AcDbText
  10
560703.5662717345
  20
1316016.7923104085
  30
0.0
  40
0.5
  1
p27
  39
0.0
  50
0.0
  100
AcDbText
  0
TEXT
  5
2DD7
330
1F
  100
AcDbEntity
  8
punto 1
  100
AcDbText
  10
560703.5662717345
  20
1316015.7923104085
  30
0.0
  40
0.5
  1
punto 1
  39
0.0
  50
0.0
  100
AcDbText
  0
POINT
  5
2DD8
330
1F
100
AcDbEntity
  8
retiro
100
AcDbPoint
 10
560704.6375785908
 20
1316008.5928325804
 30
162.090429839059
  0
TEXT
  5
2DDB
330
1F
  100
AcDbEntity
  8
retiro
  100
AcDbText
  10
560704.6375785908
  20
1316008.8428325804
  30
0.0
  40
0.5
  1
p1
  39
0.0
  50
0.0
  100
AcDbText
  0
TEXT
  5
2DDE
330
1F
  100
AcDbEntity
  8
retiro
  100
AcDbText
  10
560704.6375785908
  20
1316007.8428325804
  30
0.0
  40
0.5
  1
retiro
  39
0.0
  50
0.0
  100
AcDbText
  0
POINT
  5
2DDF
330
1F
100
AcDbEntity
  8
retiro 30m
100
AcDbPoint
 10
560708.3760456
 20
1315986.859207268
 30
158.672054622553
  0
TEXT
  5
2DE2
330
1F
  100
AcDbEntity
  8
retiro 30m
  100
AcDbText
  10
560708.3760456
  20
1315987.109207268
  30
0.0
  40
0.5
  1
p2
  39
0.0
  50
0.0
  100
AcDbText
  0
TEXT
  5
2DE5
330
1F
  100
AcDbEntity
  8
retiro 30m
  100
AcDbText
  10
560708.3760456
  20
1315986.109207268
  30
0.0
  40
0.5
  1
retiro 30m
  39
0.0
  50
0.0
  100
AcDbText
  0
POINT
  5
2DE6
330
1F
100
AcDbEntity
  8
retiro 30m
100
AcDbPoint
 10
560697.8220314065
 20
1316051.6118941223
 30
169.640824643756
  0
TEXT
  5
2DE9
330
1F
  100
AcDbEntity
  8
retiro 30m
  100
AcDbText
  10
560697.8220314065
  20
1316051.8618941223
  30
0.0
  40
0.5
  1
p3
  39
0.0
  50
0.0
  100
AcDbText
  0
TEXT
  5
2DEC
330
1F
  100
AcDbEntity
  8
retiro 30m
  100
AcDbText
  10
560697.8220314065
  20
1316050.8618941223
  30
0.0
  40
0.5
  1
retiro 30m
  39
0.0
  50
0.0
  100
AcDbText
  0
POINT
  5
2DED
330
1F
100
AcDbEntity
  8
punto
100
AcDbPoint
 10
560713.6819358034
 20
1315945.3701076845
 30
164.751266044654
  0
TEXT
  5
2DF0
330
1F
  100
AcDbEntity
  8
punto
  100
AcDbText
  10
560713.6819358034
  20
1315945.6201076845
  30
0.0
  40
0.5
  1
p4
  39
0.0
  50
0.0
  100
AcDbText
  0
TEXT
  5
2DF3
330
1F
  100
AcDbEntity
  8
punto
  100
AcDbText
  10
560713.6819358034
  20
1315944.6201076845
  30
0.0
  40
0.5
  1
punto
  39
0.0
  50
0.0
  100
AcDbText
  0
POINT
  5
2DF4
330
1F
100
AcDbEntity
  8
punto
100
AcDbPoint
 10
560720.2396727239
 20
1315917.4222621005
 30
164.865899023876
  0
TEXT
  5
2DF7
330
1F
  100
AcDbEntity
  8
punto
  100
AcDbText
  10
560720.2396727239
  20
1315917.6722621005
  30
0.0
  40
0.5
  1
p5
  39
0.0
  50
0.0
  100
AcDbText
  0
TEXT
  5
2DFA
330
1F
  100
AcDbEntity
  8
punto
  100
AcDbText
  10
560720.2396727239
  20
1315916.6722621005
  30
0.0
  40
0.5
  1
punto
  39
0.0
  50
0.0
  100
AcDbText
  0
POINT
  5
2DFB
330
1F
100
AcDbEntity
  8
retiro 30m
100
AcDbPoint
 10
560718.0928506358
 20
1315926.5541751895
 30
163.571761774998
  0
TEXT
  5
2DFE
330
1F
  100
AcDbEntity
  8
retiro 30m
  100
AcDbText
  10
560718.0928506358
  20
1315926.8041751895
  30
0.0
  40
0.5
  1
p6
  39
0.0
  50
0.0
  100
AcDbText
  0
TEXT
  5
2E01
330
1F
  100
AcDbEntity
  8
retiro 30m
  100
AcDbText
  10
560718.0928506358
  20
1315925.8041751895
  30
0.0
  40
0.5
  1
retiro 30m
  39
0.0
  50
0.0
  100
AcDbText
  0
POINT
  5
2E02
330
1F
100
AcDbEntity
  8
retiro
100
AcDbPoint
 10
560721.0774565125
 20
1315902.8305507293
 30
162.518993736703
  0
TEXT
  5
2E05
330
1F
  100
AcDbEntity
  8
retiro
  100
AcDbText
  10
560721.0774565125
  20
1315903.0805507293
  30
0.0
  40
0.5
  1
p7
  39
0.0
  50
0.0
  100
AcDbText
  0
TEXT
  5
2E08
330
1F
  100
AcDbEntity
  8
retiro
  100
AcDbText
  10
560721.0774565125
  20
1315902.0805507293
  30
0.0
  40
0.5
  1
retiro
  39
0.0
  50
0.0
  100
AcDbText
  0
POINT
  5
2E09
330
1F
100
AcDbEntity
  8
cerco
100
AcDbPoint
 10
560720.9999231836
 20
1315901.5185766537
 30
161.874459399643
  0
TEXT
  5
2E0C
330
1F
  100
AcDbEntity
  8
cerco
  100
AcDbText
  10
560720.9999231836
  20
1315901.7685766537
  30
0.0
  40
0.5
  1
p8
  39
0.0
  50
0.0
  100
AcDbText
  0
TEXT
  5
2E0F
330
1F
  100
AcDbEntity
  8
cerco
  100
AcDbText
  10
560720.9999231836
  20
1315900.7685766537
  30
0.0
  40
0.5
  1
cerco
  39
0.0
  50
0.0
  100
AcDbText
  0
POINT
  5
2E10
330
1F
100
AcDbEntity
  8
punto
100
AcDbPoint
 10
560708.6352471124
 20
1315899.2101747864
 30
159.295783997611
  0
TEXT
  5
2E13
330
1F
  100
AcDbEntity
  8
punto
  100
AcDbText
  10
560708.6352471124
  20
1315899.4601747864
  30
0.0
  40
0.5
  1
p9
  39
0.0
  50
0.0
  100
AcDbText
  0
TEXT
  5
2E16
330
1F
  100
AcDbEntity
  8
punto
  100
AcDbText
  10
560708.6352471124
  20
1315898.4601747864
  30
0.0
  40
0.5
  1
punto
  39
0.0
  50
0.0
  100
AcDbText
  0
POINT
  5
2E17
330
1F
100
AcDbEntity
  8
borde de rio
100
AcDbPoint
 10
560720.8014703094
 20
1315895.543487895
 30
160.748419468321
  0
TEXT
  5
2E1A
330
1F
  100
AcDbEntity
  8
borde de rio
  100
AcDbText
  10
560720.8014703094
  20
1315895.793487895
  30
0.0
  40
0.5
  1
p1
  39
0.0
  50
0.0
  100
AcDbText
  0
TEXT
  5
2E1D
330
1F
  100
AcDbEntity
  8
borde de rio
  100
AcDbText
  10
560720.8014703094
  20
1315894.793487895
  30
0.0
  40
0.5
  1
borde de rio
  39
0.0
  50
0.0
  100
AcDbText
  0
POINT
  5
2E1E
330
1F
100
AcDbEntity
  8
borde de rio
100
AcDbPoint
 10
560703.0713485073
 20
1315893.2341793207
 30
157.75660567652
  0
TEXT
  5
2E21
330
1F
  100
AcDbEntity
  8
borde de rio
  100
AcDbText
  10
560703.0713485073
  20
1315893.4841793207
  30
0.0
  40
0.5
  1
p2
  39
0.0
  50
0.0
  100
AcDbText
  0
TEXT
  5
2E24
330
1F
  100
AcDbEntity
  8
borde de rio
  100
AcDbText
  10
560703.0713485073
  20
1315892.4841793207
  30
0.0
  40
0.5
  1
borde de rio
  39
0.0
  50
0.0
  100
AcDbText
  0
POINT
  5
2E25
330
1F
100
AcDbEntity
  8
Point
100
AcDbPoint
 10
560683.3781399927
 20
1315885.5621974578
 30
155.498648992542
  0
TEXT
  5
2E28
330
1F
  100
AcDbEntity
  8
Point_Name
  100
AcDbText
  10
560683.3781399927
  20
1315885.8121974578
  30
0.0
  40
0.5
  1
p3
  39
0.0
  50
0.0
  100
AcDbText
  0
TEXT
  5
2E2B
330
1F
  100
AcDbEntity
  8
Point_Code
  100
AcDbText
  10
560683.3781399927
  20
1315884.8121974578
  30
0.0
  40
0.5
  1
conf. rio
  39
0.0
  50
0.0
  100
AcDbText
  0
POINT
  5
2E2C
330
1F
100
AcDbEntity
  8
Point
100
AcDbPoint
 10
560659.7326346012
 20
1315880.788878837
 30
154.918428097843
  0
TEXT
  5
2E2F
330
1F
  100
AcDbEntity
  8
Point_Name
  100
AcDbText
  10
560659.7326346012
  20
1315881.038878837
  30
0.0
  40
0.5
  1
p4
  39
0.0
  50
0.0
  100
AcDbText
  0
TEXT
  5
2E32
330
1F
  100
AcDbEntity
  8
Point_Code
  100
AcDbText
  10
560659.7326346012
  20
1315880.038878837
  30
0.0
  40
0.5
  1
conf. rio
  39
0.0
  50
0.0
  100
AcDbText
  0
POINT
  5
2E33
330
1F
100
AcDbEntity
  8
Point
100
AcDbPoint
 10
560628.9040765258
 20
1315876.669327381
 30
154.890310085669
  0
TEXT
  5
2E36
330
1F
  100
AcDbEntity
  8
Point_Name
  100
AcDbText
  10
560628.9040765258
  20
1315876.919327381
  30
0.0
  40
0.5
  1
p1
  39
0.0
  50
0.0
  100
AcDbText
  0
TEXT
  5
2E39
330
1F
  100
AcDbEntity
  8
Point_Code
  100
AcDbText
  10
560628.9040765258
  20
1315875.919327381
  30
0.0
  40
0.5
  1
conf. rio
  39
0.0
  50
0.0
  100
AcDbText
  0
POINT
  5
2E3A
330
1F
100
AcDbEntity
  8
Point
100
AcDbPoint
 10
560609.0217096835
 20
1315870.3991562894
 30
154.867105741704
  0
TEXT
  5
2E3D
330
1F
  100
AcDbEntity
  8
Point_Name
  100
AcDbText
  10
560609.0217096835
  20
1315870.6491562894
  30
0.0
  40
0.5
  1
p2
  39
0.0
  50
0.0
  100
AcDbText
  0
TEXT
  5
2E40
330
1F
  100
AcDbEntity
  8
Point_Code
  100
AcDbText
  10
560609.0217096835
  20
1315869.6491562894
  30
0.0
  40
0.5
  1
conf. rio
  39
0.0
  50
0.0
  100
AcDbText
  0
POINT
  5
2E41
330
1F
100
AcDbEntity
  8
Point
100
AcDbPoint
 10
560579.1511672947
 20
1315869.5638302995
 30
155.484376139205
  0
TEXT
  5
2E44
330
1F
  100
AcDbEntity
  8
Point_Name
  100
AcDbText
  10
560579.1511672947
  20
1315869.8138302995
  30
0.0
  40
0.5
  1
p3
  39
0.0
  50
0.0
  100
AcDbText
  0
TEXT
  5
2E47
330
1F
  100
AcDbEntity
  8
Point_Code
  100
AcDbText
  10
560579.1511672947
  20
1315868.8138302995
  30
0.0
  40
0.5
  1
conf. rio
  39
0.0
  50
0.0
  100
AcDbText
  0
POINT
  5
2E48
330
1F
100
AcDbEntity
  8
Point
100
AcDbPoint
 10
560537.4675700179
 20
1315873.4577630505
 30
153.384120563309
  0
TEXT
  5
2E4B
330
1F
  100
AcDbEntity
  8
Point_Name
  100
AcDbText
  10
560537.4675700179
  20
1315873.7077630505
  30
0.0
  40
0.5
  1
p4
  39
0.0
  50
0.0
  100
AcDbText
  0
TEXT
  5
2E4E
330
1F
  100
AcDbEntity
  8
Point_Code
  100
AcDbText
  10
560537.4675700179
  20
1315872.7077630505
  30
0.0
  40
0.5
  1
conf. rio
  39
0.0
  50
0.0
  100
AcDbText
  0
POINT
  5
2E4F
330
1F
100
AcDbEntity
  8
Point
100
AcDbPoint
 10
560537.1852659993
 20
1315876.1780870864
 30
153.486837761178
  0
TEXT
  5
2E52
330
1F
  100
AcDbEntity
  8
Point_Name
  100
AcDbText
  10
560537.1852659993
  20
1315876.4280870864
  30
0.0
  40
0.5
  1
p5
  39
0.0
  50
0.0
  100
AcDbText
  0
TEXT
  5
2E55
330
1F
  100
AcDbEntity
  8
Point_Code
  100
AcDbText
  10
560537.1852659993
  20
1315875.4280870864
  30
0.0
  40
0.5
  1
conf. rio
  39
0.0
  50
0.0
  100
AcDbText
  0
POINT
  5
2E56
330
1F
100
AcDbEntity
  8
Point
100
AcDbPoint
 10
560503.8540866849
 20
1315891.8962913943
 30
153.879524647019
  0
TEXT
  5
2E59
330
1F
  100
AcDbEntity
  8
Point_Name
  100
AcDbText
  10
560503.8540866849
  20
1315892.1462913943
  30
0.0
  40
0.5
  1
p7
  39
0.0
  50
0.0
  100
AcDbText
  0
TEXT
  5
2E5C
330
1F
  100
AcDbEntity
  8
Point_Code
  100
AcDbText
  10
560503.8540866849
  20
1315891.1462913943
  30
0.0
  40
0.5
  1
conf. rio
  39
0.0
  50
0.0
  100
AcDbText
  0
ENDSEC
  0
SECTION
  2
OBJECTS
  0
DICTIONARY
  5
C
330
0
100
AcDbDictionary
281
     1
  3
ACAD_COLOR
350
100
  3
ACAD_GROUP
350
D
  3
ACAD_LAYOUT
350
1A
  3
ACAD_MATERIAL
350
D6
  3
ACAD_MLEADERSTYLE
350
125
  3
ACAD_MLINESTYLE
350
17
  3
ACAD_PLOTSETTINGS
350
19
  3
ACAD_PLOTSTYLENAME
350
E
  3
ACAD_SCALELIST
350
103
  3
ACAD_TABLESTYLE
350
101
  3
ACAD_VISUALSTYLE
350
EF
  3
ACDB_RECOMPOSE_DATA
350
2321
  3
AcDbVariableDictionary
350
2319
  0
DICTIONARY
  5
2312
330
2
100
AcDbDictionary
280
     1
281
     1
  3
ACAD_LAYERFILTERS
360
2314
  3
ACLYDICTIONARY
360
2313
  0
DICTIONARY
  5
2315
330
10
100
AcDbDictionary
280
     1
281
     1
  3
ADSK_XREC_LAYER_RECONCILED
360
2316
  0
DICTIONARY
  5
2317
330
2310
100
AcDbDictionary
280
     1
281
     1
  3
ADSK_XREC_LAYER_RECONCILED
360
2318
  0
DICTIONARY
  5
100
102
{ACAD_REACTORS
330
C
102
}
330
C
100
AcDbDictionary
281
     1
  0
DICTIONARY
  5
D
102
{ACAD_REACTORS
330
C
102
}
330
C
100
AcDbDictionary
281
     1
  0
DICTIONARY
  5
1A
102
{ACAD_REACTORS
330
C
102
}
330
C
100
AcDbDictionary
281
     1
  3
Layout1
350
1E
  3
Layout2
350
26
  3
Model
350
22
  0
DICTIONARY
  5
D6
102
{ACAD_REACTORS
330
C
102
}
330
C
100
AcDbDictionary
281
     1
  3
ByBlock
350
DF
  3
ByLayer
350
D7
  3
Global
350
E7
  0
DICTIONARY
  5
125
102
{ACAD_REACTORS
330
C
102
}
330
C
100
AcDbDictionary
281
     1
  3
Standard
350
126
  0
DICTIONARY
  5
17
102
{ACAD_REACTORS
330
C
102
}
330
C
100
AcDbDictionary
281
     1
  3
Standard
350
18
  0
DICTIONARY
  5
19
102
{ACAD_REACTORS
330
C
102
}
330
C
100
AcDbDictionary
281
     1
  0
ACDBDICTIONARYWDFLT
  5
E
102
{ACAD_REACTORS
330
C
102
}
330
C
100
AcDbDictionary
281
     1
  3
Normal
350
F
100
AcDbDictionaryWithDefault
340
F
  0
DICTIONARY
  5
103
102
{ACAD_REACTORS
330
C
102
}
330
C
100
AcDbDictionary
281
     1
  3
A0
350
104
  3
A1
350
105
  3
A2
350
106
  3
A3
350
107
  3
A4
350
108
  3
A5
350
109
  3
A6
350
10A
  3
A7
350
10B
  3
A8
350
10C
  3
A9
350
10D
  3
B0
350
10E
  3
B1
350
10F
  3
B2
350
110
  3
B3
350
111
  3
B4
350
112
  3
B5
350
113
  3
B6
350
114
  3
B7
350
115
  3
B8
350
116
  3
B9
350
117
  3
C0
350
118
  3
C1
350
119
  3
C2
350
11A
  3
C3
350
11B
  3
C4
350
11C
  3
C5
350
11D
  3
C6
350
11E
  3
C7
350
11F
  3
C8
350
120
  3
C9
350
121
  3
D0
350
122
  3
D1
350
123
  3
D2
350
124
  0
DICTIONARY
  5
101
102
{ACAD_REACTORS
330
C
102
}
330
C
100
AcDbDictionary
281
     1
  3
Standard
350
102
  0
DICTIONARY
  5
EF
102
{ACAD_REACTORS
330
C
102
}
330
C
100
AcDbDictionary
281
     1
  3
2dWireframe
350
F5
  3
3D Hidden
350
F7
  3
3dWireframe
350
F6
  3
Basic
350
F4
  3
Brighten
350
FB
  3
ColorChange
350
FF
  3
Conceptual
350
F8
  3
Dim
350
FA
  3
Facepattern
350
FE
  3
Flat
350
F0
  3
FlatWithEdges
350
F1
  3
Gouraud
350
F2
  3
GouraudWithEdges
350
F3
  3
Linepattern
350
FD
  3
Realistic
350
F9
  3
Thicken
350
FC
  0
XRECORD
  5
2321
102
{ACAD_REACTORS
330
C
102
}
330
C
100
AcDbXrecord
280
     1
 90
        1
330
102
  0
DICTIONARY
  5
2319
102
{ACAD_REACTORS
330
C
102
}
330
C
100
AcDbDictionary
281
     1
  3
CANNOSCALE
350
231D
  3
CMLEADERSTYLE
350
231B
  3
CTABLESTYLE
350
231A
  3
LIGHTINGUNITS
350
231E
  3
MSLTSCALE
350
231C
  0
DICTIONARY
  5
2314
102
{ACAD_REACTORS
330
2312
102
}
330
2312
100
AcDbDictionary
281
     1
  0
DICTIONARY
  5
2313
102
{ACAD_REACTORS
330
2312
102
}
330
2312
100
AcDbDictionary
281
     1
1001
ACAD
1000
<All
  0
XRECORD
  5
2316
102
{ACAD_REACTORS
330
2315
102
}
330
2315
100
AcDbXrecord
280
     1
290
     1
  0
XRECORD
  5
2318
102
{ACAD_REACTORS
330
2317
102
}
330
2317
100
AcDbXrecord
280
     1
290
     1
  0
LAYOUT
  5
1E
102
{ACAD_REACTORS
330
1A
102
}
330
1A
100
AcDbPlotSettings
  1

  2
Microsoft XPS Document Writer
  4

  6

 40
0.0
 41
0.0
 42
0.0
 43
0.0
 44
0.0
 45
0.0
 46
0.0
 47
0.0
 48
0.0
 49
0.0
140
0.0
141
0.0
142
1.0
143
1.0
 70
   688
 72
     0
 73
     0
 74
     5
  7

 75
    16
147
1.0
 76
     0
 77
     2
 78
   300
148
0.0
149
0.0
100
AcDbLayout
  1
Layout1
 70
     1
 71
     1
 10
0.0
 20
0.0
 11
0.0
 21
0.0
 12
0.0
 22
0.0
 32
0.0
 14
1.000000000000000E+20
 24
1.000000000000000E+20
 34
1.000000000000000E+20
 15
-1.000000000000000E+20
 25
-1.000000000000000E+20
 35
-1.000000000000000E+20
146
0.0
 13
0.0
 23
0.0
 33
0.0
 16
1.0
 26
0.0
 36
0.0
 17
0.0
 27
1.0
 37
0.0
 76
     0
330
1B
  0
LAYOUT
  5
26
102
{ACAD_REACTORS
330
1A
102
}
330
1A
100
AcDbPlotSettings
  1

  2
Microsoft XPS Document Writer
  4

  6

 40
0.0
 41
0.0
 42
0.0
 43
0.0
 44
0.0
 45
0.0
 46
0.0
 47
0.0
 48
0.0
 49
0.0
140
0.0
141
0.0
142
1.0
143
1.0
 70
   688
 72
     0
 73
     0
 74
     5
  7

 75
    16
147
1.0
 76
     0
 77
     2
 78
   300
148
0.0
149
0.0
100
AcDbLayout
  1
Layout2
 70
     1
 71
     2
 10
0.0
 20
0.0
 11
12.0
 21
9.0
 12
0.0
 22
0.0
 32
0.0
 14
0.0
 24
0.0
 34
0.0
 15
0.0
 25
0.0
 35
0.0
146
0.0
 13
0.0
 23
0.0
 33
0.0
 16
1.0
 26
0.0
 36
0.0
 17
0.0
 27
1.0
 37
0.0
 76
     0
330
23
  0
LAYOUT
  5
22
102
{ACAD_REACTORS
330
1A
102
}
330
1A
100
AcDbPlotSettings
  1

  2
Microsoft XPS Document Writer
  4

  6

 40
0.0
 41
0.0
 42
0.0
 43
0.0
 44
0.0
 45
0.0
 46
0.0
 47
0.0
 48
0.0
 49
0.0
140
0.0
141
0.0
142
1.0
143
1.0
 70
  1712
 72
     0
 73
     0
 74
     0
  7

 75
     0
147
1.0
 76
     0
 77
     2
 78
   300
148
0.0
149
0.0
100
AcDbLayout
  1
Model
 70
     1
 71
     0
 10
0.0
 20
0.0
 11
12.0
 21
9.0
 12
0.0
 22
0.0
 32
0.0
 14
0.0
 24
0.0
 34
0.0
 15
0.0
 25
0.0
 35
0.0
146
0.0
 13
0.0
 23
0.0
 33
0.0
 16
1.0
 26
0.0
 36
0.0
 17
0.0
 27
1.0
 37
0.0
 76
     0
330
1F
331
31
  0
MATERIAL
  5
DF
102
{ACAD_XDICTIONARY
360
E0
102
}
102
{ACAD_REACTORS
330
D6
102
}
330
D6
100
AcDbMaterial
  1
ByBlock
 72
     0
 43
0.0008202099737533
 43
0.0
 43
0.0
 43
0.0
 43
0.0
 43
0.0008202099737533
 43
0.0
 43
0.0
 43
0.0
 43
0.0
 43
1.0
 43
0.0
 43
0.0
 43
0.0
 43
0.0
 43
1.0
 77
     0
 47
0.0008202099737533
 47
0.0
 47
0.0
 47
0.0
 47
0.0
 47
0.0008202099737533
 47
0.0
 47
0.0
 47
0.0
 47
0.0
 47
1.0
 47
0.0
 47
0.0
 47
0.0
 47
0.0
 47
1.0
171
     0
 49
0.0008202099737533
 49
0.0
 49
0.0
 49
0.0
 49
0.0
 49
0.0008202099737533
 49
0.0
 49
0.0
 49
0.0
 49
0.0
 49
1.0
 49
0.0
 49
0.0
 49
0.0
 49
0.0
 49
1.0
175
     0
142
0.0008202099737533
142
0.0
142
0.0
142
0.0
142
0.0
142
0.0008202099737533
142
0.0
142
0.0
142
0.0
142
0.0
142
1.0
142
0.0
142
0.0
142
0.0
142
0.0
142
1.0
179
     0
144
0.0008202099737533
144
0.0
144
0.0
144
0.0
144
0.0
144
0.0008202099737533
144
0.0
144
0.0
144
0.0
144
0.0
144
1.0
144
0.0
144
0.0
144
0.0
144
0.0
144
1.0
147
0.0008202099737533
147
0.0
147
0.0
147
0.0
147
0.0
147
0.0008202099737533
147
0.0
147
0.0
147
0.0
147
0.0
147
1.0
147
0.0
147
0.0
147
0.0
147
0.0
147
1.0
  0
MATERIAL
  5
D7
102
{ACAD_XDICTIONARY
360
D8
102
}
102
{ACAD_REACTORS
330
D6
102
}
330
D6
100
AcDbMaterial
  1
ByLayer
 72
     0
 43
0.0008202099737533
 43
0.0
 43
0.0
 43
0.0
 43
0.0
 43
0.0008202099737533
 43
0.0
 43
0.0
 43
0.0
 43
0.0
 43
1.0
 43
0.0
 43
0.0
 43
0.0
 43
0.0
 43
1.0
 77
     0
 47
0.0008202099737533
 47
0.0
 47
0.0
 47
0.0
 47
0.0
 47
0.0008202099737533
 47
0.0
 47
0.0
 47
0.0
 47
0.0
 47
1.0
 47
0.0
 47
0.0
 47
0.0
 47
0.0
 47
1.0
171
     0
 49
0.0008202099737533
 49
0.0
 49
0.0
 49
0.0
 49
0.0
 49
0.0008202099737533
 49
0.0
 49
0.0
 49
0.0
 49
0.0
 49
1.0
 49
0.0
 49
0.0
 49
0.0
 49
0.0
 49
1.0
175
     0
142
0.0008202099737533
142
0.0
142
0.0
142
0.0
142
0.0
142
0.0008202099737533
142
0.0
142
0.0
142
0.0
142
0.0
142
1.0
142
0.0
142
0.0
142
0.0
142
0.0
142
1.0
179
     0
144
0.0008202099737533
144
0.0
144
0.0
144
0.0
144
0.0
144
0.0008202099737533
144
0.0
144
0.0
144
0.0
144
0.0
144
1.0
144
0.0
144
0.0
144
0.0
144
0.0
144
1.0
147
0.0008202099737533
147
0.0
147
0.0
147
0.0
147
0.0
147
0.0008202099737533
147
0.0
147
0.0
147
0.0
147
0.0
147
1.0
147
0.0
147
0.0
147
0.0
147
0.0
147
1.0
  0
MATERIAL
  5
E7
102
{ACAD_XDICTIONARY
360
E8
102
}
102
{ACAD_REACTORS
330
D6
102
}
330
D6
100
AcDbMaterial
  1
Global
 72
     0
 43
0.0008202099737533
 43
0.0
 43
0.0
 43
0.0
 43
0.0
 43
0.0008202099737533
 43
0.0
 43
0.0
 43
0.0
 43
0.0
 43
1.0
 43
0.0
 43
0.0
 43
0.0
 43
0.0
 43
1.0
 77
     0
 47
0.0008202099737533
 47
0.0
 47
0.0
 47
0.0
 47
0.0
 47
0.0008202099737533
 47
0.0
 47
0.0
 47
0.0
 47
0.0
 47
1.0
 47
0.0
 47
0.0
 47
0.0
 47
0.0
 47
1.0
171
     0
 49
0.0008202099737533
 49
0.0
 49
0.0
 49
0.0
 49
0.0
 49
0.0008202099737533
 49
0.0
 49
0.0
 49
0.0
 49
0.0
 49
1.0
 49
0.0
 49
0.0
 49
0.0
 49
0.0
 49
1.0
175
     0
142
0.0008202099737533
142
0.0
142
0.0
142
0.0
142
0.0
142
0.0008202099737533
142
0.0
142
0.0
142
0.0
142
0.0
142
1.0
142
0.0
142
0.0
142
0.0
142
0.0
142
1.0
179
     0
144
0.0008202099737533
144
0.0
144
0.0
144
0.0
144
0.0
144
0.0008202099737533
144
0.0
144
0.0
144
0.0
144
0.0
144
1.0
144
0.0
144
0.0
144
0.0
144
0.0
144
1.0
147
0.0008202099737533
147
0.0
147
0.0
147
0.0
147
0.0
147
0.0008202099737533
147
0.0
147
0.0
147
0.0
147
0.0
147
1.0
147
0.0
147
0.0
147
0.0
147
0.0
147
1.0
  0
MLEADERSTYLE
  5
126
102
{ACAD_REACTORS
330
125
102
}
330
125
100
AcDbMLeaderStyle
170
     2
171
     1
172
     0
 90
        2
 40
0.0
 41
0.0
173
     1
 91
-1056964608
340
14
 92
       -2
290
     1
 42
2.0
291
     1
 43
0.36
  3
Standard
 44
4.0
300

342
11
174
     1
178
     6
175
     1
176
     0
 93
-1056964608
 45
4.0
292
     0
297
     0
 46
4.0
 94
-1056964608
 47
1.0
 49
1.0
140
1.0
293
     1
141
0.0
294
     1
177
     0
142
1.0
295
     0
296
     0
143
0.125
1001
ACAD_MLEADERVER
1070
     2
  0
MLINESTYLE
  5
18
102
{ACAD_REACTORS
330
17
102
}
330
17
100
AcDbMlineStyle
  2
STANDARD
 70
     0
  3

 62
   256
 51
90.0
 52
90.0
 71
     2
 49
0.5
 62
   256
  6
BYLAYER
 49
-0.5
 62
   256
  6
BYLAYER
  0
ACDBPLACEHOLDER
  5
F
102
{ACAD_REACTORS
330
E
102
}
330
E
  0
SCALE
  5
104
102
{ACAD_REACTORS
330
103
102
}
330
103
100
AcDbScale
 70
     0
300
1:1
140
1.0
141
1.0
290
     1
  0
SCALE
  5
105
102
{ACAD_REACTORS
330
103
102
}
330
103
100
AcDbScale
 70
     0
300
1:2
140
1.0
141
2.0
290
     0
  0
SCALE
  5
106
102
{ACAD_REACTORS
330
103
102
}
330
103
100
AcDbScale
 70
     0
300
1:4
140
1.0
141
4.0
290
     0
  0
SCALE
  5
107
102
{ACAD_REACTORS
330
103
102
}
330
103
100
AcDbScale
 70
     0
300
1:5
140
1.0
141
5.0
290
     0
  0
SCALE
  5
108
102
{ACAD_REACTORS
330
103
102
}
330
103
100
AcDbScale
 70
     0
300
1:8
140
1.0
141
8.0
290
     0
  0
SCALE
  5
109
102
{ACAD_REACTORS
330
103
102
}
330
103
100
AcDbScale
 70
     0
300
1:10
140
1.0
141
10.0
290
     0
  0
SCALE
  5
10A
102
{ACAD_REACTORS
330
103
102
}
330
103
100
AcDbScale
 70
     0
300
1:16
140
1.0
141
16.0
290
     0
  0
SCALE
  5
10B
102
{ACAD_REACTORS
330
103
102
}
330
103
100
AcDbScale
 70
     0
300
1:20
140
1.0
141
20.0
290
     0
  0
SCALE
  5
10C
102
{ACAD_REACTORS
330
103
102
}
330
103
100
AcDbScale
 70
     0
300
1:30
140
1.0
141
30.0
290
     0
  0
SCALE
  5
10D
102
{ACAD_REACTORS
330
103
102
}
330
103
100
AcDbScale
 70
     0
300
1:40
140
1.0
141
40.0
290
     0
  0
SCALE
  5
10E
102
{ACAD_REACTORS
330
103
102
}
330
103
100
AcDbScale
 70
     0
300
1:50
140
1.0
141
50.0
290
     0
  0
SCALE
  5
10F
102
{ACAD_REACTORS
330
103
102
}
330
103
100
AcDbScale
 70
     0
300
1:100
140
1.0
141
100.0
290
     0
  0
SCALE
  5
110
102
{ACAD_REACTORS
330
103
102
}
330
103
100
AcDbScale
 70
     0
300
2:1
140
2.0
141
1.0
290
     0
  0
SCALE
  5
111
102
{ACAD_REACTORS
330
103
102
}
330
103
100
AcDbScale
 70
     0
300
4:1
140
4.0
141
1.0
290
     0
  0
SCALE
  5
112
102
{ACAD_REACTORS
330
103
102
}
330
103
100
AcDbScale
 70
     0
300
8:1
140
8.0
141
1.0
290
     0
  0
SCALE
  5
113
102
{ACAD_REACTORS
330
103
102
}
330
103
100
AcDbScale
 70
     0
300
10:1
140
10.0
141
1.0
290
     0
  0
SCALE
  5
114
102
{ACAD_REACTORS
330
103
102
}
330
103
100
AcDbScale
 70
     0
300
100:1
140
100.0
141
1.0
290
     0
  0
SCALE
  5
115
102
{ACAD_REACTORS
330
103
102
}
330
103
100
AcDbScale
 70
     0
300
1\128" = 1'-0"
140
0.0078125
141
12.0
290
     0
  0
SCALE
  5
116
102
{ACAD_REACTORS
330
103
102
}
330
103
100
AcDbScale
 70
     0
300
1\64" = 1'-0"
140
0.015625
141
12.0
290
     0
  0
SCALE
  5
117
102
{ACAD_REACTORS
330
103
102
}
330
103
100
AcDbScale
 70
     0
300
1\32" = 1'-0"
140
0.03125
141
12.0
290
     0
  0
SCALE
  5
118
102
{ACAD_REACTORS
330
103
102
}
330
103
100
AcDbScale
 70
     0
300
1\16" = 1'-0"
140
0.0625
141
12.0
290
     0
  0
SCALE
  5
119
102
{ACAD_REACTORS
330
103
102
}
330
103
100
AcDbScale
 70
     0
300
3\32" = 1'-0"
140
0.09375
141
12.0
290
     0
  0
SCALE
  5
11A
102
{ACAD_REACTORS
330
103
102
}
330
103
100
AcDbScale
 70
     0
300
1\8" = 1'-0"
140
0.125
141
12.0
290
     0
  0
SCALE
  5
11B
102
{ACAD_REACTORS
330
103
102
}
330
103
100
AcDbScale
 70
     0
300
3\16" = 1'-0"
140
0.1875
141
12.0
290
     0
  0
SCALE
  5
11C
102
{ACAD_REACTORS
330
103
102
}
330
103
100
AcDbScale
 70
     0
300
1\4" = 1'-0"
140
0.25
141
12.0
290
     0
  0
SCALE
  5
11D
102
{ACAD_REACTORS
330
103
102
}
330
103
100
AcDbScale
 70
     0
300
3\8" = 1'-0"
140
0.375
141
12.0
290
     0
  0
SCALE
  5
11E
102
{ACAD_REACTORS
330
103
102
}
330
103
100
AcDbScale
 70
     0
300
1\2" = 1'-0"
140
0.5
141
12.0
290
     0
  0
SCALE
  5
11F
102
{ACAD_REACTORS
330
103
102
}
330
103
100
AcDbScale
 70
     0
300
3\4" = 1'-0"
140
0.75
141
12.0
290
     0
  0
SCALE
  5
120
102
{ACAD_REACTORS
330
103
102
}
330
103
100
AcDbScale
 70
     0
300
1" = 1'-0"
140
1.0
141
12.0
290
     0
  0
SCALE
  5
121
102
{ACAD_REACTORS
330
103
102
}
330
103
100
AcDbScale
 70
     0
300
1-1\2" = 1'-0"
140
1.5
141
12.0
290
     0
  0
SCALE
  5
122
102
{ACAD_REACTORS
330
103
102
}
330
103
100
AcDbScale
 70
     0
300
3" = 1'-0"
140
3.0
141
12.0
290
     0
  0
SCALE
  5
123
102
{ACAD_REACTORS
330
103
102
}
330
103
100
AcDbScale
 70
     0
300
6" = 1'-0"
140
6.0
141
12.0
290
     0
  0
SCALE
  5
124
102
{ACAD_REACTORS
330
103
102
}
330
103
100
AcDbScale
 70
     0
300
1'-0" = 1'-0"
140
12.0
141
12.0
290
     0
  0
TABLESTYLE
  5
102
102
{ACAD_XDICTIONARY
360
231F
102
}
102
{ACAD_REACTORS
330
101
102
}
330
101
100
AcDbTableStyle
  3
Standard
 70
     0
 71
     0
 40
1.5
 41
1.5
280
     0
281
     0
  7
Standard
140
4.5
170
     2
 62
     0
 63
     7
283
     0
 90
      512
 91
        0
  1

274
    -2
284
     1
 64
     0
275
    -2
285
     1
 65
     0
276
    -2
286
     1
 66
     0
277
    -2
287
     1
 67
     0
278
    -2
288
     1
 68
     0
279
    -2
289
     1
 69
     0
  7
Standard
140
6.0
170
     5
 62
     0
 63
     7
283
     0
 90
      512
 91
        0
  1

274
    -2
284
     1
 64
     0
275
    -2
285
     1
 65
     0
276
    -2
286
     1
 66
     0
277
    -2
287
     1
 67
     0
278
    -2
288
     1
 68
     0
279
    -2
289
     1
 69
     0
  7
Standard
140
4.5
170
     5
 62
     0
 63
     7
283
     0
 90
      512
 91
        0
  1

274
    -2
284
     1
 64
     0
275
    -2
285
     1
 65
     0
276
    -2
286
     1
 66
     0
277
    -2
287
     1
 67
     0
278
    -2
288
     1
 68
     0
279
    -2
289
     1
 69
     0
  0
VISUALSTYLE
  5
F5
102
{ACAD_REACTORS
330
EF
102
}
330
EF
100
AcDbVisualStyle
  2
2dWireframe
 70
     4
 71
     0
 72
     2
 73
     0
 90
        0
 40
-0.6
 41
-30.0
 62
     5
 63
     7
421
 16777215
 74
     1
 91
        4
 64
     7
 65
   257
 75
     1
175
     1
 42
1.0
 92
        0
 66
   257
 43
1.0
 76
     1
 77
     6
 78
     2
 67
     7
 79
     5
170
     0
171
     0
290
     0
174
     0
 93
        1
 44
0.0
173
     0
291
     0
 45
0.0
  0
VISUALSTYLE
  5
F7
102
{ACAD_REACTORS
330
EF
102
}
330
EF
100
AcDbVisualStyle
  2
3D Hidden
 70
     6
 71
     1
 72
     2
 73
     2
 90
        0
 40
-0.6
 41
-30.0
 62
     5
 63
     7
421
 16777215
 74
     2
 91
        2
 64
     7
 65
   257
 75
     2
175
     1
 42
40.0
 92
        0
 66
   257
 43
1.0
 76
     1
 77
     6
 78
     2
 67
     7
 79
     3
170
     0
171
     0
290
     0
174
     0
 93
        1
 44
0.0
173
     0
291
     0
 45
0.0
  0
VISUALSTYLE
  5
F6
102
{ACAD_REACTORS
330
EF
102
}
330
EF
100
AcDbVisualStyle
  2
3dWireframe
 70
     5
 71
     0
 72
     2
 73
     0
 90
        0
 40
-0.6
 41
-30.0
 62
     5
 63
     7
421
 16777215
 74
     1
 91
        4
 64
     7
 65
   257
 75
     1
175
     1
 42
1.0
 92
        0
 66
   257
 43
1.0
 76
     1
 77
     6
 78
     2
 67
     7
 79
     5
170
     0
171
     0
290
     0
174
     0
 93
        1
 44
0.0
173
     0
291
     0
 45
0.0
  0
VISUALSTYLE
  5
F4
102
{ACAD_REACTORS
330
EF
102
}
330
EF
100
AcDbVisualStyle
  2
Basic
 70
     7
 71
     1
 72
     0
 73
     1
 90
        0
 40
-0.6
 41
-30.0
 62
     5
 63
     7
421
 16777215
 74
     0
 91
        4
 64
     7
 65
   257
 75
     1
175
     1
 42
1.0
 92
        8
 66
     7
 43
1.0
 76
     1
 77
     6
 78
     2
 67
     7
 79
     5
170
     0
171
     0
290
     0
174
     0
 93
        1
 44
0.0
173
     0
291
     1
 45
0.0
  0
VISUALSTYLE
  5
FB
102
{ACAD_REACTORS
330
EF
102
}
330
EF
100
AcDbVisualStyle
  2
Brighten
 70
    12
 71
     2
 72
     2
 73
     0
 90
        0
 40
-0.6
 41
-30.0
 62
     5
 63
     7
421
 16777215
 74
     1
 91
        4
 64
     7
 65
   257
 75
     1
175
     1
 42
1.0
 92
        8
 66
     7
 43
1.0
 76
     1
 77
     6
 78
     2
 67
     7
 79
     5
170
     0
171
     0
290
     0
174
     0
 93
        1
 44
50.0
173
     0
291
     1
 45
0.0
  0
VISUALSTYLE
  5
FF
102
{ACAD_REACTORS
330
EF
102
}
330
EF
100
AcDbVisualStyle
  2
ColorChange
 70
    16
 71
     2
 72
     2
 73
     3
 90
        0
 40
-0.6
 41
-30.0
 62
     5
 63
     8
421
  8421504
 74
     1
 91
        4
 64
     7
 65
   257
 75
     1
175
     1
 42
1.0
 92
        8
 66
     8
424
  8421504
 43
1.0
 76
     1
 77
     6
 78
     2
 67
     7
 79
     5
170
     0
171
     0
290
     0
174
     0
 93
        1
 44
0.0
173
     0
291
     1
 45
0.0
  0
VISUALSTYLE
  5
F8
102
{ACAD_REACTORS
330
EF
102
}
330
EF
100
AcDbVisualStyle
  2
Conceptual
 70
     9
 71
     3
 72
     2
 73
     0
 90
        0
 40
-0.6
 41
-30.0
 62
     5
 63
     7
421
 16777215
 74
     2
 91
        2
 64
     7
 65
   257
 75
     1
175
     1
 42
40.0
 92
        8
 66
     7
 43
1.0
 76
     1
 77
     6
 78
     2
 67
     7
 79
     3
170
     0
171
     0
290
     0
174
     0
 93
        1
 44
0.0
173
     0
291
     0
 45
0.0
  0
VISUALSTYLE
  5
FA
102
{ACAD_REACTORS
330
EF
102
}
330
EF
100
AcDbVisualStyle
  2
Dim
 70
    11
 71
     2
 72
     2
 73
     0
 90
        0
 40
-0.6
 41
-30.0
 62
     5
 63
     7
421
 16777215
 74
     1
 91
        4
 64
     7
 65
   257
 75
     1
175
     1
 42
1.0
 92
        8
 66
     7
 43
1.0
 76
     1
 77
     6
 78
     2
 67
     7
 79
     5
170
     0
171
     0
290
     0
174
     0
 93
        1
 44
-50.0
173
     0
291
     1
 45
0.0
  0
VISUALSTYLE
  5
FE
102
{ACAD_REACTORS
330
EF
102
}
330
EF
100
AcDbVisualStyle
  2
Facepattern
 70
    15
 71
     2
 72
     2
 73
     0
 90
        0
 40
-0.6
 41
-30.0
 62
     5
 63
     7
421
 16777215
 74
     1
 91
        4
 64
     7
 65
   257
 75
     1
175
     1
 42
1.0
 92
        8
 66
     7
 43
1.0
 76
     1
 77
     6
 78
     2
 67
     7
 79
     5
170
     0
171
     0
290
     0
174
     0
 93
        1
 44
0.0
173
     0
291
     1
 45
0.0
  0
VISUALSTYLE
  5
F0
102
{ACAD_REACTORS
330
EF
102
}
330
EF
100
AcDbVisualStyle
  2
Flat
 70
     0
 71
     2
 72
     1
 73
     1
 90
        2
 40
-0.6
 41
30.0
 62
     5
 63
     7
421
 16777215
 74
     0
 91
        4
 64
     7
 65
   257
 75
     1
175
     1
 42
1.0
 92
        8
 66
     7
 43
1.0
 76
     1
 77
     6
 78
     2
 67
     7
 79
     5
170
     0
171
     0
290
     0
174
     0
 93
       13
 44
0.0
173
     0
291
     1
 45
0.0
  0
VISUALSTYLE
  5
F1
102
{ACAD_REACTORS
330
EF
102
}
330
EF
100
AcDbVisualStyle
  2
FlatWithEdges
 70
     1
 71
     2
 72
     1
 73
     1
 90
        2
 40
-0.6
 41
30.0
 62
     5
 63
     7
421
 16777215
 74
     1
 91
        4
 64
     7
 65
   257
 75
     1
175
     1
 42
1.0
 92
        0
 66
   257
 43
1.0
 76
     1
 77
     6
 78
     2
 67
     7
 79
     5
170
     0
171
     0
290
     0
174
     0
 93
       13
 44
0.0
173
     0
291
     1
 45
0.0
  0
VISUALSTYLE
  5
F2
102
{ACAD_REACTORS
330
EF
102
}
330
EF
100
AcDbVisualStyle
  2
Gouraud
 70
     2
 71
     2
 72
     2
 73
     1
 90
        2
 40
-0.6
 41
30.0
 62
     5
 63
     7
421
 16777215
 74
     0
 91
        4
 64
     7
 65
   257
 75
     1
175
     1
 42
1.0
 92
        0
 66
     7
 43
1.0
 76
     1
 77
     6
 78
     2
 67
     7
 79
     5
170
     0
171
     0
290
     0
174
     0
 93
       13
 44
0.0
173
     0
291
     1
 45
0.0
  0
VISUALSTYLE
  5
F3
102
{ACAD_REACTORS
330
EF
102
}
330
EF
100
AcDbVisualStyle
  2
GouraudWithEdges
 70
     3
 71
     2
 72
     2
 73
     1
 90
        2
 40
-0.6
 41
30.0
 62
     5
 63
     7
421
 16777215
 74
     1
 91
        4
 64
     7
 65
   257
 75
     1
175
     1
 42
1.0
 92
        0
 66
   257
 43
1.0
 76
     1
 77
     6
 78
     2
 67
     7
 79
     5
170
     0
171
     0
290
     0
174
     0
 93
       13
 44
0.0
173
     0
291
     1
 45
0.0
  0
VISUALSTYLE
  5
FD
102
{ACAD_REACTORS
330
EF
102
}
330
EF
100
AcDbVisualStyle
  2
Linepattern
 70
    14
 71
     2
 72
     2
 73
     0
 90
        0
 40
-0.6
 41
-30.0
 62
     5
 63
     7
421
 16777215
 74
     1
 91
        4
 64
     7
 65
   257
 75
     7
175
     7
 42
1.0
 92
        8
 66
     7
 43
1.0
 76
     1
 77
     6
 78
     2
 67
     7
 79
     5
170
     0
171
     0
290
     0
174
     0
 93
        1
 44
0.0
173
     0
291
     1
 45
0.0
  0
VISUALSTYLE
  5
F9
102
{ACAD_REACTORS
330
EF
102
}
330
EF
100
AcDbVisualStyle
  2
Realistic
 70
     8
 71
     2
 72
     2
 73
     0
 90
        0
 40
-0.6
 41
-30.0
 62
     5
 63
     7
421
 16777215
 74
     1
 91
        0
 64
     7
 65
   257
 75
     1
175
     1
 42
1.0
 92
        8
 66
     8
424
  7895160
 43
1.0
 76
     1
 77
     6
 78
     2
 67
     7
 79
     5
170
     0
171
     0
290
     0
174
     0
 93
       13
 44
0.0
173
     0
291
     0
 45
0.0
  0
VISUALSTYLE
  5
FC
102
{ACAD_REACTORS
330
EF
102
}
330
EF
100
AcDbVisualStyle
  2
Thicken
 70
    13
 71
     2
 72
     2
 73
     0
 90
        0
 40
-0.6
 41
-30.0
 62
     5
 63
     7
421
 16777215
 74
     1
 91
        4
 64
     7
 65
   257
 75
     1
175
     1
 42
1.0
 92
       12
 66
     7
 43
1.0
 76
     1
 77
     6
 78
     2
 67
     7
 79
     5
170
     0
171
     0
290
     0
174
     0
 93
        1
 44
0.0
173
     0
291
     1
 45
0.0
  0
DICTIONARYVAR
  5
231D
102
{ACAD_REACTORS
330
2319
102
}
330
2319
100
DictionaryVariables
280
     0
  1
1:1
  0
DICTIONARYVAR
  5
231B
102
{ACAD_REACTORS
330
2319
102
}
330
2319
100
DictionaryVariables
280
     0
  1
STANDARD
  0
DICTIONARYVAR
  5
231A
102
{ACAD_REACTORS
330
2319
102
}
330
2319
100
DictionaryVariables
280
     0
  1
STANDARD
  0
DICTIONARYVAR
  5
231E
102
{ACAD_REACTORS
330
2319
102
}
330
2319
100
DictionaryVariables
280
     0
  1
0
  0
DICTIONARYVAR
  5
231C
102
{ACAD_REACTORS
330
2319
102
}
330
2319
100
DictionaryVariables
280
     0
  1
0
  0
DICTIONARY
  5
E0
330
DF
100
AcDbDictionary
280
     1
281
     1
  3
BUMPTILE
360
E2
  3
DIFFUSETILE
360
E1
  3
OPACITYTILE
360
E5
  3
REFLECTIONTILE
360
E4
  3
REFRACTIONTILE
360
E6
  3
SPECULARTILE
360
E3
  0
DICTIONARY
  5
D8
330
D7
100
AcDbDictionary
280
     1
281
     1
  3
BUMPTILE
360
DA
  3
DIFFUSETILE
360
D9
  3
OPACITYTILE
360
DD
  3
REFLECTIONTILE
360
DC
  3
REFRACTIONTILE
360
DE
  3
SPECULARTILE
360
DB
  0
DICTIONARY
  5
E8
330
E7
100
AcDbDictionary
280
     1
281
     1
  3
BUMPTILE
360
EA
  3
DIFFUSETILE
360
E9
  3
OPACITYTILE
360
ED
  3
REFLECTIONTILE
360
EC
  3
REFRACTIONTILE
360
EE
  3
SPECULARTILE
360
EB
  0
DICTIONARY
  5
231F
330
102
100
AcDbDictionary
280
     1
281
     1
  3
ACAD_ROUNDTRIP_2008_TABLESTYLE_CELLSTYLEMAP
360
2320
  0
XRECORD
  5
E2
102
{ACAD_REACTORS
330
E0
102
}
330
E0
100
AcDbXrecord
280
     1
270
     1
271
     1
  0
XRECORD
  5
E1
102
{ACAD_REACTORS
330
E0
102
}
330
E0
100
AcDbXrecord
280
     1
270
     1
271
     1
  0
XRECORD
  5
E5
102
{ACAD_REACTORS
330
E0
102
}
330
E0
100
AcDbXrecord
280
     1
270
     1
271
     1
  0
XRECORD
  5
E4
102
{ACAD_REACTORS
330
E0
102
}
330
E0
100
AcDbXrecord
280
     1
270
     1
271
     1
  0
XRECORD
  5
E6
102
{ACAD_REACTORS
330
E0
102
}
330
E0
100
AcDbXrecord
280
     1
270
     1
271
     1
  0
XRECORD
  5
E3
102
{ACAD_REACTORS
330
E0
102
}
330
E0
100
AcDbXrecord
280
     1
270
     1
271
     1
  0
XRECORD
  5
DA
102
{ACAD_REACTORS
330
D8
102
}
330
D8
100
AcDbXrecord
280
     1
270
     1
271
     1
  0
XRECORD
  5
D9
102
{ACAD_REACTORS
330
D8
102
}
330
D8
100
AcDbXrecord
280
     1
270
     1
271
     1
  0
XRECORD
  5
DD
102
{ACAD_REACTORS
330
D8
102
}
330
D8
100
AcDbXrecord
280
     1
270
     1
271
     1
  0
XRECORD
  5
DC
102
{ACAD_REACTORS
330
D8
102
}
330
D8
100
AcDbXrecord
280
     1
270
     1
271
     1
  0
XRECORD
  5
DE
102
{ACAD_REACTORS
330
D8
102
}
330
D8
100
AcDbXrecord
280
     1
270
     1
271
     1
  0
XRECORD
  5
DB
102
{ACAD_REACTORS
330
D8
102
}
330
D8
100
AcDbXrecord
280
     1
270
     1
271
     1
  0
XRECORD
  5
EA
102
{ACAD_REACTORS
330
E8
102
}
330
E8
100
AcDbXrecord
280
     1
270
     1
271
     1
  0
XRECORD
  5
E9
102
{ACAD_REACTORS
330
E8
102
}
330
E8
100
AcDbXrecord
280
     1
270
     1
271
     1
  0
XRECORD
  5
ED
102
{ACAD_REACTORS
330
E8
102
}
330
E8
100
AcDbXrecord
280
     1
270
     1
271
     1
  0
XRECORD
  5
EC
102
{ACAD_REACTORS
330
E8
102
}
330
E8
100
AcDbXrecord
280
     1
270
     1
271
     1
  0
XRECORD
  5
EE
102
{ACAD_REACTORS
330
E8
102
}
330
E8
100
AcDbXrecord
280
     1
270
     1
271
     1
  0
XRECORD
  5
EB
102
{ACAD_REACTORS
330
E8
102
}
330
E8
100
AcDbXrecord
280
     1
270
     1
271
     1
  0
CELLSTYLEMAP
  5
2320
102
{ACAD_REACTORS
330
231F
102
}
330
231F
100
AcDbCellStyleMap
 90
        3
300
CELLSTYLE
  1
TABLEFORMAT_BEGIN
 90
        5
170
     1
 91
        0
 92
    32768
 62
   257
 93
        1
300
CONTENTFORMAT
  1
CONTENTFORMAT_BEGIN
 90
        0
 91
        0
 92
      512
 93
        0
300

 40
0.0
140
1.0
 94
        5
 62
     0
340
11
144
6.0
309
CONTENTFORMAT_END
171
     1
301
MARGIN
  1
CELLMARGIN_BEGIN
 40
1.5
 40
1.5
 40
1.5
 40
1.5
 40
4.5
 40
4.5
309
CELLMARGIN_END
 94
        6
 95
        1
302
GRIDFORMAT
  1
GRIDFORMAT_BEGIN
 90
        0
 91
        1
 62
     0
 92
       -2
340
0
 93
        0
 40
1.125
309
GRIDFORMAT_END
 95
        2
302
GRIDFORMAT
  1
GRIDFORMAT_BEGIN
 90
        0
 91
        1
 62
     0
 92
       -2
340
0
 93
        0
 40
1.125
309
GRIDFORMAT_END
 95
        4
302
GRIDFORMAT
  1
GRIDFORMAT_BEGIN
 90
        0
 91
        1
 62
     0
 92
       -2
340
0
 93
        0
 40
1.125
309
GRIDFORMAT_END
 95
        8
302
GRIDFORMAT
  1
GRIDFORMAT_BEGIN
 90
        0
 91
        1
 62
     0
 92
       -2
340
0
 93
        0
 40
1.125
309
GRIDFORMAT_END
 95
       16
302
GRIDFORMAT
  1
GRIDFORMAT_BEGIN
 90
        0
 91
        1
 62
     0
 92
       -2
340
0
 93
        0
 40
1.125
309
GRIDFORMAT_END
 95
       32
302
GRIDFORMAT
  1
GRIDFORMAT_BEGIN
 90
        0
 91
        1
 62
     0
 92
       -2
340
0
 93
        0
 40
1.125
309
GRIDFORMAT_END
309
TABLEFORMAT_END
  1
CELLSTYLE_BEGIN
 90
        1
 91
        1
300
_TITLE
309
CELLSTYLE_END
300
CELLSTYLE
  1
TABLEFORMAT_BEGIN
 90
        5
170
     1
 91
        0
 92
        0
 62
   257
 93
        1
300
CONTENTFORMAT
  1
CONTENTFORMAT_BEGIN
 90
        0
 91
        0
 92
      512
 93
        0
300

 40
0.0
140
1.0
 94
        5
 62
     0
340
11
144
4.5
309
CONTENTFORMAT_END
171
     1
301
MARGIN
  1
CELLMARGIN_BEGIN
 40
1.5
 40
1.5
 40
1.5
 40
1.5
 40
4.5
 40
4.5
309
CELLMARGIN_END
 94
        6
 95
        1
302
GRIDFORMAT
  1
GRIDFORMAT_BEGIN
 90
        0
 91
        1
 62
     0
 92
       -2
340
0
 93
        0
 40
1.125
309
GRIDFORMAT_END
 95
        2
302
GRIDFORMAT
  1
GRIDFORMAT_BEGIN
 90
        0
 91
        1
 62
     0
 92
       -2
340
0
 93
        0
 40
1.125
309
GRIDFORMAT_END
 95
        4
302
GRIDFORMAT
  1
GRIDFORMAT_BEGIN
 90
        0
 91
        1
 62
     0
 92
       -2
340
0
 93
        0
 40
1.125
309
GRIDFORMAT_END
 95
        8
302
GRIDFORMAT
  1
GRIDFORMAT_BEGIN
 90
        0
 91
        1
 62
     0
 92
       -2
340
0
 93
        0
 40
1.125
309
GRIDFORMAT_END
 95
       16
302
GRIDFORMAT
  1
GRIDFORMAT_BEGIN
 90
        0
 91
        1
 62
     0
 92
       -2
340
0
 93
        0
 40
1.125
309
GRIDFORMAT_END
 95
       32
302
GRIDFORMAT
  1
GRIDFORMAT_BEGIN
 90
        0
 91
        1
 62
     0
 92
       -2
340
0
 93
        0
 40
1.125
309
GRIDFORMAT_END
309
TABLEFORMAT_END
  1
CELLSTYLE_BEGIN
 90
        2
 91
        1
300
_HEADER
309
CELLSTYLE_END
300
CELLSTYLE
  1
TABLEFORMAT_BEGIN
 90
        5
170
     1
 91
        0
 92
        0
 62
   257
 93
        1
300
CONTENTFORMAT
  1
CONTENTFORMAT_BEGIN
 90
        0
 91
        0
 92
      512
 93
        0
300

 40
0.0
140
1.0
 94
        2
 62
     0
340
11
144
4.5
309
CONTENTFORMAT_END
171
     1
301
MARGIN
  1
CELLMARGIN_BEGIN
 40
1.5
 40
1.5
 40
1.5
 40
1.5
 40
4.5
 40
4.5
309
CELLMARGIN_END
 94
        6
 95
        1
302
GRIDFORMAT
  1
GRIDFORMAT_BEGIN
 90
        0
 91
        1
 62
     0
 92
       -2
340
0
 93
        0
 40
1.125
309
GRIDFORMAT_END
 95
        2
302
GRIDFORMAT
  1
GRIDFORMAT_BEGIN
 90
        0
 91
        1
 62
     0
 92
       -2
340
0
 93
        0
 40
1.125
309
GRIDFORMAT_END
 95
        4
302
GRIDFORMAT
  1
GRIDFORMAT_BEGIN
 90
        0
 91
        1
 62
     0
 92
       -2
340
0
 93
        0
 40
1.125
309
GRIDFORMAT_END
 95
        8
302
GRIDFORMAT
  1
GRIDFORMAT_BEGIN
 90
        0
 91
        1
 62
     0
 92
       -2
340
0
 93
        0
 40
1.125
309
GRIDFORMAT_END
 95
       16
302
GRIDFORMAT
  1
GRIDFORMAT_BEGIN
 90
        0
 91
        1
 62
     0
 92
       -2
340
0
 93
        0
 40
1.125
309
GRIDFORMAT_END
 95
       32
302
GRIDFORMAT
  1
GRIDFORMAT_BEGIN
 90
        0
 91
        1
 62
     0
 92
       -2
340
0
 93
        0
 40
1.125
309
GRIDFORMAT_END
309
TABLEFORMAT_END
  1
CELLSTYLE_BEGIN
 90
        3
 91
        2
300
_DATA
309
CELLSTYLE_END
  0
ENDSEC
  0
EOF
