  0
SECTION
  2
HEADER
  9
$ACADVER
  1
AC1021
  9
$ACADMAINTVER
 70
25
  9
$DWGCODEPAGE
  3
ANSI_936
  9
$LASTSAVEDBY
  1
admin
  9
$INSBASE
 10
0.0
 20
0.0
 30
0.0
  9
$EXTMIN
 10
-250.0
 20
-275.0
 30
0.0
  9
$EXTMAX
 10
430.0
 20
400.0
 30
12.0
  9
$LIMMIN
 10
0.0
 20
0.0
  9
$LIMMAX
 10
1600.0
 20
1200.0
  9
$ORTHOMODE
 70
0
  9
$REGENMODE
 70
1
  9
$FILLMODE
 70
1
  9
$QTEXTMODE
 70
0
  9
$MIRRTEXT
 70
0
  9
$LTSCALE
 40
1.0
  9
$ATTMODE
 70
1
  9
$TEXTSIZE
 40
2.5
  9
$TRACEWID
 40
1.0
  9
$TEXTSTYLE
  7
Standard
  9
$CLAYER
  8
0
  9
$CELTYPE
  6
ByLayer
  9
$CECOLOR
 62
256
  9
$CELTSCALE
 40
1.0
  9
$DISPSILH
 70
0
  9
$DIMSCALE
 40
0.05
  9
$DIMASZ
 40
200.0
  9
$DIMEXO
 40
2.0
  9
$DIMDLI
 40
100.0
  9
$DIMRND
 40
0.0
  9
$DIMDLE
 40
0.0
  9
$DIMEXE
 40
200.0
  9
$DIMTP
 40
0.0
  9
$DIMTM
 40
0.0
  9
$DIMTXT
 40
350.0
  9
$DIMCEN
 40
2.5
  9
$DIMTSZ
 40
0.0
  9
$DIMTOL
 70
0
  9
$DIMLIM
 70
0
  9
$DIMTIH
 70
0
  9
$DIMTOH
 70
0
  9
$DIMSE1
 70
0
  9
$DIMSE2
 70
0
  9
$DIMTAD
 70
1
  9
$DIMZIN
 70
8
  9
$DIMBLK
  1

  9
$DIMASO
 70
1
  9
$DIMSHO
 70
1
  9
$DIMPOST
  1

  9
$DIMAPOST
  1

  9
$DIMALT
 70
0
  9
$DIMALTD
 70
3
  9
$DIMALTF
 40
0.03937007874016
  9
$DIMLFAC
 40
1.0
  9
$DIMTOFL
 70
1
  9
$DIMTVP
 40
0.0
  9
$DIMTIX
 70
0
  9
$DIMSOXD
 70
0
  9
$DIMSAH
 70
0
  9
$DIMBLK1
  1

  9
$DIMBLK2
  1

  9
$DIMSTYLE
  2
ISO-25
  9
$DIMCLRD
 70
6
  9
$DIMCLRE
 70
6
  9
$DIMCLRT
 70
3
  9
$DIMTFAC
 40
1.0
  9
$DIMGAP
 40
100.0
  9
$DIMJUST
 70
0
  9
$DIMSD1
 70
0
  9
$DIMSD2
 70
0
  9
$DIMTOLJ
 70
0
  9
$DIMTZIN
 70
8
  9
$DIMALTZ
 70
0
  9
$DIMALTTZ
 70
0
  9
$DIMUPT
 70
0
  9
$DIMDEC
 70
1
  9
$DIMTDEC
 70
1
  9
$DIMALTU
 70
2
  9
$DIMALTTD
 70
3
  9
$DIMTXSTY
  7
Standard
  9
$DIMAUNIT
 70
0
  9
$DIMADEC
 70
0
  9
$DIMALTRND
 40
0.0
  9
$DIMAZIN
 70
0
  9
$DIMDSEP
 70
46
  9
$DIMATFIT
 70
3
  9
$DIMFRAC
 70
0
  9
$DIMLDRBLK
  1

  9
$DIMLUNIT
 70
2
  9
$DIMLWD
 70
-2
  9
$DIMLWE
 70
-2
  9
$DIMTMOVE
 70
0
  9
$DIMFXL
 40
1.0
  9
$DIMFXLON
 70
0
  9
$DIMJOGANG
 40
0.7853981633974483
  9
$DIMTFILL
 70
0
  9
$DIMTFILLCLR
 70
0
  9
$DIMARCSYM
 70
0
  9
$DIMLTYPE
  6

  9
$DIMLTEX1
  6

  9
$DIMLTEX2
  6

  9
$LUNITS
 70
2
  9
$LUPREC
 70
3
  9
$SKETCHINC
 40
1.0
  9
$FILLETRAD
 40
10.0
  9
$AUNITS
 70
0
  9
$AUPREC
 70
0
  9
$MENU
  1

  9
$ELEVATION
 40
0.0
  9
$PELEVATION
 40
0.0
  9
$THICKNESS
 40
0.0
  9
$LIMCHECK
 70
0
  9
$CHAMFERA
 40
10.0
  9
$CHAMFERB
 40
10.0
  9
$CHAMFERC
 40
20.0
  9
$CHAMFERD
 40
0.0
  9
$SKPOLY
 70
0
  9
$TDCREATE
 40
2455022.970692847
  9
$TDUCREATE
 40
2455022.637359514
  9
$TDUPDATE
 40
2458518.356494503
  9
$TDUUPDATE
 40
2458518.023161169
  9
$TDINDWG
 40
0.0102706829
  9
$TDUSRTIMER
 40
2456833.531150197
  9
$USRTIMER
 70
1
  9
$ANGBASE
 50
0.0
  9
$ANGDIR
 70
0
  9
$PDMODE
 70
3
  9
$PDSIZE
 40
0.2
  9
$PLINEWID
 40
0.0
  9
$SPLFRAME
 70
0
  9
$SPLINETYPE
 70
6
  9
$SPLINESEGS
 70
8
  9
$HANDSEED
  5
2B38
  9
$SURFTAB1
 70
6
  9
$SURFTAB2
 70
6
  9
$SURFTYPE
 70
6
  9
$SURFU
 70
6
  9
$SURFV
 70
6
  9
$UCSBASE
  2

  9
$UCSNAME
  2

  9
$UCSORG
 10
0.0
 20
0.0
 30
0.0
  9
$UCSXDIR
 10
1.0
 20
0.0
 30
0.0
  9
$UCSYDIR
 10
0.0
 20
1.0
 30
0.0
  9
$UCSORTHOREF
  2

  9
$UCSORTHOVIEW
 70
0
  9
$UCSORGTOP
 10
0.0
 20
0.0
 30
0.0
  9
$UCSORGBOTTOM
 10
0.0
 20
0.0
 30
0.0
  9
$UCSORGLEFT
 10
0.0
 20
0.0
 30
0.0
  9
$UCSORGRIGHT
 10
0.0
 20
0.0
 30
0.0
  9
$UCSORGFRONT
 10
0.0
 20
0.0
 30
0.0
  9
$UCSORGBACK
 10
0.0
 20
0.0
 30
0.0
  9
$PUCSBASE
  2

  9
$PUCSNAME
  2

  9
$PUCSORG
 10
0.0
 20
0.0
 30
0.0
  9
$PUCSXDIR
 10
1.0
 20
0.0
 30
0.0
  9
$PUCSYDIR
 10
0.0
 20
1.0
 30
0.0
  9
$PUCSORTHOREF
  2

  9
$PUCSORTHOVIEW
 70
0
  9
$PUCSORGTOP
 10
0.0
 20
0.0
 30
0.0
  9
$PUCSORGBOTTOM
 10
0.0
 20
0.0
 30
0.0
  9
$PUCSORGLEFT
 10
0.0
 20
0.0
 30
0.0
  9
$PUCSORGRIGHT
 10
0.0
 20
0.0
 30
0.0
  9
$PUCSORGFRONT
 10
0.0
 20
0.0
 30
0.0
  9
$PUCSORGBACK
 10
0.0
 20
0.0
 30
0.0
  9
$USERI1
 70
0
  9
$USERI2
 70
0
  9
$USERI3
 70
0
  9
$USERI4
 70
0
  9
$USERI5
 70
0
  9
$USERR1
 40
0.0
  9
$USERR2
 40
0.0
  9
$USERR3
 40
0.0
  9
$USERR4
 40
0.0
  9
$USERR5
 40
0.0
  9
$WORLDVIEW
 70
1
  9
$SHADEDGE
 70
3
  9
$SHADEDIF
 70
70
  9
$TILEMODE
 70
1
  9
$MAXACTVP
 70
64
  9
$PINSBASE
 10
0.0
 20
0.0
 30
0.0
  9
$PLIMCHECK
 70
0
  9
$PEXTMIN
 10
1.0E20
 20
1.0E20
 30
1.0E20
  9
$PEXTMAX
 10
-1.0E20
 20
-1.0E20
 30
-1.0E20
  9
$PLIMMIN
 10
0.0
 20
0.0
  9
$PLIMMAX
 10
0.0
 20
0.0
  9
$UNITMODE
 70
0
  9
$VISRETAIN
 70
1
  9
$PLINEGEN
 70
0
  9
$PSLTSCALE
 70
1
  9
$TREEDEPTH
 70
3020
  9
$CMLSTYLE
  2
Standard
  9
$CMLJUST
 70
0
  9
$CMLSCALE
 40
20.0
  9
$PROXYGRAPHICS
 70
1
  9
$MEASUREMENT
 70
1
  9
$CELWEIGHT
370
-1
  9
$ENDCAPS
280
0
  9
$JOINSTYLE
280
0
  9
$LWDISPLAY
290
  0
  9
$INSUNITS
 70
4
  9
$HYPERLINKBASE
  1

  9
$STYLESHEET
  1

  9
$XEDIT
290
  0
  9
$CEPSNTYPE
380
0
  9
$PSTYLEMODE
290
  0
  9
$FINGERPRINTGUID
  2
{EC6BB858-51AA-46EC-B484-6C9CC7AB3E2E}
  9
$VERSIONGUID
  2
{23B1F04D-C0DA-4E0E-BE9E-C1E169E74BE0}
  9
$EXTNAMES
290
  0
  9
$PSVPSCALE
 40
0.0
  9
$OLESTARTUP
290
  0
  9
$SORTENTS
280
127
  9
$INDEXCTL
280
0
  9
$HIDETEXT
280
0
  9
$XCLIPFRAME
290
  0
  9
$HALOGAP
280
0
  9
$OBSCOLOR
 70
257
  9
$OBSLTYPE
280
0
  9
$INTERSECTIONDISPLAY
280
0
  9
$INTERSECTIONCOLOR
 70
257
  9
$DIMASSOC
280
1
  9
$PROJECTNAME
  1

  9
$CAMERADISPLAY
290
  0
  9
$LENSLENGTH
 40
50.0
  9
$CAMERAHEIGHT
 40
0.0
  9
$STEPSPERSEC
 40
2.0
  9
$STEPSIZE
 40
6.0
  9
$3DDWFPREC
 40
2.0
  9
$PSOLWIDTH
 40
0.25
  9
$PSOLHEIGHT
 40
4.0
  9
$LOFTANG1
 40
1.570796326794896
  9
$LOFTANG2
 40
1.570796326794896
  9
$LOFTMAG1
 40
0.0
  9
$LOFTMAG2
 40
0.0
  9
$LOFTPARAM
 70
7
  9
$LOFTNORMALS
280
1
  9
$LATITUDE
 40
37.795
  9
$LONGITUDE
 40
-122.394
  9
$NORTHDIRECTION
 40
0.0
  9
$TIMEZONE
 70
-8000
  9
$LIGHTGLYPHDISPLAY
280
1
  9
$TILEMODELIGHTSYNCH
280
1
  9
$CMATERIAL
347
D7
  9
$SOLIDHIST
280
1
  9
$SHOWHIST
280
1
  9
$DWFFRAME
280
2
  9
$DGNFRAME
280
0
  9
$REALWORLDSCALE
290
  0
  9
$INTERFERECOLOR
 62
1
  9
$INTERFEREOBJVS
345
F9
  9
$INTERFEREVPVS
346
F6
  9
$CSHADOW
280
0
  9
$SHADOWPLANELOCATION
 40
0.0
  0
ENDSEC
  0
SECTION
  2
TABLES
  0
TABLE
  2
VPORT
  5
2B1A
330
  0
100
AcDbSymbolTable
 70
1
  0
VPORT
  5
31
330
8
100
AcDbSymbolTableRecord
100
AcDbViewportTableRecord
  2
*Active
 70
0
 10
0.0
 20
0.0
 11
1.0
 21
1.0
 12
132.0
 22
-44.0
 13
0.0
 23
0.0
 14
10.0
 24
10.0
 15
10.0
 25
10.0
 16
0.0
 26
0.0
 36
1.0
 17
0.0
 27
0.0
 37
0.0
 40
840.0
 41
1.86
 42
50.0
 43
0.0
 44
0.0
 50
0.0
 51
0.0
 71
0
 72
100.0
 73
1.0
 74
3
 75
  0
 76
  0
 77
0
 78
0
281
0
 65
1
 110
0.0
 120
0.0
 130
0.0
 111
1.0
 121
0.0
 131
0.0
 112
0.0
 122
1.0
 132
0.0
 79
0
146
0.0
348
F5
 60
3
 61
5
292
  1
282
1
141
0.0
142
0.0
 63
250
421
3355443
  0
ENDTAB
  0
TABLE
  2
LTYPE
  5
2B1B
330
  0
100
AcDbSymbolTable
 70
4
  0
LTYPE
  5
2B20
330
5
100
AcDbSymbolTableRecord
100
AcDbLinetypeTableRecord
  2
BYBLOCK
 70
0
  3

 72
65
 73
0
 40
0.0
  0
LTYPE
  5
2B21
330
5
100
AcDbSymbolTableRecord
100
AcDbLinetypeTableRecord
  2
BYLAYER
 70
0
  3

 72
65
 73
0
 40
0.0
  0
LTYPE
  5
2B22
330
5
100
AcDbSymbolTableRecord
100
AcDbLinetypeTableRecord
  2
CONTINUOUS
 70
0
  3

 72
65
 73
0
 40
0.0
  0
LTYPE
  5
2B23
330
5
100
AcDbSymbolTableRecord
100
AcDbLinetypeTableRecord
  2
PHANTOM
 70
0
  3
Phantom ______  __  __  ______  __  __  ______
 72
65
 73
6
 40
63.50000000000001
 49
31.75
 74
0
 49
-6.35
 74
0
 49
6.35
 74
0
 49
-6.35
 74
0
 49
6.35
 74
0
 49
-6.35
 74
0
 46
1.0
  0
ENDTAB
  0
TABLE
  2
LAYER
  5
2B24
330
  0
100
AcDbSymbolTable
 70
1
  0
LAYER
  5
2B37
100
AcDbSymbolTableRecord
100
AcDbLayerTableRecord
  2
0
 70
0
 62
1
  6
CONTINUOUS
290
1
370
100
390
F
347
E7
  0
LAYER
  5
2B25
100
AcDbSymbolTableRecord
100
AcDbLayerTableRecord
  2
borde cerco
 70
0
 62
174
  6
CONTINUOUS
290
1
370
100
390
F
347
E7
  0
LAYER
  5
2B26
100
AcDbSymbolTableRecord
100
AcDbLayerTableRecord
  2
borde de cauce
 70
0
 62
174
  6
CONTINUOUS
290
1
370
100
390
F
347
E7
  0
LAYER
  5
2B27
100
AcDbSymbolTableRecord
100
AcDbLayerTableRecord
  2
borde rio
 70
0
 62
174
  6
CONTINUOUS
290
1
370
100
390
F
347
E7
  0
LAYER
  5
2B28
100
AcDbSymbolTableRecord
100
AcDbLayerTableRecord
  2
esquinero
 70
0
 62
174
  6
CONTINUOUS
290
1
370
100
390
F
347
E7
  0
LAYER
  5
2B29
100
AcDbSymbolTableRecord
100
AcDbLayerTableRecord
  2
lundero
 70
0
 62
174
  6
CONTINUOUS
290
1
370
100
390
F
347
E7
  0
LAYER
  5
2B2A
100
AcDbSymbolTableRecord
100
AcDbLayerTableRecord
  2
punto
 70
0
 62
174
  6
CONTINUOUS
290
1
370
100
390
F
347
E7
  0
LAYER
  5
2B2B
100
AcDbSymbolTableRecord
100
AcDbLayerTableRecord
  2
retiro 30m
 70
0
 62
174
  6
CONTINUOUS
290
1
370
100
390
F
347
E7
  0
LAYER
  5
2B2C
100
AcDbSymbolTableRecord
100
AcDbLayerTableRecord
  2
retiro 7m
 70
0
 62
174
  6
CONTINUOUS
290
1
370
100
390
F
347
E7
  0
LAYER
  5
2B2D
100
AcDbSymbolTableRecord
100
AcDbLayerTableRecord
  2
Point
 70
0
 62
5
  6
CONTINUOUS
290
1
370
100
390
F
347
E7
  0
LAYER
  5
2B2E
100
AcDbSymbolTableRecord
100
AcDbLayerTableRecord
  2
Point_Name
 70
0
 62
1
  6
CONTINUOUS
290
1
370
100
390
F
347
E7
  0
LAYER
  5
2B2F
100
AcDbSymbolTableRecord
100
AcDbLayerTableRecord
  2
Point_Height
 70
0
 62
5
  6
CONTINUOUS
290
1
370
100
390
F
347
E7
  0
LAYER
  5
2B30
100
AcDbSymbolTableRecord
100
AcDbLayerTableRecord
  2
Line
 70
0
 62
250
  6
CONTINUOUS
290
1
370
100
390
F
347
E7
  0
LAYER
  5
2B31
100
AcDbSymbolTableRecord
100
AcDbLayerTableRecord
  2
Line_Name
 70
0
 62
1
  6
CONTINUOUS
290
1
370
100
390
F
347
E7
  0
LAYER
  5
2B32
100
AcDbSymbolTableRecord
100
AcDbLayerTableRecord
  2
Line_Height
 70
0
 62
5
  6
CONTINUOUS
290
1
370
100
390
F
347
E7
  0
LAYER
  5
2B33
100
AcDbSymbolTableRecord
100
AcDbLayerTableRecord
  2
Surface
 70
0
 62
250
  6
CONTINUOUS
290
1
370
100
390
F
347
E7
  0
LAYER
  5
2B34
100
AcDbSymbolTableRecord
100
AcDbLayerTableRecord
  2
Surface_Name
 70
0
 62
1
  6
CONTINUOUS
290
1
370
100
390
F
347
E7
  0
LAYER
  5
2B35
100
AcDbSymbolTableRecord
100
AcDbLayerTableRecord
  2
Surface_Height
 70
0
 62
5
  6
CONTINUOUS
290
1
370
100
390
F
347
E7
  0
ENDTAB
  0
TABLE
  2
STYLE
  5
3
330
0
100
AcDbSymbolTable
 70
     2
  0
STYLE
  5
11
330
3
100
AcDbSymbolTableRecord
100
AcDbTextStyleTableRecord
  2
Standard
 70
     0
 40
0.0
 41
0.65
 50
0.0
 71
     0
 42
2.5
  3
arial.ttf
  4

1001
ACAD
1000
Arial
1071
       34
  0
STYLE
  5
2C
330
3
100
AcDbSymbolTableRecord
100
AcDbTextStyleTableRecord
  2

 70
     1
 40
0.0
 41
1.0
 50
0.0
 71
     0
 42
2.5
  3
ltypeshp.shx
  4

  0
ENDTAB
  0
TABLE
  2
VIEW
  5
6
330
0
100
AcDbSymbolTable
 70
     0
  0
ENDTAB
  0
TABLE
  2
UCS
  5
7
330
0
100
AcDbSymbolTable
 70
     0
  0
ENDTAB
  0
TABLE
  2
APPID
  5
9
330
0
100
AcDbSymbolTable
 70
     4
  0
APPID
  5
12
330
9
100
AcDbSymbolTableRecord
100
AcDbRegAppTableRecord
  2
ACAD
 70
     0
  0
APPID
  5
127
330
9
100
AcDbSymbolTableRecord
100
AcDbRegAppTableRecord
  2
ACAD_MLEADERVER
 70
     0
  0
APPID
  5
139
330
9
100
AcDbSymbolTableRecord
100
AcDbRegAppTableRecord
  2
ACAD_DSTYLE_DIMRADIAL_EXTENSION
 70
     0
  0
APPID
  5
2311
330
9
100
AcDbSymbolTableRecord
100
AcDbRegAppTableRecord
  2
AcAecLayerStandard
 70
     0
  0
ENDTAB
  0
TABLE
  2
DIMSTYLE
  5
A
330
0
100
AcDbSymbolTable
 70
     1
100
AcDbDimStyleTable
 71
     0
  0
DIMSTYLE
105
27
330
A
100
AcDbSymbolTableRecord
100
AcDbDimStyleTableRecord
  2
ISO-25
 70
     0
 41
2.5
 42
0.625
 43
3.75
 44
1.25
 73
     0
 74
     0
 77
     1
 78
     8
140
2.5
141
2.5
143
0.03937007874016
147
0.625
171
     3
172
     1
271
     2
272
     2
274
     3
278
    44
283
     0
284
     8
340
11
  0
ENDTAB
  0
TABLE
  2
BLOCK_RECORD
  5
1
330
0
100
AcDbSymbolTable
 70
     1
  0
BLOCK_RECORD
  5
1F
330
1
100
AcDbSymbolTableRecord
100
AcDbBlockTableRecord
  2
*Model_Space
340
22
 70
     0
280
     1
281
     0
  0
BLOCK_RECORD
  5
1B
330
1
100
AcDbSymbolTableRecord
100
AcDbBlockTableRecord
  2
*Paper_Space
340
1E
 70
     0
280
     1
281
     0
  0
BLOCK_RECORD
  5
23
330
1
100
AcDbSymbolTableRecord
100
AcDbBlockTableRecord
  2
*Paper_Space0
340
26
 70
     0
280
     1
281
     0
  0
ENDTAB
  0
ENDSEC
  0
SECTION
  2
BLOCKS
  0
BLOCK
  5
20
330
1F
100
AcDbEntity
  8
0
100
AcDbBlockBegin
  2
*Model_Space
 70
     0
 10
0.0
 20
0.0
 30
0.0
  3
*Model_Space
  1

  0
ENDBLK
  5
21
330
1F
100
AcDbEntity
  8
0
100
AcDbBlockEnd
  0
BLOCK
  5
1C
330
1B
100
AcDbEntity
 67
     1
  8
0
100
AcDbBlockBegin
  2
*Paper_Space
 70
     0
 10
0.0
 20
0.0
 30
0.0
  3
*Paper_Space
  1

  0
ENDBLK
  5
1D
330
1B
100
AcDbEntity
 67
     1
  8
0
100
AcDbBlockEnd
  0
BLOCK
  5
24
330
23
100
AcDbEntity
 67
     1
  8
0
100
AcDbBlockBegin
  2
*Paper_Space0
 70
     0
 10
0.0
 20
0.0
 30
0.0
  3
*Paper_Space0
  1

  0
ENDBLK
  5
25
330
23
100
AcDbEntity
 67
     1
  8
0
100
AcDbBlockEnd
  0
ENDSEC
  0
SECTION
  2
ENTITIES
  0
POINT
  5
27D9
330
1F
100
AcDbEntity
  8
punto
100
AcDbPoint
 10
571917.1982223022
 20
1295483.6827090704
 30
69.858616798924
  0
TEXT
  5
27DC
330
1F
  100
AcDbEntity
  8
punto
  100
AcDbText
  10
571917.1982223022
  20
1295483.9327090704
  30
0.0
  40
0.5
  1
p21
  39
0.0
  50
0.0
  100
AcDbText
  0
TEXT
  5
27DF
330
1F
  100
AcDbEntity
  8
punto
  100
AcDbText
  10
571917.1982223022
  20
1295482.9327090704
  30
0.0
  40
0.5
  1
punto
  39
0.0
  50
0.0
  100
AcDbText
  0
POINT
  5
27E0
330
1F
100
AcDbEntity
  8
punto
100
AcDbPoint
 10
571902.6996685739
 20
1295495.046591948
 30
67.432993246549
  0
TEXT
  5
27E3
330
1F
  100
AcDbEntity
  8
punto
  100
AcDbText
  10
571902.6996685739
  20
1295495.296591948
  30
0.0
  40
0.5
  1
p22
  39
0.0
  50
0.0
  100
AcDbText
  0
TEXT
  5
27E6
330
1F
  100
AcDbEntity
  8
punto
  100
AcDbText
  10
571902.6996685739
  20
1295494.296591948
  30
0.0
  40
0.5
  1
punto
  39
0.0
  50
0.0
  100
AcDbText
  0
POINT
  5
27E7
330
1F
100
AcDbEntity
  8
punto
100
AcDbPoint
 10
571833.1842758718
 20
1295551.7280737904
 30
67.903619899758
  0
TEXT
  5
27EA
330
1F
  100
AcDbEntity
  8
punto
  100
AcDbText
  10
571833.1842758718
  20
1295551.9780737904
  30
0.0
  40
0.5
  1
p23
  39
0.0
  50
0.0
  100
AcDbText
  0
TEXT
  5
27ED
330
1F
  100
AcDbEntity
  8
punto
  100
AcDbText
  10
571833.1842758718
  20
1295550.9780737904
  30
0.0
  40
0.5
  1
punto
  39
0.0
  50
0.0
  100
AcDbText
  0
POINT
  5
27EE
330
1F
100
AcDbEntity
  8
punto
100
AcDbPoint
 10
571783.4651124992
 20
1295589.896108412
 30
60.045573108976
  0
TEXT
  5
27F1
330
1F
  100
AcDbEntity
  8
punto
  100
AcDbText
  10
571783.4651124992
  20
1295590.146108412
  30
0.0
  40
0.5
  1
p24
  39
0.0
  50
0.0
  100
AcDbText
  0
TEXT
  5
27F4
330
1F
  100
AcDbEntity
  8
punto
  100
AcDbText
  10
571783.4651124992
  20
1295589.146108412
  30
0.0
  40
0.5
  1
punto
  39
0.0
  50
0.0
  100
AcDbText
  0
POINT
  5
27F5
330
1F
100
AcDbEntity
  8
punto
100
AcDbPoint
 10
571763.1878120593
 20
1295615.298034809
 30
60.084564604921
  0
TEXT
  5
27F8
330
1F
  100
AcDbEntity
  8
punto
  100
AcDbText
  10
571763.1878120593
  20
1295615.548034809
  30
0.0
  40
0.5
  1
p25
  39
0.0
  50
0.0
  100
AcDbText
  0
TEXT
  5
27FB
330
1F
  100
AcDbEntity
  8
punto
  100
AcDbText
  10
571763.1878120593
  20
1295614.548034809
  30
0.0
  40
0.5
  1
punto
  39
0.0
  50
0.0
  100
AcDbText
  0
POINT
  5
27FC
330
1F
100
AcDbEntity
  8
punto
100
AcDbPoint
 10
571729.2630305398
 20
1295632.0813809028
 30
68.028308588054
  0
TEXT
  5
27FF
330
1F
  100
AcDbEntity
  8
punto
  100
AcDbText
  10
571729.2630305398
  20
1295632.3313809028
  30
0.0
  40
0.5
  1
p28
  39
0.0
  50
0.0
  100
AcDbText
  0
TEXT
  5
2802
330
1F
  100
AcDbEntity
  8
punto
  100
AcDbText
  10
571729.2630305398
  20
1295631.3313809028
  30
0.0
  40
0.5
  1
punto
  39
0.0
  50
0.0
  100
AcDbText
  0
POINT
  5
2803
330
1F
100
AcDbEntity
  8
punto
100
AcDbPoint
 10
571668.7642895546
 20
1295680.5394214955
 30
69.929359089752
  0
TEXT
  5
2806
330
1F
  100
AcDbEntity
  8
punto
  100
AcDbText
  10
571668.7642895546
  20
1295680.7894214955
  30
0.0
  40
0.5
  1
p29
  39
0.0
  50
0.0
  100
AcDbText
  0
TEXT
  5
2809
330
1F
  100
AcDbEntity
  8
punto
  100
AcDbText
  10
571668.7642895546
  20
1295679.7894214955
  30
0.0
  40
0.5
  1
punto
  39
0.0
  50
0.0
  100
AcDbText
  0
POINT
  5
280A
330
1F
100
AcDbEntity
  8
punto
100
AcDbPoint
 10
571605.3823631494
 20
1295729.9049902968
 30
67.767813949874
  0
TEXT
  5
280D
330
1F
  100
AcDbEntity
  8
punto
  100
AcDbText
  10
571605.3823631494
  20
1295730.1549902968
  30
0.0
  40
0.5
  1
p31
  39
0.0
  50
0.0
  100
AcDbText
  0
TEXT
  5
2810
330
1F
  100
AcDbEntity
  8
punto
  100
AcDbText
  10
571605.3823631494
  20
1295729.1549902968
  30
0.0
  40
0.5
  1
punto
  39
0.0
  50
0.0
  100
AcDbText
  0
POINT
  5
2811
330
1F
100
AcDbEntity
  8
punto
100
AcDbPoint
 10
571580.4061123303
 20
1295748.1920999442
 30
66.492788104456
  0
TEXT
  5
2814
330
1F
  100
AcDbEntity
  8
punto
  100
AcDbText
  10
571580.4061123303
  20
1295748.4420999442
  30
0.0
  40
0.5
  1
p32
  39
0.0
  50
0.0
  100
AcDbText
  0
TEXT
  5
2817
330
1F
  100
AcDbEntity
  8
punto
  100
AcDbText
  10
571580.4061123303
  20
1295747.4420999442
  30
0.0
  40
0.5
  1
punto
  39
0.0
  50
0.0
  100
AcDbText
  0
POINT
  5
2818
330
1F
100
AcDbEntity
  8
punto
100
AcDbPoint
 10
572525.6494754859
 20
1295007.4120399188
 30
68.423676260398
  0
TEXT
  5
281B
330
1F
  100
AcDbEntity
  8
punto
  100
AcDbText
  10
572525.6494754859
  20
1295007.6620399188
  30
0.0
  40
0.5
  1
p33
  39
0.0
  50
0.0
  100
AcDbText
  0
TEXT
  5
281E
330
1F
  100
AcDbEntity
  8
punto
  100
AcDbText
  10
572525.6494754859
  20
1295006.6620399188
  30
0.0
  40
0.5
  1
punto
  39
0.0
  50
0.0
  100
AcDbText
  0
POINT
  5
281F
330
1F
100
AcDbEntity
  8
punto
100
AcDbPoint
 10
572541.6112757768
 20
1294995.2448636398
 30
73.793862171358
  0
TEXT
  5
2822
330
1F
  100
AcDbEntity
  8
punto
  100
AcDbText
  10
572541.6112757768
  20
1294995.4948636398
  30
0.0
  40
0.5
  1
p34
  39
0.0
  50
0.0
  100
AcDbText
  0
TEXT
  5
2825
330
1F
  100
AcDbEntity
  8
punto
  100
AcDbText
  10
572541.6112757768
  20
1294994.4948636398
  30
0.0
  40
0.5
  1
punto
  39
0.0
  50
0.0
  100
AcDbText
  0
POINT
  5
2826
330
1F
100
AcDbEntity
  8
punto
100
AcDbPoint
 10
572548.9218838522
 20
1294990.5033585702
 30
72.599521564765
  0
TEXT
  5
2829
330
1F
  100
AcDbEntity
  8
punto
  100
AcDbText
  10
572548.9218838522
  20
1294990.7533585702
  30
0.0
  40
0.5
  1
p35
  39
0.0
  50
0.0
  100
AcDbText
  0
TEXT
  5
282C
330
1F
  100
AcDbEntity
  8
punto
  100
AcDbText
  10
572548.9218838522
  20
1294989.7533585702
  30
0.0
  40
0.5
  1
punto
  39
0.0
  50
0.0
  100
AcDbText
  0
POINT
  5
282D
330
1F
100
AcDbEntity
  8
borde cerco
100
AcDbPoint
 10
572548.9441100227
 20
1294994.7530000887
 30
72.910592801735
  0
TEXT
  5
2830
330
1F
  100
AcDbEntity
  8
borde cerco
  100
AcDbText
  10
572548.9441100227
  20
1294995.0030000887
  30
0.0
  40
0.5
  1
p36
  39
0.0
  50
0.0
  100
AcDbText
  0
TEXT
  5
2833
330
1F
  100
AcDbEntity
  8
borde cerco
  100
AcDbText
  10
572548.9441100227
  20
1294994.0030000887
  30
0.0
  40
0.5
  1
borde cerco
  39
0.0
  50
0.0
  100
AcDbText
  0
POINT
  5
2834
330
1F
100
AcDbEntity
  8
borde cerco
100
AcDbPoint
 10
572543.1590567586
 20
1295002.3434807071
 30
70.849053897587
  0
TEXT
  5
2837
330
1F
  100
AcDbEntity
  8
borde cerco
  100
AcDbText
  10
572543.1590567586
  20
1295002.5934807071
  30
0.0
  40
0.5
  1
p37
  39
0.0
  50
0.0
  100
AcDbText
  0
TEXT
  5
283A
330
1F
  100
AcDbEntity
  8
borde cerco
  100
AcDbText
  10
572543.1590567586
  20
1295001.5934807071
  30
0.0
  40
0.5
  1
borde cerco
  39
0.0
  50
0.0
  100
AcDbText
  0
POINT
  5
283B
330
1F
100
AcDbEntity
  8
retiro 7m
100
AcDbPoint
 10
572536.1939685978
 20
1295002.8390793654
 30
70.523958054552
  0
TEXT
  5
283E
330
1F
  100
AcDbEntity
  8
retiro 7m
  100
AcDbText
  10
572536.1939685978
  20
1295003.0890793654
  30
0.0
  40
0.5
  1
p38
  39
0.0
  50
0.0
  100
AcDbText
  0
TEXT
  5
2841
330
1F
  100
AcDbEntity
  8
retiro 7m
  100
AcDbText
  10
572536.1939685978
  20
1295002.0890793654
  30
0.0
  40
0.5
  1
retiro 7m
  39
0.0
  50
0.0
  100
AcDbText
  0
POINT
  5
2842
330
1F
100
AcDbEntity
  8
borde cerco
100
AcDbPoint
 10
572540.0326194438
 20
1295011.6575016277
 30
67.254631776341
  0
TEXT
  5
2845
330
1F
  100
AcDbEntity
  8
borde cerco
  100
AcDbText
  10
572540.0326194438
  20
1295011.9075016277
  30
0.0
  40
0.5
  1
p39
  39
0.0
  50
0.0
  100
AcDbText
  0
TEXT
  5
2848
330
1F
  100
AcDbEntity
  8
borde cerco
  100
AcDbText
  10
572540.0326194438
  20
1295010.9075016277
  30
0.0
  40
0.5
  1
borde cerco
  39
0.0
  50
0.0
  100
AcDbText
  0
POINT
  5
2849
330
1F
100
AcDbEntity
  8
borde cerco
100
AcDbPoint
 10
572533.0913810895
 20
1295012.299257263
 30
68.25433424004
  0
TEXT
  5
284C
330
1F
  100
AcDbEntity
  8
borde cerco
  100
AcDbText
  10
572533.0913810895
  20
1295012.549257263
  30
0.0
  40
0.5
  1
p40
  39
0.0
  50
0.0
  100
AcDbText
  0
TEXT
  5
284F
330
1F
  100
AcDbEntity
  8
borde cerco
  100
AcDbText
  10
572533.0913810895
  20
1295011.549257263
  30
0.0
  40
0.5
  1
borde cerco
  39
0.0
  50
0.0
  100
AcDbText
  0
POINT
  5
2850
330
1F
100
AcDbEntity
  8
borde cerco
100
AcDbPoint
 10
572532.6930565228
 20
1295020.229979334
 30
71.443289548479
  0
TEXT
  5
2853
330
1F
  100
AcDbEntity
  8
borde cerco
  100
AcDbText
  10
572532.6930565228
  20
1295020.479979334
  30
0.0
  40
0.5
  1
p41
  39
0.0
  50
0.0
  100
AcDbText
  0
TEXT
  5
2856
330
1F
  100
AcDbEntity
  8
borde cerco
  100
AcDbText
  10
572532.6930565228
  20
1295019.479979334
  30
0.0
  40
0.5
  1
borde cerco
  39
0.0
  50
0.0
  100
AcDbText
  0
POINT
  5
2857
330
1F
100
AcDbEntity
  8
punto
100
AcDbPoint
 10
572526.0854894976
 20
1295021.039140988
 30
72.17306953897
  0
TEXT
  5
285A
330
1F
  100
AcDbEntity
  8
punto
  100
AcDbText
  10
572526.0854894976
  20
1295021.289140988
  30
0.0
  40
0.5
  1
p43
  39
0.0
  50
0.0
  100
AcDbText
  0
TEXT
  5
285D
330
1F
  100
AcDbEntity
  8
punto
  100
AcDbText
  10
572526.0854894976
  20
1295020.289140988
  30
0.0
  40
0.5
  1
punto
  39
0.0
  50
0.0
  100
AcDbText
  0
POINT
  5
285E
330
1F
100
AcDbEntity
  8
borde cerco
100
AcDbPoint
 10
572526.6940184223
 20
1295039.3502196854
 30
69.179650850351
  0
TEXT
  5
2861
330
1F
  100
AcDbEntity
  8
borde cerco
  100
AcDbText
  10
572526.6940184223
  20
1295039.6002196854
  30
0.0
  40
0.5
  1
p44
  39
0.0
  50
0.0
  100
AcDbText
  0
TEXT
  5
2864
330
1F
  100
AcDbEntity
  8
borde cerco
  100
AcDbText
  10
572526.6940184223
  20
1295038.6002196854
  30
0.0
  40
0.5
  1
borde cerco
  39
0.0
  50
0.0
  100
AcDbText
  0
POINT
  5
2865
330
1F
100
AcDbEntity
  8
retiro 7m
100
AcDbPoint
 10
572520.3949747424
 20
1295037.6928094728
 30
73.159408850461
  0
TEXT
  5
2868
330
1F
  100
AcDbEntity
  8
retiro 7m
  100
AcDbText
  10
572520.3949747424
  20
1295037.9428094728
  30
0.0
  40
0.5
  1
p45
  39
0.0
  50
0.0
  100
AcDbText
  0
TEXT
  5
286B
330
1F
  100
AcDbEntity
  8
retiro 7m
  100
AcDbText
  10
572520.3949747424
  20
1295036.9428094728
  30
0.0
  40
0.5
  1
retiro 7m
  39
0.0
  50
0.0
  100
AcDbText
  0
POINT
  5
286C
330
1F
100
AcDbEntity
  8
borde cerco
100
AcDbPoint
 10
572523.7544787958
 20
1295045.5844864703
 30
70.295977988275
  0
TEXT
  5
286F
330
1F
  100
AcDbEntity
  8
borde cerco
  100
AcDbText
  10
572523.7544787958
  20
1295045.8344864703
  30
0.0
  40
0.5
  1
p47
  39
0.0
  50
0.0
  100
AcDbText
  0
TEXT
  5
2872
330
1F
  100
AcDbEntity
  8
borde cerco
  100
AcDbText
  10
572523.7544787958
  20
1295044.8344864703
  30
0.0
  40
0.5
  1
borde cerco
  39
0.0
  50
0.0
  100
AcDbText
  0
POINT
  5
2873
330
1F
100
AcDbEntity
  8
borde cerco
100
AcDbPoint
 10
572513.8506559376
 20
1295060.98031508
 30
70.140731815489
  0
TEXT
  5
2876
330
1F
  100
AcDbEntity
  8
borde cerco
  100
AcDbText
  10
572513.8506559376
  20
1295061.23031508
  30
0.0
  40
0.5
  1
p48
  39
0.0
  50
0.0
  100
AcDbText
  0
TEXT
  5
2879
330
1F
  100
AcDbEntity
  8
borde cerco
  100
AcDbText
  10
572513.8506559376
  20
1295060.23031508
  30
0.0
  40
0.5
  1
borde cerco
  39
0.0
  50
0.0
  100
AcDbText
  0
POINT
  5
287A
330
1F
100
AcDbEntity
  8
retiro 7m
100
AcDbPoint
 10
572508.7829188292
 20
1295056.6010125245
 30
73.624431906582
  0
TEXT
  5
287D
330
1F
  100
AcDbEntity
  8
retiro 7m
  100
AcDbText
  10
572508.7829188292
  20
1295056.8510125245
  30
0.0
  40
0.5
  1
p49
  39
0.0
  50
0.0
  100
AcDbText
  0
TEXT
  5
2880
330
1F
  100
AcDbEntity
  8
retiro 7m
  100
AcDbText
  10
572508.7829188292
  20
1295055.8510125245
  30
0.0
  40
0.5
  1
retiro 7m
  39
0.0
  50
0.0
  100
AcDbText
  0
POINT
  5
2881
330
1F
100
AcDbEntity
  8
borde cerco
100
AcDbPoint
 10
572508.500540956
 20
1295068.9262008192
 30
73.397417696383
  0
TEXT
  5
2884
330
1F
  100
AcDbEntity
  8
borde cerco
  100
AcDbText
  10
572508.500540956
  20
1295069.1762008192
  30
0.0
  40
0.5
  1
p50
  39
0.0
  50
0.0
  100
AcDbText
  0
TEXT
  5
2887
330
1F
  100
AcDbEntity
  8
borde cerco
  100
AcDbText
  10
572508.500540956
  20
1295068.1762008192
  30
0.0
  40
0.5
  1
borde cerco
  39
0.0
  50
0.0
  100
AcDbText
  0
POINT
  5
2888
330
1F
100
AcDbEntity
  8
retiro 7m
100
AcDbPoint
 10
572501.5553704371
 20
1295068.5421124764
 30
74.599694822483
  0
TEXT
  5
288B
330
1F
  100
AcDbEntity
  8
retiro 7m
  100
AcDbText
  10
572501.5553704371
  20
1295068.7921124764
  30
0.0
  40
0.5
  1
p51
  39
0.0
  50
0.0
  100
AcDbText
  0
TEXT
  5
288E
330
1F
  100
AcDbEntity
  8
retiro 7m
  100
AcDbText
  10
572501.5553704371
  20
1295067.7921124764
  30
0.0
  40
0.5
  1
retiro 7m
  39
0.0
  50
0.0
  100
AcDbText
  0
POINT
  5
288F
330
1F
100
AcDbEntity
  8
borde cerco
100
AcDbPoint
 10
572505.7927058141
 20
1295087.0443761023
 30
73.55919158617
  0
TEXT
  5
2892
330
1F
  100
AcDbEntity
  8
borde cerco
  100
AcDbText
  10
572505.7927058141
  20
1295087.2943761023
  30
0.0
  40
0.5
  1
p52
  39
0.0
  50
0.0
  100
AcDbText
  0
TEXT
  5
2895
330
1F
  100
AcDbEntity
  8
borde cerco
  100
AcDbText
  10
572505.7927058141
  20
1295086.2943761023
  30
0.0
  40
0.5
  1
borde cerco
  39
0.0
  50
0.0
  100
AcDbText
  0
POINT
  5
2896
330
1F
100
AcDbEntity
  8
retiro 7m
100
AcDbPoint
 10
572498.913681009
 20
1295085.7605360656
 30
74.85953144765
  0
TEXT
  5
2899
330
1F
  100
AcDbEntity
  8
retiro 7m
  100
AcDbText
  10
572498.913681009
  20
1295086.0105360656
  30
0.0
  40
0.5
  1
p53
  39
0.0
  50
0.0
  100
AcDbText
  0
TEXT
  5
289C
330
1F
  100
AcDbEntity
  8
retiro 7m
  100
AcDbText
  10
572498.913681009
  20
1295085.0105360656
  30
0.0
  40
0.5
  1
retiro 7m
  39
0.0
  50
0.0
  100
AcDbText
  0
POINT
  5
289D
330
1F
100
AcDbEntity
  8
borde cerco
100
AcDbPoint
 10
572503.1920182364
 20
1295091.8001563062
 30
74.101211951033
  0
TEXT
  5
28A0
330
1F
  100
AcDbEntity
  8
borde cerco
  100
AcDbText
  10
572503.1920182364
  20
1295092.0501563062
  30
0.0
  40
0.5
  1
p54
  39
0.0
  50
0.0
  100
AcDbText
  0
TEXT
  5
28A3
330
1F
  100
AcDbEntity
  8
borde cerco
  100
AcDbText
  10
572503.1920182364
  20
1295091.0501563062
  30
0.0
  40
0.5
  1
borde cerco
  39
0.0
  50
0.0
  100
AcDbText
  0
POINT
  5
28A4
330
1F
100
AcDbEntity
  8
borde cerco
100
AcDbPoint
 10
572506.2353043834
 20
1295104.3194833423
 30
74.325968215517
  0
TEXT
  5
28A7
330
1F
  100
AcDbEntity
  8
borde cerco
  100
AcDbText
  10
572506.2353043834
  20
1295104.5694833423
  30
0.0
  40
0.5
  1
p55
  39
0.0
  50
0.0
  100
AcDbText
  0
TEXT
  5
28AA
330
1F
  100
AcDbEntity
  8
borde cerco
  100
AcDbText
  10
572506.2353043834
  20
1295103.5694833423
  30
0.0
  40
0.5
  1
borde cerco
  39
0.0
  50
0.0
  100
AcDbText
  0
POINT
  5
28AB
330
1F
100
AcDbEntity
  8
borde cerco
100
AcDbPoint
 10
572508.2052302173
 20
1295106.7030710545
 30
71.600461531913
  0
TEXT
  5
28AE
330
1F
  100
AcDbEntity
  8
borde cerco
  100
AcDbText
  10
572508.2052302173
  20
1295106.9530710545
  30
0.0
  40
0.5
  1
p56
  39
0.0
  50
0.0
  100
AcDbText
  0
TEXT
  5
28B1
330
1F
  100
AcDbEntity
  8
borde cerco
  100
AcDbText
  10
572508.2052302173
  20
1295105.9530710545
  30
0.0
  40
0.5
  1
borde cerco
  39
0.0
  50
0.0
  100
AcDbText
  0
POINT
  5
28B2
330
1F
100
AcDbEntity
  8
retiro 30m
100
AcDbPoint
 10
572476.3515818721
 20
1295099.2082834784
 30
74.730852792906
  0
TEXT
  5
28B5
330
1F
  100
AcDbEntity
  8
retiro 30m
  100
AcDbText
  10
572476.3515818721
  20
1295099.4582834784
  30
0.0
  40
0.5
  1
p57
  39
0.0
  50
0.0
  100
AcDbText
  0
TEXT
  5
28B8
330
1F
  100
AcDbEntity
  8
retiro 30m
  100
AcDbText
  10
572476.3515818721
  20
1295098.4582834784
  30
0.0
  40
0.5
  1
retiro 30m
  39
0.0
  50
0.0
  100
AcDbText
  0
POINT
  5
28B9
330
1F
100
AcDbEntity
  8
retiro 7m
100
AcDbPoint
 10
572501.9405865325
 20
1295107.4472142041
 30
73.953578685575
  0
TEXT
  5
28BC
330
1F
  100
AcDbEntity
  8
retiro 7m
  100
AcDbText
  10
572501.9405865325
  20
1295107.6972142041
  30
0.0
  40
0.5
  1
p58
  39
0.0
  50
0.0
  100
AcDbText
  0
TEXT
  5
28BF
330
1F
  100
AcDbEntity
  8
retiro 7m
  100
AcDbText
  10
572501.9405865325
  20
1295106.6972142041
  30
0.0
  40
0.5
  1
retiro 7m
  39
0.0
  50
0.0
  100
AcDbText
  0
POINT
  5
28C0
330
1F
100
AcDbEntity
  8
borde cerco
100
AcDbPoint
 10
572507.2331293076
 20
1295114.3440277234
 30
72.421112835317
  0
TEXT
  5
28C3
330
1F
  100
AcDbEntity
  8
borde cerco
  100
AcDbText
  10
572507.2331293076
  20
1295114.5940277234
  30
0.0
  40
0.5
  1
p59
  39
0.0
  50
0.0
  100
AcDbText
  0
TEXT
  5
28C6
330
1F
  100
AcDbEntity
  8
borde cerco
  100
AcDbText
  10
572507.2331293076
  20
1295113.5940277234
  30
0.0
  40
0.5
  1
borde cerco
  39
0.0
  50
0.0
  100
AcDbText
  0
POINT
  5
28C7
330
1F
100
AcDbEntity
  8
borde cerco
100
AcDbPoint
 10
572510.3169431537
 20
1295128.019691662
 30
71.070031986875
  0
TEXT
  5
28CA
330
1F
  100
AcDbEntity
  8
borde cerco
  100
AcDbText
  10
572510.3169431537
  20
1295128.269691662
  30
0.0
  40
0.5
  1
p60
  39
0.0
  50
0.0
  100
AcDbText
  0
TEXT
  5
28CD
330
1F
  100
AcDbEntity
  8
borde cerco
  100
AcDbText
  10
572510.3169431537
  20
1295127.269691662
  30
0.0
  40
0.5
  1
borde cerco
  39
0.0
  50
0.0
  100
AcDbText
  0
POINT
  5
28CE
330
1F
100
AcDbEntity
  8
retiro 7m
100
AcDbPoint
 10
572503.9735640602
 20
1295129.6858993503
 30
72.975316481735
  0
TEXT
  5
28D1
330
1F
  100
AcDbEntity
  8
retiro 7m
  100
AcDbText
  10
572503.9735640602
  20
1295129.9358993503
  30
0.0
  40
0.5
  1
p61
  39
0.0
  50
0.0
  100
AcDbText
  0
TEXT
  5
28D4
330
1F
  100
AcDbEntity
  8
retiro 7m
  100
AcDbText
  10
572503.9735640602
  20
1295128.9358993503
  30
0.0
  40
0.5
  1
retiro 7m
  39
0.0
  50
0.0
  100
AcDbText
  0
POINT
  5
28D5
330
1F
100
AcDbEntity
  8
borde cerco
100
AcDbPoint
 10
572517.6255445919
 20
1295136.9424850836
 30
68.498055809732
  0
TEXT
  5
28D8
330
1F
  100
AcDbEntity
  8
borde cerco
  100
AcDbText
  10
572517.6255445919
  20
1295137.1924850836
  30
0.0
  40
0.5
  1
p62
  39
0.0
  50
0.0
  100
AcDbText
  0
TEXT
  5
28DB
330
1F
  100
AcDbEntity
  8
borde cerco
  100
AcDbText
  10
572517.6255445919
  20
1295136.1924850836
  30
0.0
  40
0.5
  1
borde cerco
  39
0.0
  50
0.0
  100
AcDbText
  0
POINT
  5
28DC
330
1F
100
AcDbEntity
  8
borde cerco
100
AcDbPoint
 10
572520.1791084041
 20
1295143.5633211732
 30
69.261751366567
  0
TEXT
  5
28DF
330
1F
  100
AcDbEntity
  8
borde cerco
  100
AcDbText
  10
572520.1791084041
  20
1295143.8133211732
  30
0.0
  40
0.5
  1
p63
  39
0.0
  50
0.0
  100
AcDbText
  0
TEXT
  5
28E2
330
1F
  100
AcDbEntity
  8
borde cerco
  100
AcDbText
  10
572520.1791084041
  20
1295142.8133211732
  30
0.0
  40
0.5
  1
borde cerco
  39
0.0
  50
0.0
  100
AcDbText
  0
POINT
  5
28E3
330
1F
100
AcDbEntity
  8
borde cerco
100
AcDbPoint
 10
572521.8738106284
 20
1295148.2781617153
 30
69.815043152264
  0
TEXT
  5
28E6
330
1F
  100
AcDbEntity
  8
borde cerco
  100
AcDbText
  10
572521.8738106284
  20
1295148.5281617153
  30
0.0
  40
0.5
  1
p65
  39
0.0
  50
0.0
  100
AcDbText
  0
TEXT
  5
28E9
330
1F
  100
AcDbEntity
  8
borde cerco
  100
AcDbText
  10
572521.8738106284
  20
1295147.5281617153
  30
0.0
  40
0.5
  1
borde cerco
  39
0.0
  50
0.0
  100
AcDbText
  0
POINT
  5
28EA
330
1F
100
AcDbEntity
  8
retiro 7m
100
AcDbPoint
 10
572513.0390530169
 20
1295141.4023117647
 30
71.48871617963
  0
TEXT
  5
28ED
330
1F
  100
AcDbEntity
  8
retiro 7m
  100
AcDbText
  10
572513.0390530169
  20
1295141.6523117647
  30
0.0
  40
0.5
  1
p66
  39
0.0
  50
0.0
  100
AcDbText
  0
TEXT
  5
28F0
330
1F
  100
AcDbEntity
  8
retiro 7m
  100
AcDbText
  10
572513.0390530169
  20
1295140.6523117647
  30
0.0
  40
0.5
  1
retiro 7m
  39
0.0
  50
0.0
  100
AcDbText
  0
POINT
  5
28F1
330
1F
100
AcDbEntity
  8
retiro 7m
100
AcDbPoint
 10
572515.9060892959
 20
1295149.5772394156
 30
71.536315894445
  0
TEXT
  5
28F4
330
1F
  100
AcDbEntity
  8
retiro 7m
  100
AcDbText
  10
572515.9060892959
  20
1295149.8272394156
  30
0.0
  40
0.5
  1
p67
  39
0.0
  50
0.0
  100
AcDbText
  0
TEXT
  5
28F7
330
1F
  100
AcDbEntity
  8
retiro 7m
  100
AcDbText
  10
572515.9060892959
  20
1295148.8272394156
  30
0.0
  40
0.5
  1
retiro 7m
  39
0.0
  50
0.0
  100
AcDbText
  0
POINT
  5
28F8
330
1F
100
AcDbEntity
  8
borde cerco
100
AcDbPoint
 10
572551.2303915182
 20
1295179.3754283835
 30
68.005554895451
  0
TEXT
  5
28FB
330
1F
  100
AcDbEntity
  8
borde cerco
  100
AcDbText
  10
572551.2303915182
  20
1295179.6254283835
  30
0.0
  40
0.5
  1
p68
  39
0.0
  50
0.0
  100
AcDbText
  0
TEXT
  5
28FE
330
1F
  100
AcDbEntity
  8
borde cerco
  100
AcDbText
  10
572551.2303915182
  20
1295178.6254283835
  30
0.0
  40
0.5
  1
borde cerco
  39
0.0
  50
0.0
  100
AcDbText
  0
POINT
  5
28FF
330
1F
100
AcDbEntity
  8
retiro 7m
100
AcDbPoint
 10
572550.8432717355
 20
1295186.0418963984
 30
70.746333326057
  0
TEXT
  5
2902
330
1F
  100
AcDbEntity
  8
retiro 7m
  100
AcDbText
  10
572550.8432717355
  20
1295186.2918963984
  30
0.0
  40
0.5
  1
p69
  39
0.0
  50
0.0
  100
AcDbText
  0
TEXT
  5
2905
330
1F
  100
AcDbEntity
  8
retiro 7m
  100
AcDbText
  10
572550.8432717355
  20
1295185.2918963984
  30
0.0
  40
0.5
  1
retiro 7m
  39
0.0
  50
0.0
  100
AcDbText
  0
POINT
  5
2906
330
1F
100
AcDbEntity
  8
borde cerco
100
AcDbPoint
 10
572560.4193230334
 20
1295187.0736980976
 30
68.758980365925
  0
TEXT
  5
2909
330
1F
  100
AcDbEntity
  8
borde cerco
  100
AcDbText
  10
572560.4193230334
  20
1295187.3236980976
  30
0.0
  40
0.5
  1
p70
  39
0.0
  50
0.0
  100
AcDbText
  0
TEXT
  5
290C
330
1F
  100
AcDbEntity
  8
borde cerco
  100
AcDbText
  10
572560.4193230334
  20
1295186.3236980976
  30
0.0
  40
0.5
  1
borde cerco
  39
0.0
  50
0.0
  100
AcDbText
  0
POINT
  5
290D
330
1F
100
AcDbEntity
  8
borde cerco
100
AcDbPoint
 10
572577.733064582
 20
1295198.6819070799
 30
66.982769451654
  0
TEXT
  5
2910
330
1F
  100
AcDbEntity
  8
borde cerco
  100
AcDbText
  10
572577.733064582
  20
1295198.9319070799
  30
0.0
  40
0.5
  1
p71
  39
0.0
  50
0.0
  100
AcDbText
  0
TEXT
  5
2913
330
1F
  100
AcDbEntity
  8
borde cerco
  100
AcDbText
  10
572577.733064582
  20
1295197.9319070799
  30
0.0
  40
0.5
  1
borde cerco
  39
0.0
  50
0.0
  100
AcDbText
  0
POINT
  5
2914
330
1F
100
AcDbEntity
  8
retiro 7m
100
AcDbPoint
 10
572572.2314009514
 20
1295203.3694125826
 30
67.090017076395
  0
TEXT
  5
2917
330
1F
  100
AcDbEntity
  8
retiro 7m
  100
AcDbText
  10
572572.2314009514
  20
1295203.6194125826
  30
0.0
  40
0.5
  1
p72
  39
0.0
  50
0.0
  100
AcDbText
  0
TEXT
  5
291A
330
1F
  100
AcDbEntity
  8
retiro 7m
  100
AcDbText
  10
572572.2314009514
  20
1295202.6194125826
  30
0.0
  40
0.5
  1
retiro 7m
  39
0.0
  50
0.0
  100
AcDbText
  0
POINT
  5
291B
330
1F
100
AcDbEntity
  8
borde cerco
100
AcDbPoint
 10
572601.9673664896
 20
1295221.7457254413
 30
71.959785958077
  0
TEXT
  5
291E
330
1F
  100
AcDbEntity
  8
borde cerco
  100
AcDbText
  10
572601.9673664896
  20
1295221.9957254413
  30
0.0
  40
0.5
  1
p73
  39
0.0
  50
0.0
  100
AcDbText
  0
TEXT
  5
2921
330
1F
  100
AcDbEntity
  8
borde cerco
  100
AcDbText
  10
572601.9673664896
  20
1295220.9957254413
  30
0.0
  40
0.5
  1
borde cerco
  39
0.0
  50
0.0
  100
AcDbText
  0
POINT
  5
2922
330
1F
100
AcDbEntity
  8
retiro 7m
100
AcDbPoint
 10
572598.3926621167
 20
1295226.9767042736
 30
73.831599719498
  0
TEXT
  5
2925
330
1F
  100
AcDbEntity
  8
retiro 7m
  100
AcDbText
  10
572598.3926621167
  20
1295227.2267042736
  30
0.0
  40
0.5
  1
p74
  39
0.0
  50
0.0
  100
AcDbText
  0
TEXT
  5
2928
330
1F
  100
AcDbEntity
  8
retiro 7m
  100
AcDbText
  10
572598.3926621167
  20
1295226.2267042736
  30
0.0
  40
0.5
  1
retiro 7m
  39
0.0
  50
0.0
  100
AcDbText
  0
POINT
  5
2929
330
1F
100
AcDbEntity
  8
borde cerco
100
AcDbPoint
 10
572620.3029756045
 20
1295238.7181887222
 30
66.701486335189
  0
TEXT
  5
292C
330
1F
  100
AcDbEntity
  8
borde cerco
  100
AcDbText
  10
572620.3029756045
  20
1295238.9681887222
  30
0.0
  40
0.5
  1
p33
  39
0.0
  50
0.0
  100
AcDbText
  0
TEXT
  5
292F
330
1F
  100
AcDbEntity
  8
borde cerco
  100
AcDbText
  10
572620.3029756045
  20
1295237.9681887222
  30
0.0
  40
0.5
  1
borde cerco
  39
0.0
  50
0.0
  100
AcDbText
  0
POINT
  5
2930
330
1F
100
AcDbEntity
  8
borde cerco
100
AcDbPoint
 10
572631.6907994358
 20
1295223.421995555
 30
67.138609358679
  0
TEXT
  5
2933
330
1F
  100
AcDbEntity
  8
borde cerco
  100
AcDbText
  10
572631.6907994358
  20
1295223.671995555
  30
0.0
  40
0.5
  1
p34
  39
0.0
  50
0.0
  100
AcDbText
  0
TEXT
  5
2936
330
1F
  100
AcDbEntity
  8
borde cerco
  100
AcDbText
  10
572631.6907994358
  20
1295222.671995555
  30
0.0
  40
0.5
  1
borde cerco
  39
0.0
  50
0.0
  100
AcDbText
  0
POINT
  5
2937
330
1F
100
AcDbEntity
  8
retiro 7m
100
AcDbPoint
 10
572636.1695659058
 20
1295217.611042202
 30
68.600962275448
  0
TEXT
  5
293A
330
1F
  100
AcDbEntity
  8
retiro 7m
  100
AcDbText
  10
572636.1695659058
  20
1295217.861042202
  30
0.0
  40
0.5
  1
p35
  39
0.0
  50
0.0
  100
AcDbText
  0
TEXT
  5
293D
330
1F
  100
AcDbEntity
  8
retiro 7m
  100
AcDbText
  10
572636.1695659058
  20
1295216.861042202
  30
0.0
  40
0.5
  1
retiro 7m
  39
0.0
  50
0.0
  100
AcDbText
  0
POINT
  5
293E
330
1F
100
AcDbEntity
  8
retiro 7m
100
AcDbPoint
 10
572628.1297413779
 20
1295211.802575571
 30
68.434101161919
  0
TEXT
  5
2941
330
1F
  100
AcDbEntity
  8
retiro 7m
  100
AcDbText
  10
572628.1297413779
  20
1295212.052575571
  30
0.0
  40
0.5
  1
p36
  39
0.0
  50
0.0
  100
AcDbText
  0
TEXT
  5
2944
330
1F
  100
AcDbEntity
  8
retiro 7m
  100
AcDbText
  10
572628.1297413779
  20
1295211.052575571
  30
0.0
  40
0.5
  1
retiro 7m
  39
0.0
  50
0.0
  100
AcDbText
  0
POINT
  5
2945
330
1F
100
AcDbEntity
  8
borde cerco
100
AcDbPoint
 10
572600.8019031023
 20
1295186.6102798877
 30
67.56246183776
  0
TEXT
  5
2948
330
1F
  100
AcDbEntity
  8
borde cerco
  100
AcDbText
  10
572600.8019031023
  20
1295186.8602798877
  30
0.0
  40
0.5
  1
p37
  39
0.0
  50
0.0
  100
AcDbText
  0
TEXT
  5
294B
330
1F
  100
AcDbEntity
  8
borde cerco
  100
AcDbText
  10
572600.8019031023
  20
1295185.8602798877
  30
0.0
  40
0.5
  1
borde cerco
  39
0.0
  50
0.0
  100
AcDbText
  0
POINT
  5
294C
330
1F
100
AcDbEntity
  8
borde cerco
100
AcDbPoint
 10
572578.8830940315
 20
1295161.9232667726
 30
68.105903842517
  0
TEXT
  5
294F
330
1F
  100
AcDbEntity
  8
borde cerco
  100
AcDbText
  10
572578.8830940315
  20
1295162.1732667726
  30
0.0
  40
0.5
  1
p38
  39
0.0
  50
0.0
  100
AcDbText
  0
TEXT
  5
2952
330
1F
  100
AcDbEntity
  8
borde cerco
  100
AcDbText
  10
572578.8830940315
  20
1295161.1732667726
  30
0.0
  40
0.5
  1
borde cerco
  39
0.0
  50
0.0
  100
AcDbText
  0
POINT
  5
2953
330
1F
100
AcDbEntity
  8
borde cerco
100
AcDbPoint
 10
572553.7563300355
 20
1295124.1800722317
 30
67.995296125088
  0
TEXT
  5
2956
330
1F
  100
AcDbEntity
  8
borde cerco
  100
AcDbText
  10
572553.7563300355
  20
1295124.4300722317
  30
0.0
  40
0.5
  1
p39
  39
0.0
  50
0.0
  100
AcDbText
  0
TEXT
  5
2959
330
1F
  100
AcDbEntity
  8
borde cerco
  100
AcDbText
  10
572553.7563300355
  20
1295123.4300722317
  30
0.0
  40
0.5
  1
borde cerco
  39
0.0
  50
0.0
  100
AcDbText
  0
POINT
  5
295A
330
1F
100
AcDbEntity
  8
borde cerco
100
AcDbPoint
 10
572549.6607705855
 20
1295118.1391056874
 30
68.778254962571
  0
TEXT
  5
295D
330
1F
  100
AcDbEntity
  8
borde cerco
  100
AcDbText
  10
572549.6607705855
  20
1295118.3891056874
  30
0.0
  40
0.5
  1
p41
  39
0.0
  50
0.0
  100
AcDbText
  0
TEXT
  5
2960
330
1F
  100
AcDbEntity
  8
borde cerco
  100
AcDbText
  10
572549.6607705855
  20
1295117.3891056874
  30
0.0
  40
0.5
  1
borde cerco
  39
0.0
  50
0.0
  100
AcDbText
  0
POINT
  5
2961
330
1F
100
AcDbEntity
  8
borde cerco
100
AcDbPoint
 10
572542.0168514289
 20
1295108.9907558048
 30
68.673597042535
  0
TEXT
  5
2964
330
1F
  100
AcDbEntity
  8
borde cerco
  100
AcDbText
  10
572542.0168514289
  20
1295109.2407558048
  30
0.0
  40
0.5
  1
p42
  39
0.0
  50
0.0
  100
AcDbText
  0
TEXT
  5
2967
330
1F
  100
AcDbEntity
  8
borde cerco
  100
AcDbText
  10
572542.0168514289
  20
1295108.2407558048
  30
0.0
  40
0.5
  1
borde cerco
  39
0.0
  50
0.0
  100
AcDbText
  0
POINT
  5
2968
330
1F
100
AcDbEntity
  8
borde cerco
100
AcDbPoint
 10
572530.7365161174
 20
1295106.4174779071
 30
66.209371192999
  0
TEXT
  5
296B
330
1F
  100
AcDbEntity
  8
borde cerco
  100
AcDbText
  10
572530.7365161174
  20
1295106.6674779071
  30
0.0
  40
0.5
  1
p43
  39
0.0
  50
0.0
  100
AcDbText
  0
TEXT
  5
296E
330
1F
  100
AcDbEntity
  8
borde cerco
  100
AcDbText
  10
572530.7365161174
  20
1295105.6674779071
  30
0.0
  40
0.5
  1
borde cerco
  39
0.0
  50
0.0
  100
AcDbText
  0
POINT
  5
296F
330
1F
100
AcDbEntity
  8
retiro 7m
100
AcDbPoint
 10
572534.418075281
 20
1295107.1947512103
 30
67.189933698385
  0
TEXT
  5
2972
330
1F
  100
AcDbEntity
  8
retiro 7m
  100
AcDbText
  10
572534.418075281
  20
1295107.4447512103
  30
0.0
  40
0.5
  1
p44
  39
0.0
  50
0.0
  100
AcDbText
  0
TEXT
  5
2975
330
1F
  100
AcDbEntity
  8
retiro 7m
  100
AcDbText
  10
572534.418075281
  20
1295106.4447512103
  30
0.0
  40
0.5
  1
retiro 7m
  39
0.0
  50
0.0
  100
AcDbText
  0
POINT
  5
2976
330
1F
100
AcDbEntity
  8
borde rio
100
AcDbPoint
 10
572529.0560618342
 20
1295122.246385576
 30
65.492270636405
  0
TEXT
  5
2979
330
1F
  100
AcDbEntity
  8
borde rio
  100
AcDbText
  10
572529.0560618342
  20
1295122.496385576
  30
0.0
  40
0.5
  1
p45
  39
0.0
  50
0.0
  100
AcDbText
  0
TEXT
  5
297C
330
1F
  100
AcDbEntity
  8
borde rio
  100
AcDbText
  10
572529.0560618342
  20
1295121.496385576
  30
0.0
  40
0.5
  1
borde rio
  39
0.0
  50
0.0
  100
AcDbText
  0
POINT
  5
297D
330
1F
100
AcDbEntity
  8
borde cerco
100
AcDbPoint
 10
572533.589123427
 20
1295116.5936019663
 30
66.37521116543
  0
TEXT
  5
2980
330
1F
  100
AcDbEntity
  8
borde cerco
  100
AcDbText
  10
572533.589123427
  20
1295116.8436019663
  30
0.0
  40
0.5
  1
p46
  39
0.0
  50
0.0
  100
AcDbText
  0
TEXT
  5
2983
330
1F
  100
AcDbEntity
  8
borde cerco
  100
AcDbText
  10
572533.589123427
  20
1295115.8436019663
  30
0.0
  40
0.5
  1
borde cerco
  39
0.0
  50
0.0
  100
AcDbText
  0
POINT
  5
2984
330
1F
100
AcDbEntity
  8
borde rio
100
AcDbPoint
 10
572545.3563177452
 20
1295147.0870214987
 30
65.42976872562
  0
TEXT
  5
2987
330
1F
  100
AcDbEntity
  8
borde rio
  100
AcDbText
  10
572545.3563177452
  20
1295147.3370214987
  30
0.0
  40
0.5
  1
p47
  39
0.0
  50
0.0
  100
AcDbText
  0
TEXT
  5
298A
330
1F
  100
AcDbEntity
  8
borde rio
  100
AcDbText
  10
572545.3563177452
  20
1295146.3370214987
  30
0.0
  40
0.5
  1
borde rio
  39
0.0
  50
0.0
  100
AcDbText
  0
POINT
  5
298B
330
1F
100
AcDbEntity
  8
borde cerco
100
AcDbPoint
 10
572552.4134876267
 20
1295146.1677083166
 30
66.124919778412
  0
TEXT
  5
298E
330
1F
  100
AcDbEntity
  8
borde cerco
  100
AcDbText
  10
572552.4134876267
  20
1295146.4177083166
  30
0.0
  40
0.5
  1
p49
  39
0.0
  50
0.0
  100
AcDbText
  0
TEXT
  5
2991
330
1F
  100
AcDbEntity
  8
borde cerco
  100
AcDbText
  10
572552.4134876267
  20
1295145.4177083166
  30
0.0
  40
0.5
  1
borde cerco
  39
0.0
  50
0.0
  100
AcDbText
  0
POINT
  5
2992
330
1F
100
AcDbEntity
  8
borde rio
100
AcDbPoint
 10
572561.5639705247
 20
1295161.4458823642
 30
65.377167921256
  0
TEXT
  5
2995
330
1F
  100
AcDbEntity
  8
borde rio
  100
AcDbText
  10
572561.5639705247
  20
1295161.6958823642
  30
0.0
  40
0.5
  1
p50
  39
0.0
  50
0.0
  100
AcDbText
  0
TEXT
  5
2998
330
1F
  100
AcDbEntity
  8
borde rio
  100
AcDbText
  10
572561.5639705247
  20
1295160.6958823642
  30
0.0
  40
0.5
  1
borde rio
  39
0.0
  50
0.0
  100
AcDbText
  0
POINT
  5
2999
330
1F
100
AcDbEntity
  8
borde cerco
100
AcDbPoint
 10
572566.3661066835
 20
1295155.9072468898
 30
66.835787974269
  0
TEXT
  5
299C
330
1F
  100
AcDbEntity
  8
borde cerco
  100
AcDbText
  10
572566.3661066835
  20
1295156.1572468898
  30
0.0
  40
0.5
  1
p51
  39
0.0
  50
0.0
  100
AcDbText
  0
TEXT
  5
299F
330
1F
  100
AcDbEntity
  8
borde cerco
  100
AcDbText
  10
572566.3661066835
  20
1295155.1572468898
  30
0.0
  40
0.5
  1
borde cerco
  39
0.0
  50
0.0
  100
AcDbText
  0
POINT
  5
29A0
330
1F
100
AcDbEntity
  8
borde rio
100
AcDbPoint
 10
572583.5506623993
 20
1295182.0616340667
 30
65.367598824324
  0
TEXT
  5
29A3
330
1F
  100
AcDbEntity
  8
borde rio
  100
AcDbText
  10
572583.5506623993
  20
1295182.3116340667
  30
0.0
  40
0.5
  1
p52
  39
0.0
  50
0.0
  100
AcDbText
  0
TEXT
  5
29A6
330
1F
  100
AcDbEntity
  8
borde rio
  100
AcDbText
  10
572583.5506623993
  20
1295181.3116340667
  30
0.0
  40
0.5
  1
borde rio
  39
0.0
  50
0.0
  100
AcDbText
  0
POINT
  5
29A7
330
1F
100
AcDbEntity
  8
borde rio
100
AcDbPoint
 10
572595.2578450692
 20
1295195.0839217117
 30
65.533888011293
  0
TEXT
  5
29AA
330
1F
  100
AcDbEntity
  8
borde rio
  100
AcDbText
  10
572595.2578450692
  20
1295195.3339217117
  30
0.0
  40
0.5
  1
p53
  39
0.0
  50
0.0
  100
AcDbText
  0
TEXT
  5
29AD
330
1F
  100
AcDbEntity
  8
borde rio
  100
AcDbText
  10
572595.2578450692
  20
1295194.3339217117
  30
0.0
  40
0.5
  1
borde rio
  39
0.0
  50
0.0
  100
AcDbText
  0
POINT
  5
29AE
330
1F
100
AcDbEntity
  8
retiro 7m
100
AcDbPoint
 10
572600.8064330395
 20
1295190.5892995298
 30
66.312554516693
  0
TEXT
  5
29B1
330
1F
  100
AcDbEntity
  8
retiro 7m
  100
AcDbText
  10
572600.8064330395
  20
1295190.8392995298
  30
0.0
  40
0.5
  1
p54
  39
0.0
  50
0.0
  100
AcDbText
  0
TEXT
  5
29B4
330
1F
  100
AcDbEntity
  8
retiro 7m
  100
AcDbText
  10
572600.8064330395
  20
1295189.8392995298
  30
0.0
  40
0.5
  1
retiro 7m
  39
0.0
  50
0.0
  100
AcDbText
  0
POINT
  5
29B5
330
1F
100
AcDbEntity
  8
borde rio
100
AcDbPoint
 10
572611.5292997665
 20
1295207.7108241238
 30
65.990255526512
  0
TEXT
  5
29B8
330
1F
  100
AcDbEntity
  8
borde rio
  100
AcDbText
  10
572611.5292997665
  20
1295207.9608241238
  30
0.0
  40
0.5
  1
p55
  39
0.0
  50
0.0
  100
AcDbText
  0
TEXT
  5
29BB
330
1F
  100
AcDbEntity
  8
borde rio
  100
AcDbText
  10
572611.5292997665
  20
1295206.9608241238
  30
0.0
  40
0.5
  1
borde rio
  39
0.0
  50
0.0
  100
AcDbText
  0
POINT
  5
29BC
330
1F
100
AcDbEntity
  8
retiro 7m
100
AcDbPoint
 10
572617.1202012557
 20
1295203.938594405
 30
67.458954822937
  0
TEXT
  5
29BF
330
1F
  100
AcDbEntity
  8
retiro 7m
  100
AcDbText
  10
572617.1202012557
  20
1295204.188594405
  30
0.0
  40
0.5
  1
p56
  39
0.0
  50
0.0
  100
AcDbText
  0
TEXT
  5
29C2
330
1F
  100
AcDbEntity
  8
retiro 7m
  100
AcDbText
  10
572617.1202012557
  20
1295203.188594405
  30
0.0
  40
0.5
  1
retiro 7m
  39
0.0
  50
0.0
  100
AcDbText
  0
POINT
  5
29C3
330
1F
100
AcDbEntity
  8
retiro 7m
100
AcDbPoint
 10
572615.7570316703
 20
1295243.8464502976
 30
66.609752797643
  0
TEXT
  5
29C6
330
1F
  100
AcDbEntity
  8
retiro 7m
  100
AcDbText
  10
572615.7570316703
  20
1295244.0964502976
  30
0.0
  40
0.5
  1
p57
  39
0.0
  50
0.0
  100
AcDbText
  0
TEXT
  5
29C9
330
1F
  100
AcDbEntity
  8
retiro 7m
  100
AcDbText
  10
572615.7570316703
  20
1295243.0964502976
  30
0.0
  40
0.5
  1
retiro 7m
  39
0.0
  50
0.0
  100
AcDbText
  0
POINT
  5
29CA
330
1F
100
AcDbEntity
  8
retiro 30m
100
AcDbPoint
 10
572600.8150954596
 20
1295259.9300732252
 30
68.648658789009
  0
TEXT
  5
29CD
330
1F
  100
AcDbEntity
  8
retiro 30m
  100
AcDbText
  10
572600.8150954596
  20
1295260.1800732252
  30
0.0
  40
0.5
  1
p59
  39
0.0
  50
0.0
  100
AcDbText
  0
TEXT
  5
29D0
330
1F
  100
AcDbEntity
  8
retiro 30m
  100
AcDbText
  10
572600.8150954596
  20
1295259.1800732252
  30
0.0
  40
0.5
  1
retiro 30m
  39
0.0
  50
0.0
  100
AcDbText
  0
POINT
  5
29D1
330
1F
100
AcDbEntity
  8
esquinero
100
AcDbPoint
 10
572613.0944023122
 20
1295242.2802058363
 30
68.111741315839
  0
TEXT
  5
29D4
330
1F
  100
AcDbEntity
  8
esquinero
  100
AcDbText
  10
572613.0944023122
  20
1295242.5302058363
  30
0.0
  40
0.5
  1
p60
  39
0.0
  50
0.0
  100
AcDbText
  0
TEXT
  5
29D7
330
1F
  100
AcDbEntity
  8
esquinero
  100
AcDbText
  10
572613.0944023122
  20
1295241.5302058363
  30
0.0
  40
0.5
  1
esquinero
  39
0.0
  50
0.0
  100
AcDbText
  0
POINT
  5
29D8
330
1F
100
AcDbEntity
  8
borde de cauce
100
AcDbPoint
 10
572593.8992468446
 20
1295266.8463809052
 30
68.754653536204
  0
TEXT
  5
29DB
330
1F
  100
AcDbEntity
  8
borde de cauce
  100
AcDbText
  10
572593.8992468446
  20
1295267.0963809052
  30
0.0
  40
0.5
  1
p61
  39
0.0
  50
0.0
  100
AcDbText
  0
TEXT
  5
29DE
330
1F
  100
AcDbEntity
  8
borde de cauce
  100
AcDbText
  10
572593.8992468446
  20
1295266.0963809052
  30
0.0
  40
0.5
  1
borde de cauce
  39
0.0
  50
0.0
  100
AcDbText
  0
POINT
  5
29DF
330
1F
100
AcDbEntity
  8
retiro 7m
100
AcDbPoint
 10
572588.9392722285
 20
1295263.7303193398
 30
71.924869157673
  0
TEXT
  5
29E2
330
1F
  100
AcDbEntity
  8
retiro 7m
  100
AcDbText
  10
572588.9392722285
  20
1295263.9803193398
  30
0.0
  40
0.5
  1
p62
  39
0.0
  50
0.0
  100
AcDbText
  0
TEXT
  5
29E5
330
1F
  100
AcDbEntity
  8
retiro 7m
  100
AcDbText
  10
572588.9392722285
  20
1295262.9803193398
  30
0.0
  40
0.5
  1
retiro 7m
  39
0.0
  50
0.0
  100
AcDbText
  0
POINT
  5
29E6
330
1F
100
AcDbEntity
  8
borde de cauce
100
AcDbPoint
 10
572577.6428053217
 20
1295289.1727490618
 30
69.594420213567
  0
TEXT
  5
29E9
330
1F
  100
AcDbEntity
  8
borde de cauce
  100
AcDbText
  10
572577.6428053217
  20
1295289.4227490618
  30
0.0
  40
0.5
  1
p63
  39
0.0
  50
0.0
  100
AcDbText
  0
TEXT
  5
29EC
330
1F
  100
AcDbEntity
  8
borde de cauce
  100
AcDbText
  10
572577.6428053217
  20
1295288.4227490618
  30
0.0
  40
0.5
  1
borde de cauce
  39
0.0
  50
0.0
  100
AcDbText
  0
POINT
  5
29ED
330
1F
100
AcDbEntity
  8
retiro 7m
100
AcDbPoint
 10
572572.5349518115
 20
1295291.386350952
 30
74.051485107702
  0
TEXT
  5
29F0
330
1F
  100
AcDbEntity
  8
retiro 7m
  100
AcDbText
  10
572572.5349518115
  20
1295291.636350952
  30
0.0
  40
0.5
  1
p64
  39
0.0
  50
0.0
  100
AcDbText
  0
TEXT
  5
29F3
330
1F
  100
AcDbEntity
  8
retiro 7m
  100
AcDbText
  10
572572.5349518115
  20
1295290.636350952
  30
0.0
  40
0.5
  1
retiro 7m
  39
0.0
  50
0.0
  100
AcDbText
  0
POINT
  5
29F4
330
1F
100
AcDbEntity
  8
borde de cauce
100
AcDbPoint
 10
572587.2760398503
 20
1295295.1612865503
 30
67.592117171834
  0
TEXT
  5
29F7
330
1F
  100
AcDbEntity
  8
borde de cauce
  100
AcDbText
  10
572587.2760398503
  20
1295295.4112865503
  30
0.0
  40
0.5
  1
p66
  39
0.0
  50
0.0
  100
AcDbText
  0
TEXT
  5
29FA
330
1F
  100
AcDbEntity
  8
borde de cauce
  100
AcDbText
  10
572587.2760398503
  20
1295294.4112865503
  30
0.0
  40
0.5
  1
borde de cauce
  39
0.0
  50
0.0
  100
AcDbText
  0
POINT
  5
29FB
330
1F
100
AcDbEntity
  8
retiro 7m
100
AcDbPoint
 10
572584.3356169356
 20
1295300.646589733
 30
68.999619928439
  0
TEXT
  5
29FE
330
1F
  100
AcDbEntity
  8
retiro 7m
  100
AcDbText
  10
572584.3356169356
  20
1295300.896589733
  30
0.0
  40
0.5
  1
p67
  39
0.0
  50
0.0
  100
AcDbText
  0
TEXT
  5
2A01
330
1F
  100
AcDbEntity
  8
retiro 7m
  100
AcDbText
  10
572584.3356169356
  20
1295299.896589733
  30
0.0
  40
0.5
  1
retiro 7m
  39
0.0
  50
0.0
  100
AcDbText
  0
POINT
  5
2A02
330
1F
100
AcDbEntity
  8
lundero
100
AcDbPoint
 10
572592.1660283622
 20
1295304.6667759293
 30
68.676931378303
  0
TEXT
  5
2A05
330
1F
  100
AcDbEntity
  8
lundero
  100
AcDbText
  10
572592.1660283622
  20
1295304.9167759293
  30
0.0
  40
0.5
  1
p68
  39
0.0
  50
0.0
  100
AcDbText
  0
TEXT
  5
2A08
330
1F
  100
AcDbEntity
  8
lundero
  100
AcDbText
  10
572592.1660283622
  20
1295303.9167759293
  30
0.0
  40
0.5
  1
lundero
  39
0.0
  50
0.0
  100
AcDbText
  0
POINT
  5
2A09
330
1F
100
AcDbEntity
  8
punto
100
AcDbPoint
 10
572591.6871325772
 20
1295313.6614390174
 30
70.378654998661
  0
TEXT
  5
2A0C
330
1F
  100
AcDbEntity
  8
punto
  100
AcDbText
  10
572591.6871325772
  20
1295313.9114390174
  30
0.0
  40
0.5
  1
p69
  39
0.0
  50
0.0
  100
AcDbText
  0
TEXT
  5
2A0F
330
1F
  100
AcDbEntity
  8
punto
  100
AcDbText
  10
572591.6871325772
  20
1295312.9114390174
  30
0.0
  40
0.5
  1
punto
  39
0.0
  50
0.0
  100
AcDbText
  0
POINT
  5
2A10
330
1F
100
AcDbEntity
  8
punto
100
AcDbPoint
 10
572591.6699117015
 20
1295313.6590553168
 30
70.355848946139
  0
TEXT
  5
2A13
330
1F
  100
AcDbEntity
  8
punto
  100
AcDbText
  10
572591.6699117015
  20
1295313.9090553168
  30
0.0
  40
0.5
  1
p70
  39
0.0
  50
0.0
  100
AcDbText
  0
TEXT
  5
2A16
330
1F
  100
AcDbEntity
  8
punto
  100
AcDbText
  10
572591.6699117015
  20
1295312.9090553168
  30
0.0
  40
0.5
  1
punto
  39
0.0
  50
0.0
  100
AcDbText
  0
POINT
  5
2A17
330
1F
100
AcDbEntity
  8
punto
100
AcDbPoint
 10
572591.6518608726
 20
1295313.6650123973
 30
70.394549800583
  0
TEXT
  5
2A1A
330
1F
  100
AcDbEntity
  8
punto
  100
AcDbText
  10
572591.6518608726
  20
1295313.9150123973
  30
0.0
  40
0.5
  1
p71
  39
0.0
  50
0.0
  100
AcDbText
  0
TEXT
  5
2A1D
330
1F
  100
AcDbEntity
  8
punto
  100
AcDbText
  10
572591.6518608726
  20
1295312.9150123973
  30
0.0
  40
0.5
  1
punto
  39
0.0
  50
0.0
  100
AcDbText
  0
POINT
  5
2A1E
330
1F
100
AcDbEntity
  8
punto
100
AcDbPoint
 10
572579.1375624916
 20
1295374.905247523
 30
76.194346916294
  0
TEXT
  5
2A21
330
1F
  100
AcDbEntity
  8
punto
  100
AcDbText
  10
572579.1375624916
  20
1295375.155247523
  30
0.0
  40
0.5
  1
p72
  39
0.0
  50
0.0
  100
AcDbText
  0
TEXT
  5
2A24
330
1F
  100
AcDbEntity
  8
punto
  100
AcDbText
  10
572579.1375624916
  20
1295374.155247523
  30
0.0
  40
0.5
  1
punto
  39
0.0
  50
0.0
  100
AcDbText
  0
POINT
  5
2A25
330
1F
100
AcDbEntity
  8
punto
100
AcDbPoint
 10
572573.8771910223
 20
1295400.548312357
 30
77.011258131491
  0
TEXT
  5
2A28
330
1F
  100
AcDbEntity
  8
punto
  100
AcDbText
  10
572573.8771910223
  20
1295400.798312357
  30
0.0
  40
0.5
  1
p73
  39
0.0
  50
0.0
  100
AcDbText
  0
TEXT
  5
2A2B
330
1F
  100
AcDbEntity
  8
punto
  100
AcDbText
  10
572573.8771910223
  20
1295399.798312357
  30
0.0
  40
0.5
  1
punto
  39
0.0
  50
0.0
  100
AcDbText
  0
POINT
  5
2A2C
330
1F
100
AcDbEntity
  8
punto
100
AcDbPoint
 10
572567.8937066239
 20
1295431.5594971844
 30
78.037225806182
  0
TEXT
  5
2A2F
330
1F
  100
AcDbEntity
  8
punto
  100
AcDbText
  10
572567.8937066239
  20
1295431.8094971844
  30
0.0
  40
0.5
  1
p74
  39
0.0
  50
0.0
  100
AcDbText
  0
TEXT
  5
2A32
330
1F
  100
AcDbEntity
  8
punto
  100
AcDbText
  10
572567.8937066239
  20
1295430.8094971844
  30
0.0
  40
0.5
  1
punto
  39
0.0
  50
0.0
  100
AcDbText
  0
POINT
  5
2A33
330
1F
100
AcDbEntity
  8
punto
100
AcDbPoint
 10
572555.3816995762
 20
1295472.540708424
 30
78.966155100935
  0
TEXT
  5
2A36
330
1F
  100
AcDbEntity
  8
punto
  100
AcDbText
  10
572555.3816995762
  20
1295472.790708424
  30
0.0
  40
0.5
  1
p75
  39
0.0
  50
0.0
  100
AcDbText
  0
TEXT
  5
2A39
330
1F
  100
AcDbEntity
  8
punto
  100
AcDbText
  10
572555.3816995762
  20
1295471.790708424
  30
0.0
  40
0.5
  1
punto
  39
0.0
  50
0.0
  100
AcDbText
  0
POINT
  5
2A3A
330
1F
100
AcDbEntity
  8
punto
100
AcDbPoint
 10
572553.8735969305
 20
1295479.6005768373
 30
78.583805146864
  0
TEXT
  5
2A3D
330
1F
  100
AcDbEntity
  8
punto
  100
AcDbText
  10
572553.8735969305
  20
1295479.8505768373
  30
0.0
  40
0.5
  1
p76
  39
0.0
  50
0.0
  100
AcDbText
  0
TEXT
  5
2A40
330
1F
  100
AcDbEntity
  8
punto
  100
AcDbText
  10
572553.8735969305
  20
1295478.8505768373
  30
0.0
  40
0.5
  1
punto
  39
0.0
  50
0.0
  100
AcDbText
  0
POINT
  5
2A41
330
1F
100
AcDbEntity
  8
punto
100
AcDbPoint
 10
572532.0844661567
 20
1295557.0490374987
 30
78.587338024214
  0
TEXT
  5
2A44
330
1F
  100
AcDbEntity
  8
punto
  100
AcDbText
  10
572532.0844661567
  20
1295557.2990374987
  30
0.0
  40
0.5
  1
p77
  39
0.0
  50
0.0
  100
AcDbText
  0
TEXT
  5
2A47
330
1F
  100
AcDbEntity
  8
punto
  100
AcDbText
  10
572532.0844661567
  20
1295556.2990374987
  30
0.0
  40
0.5
  1
punto
  39
0.0
  50
0.0
  100
AcDbText
  0
POINT
  5
2A48
330
1F
100
AcDbEntity
  8
punto
100
AcDbPoint
 10
572530.5297296256
 20
1295561.2616422053
 30
78.436496342602
  0
TEXT
  5
2A4B
330
1F
  100
AcDbEntity
  8
punto
  100
AcDbText
  10
572530.5297296256
  20
1295561.5116422053
  30
0.0
  40
0.5
  1
p78
  39
0.0
  50
0.0
  100
AcDbText
  0
TEXT
  5
2A4E
330
1F
  100
AcDbEntity
  8
punto
  100
AcDbText
  10
572530.5297296256
  20
1295560.5116422053
  30
0.0
  40
0.5
  1
punto
  39
0.0
  50
0.0
  100
AcDbText
  0
POINT
  5
2A4F
330
1F
100
AcDbEntity
  8
punto
100
AcDbPoint
 10
572523.4518072869
 20
1295585.822482398
 30
79.296527361153
  0
TEXT
  5
2A52
330
1F
  100
AcDbEntity
  8
punto
  100
AcDbText
  10
572523.4518072869
  20
1295586.072482398
  30
0.0
  40
0.5
  1
p79
  39
0.0
  50
0.0
  100
AcDbText
  0
TEXT
  5
2A55
330
1F
  100
AcDbEntity
  8
punto
  100
AcDbText
  10
572523.4518072869
  20
1295585.072482398
  30
0.0
  40
0.5
  1
punto
  39
0.0
  50
0.0
  100
AcDbText
  0
POINT
  5
2A56
330
1F
100
AcDbEntity
  8
punto
100
AcDbPoint
 10
572519.1970095449
 20
1295599.594594281
 30
78.236679929571
  0
TEXT
  5
2A59
330
1F
  100
AcDbEntity
  8
punto
  100
AcDbText
  10
572519.1970095449
  20
1295599.844594281
  30
0.0
  40
0.5
  1
p81
  39
0.0
  50
0.0
  100
AcDbText
  0
TEXT
  5
2A5C
330
1F
  100
AcDbEntity
  8
punto
  100
AcDbText
  10
572519.1970095449
  20
1295598.844594281
  30
0.0
  40
0.5
  1
punto
  39
0.0
  50
0.0
  100
AcDbText
  0
POINT
  5
2A5D
330
1F
100
AcDbEntity
  8
punto
100
AcDbPoint
 10
572512.7264491662
 20
1295608.8065672766
 30
77.784248705989
  0
TEXT
  5
2A60
330
1F
  100
AcDbEntity
  8
punto
  100
AcDbText
  10
572512.7264491662
  20
1295609.0565672766
  30
0.0
  40
0.5
  1
p82
  39
0.0
  50
0.0
  100
AcDbText
  0
TEXT
  5
2A63
330
1F
  100
AcDbEntity
  8
punto
  100
AcDbText
  10
572512.7264491662
  20
1295608.0565672766
  30
0.0
  40
0.5
  1
punto
  39
0.0
  50
0.0
  100
AcDbText
  0
POINT
  5
2A64
330
1F
100
AcDbEntity
  8
punto
100
AcDbPoint
 10
572444.3644402707
 20
1295683.195045722
 30
79.850795363242
  0
TEXT
  5
2A67
330
1F
  100
AcDbEntity
  8
punto
  100
AcDbText
  10
572444.3644402707
  20
1295683.445045722
  30
0.0
  40
0.5
  1
p83
  39
0.0
  50
0.0
  100
AcDbText
  0
TEXT
  5
2A6A
330
1F
  100
AcDbEntity
  8
punto
  100
AcDbText
  10
572444.3644402707
  20
1295682.445045722
  30
0.0
  40
0.5
  1
punto
  39
0.0
  50
0.0
  100
AcDbText
  0
POINT
  5
2A6B
330
1F
100
AcDbEntity
  8
punto
100
AcDbPoint
 10
572438.3819583973
 20
1295690.7942931037
 30
80.079675498025
  0
TEXT
  5
2A6E
330
1F
  100
AcDbEntity
  8
punto
  100
AcDbText
  10
572438.3819583973
  20
1295691.0442931037
  30
0.0
  40
0.5
  1
p84
  39
0.0
  50
0.0
  100
AcDbText
  0
TEXT
  5
2A71
330
1F
  100
AcDbEntity
  8
punto
  100
AcDbText
  10
572438.3819583973
  20
1295690.0442931037
  30
0.0
  40
0.5
  1
punto
  39
0.0
  50
0.0
  100
AcDbText
  0
POINT
  5
2A72
330
1F
100
AcDbEntity
  8
lundero
100
AcDbPoint
 10
572327.475927267
 20
1295819.5691608377
 30
79.133007268507
  0
TEXT
  5
2A75
330
1F
  100
AcDbEntity
  8
lundero
  100
AcDbText
  10
572327.475927267
  20
1295819.8191608377
  30
0.0
  40
0.5
  1
p85
  39
0.0
  50
0.0
  100
AcDbText
  0
TEXT
  5
2A78
330
1F
  100
AcDbEntity
  8
lundero
  100
AcDbText
  10
572327.475927267
  20
1295818.8191608377
  30
0.0
  40
0.5
  1
lundero
  39
0.0
  50
0.0
  100
AcDbText
  0
POINT
  5
2A79
330
1F
100
AcDbEntity
  8
lundero
100
AcDbPoint
 10
572305.9849122933
 20
1295845.2652071605
 30
78.383217279374
  0
TEXT
  5
2A7C
330
1F
  100
AcDbEntity
  8
lundero
  100
AcDbText
  10
572305.9849122933
  20
1295845.5152071605
  30
0.0
  40
0.5
  1
p86
  39
0.0
  50
0.0
  100
AcDbText
  0
TEXT
  5
2A7F
330
1F
  100
AcDbEntity
  8
lundero
  100
AcDbText
  10
572305.9849122933
  20
1295844.5152071605
  30
0.0
  40
0.5
  1
lundero
  39
0.0
  50
0.0
  100
AcDbText
  0
POINT
  5
2A80
330
1F
100
AcDbEntity
  8
punto
100
AcDbPoint
 10
572548.4103451576
 20
1294988.1859127118
 30
64.404583657318
  0
TEXT
  5
2A83
330
1F
  100
AcDbEntity
  8
punto
  100
AcDbText
  10
572548.4103451576
  20
1294988.4359127118
  30
0.0
  40
0.5
  1
p1
  39
0.0
  50
0.0
  100
AcDbText
  0
TEXT
  5
2A86
330
1F
  100
AcDbEntity
  8
punto
  100
AcDbText
  10
572548.4103451576
  20
1294987.4359127118
  30
0.0
  40
0.5
  1
punto
  39
0.0
  50
0.0
  100
AcDbText
  0
POINT
  5
2A87
330
1F
100
AcDbEntity
  8
punto
100
AcDbPoint
 10
572541.0326032843
 20
1294993.3048975088
 30
64.781701756266
  0
TEXT
  5
2A8A
330
1F
  100
AcDbEntity
  8
punto
  100
AcDbText
  10
572541.0326032843
  20
1294993.5548975088
  30
0.0
  40
0.5
  1
p2
  39
0.0
  50
0.0
  100
AcDbText
  0
TEXT
  5
2A8D
330
1F
  100
AcDbEntity
  8
punto
  100
AcDbText
  10
572541.0326032843
  20
1294992.5548975088
  30
0.0
  40
0.5
  1
punto
  39
0.0
  50
0.0
  100
AcDbText
  0
POINT
  5
2A8E
330
1F
100
AcDbEntity
  8
retiro 30m
100
AcDbPoint
 10
572524.8004040923
 20
1295005.7620517013
 30
59.16273659361
  0
TEXT
  5
2A91
330
1F
  100
AcDbEntity
  8
retiro 30m
  100
AcDbText
  10
572524.8004040923
  20
1295006.0120517013
  30
0.0
  40
0.5
  1
p3
  39
0.0
  50
0.0
  100
AcDbText
  0
TEXT
  5
2A94
330
1F
  100
AcDbEntity
  8
retiro 30m
  100
AcDbText
  10
572524.8004040923
  20
1295005.0120517013
  30
0.0
  40
0.5
  1
retiro 30m
  39
0.0
  50
0.0
  100
AcDbText
  0
POINT
  5
2A95
330
1F
100
AcDbEntity
  8
punto
100
AcDbPoint
 10
572513.4191386038
 20
1295013.9817253437
 30
59.57098285292
  0
TEXT
  5
2A98
330
1F
  100
AcDbEntity
  8
punto
  100
AcDbText
  10
572513.4191386038
  20
1295014.2317253437
  30
0.0
  40
0.5
  1
p4
  39
0.0
  50
0.0
  100
AcDbText
  0
TEXT
  5
2A9B
330
1F
  100
AcDbEntity
  8
punto
  100
AcDbText
  10
572513.4191386038
  20
1295013.2317253437
  30
0.0
  40
0.5
  1
punto
  39
0.0
  50
0.0
  100
AcDbText
  0
POINT
  5
2A9C
330
1F
100
AcDbEntity
  8
punto
100
AcDbPoint
 10
572508.5173105369
 20
1295018.4224152693
 30
59.789210539598
  0
TEXT
  5
2A9F
330
1F
  100
AcDbEntity
  8
punto
  100
AcDbText
  10
572508.5173105369
  20
1295018.6724152693
  30
0.0
  40
0.5
  1
p5
  39
0.0
  50
0.0
  100
AcDbText
  0
TEXT
  5
2AA2
330
1F
  100
AcDbEntity
  8
punto
  100
AcDbText
  10
572508.5173105369
  20
1295017.6724152693
  30
0.0
  40
0.5
  1
punto
  39
0.0
  50
0.0
  100
AcDbText
  0
POINT
  5
2AA3
330
1F
100
AcDbEntity
  8
punto
100
AcDbPoint
 10
572497.0244837807
 20
1295027.6815747106
 30
62.680345758832
  0
TEXT
  5
2AA6
330
1F
  100
AcDbEntity
  8
punto
  100
AcDbText
  10
572497.0244837807
  20
1295027.9315747106
  30
0.0
  40
0.5
  1
p6
  39
0.0
  50
0.0
  100
AcDbText
  0
TEXT
  5
2AA9
330
1F
  100
AcDbEntity
  8
punto
  100
AcDbText
  10
572497.0244837807
  20
1295026.9315747106
  30
0.0
  40
0.5
  1
punto
  39
0.0
  50
0.0
  100
AcDbText
  0
POINT
  5
2AAA
330
1F
100
AcDbEntity
  8
punto
100
AcDbPoint
 10
572459.634495931
 20
1295057.0684036822
 30
66.388425435305
  0
TEXT
  5
2AAD
330
1F
  100
AcDbEntity
  8
punto
  100
AcDbText
  10
572459.634495931
  20
1295057.3184036822
  30
0.0
  40
0.5
  1
p7
  39
0.0
  50
0.0
  100
AcDbText
  0
TEXT
  5
2AB0
330
1F
  100
AcDbEntity
  8
punto
  100
AcDbText
  10
572459.634495931
  20
1295056.3184036822
  30
0.0
  40
0.5
  1
punto
  39
0.0
  50
0.0
  100
AcDbText
  0
POINT
  5
2AB1
330
1F
100
AcDbEntity
  8
punto
100
AcDbPoint
 10
572433.9454124465
 20
1295077.9872678188
 30
66.087945220959
  0
TEXT
  5
2AB4
330
1F
  100
AcDbEntity
  8
punto
  100
AcDbText
  10
572433.9454124465
  20
1295078.2372678188
  30
0.0
  40
0.5
  1
p8
  39
0.0
  50
0.0
  100
AcDbText
  0
TEXT
  5
2AB7
330
1F
  100
AcDbEntity
  8
punto
  100
AcDbText
  10
572433.9454124465
  20
1295077.2372678188
  30
0.0
  40
0.5
  1
punto
  39
0.0
  50
0.0
  100
AcDbText
  0
POINT
  5
2AB8
330
1F
100
AcDbEntity
  8
punto
100
AcDbPoint
 10
572417.9033996179
 20
1295088.4204638065
 30
64.799458137471
  0
TEXT
  5
2ABB
330
1F
  100
AcDbEntity
  8
punto
  100
AcDbText
  10
572417.9033996179
  20
1295088.6704638065
  30
0.0
  40
0.5
  1
p9
  39
0.0
  50
0.0
  100
AcDbText
  0
TEXT
  5
2ABE
330
1F
  100
AcDbEntity
  8
punto
  100
AcDbText
  10
572417.9033996179
  20
1295087.6704638065
  30
0.0
  40
0.5
  1
punto
  39
0.0
  50
0.0
  100
AcDbText
  0
POINT
  5
2ABF
330
1F
100
AcDbEntity
  8
punto
100
AcDbPoint
 10
572414.6368193729
 20
1295090.9723650054
 30
65.203076922927
  0
TEXT
  5
2AC2
330
1F
  100
AcDbEntity
  8
punto
  100
AcDbText
  10
572414.6368193729
  20
1295091.2223650054
  30
0.0
  40
0.5
  1
p10
  39
0.0
  50
0.0
  100
AcDbText
  0
TEXT
  5
2AC5
330
1F
  100
AcDbEntity
  8
punto
  100
AcDbText
  10
572414.6368193729
  20
1295090.2223650054
  30
0.0
  40
0.5
  1
punto
  39
0.0
  50
0.0
  100
AcDbText
  0
POINT
  5
2AC6
330
1F
100
AcDbEntity
  8
punto
100
AcDbPoint
 10
572382.3350191384
 20
1295116.7887766613
 30
65.879093855568
  0
TEXT
  5
2AC9
330
1F
  100
AcDbEntity
  8
punto
  100
AcDbText
  10
572382.3350191384
  20
1295117.0387766613
  30
0.0
  40
0.5
  1
p11
  39
0.0
  50
0.0
  100
AcDbText
  0
TEXT
  5
2ACC
330
1F
  100
AcDbEntity
  8
punto
  100
AcDbText
  10
572382.3350191384
  20
1295116.0387766613
  30
0.0
  40
0.5
  1
punto
  39
0.0
  50
0.0
  100
AcDbText
  0
POINT
  5
2ACD
330
1F
100
AcDbEntity
  8
punto
100
AcDbPoint
 10
572343.6519451295
 20
1295147.4415188173
 30
66.600202529452
  0
TEXT
  5
2AD0
330
1F
  100
AcDbEntity
  8
punto
  100
AcDbText
  10
572343.6519451295
  20
1295147.6915188173
  30
0.0
  40
0.5
  1
p12
  39
0.0
  50
0.0
  100
AcDbText
  0
TEXT
  5
2AD3
330
1F
  100
AcDbEntity
  8
punto
  100
AcDbText
  10
572343.6519451295
  20
1295146.6915188173
  30
0.0
  40
0.5
  1
punto
  39
0.0
  50
0.0
  100
AcDbText
  0
POINT
  5
2AD4
330
1F
100
AcDbEntity
  8
punto
100
AcDbPoint
 10
572282.205838011
 20
1295195.9208338403
 30
64.462863917593
  0
TEXT
  5
2AD7
330
1F
  100
AcDbEntity
  8
punto
  100
AcDbText
  10
572282.205838011
  20
1295196.1708338403
  30
0.0
  40
0.5
  1
p13
  39
0.0
  50
0.0
  100
AcDbText
  0
TEXT
  5
2ADA
330
1F
  100
AcDbEntity
  8
punto
  100
AcDbText
  10
572282.205838011
  20
1295195.1708338403
  30
0.0
  40
0.5
  1
punto
  39
0.0
  50
0.0
  100
AcDbText
  0
POINT
  5
2ADB
330
1F
100
AcDbEntity
  8
punto
100
AcDbPoint
 10
572255.6306342469
 20
1295216.2598444019
 30
60.01864442873
  0
TEXT
  5
2ADE
330
1F
  100
AcDbEntity
  8
punto
  100
AcDbText
  10
572255.6306342469
  20
1295216.5098444019
  30
0.0
  40
0.5
  1
p14
  39
0.0
  50
0.0
  100
AcDbText
  0
TEXT
  5
2AE1
330
1F
  100
AcDbEntity
  8
punto
  100
AcDbText
  10
572255.6306342469
  20
1295215.5098444019
  30
0.0
  40
0.5
  1
punto
  39
0.0
  50
0.0
  100
AcDbText
  0
POINT
  5
2AE2
330
1F
100
AcDbEntity
  8
punto
100
AcDbPoint
 10
572241.4227682112
 20
1295227.8935723205
 30
58.318438614313
  0
TEXT
  5
2AE5
330
1F
  100
AcDbEntity
  8
punto
  100
AcDbText
  10
572241.4227682112
  20
1295228.1435723205
  30
0.0
  40
0.5
  1
p15
  39
0.0
  50
0.0
  100
AcDbText
  0
TEXT
  5
2AE8
330
1F
  100
AcDbEntity
  8
punto
  100
AcDbText
  10
572241.4227682112
  20
1295227.1435723205
  30
0.0
  40
0.5
  1
punto
  39
0.0
  50
0.0
  100
AcDbText
  0
POINT
  5
2AE9
330
1F
100
AcDbEntity
  8
punto
100
AcDbPoint
 10
572189.1235734834
 20
1295269.478091374
 30
64.01447409223
  0
TEXT
  5
2AEC
330
1F
  100
AcDbEntity
  8
punto
  100
AcDbText
  10
572189.1235734834
  20
1295269.728091374
  30
0.0
  40
0.5
  1
p16
  39
0.0
  50
0.0
  100
AcDbText
  0
TEXT
  5
2AEF
330
1F
  100
AcDbEntity
  8
punto
  100
AcDbText
  10
572189.1235734834
  20
1295268.728091374
  30
0.0
  40
0.5
  1
punto
  39
0.0
  50
0.0
  100
AcDbText
  0
POINT
  5
2AF0
330
1F
100
AcDbEntity
  8
punto
100
AcDbPoint
 10
572150.0077042907
 20
1295302.6401772308
 30
67.850863394916
  0
TEXT
  5
2AF3
330
1F
  100
AcDbEntity
  8
punto
  100
AcDbText
  10
572150.0077042907
  20
1295302.8901772308
  30
0.0
  40
0.5
  1
p17
  39
0.0
  50
0.0
  100
AcDbText
  0
TEXT
  5
2AF6
330
1F
  100
AcDbEntity
  8
punto
  100
AcDbText
  10
572150.0077042907
  20
1295301.8901772308
  30
0.0
  40
0.5
  1
punto
  39
0.0
  50
0.0
  100
AcDbText
  0
POINT
  5
2AF7
330
1F
100
AcDbEntity
  8
punto
100
AcDbPoint
 10
572069.7880105943
 20
1295364.7000900232
 30
85.358422783314
  0
TEXT
  5
2AFA
330
1F
  100
AcDbEntity
  8
punto
  100
AcDbText
  10
572069.7880105943
  20
1295364.9500900232
  30
0.0
  40
0.5
  1
p18
  39
0.0
  50
0.0
  100
AcDbText
  0
TEXT
  5
2AFD
330
1F
  100
AcDbEntity
  8
punto
  100
AcDbText
  10
572069.7880105943
  20
1295363.9500900232
  30
0.0
  40
0.5
  1
punto
  39
0.0
  50
0.0
  100
AcDbText
  0
POINT
  5
2AFE
330
1F
100
AcDbEntity
  8
punto
100
AcDbPoint
 10
572031.95735665
 20
1295394.008113959
 30
82.32701945199
  0
TEXT
  5
2B01
330
1F
  100
AcDbEntity
  8
punto
  100
AcDbText
  10
572031.95735665
  20
1295394.258113959
  30
0.0
  40
0.5
  1
p19
  39
0.0
  50
0.0
  100
AcDbText
  0
TEXT
  5
2B04
330
1F
  100
AcDbEntity
  8
punto
  100
AcDbText
  10
572031.95735665
  20
1295393.258113959
  30
0.0
  40
0.5
  1
punto
  39
0.0
  50
0.0
  100
AcDbText
  0
POINT
  5
2B05
330
1F
100
AcDbEntity
  8
punto
100
AcDbPoint
 10
572002.6196707237
 20
1295417.541215161
 30
77.650044868
  0
TEXT
  5
2B08
330
1F
  100
AcDbEntity
  8
punto
  100
AcDbText
  10
572002.6196707237
  20
1295417.791215161
  30
0.0
  40
0.5
  1
p20
  39
0.0
  50
0.0
  100
AcDbText
  0
TEXT
  5
2B0B
330
1F
  100
AcDbEntity
  8
punto
  100
AcDbText
  10
572002.6196707237
  20
1295416.791215161
  30
0.0
  40
0.5
  1
punto
  39
0.0
  50
0.0
  100
AcDbText
  0
POINT
  5
2B0C
330
1F
100
AcDbEntity
  8
punto
100
AcDbPoint
 10
571747.6386695375
 20
1295627.0256356422
 30
66.051735572819
  0
TEXT
  5
2B0F
330
1F
  100
AcDbEntity
  8
punto
  100
AcDbText
  10
571747.6386695375
  20
1295627.2756356422
  30
0.0
  40
0.5
  1
p26
  39
0.0
  50
0.0
  100
AcDbText
  0
TEXT
  5
2B12
330
1F
  100
AcDbEntity
  8
punto
  100
AcDbText
  10
571747.6386695375
  20
1295626.2756356422
  30
0.0
  40
0.5
  1
punto
  39
0.0
  50
0.0
  100
AcDbText
  0
POINT
  5
2B13
330
1F
100
AcDbEntity
  8
punto
100
AcDbPoint
 10
571736.0728877614
 20
1295629.7248315332
 30
66.313762681378
  0
TEXT
  5
2B16
330
1F
  100
AcDbEntity
  8
punto
  100
AcDbText
  10
571736.0728877614
  20
1295629.9748315332
  30
0.0
  40
0.5
  1
p27
  39
0.0
  50
0.0
  100
AcDbText
  0
TEXT
  5
2B19
330
1F
  100
AcDbEntity
  8
punto
  100
AcDbText
  10
571736.0728877614
  20
1295628.9748315332
  30
0.0
  40
0.5
  1
punto
  39
0.0
  50
0.0
  100
AcDbText
  0
ENDSEC
  0
SECTION
  2
OBJECTS
  0
DICTIONARY
  5
C
330
0
100
AcDbDictionary
281
     1
  3
ACAD_COLOR
350
100
  3
ACAD_GROUP
350
D
  3
ACAD_LAYOUT
350
1A
  3
ACAD_MATERIAL
350
D6
  3
ACAD_MLEADERSTYLE
350
125
  3
ACAD_MLINESTYLE
350
17
  3
ACAD_PLOTSETTINGS
350
19
  3
ACAD_PLOTSTYLENAME
350
E
  3
ACAD_SCALELIST
350
103
  3
ACAD_TABLESTYLE
350
101
  3
ACAD_VISUALSTYLE
350
EF
  3
ACDB_RECOMPOSE_DATA
350
2321
  3
AcDbVariableDictionary
350
2319
  0
DICTIONARY
  5
2312
330
2
100
AcDbDictionary
280
     1
281
     1
  3
ACAD_LAYERFILTERS
360
2314
  3
ACLYDICTIONARY
360
2313
  0
DICTIONARY
  5
2315
330
10
100
AcDbDictionary
280
     1
281
     1
  3
ADSK_XREC_LAYER_RECONCILED
360
2316
  0
DICTIONARY
  5
2317
330
2310
100
AcDbDictionary
280
     1
281
     1
  3
ADSK_XREC_LAYER_RECONCILED
360
2318
  0
DICTIONARY
  5
100
102
{ACAD_REACTORS
330
C
102
}
330
C
100
AcDbDictionary
281
     1
  0
DICTIONARY
  5
D
102
{ACAD_REACTORS
330
C
102
}
330
C
100
AcDbDictionary
281
     1
  0
DICTIONARY
  5
1A
102
{ACAD_REACTORS
330
C
102
}
330
C
100
AcDbDictionary
281
     1
  3
Layout1
350
1E
  3
Layout2
350
26
  3
Model
350
22
  0
DICTIONARY
  5
D6
102
{ACAD_REACTORS
330
C
102
}
330
C
100
AcDbDictionary
281
     1
  3
ByBlock
350
DF
  3
ByLayer
350
D7
  3
Global
350
E7
  0
DICTIONARY
  5
125
102
{ACAD_REACTORS
330
C
102
}
330
C
100
AcDbDictionary
281
     1
  3
Standard
350
126
  0
DICTIONARY
  5
17
102
{ACAD_REACTORS
330
C
102
}
330
C
100
AcDbDictionary
281
     1
  3
Standard
350
18
  0
DICTIONARY
  5
19
102
{ACAD_REACTORS
330
C
102
}
330
C
100
AcDbDictionary
281
     1
  0
ACDBDICTIONARYWDFLT
  5
E
102
{ACAD_REACTORS
330
C
102
}
330
C
100
AcDbDictionary
281
     1
  3
Normal
350
F
100
AcDbDictionaryWithDefault
340
F
  0
DICTIONARY
  5
103
102
{ACAD_REACTORS
330
C
102
}
330
C
100
AcDbDictionary
281
     1
  3
A0
350
104
  3
A1
350
105
  3
A2
350
106
  3
A3
350
107
  3
A4
350
108
  3
A5
350
109
  3
A6
350
10A
  3
A7
350
10B
  3
A8
350
10C
  3
A9
350
10D
  3
B0
350
10E
  3
B1
350
10F
  3
B2
350
110
  3
B3
350
111
  3
B4
350
112
  3
B5
350
113
  3
B6
350
114
  3
B7
350
115
  3
B8
350
116
  3
B9
350
117
  3
C0
350
118
  3
C1
350
119
  3
C2
350
11A
  3
C3
350
11B
  3
C4
350
11C
  3
C5
350
11D
  3
C6
350
11E
  3
C7
350
11F
  3
C8
350
120
  3
C9
350
121
  3
D0
350
122
  3
D1
350
123
  3
D2
350
124
  0
DICTIONARY
  5
101
102
{ACAD_REACTORS
330
C
102
}
330
C
100
AcDbDictionary
281
     1
  3
Standard
350
102
  0
DICTIONARY
  5
EF
102
{ACAD_REACTORS
330
C
102
}
330
C
100
AcDbDictionary
281
     1
  3
2dWireframe
350
F5
  3
3D Hidden
350
F7
  3
3dWireframe
350
F6
  3
Basic
350
F4
  3
Brighten
350
FB
  3
ColorChange
350
FF
  3
Conceptual
350
F8
  3
Dim
350
FA
  3
Facepattern
350
FE
  3
Flat
350
F0
  3
FlatWithEdges
350
F1
  3
Gouraud
350
F2
  3
GouraudWithEdges
350
F3
  3
Linepattern
350
FD
  3
Realistic
350
F9
  3
Thicken
350
FC
  0
XRECORD
  5
2321
102
{ACAD_REACTORS
330
C
102
}
330
C
100
AcDbXrecord
280
     1
 90
        1
330
102
  0
DICTIONARY
  5
2319
102
{ACAD_REACTORS
330
C
102
}
330
C
100
AcDbDictionary
281
     1
  3
CANNOSCALE
350
231D
  3
CMLEADERSTYLE
350
231B
  3
CTABLESTYLE
350
231A
  3
LIGHTINGUNITS
350
231E
  3
MSLTSCALE
350
231C
  0
DICTIONARY
  5
2314
102
{ACAD_REACTORS
330
2312
102
}
330
2312
100
AcDbDictionary
281
     1
  0
DICTIONARY
  5
2313
102
{ACAD_REACTORS
330
2312
102
}
330
2312
100
AcDbDictionary
281
     1
1001
ACAD
1000
<All
  0
XRECORD
  5
2316
102
{ACAD_REACTORS
330
2315
102
}
330
2315
100
AcDbXrecord
280
     1
290
     1
  0
XRECORD
  5
2318
102
{ACAD_REACTORS
330
2317
102
}
330
2317
100
AcDbXrecord
280
     1
290
     1
  0
LAYOUT
  5
1E
102
{ACAD_REACTORS
330
1A
102
}
330
1A
100
AcDbPlotSettings
  1

  2
Microsoft XPS Document Writer
  4

  6

 40
0.0
 41
0.0
 42
0.0
 43
0.0
 44
0.0
 45
0.0
 46
0.0
 47
0.0
 48
0.0
 49
0.0
140
0.0
141
0.0
142
1.0
143
1.0
 70
   688
 72
     0
 73
     0
 74
     5
  7

 75
    16
147
1.0
 76
     0
 77
     2
 78
   300
148
0.0
149
0.0
100
AcDbLayout
  1
Layout1
 70
     1
 71
     1
 10
0.0
 20
0.0
 11
0.0
 21
0.0
 12
0.0
 22
0.0
 32
0.0
 14
1.000000000000000E+20
 24
1.000000000000000E+20
 34
1.000000000000000E+20
 15
-1.000000000000000E+20
 25
-1.000000000000000E+20
 35
-1.000000000000000E+20
146
0.0
 13
0.0
 23
0.0
 33
0.0
 16
1.0
 26
0.0
 36
0.0
 17
0.0
 27
1.0
 37
0.0
 76
     0
330
1B
  0
LAYOUT
  5
26
102
{ACAD_REACTORS
330
1A
102
}
330
1A
100
AcDbPlotSettings
  1

  2
Microsoft XPS Document Writer
  4

  6

 40
0.0
 41
0.0
 42
0.0
 43
0.0
 44
0.0
 45
0.0
 46
0.0
 47
0.0
 48
0.0
 49
0.0
140
0.0
141
0.0
142
1.0
143
1.0
 70
   688
 72
     0
 73
     0
 74
     5
  7

 75
    16
147
1.0
 76
     0
 77
     2
 78
   300
148
0.0
149
0.0
100
AcDbLayout
  1
Layout2
 70
     1
 71
     2
 10
0.0
 20
0.0
 11
12.0
 21
9.0
 12
0.0
 22
0.0
 32
0.0
 14
0.0
 24
0.0
 34
0.0
 15
0.0
 25
0.0
 35
0.0
146
0.0
 13
0.0
 23
0.0
 33
0.0
 16
1.0
 26
0.0
 36
0.0
 17
0.0
 27
1.0
 37
0.0
 76
     0
330
23
  0
LAYOUT
  5
22
102
{ACAD_REACTORS
330
1A
102
}
330
1A
100
AcDbPlotSettings
  1

  2
Microsoft XPS Document Writer
  4

  6

 40
0.0
 41
0.0
 42
0.0
 43
0.0
 44
0.0
 45
0.0
 46
0.0
 47
0.0
 48
0.0
 49
0.0
140
0.0
141
0.0
142
1.0
143
1.0
 70
  1712
 72
     0
 73
     0
 74
     0
  7

 75
     0
147
1.0
 76
     0
 77
     2
 78
   300
148
0.0
149
0.0
100
AcDbLayout
  1
Model
 70
     1
 71
     0
 10
0.0
 20
0.0
 11
12.0
 21
9.0
 12
0.0
 22
0.0
 32
0.0
 14
0.0
 24
0.0
 34
0.0
 15
0.0
 25
0.0
 35
0.0
146
0.0
 13
0.0
 23
0.0
 33
0.0
 16
1.0
 26
0.0
 36
0.0
 17
0.0
 27
1.0
 37
0.0
 76
     0
330
1F
331
31
  0
MATERIAL
  5
DF
102
{ACAD_XDICTIONARY
360
E0
102
}
102
{ACAD_REACTORS
330
D6
102
}
330
D6
100
AcDbMaterial
  1
ByBlock
 72
     0
 43
0.0008202099737533
 43
0.0
 43
0.0
 43
0.0
 43
0.0
 43
0.0008202099737533
 43
0.0
 43
0.0
 43
0.0
 43
0.0
 43
1.0
 43
0.0
 43
0.0
 43
0.0
 43
0.0
 43
1.0
 77
     0
 47
0.0008202099737533
 47
0.0
 47
0.0
 47
0.0
 47
0.0
 47
0.0008202099737533
 47
0.0
 47
0.0
 47
0.0
 47
0.0
 47
1.0
 47
0.0
 47
0.0
 47
0.0
 47
0.0
 47
1.0
171
     0
 49
0.0008202099737533
 49
0.0
 49
0.0
 49
0.0
 49
0.0
 49
0.0008202099737533
 49
0.0
 49
0.0
 49
0.0
 49
0.0
 49
1.0
 49
0.0
 49
0.0
 49
0.0
 49
0.0
 49
1.0
175
     0
142
0.0008202099737533
142
0.0
142
0.0
142
0.0
142
0.0
142
0.0008202099737533
142
0.0
142
0.0
142
0.0
142
0.0
142
1.0
142
0.0
142
0.0
142
0.0
142
0.0
142
1.0
179
     0
144
0.0008202099737533
144
0.0
144
0.0
144
0.0
144
0.0
144
0.0008202099737533
144
0.0
144
0.0
144
0.0
144
0.0
144
1.0
144
0.0
144
0.0
144
0.0
144
0.0
144
1.0
147
0.0008202099737533
147
0.0
147
0.0
147
0.0
147
0.0
147
0.0008202099737533
147
0.0
147
0.0
147
0.0
147
0.0
147
1.0
147
0.0
147
0.0
147
0.0
147
0.0
147
1.0
  0
MATERIAL
  5
D7
102
{ACAD_XDICTIONARY
360
D8
102
}
102
{ACAD_REACTORS
330
D6
102
}
330
D6
100
AcDbMaterial
  1
ByLayer
 72
     0
 43
0.0008202099737533
 43
0.0
 43
0.0
 43
0.0
 43
0.0
 43
0.0008202099737533
 43
0.0
 43
0.0
 43
0.0
 43
0.0
 43
1.0
 43
0.0
 43
0.0
 43
0.0
 43
0.0
 43
1.0
 77
     0
 47
0.0008202099737533
 47
0.0
 47
0.0
 47
0.0
 47
0.0
 47
0.0008202099737533
 47
0.0
 47
0.0
 47
0.0
 47
0.0
 47
1.0
 47
0.0
 47
0.0
 47
0.0
 47
0.0
 47
1.0
171
     0
 49
0.0008202099737533
 49
0.0
 49
0.0
 49
0.0
 49
0.0
 49
0.0008202099737533
 49
0.0
 49
0.0
 49
0.0
 49
0.0
 49
1.0
 49
0.0
 49
0.0
 49
0.0
 49
0.0
 49
1.0
175
     0
142
0.0008202099737533
142
0.0
142
0.0
142
0.0
142
0.0
142
0.0008202099737533
142
0.0
142
0.0
142
0.0
142
0.0
142
1.0
142
0.0
142
0.0
142
0.0
142
0.0
142
1.0
179
     0
144
0.0008202099737533
144
0.0
144
0.0
144
0.0
144
0.0
144
0.0008202099737533
144
0.0
144
0.0
144
0.0
144
0.0
144
1.0
144
0.0
144
0.0
144
0.0
144
0.0
144
1.0
147
0.0008202099737533
147
0.0
147
0.0
147
0.0
147
0.0
147
0.0008202099737533
147
0.0
147
0.0
147
0.0
147
0.0
147
1.0
147
0.0
147
0.0
147
0.0
147
0.0
147
1.0
  0
MATERIAL
  5
E7
102
{ACAD_XDICTIONARY
360
E8
102
}
102
{ACAD_REACTORS
330
D6
102
}
330
D6
100
AcDbMaterial
  1
Global
 72
     0
 43
0.0008202099737533
 43
0.0
 43
0.0
 43
0.0
 43
0.0
 43
0.0008202099737533
 43
0.0
 43
0.0
 43
0.0
 43
0.0
 43
1.0
 43
0.0
 43
0.0
 43
0.0
 43
0.0
 43
1.0
 77
     0
 47
0.0008202099737533
 47
0.0
 47
0.0
 47
0.0
 47
0.0
 47
0.0008202099737533
 47
0.0
 47
0.0
 47
0.0
 47
0.0
 47
1.0
 47
0.0
 47
0.0
 47
0.0
 47
0.0
 47
1.0
171
     0
 49
0.0008202099737533
 49
0.0
 49
0.0
 49
0.0
 49
0.0
 49
0.0008202099737533
 49
0.0
 49
0.0
 49
0.0
 49
0.0
 49
1.0
 49
0.0
 49
0.0
 49
0.0
 49
0.0
 49
1.0
175
     0
142
0.0008202099737533
142
0.0
142
0.0
142
0.0
142
0.0
142
0.0008202099737533
142
0.0
142
0.0
142
0.0
142
0.0
142
1.0
142
0.0
142
0.0
142
0.0
142
0.0
142
1.0
179
     0
144
0.0008202099737533
144
0.0
144
0.0
144
0.0
144
0.0
144
0.0008202099737533
144
0.0
144
0.0
144
0.0
144
0.0
144
1.0
144
0.0
144
0.0
144
0.0
144
0.0
144
1.0
147
0.0008202099737533
147
0.0
147
0.0
147
0.0
147
0.0
147
0.0008202099737533
147
0.0
147
0.0
147
0.0
147
0.0
147
1.0
147
0.0
147
0.0
147
0.0
147
0.0
147
1.0
  0
MLEADERSTYLE
  5
126
102
{ACAD_REACTORS
330
125
102
}
330
125
100
AcDbMLeaderStyle
170
     2
171
     1
172
     0
 90
        2
 40
0.0
 41
0.0
173
     1
 91
-1056964608
340
14
 92
       -2
290
     1
 42
2.0
291
     1
 43
0.36
  3
Standard
 44
4.0
300

342
11
174
     1
178
     6
175
     1
176
     0
 93
-1056964608
 45
4.0
292
     0
297
     0
 46
4.0
 94
-1056964608
 47
1.0
 49
1.0
140
1.0
293
     1
141
0.0
294
     1
177
     0
142
1.0
295
     0
296
     0
143
0.125
1001
ACAD_MLEADERVER
1070
     2
  0
MLINESTYLE
  5
18
102
{ACAD_REACTORS
330
17
102
}
330
17
100
AcDbMlineStyle
  2
STANDARD
 70
     0
  3

 62
   256
 51
90.0
 52
90.0
 71
     2
 49
0.5
 62
   256
  6
BYLAYER
 49
-0.5
 62
   256
  6
BYLAYER
  0
ACDBPLACEHOLDER
  5
F
102
{ACAD_REACTORS
330
E
102
}
330
E
  0
SCALE
  5
104
102
{ACAD_REACTORS
330
103
102
}
330
103
100
AcDbScale
 70
     0
300
1:1
140
1.0
141
1.0
290
     1
  0
SCALE
  5
105
102
{ACAD_REACTORS
330
103
102
}
330
103
100
AcDbScale
 70
     0
300
1:2
140
1.0
141
2.0
290
     0
  0
SCALE
  5
106
102
{ACAD_REACTORS
330
103
102
}
330
103
100
AcDbScale
 70
     0
300
1:4
140
1.0
141
4.0
290
     0
  0
SCALE
  5
107
102
{ACAD_REACTORS
330
103
102
}
330
103
100
AcDbScale
 70
     0
300
1:5
140
1.0
141
5.0
290
     0
  0
SCALE
  5
108
102
{ACAD_REACTORS
330
103
102
}
330
103
100
AcDbScale
 70
     0
300
1:8
140
1.0
141
8.0
290
     0
  0
SCALE
  5
109
102
{ACAD_REACTORS
330
103
102
}
330
103
100
AcDbScale
 70
     0
300
1:10
140
1.0
141
10.0
290
     0
  0
SCALE
  5
10A
102
{ACAD_REACTORS
330
103
102
}
330
103
100
AcDbScale
 70
     0
300
1:16
140
1.0
141
16.0
290
     0
  0
SCALE
  5
10B
102
{ACAD_REACTORS
330
103
102
}
330
103
100
AcDbScale
 70
     0
300
1:20
140
1.0
141
20.0
290
     0
  0
SCALE
  5
10C
102
{ACAD_REACTORS
330
103
102
}
330
103
100
AcDbScale
 70
     0
300
1:30
140
1.0
141
30.0
290
     0
  0
SCALE
  5
10D
102
{ACAD_REACTORS
330
103
102
}
330
103
100
AcDbScale
 70
     0
300
1:40
140
1.0
141
40.0
290
     0
  0
SCALE
  5
10E
102
{ACAD_REACTORS
330
103
102
}
330
103
100
AcDbScale
 70
     0
300
1:50
140
1.0
141
50.0
290
     0
  0
SCALE
  5
10F
102
{ACAD_REACTORS
330
103
102
}
330
103
100
AcDbScale
 70
     0
300
1:100
140
1.0
141
100.0
290
     0
  0
SCALE
  5
110
102
{ACAD_REACTORS
330
103
102
}
330
103
100
AcDbScale
 70
     0
300
2:1
140
2.0
141
1.0
290
     0
  0
SCALE
  5
111
102
{ACAD_REACTORS
330
103
102
}
330
103
100
AcDbScale
 70
     0
300
4:1
140
4.0
141
1.0
290
     0
  0
SCALE
  5
112
102
{ACAD_REACTORS
330
103
102
}
330
103
100
AcDbScale
 70
     0
300
8:1
140
8.0
141
1.0
290
     0
  0
SCALE
  5
113
102
{ACAD_REACTORS
330
103
102
}
330
103
100
AcDbScale
 70
     0
300
10:1
140
10.0
141
1.0
290
     0
  0
SCALE
  5
114
102
{ACAD_REACTORS
330
103
102
}
330
103
100
AcDbScale
 70
     0
300
100:1
140
100.0
141
1.0
290
     0
  0
SCALE
  5
115
102
{ACAD_REACTORS
330
103
102
}
330
103
100
AcDbScale
 70
     0
300
1\128" = 1'-0"
140
0.0078125
141
12.0
290
     0
  0
SCALE
  5
116
102
{ACAD_REACTORS
330
103
102
}
330
103
100
AcDbScale
 70
     0
300
1\64" = 1'-0"
140
0.015625
141
12.0
290
     0
  0
SCALE
  5
117
102
{ACAD_REACTORS
330
103
102
}
330
103
100
AcDbScale
 70
     0
300
1\32" = 1'-0"
140
0.03125
141
12.0
290
     0
  0
SCALE
  5
118
102
{ACAD_REACTORS
330
103
102
}
330
103
100
AcDbScale
 70
     0
300
1\16" = 1'-0"
140
0.0625
141
12.0
290
     0
  0
SCALE
  5
119
102
{ACAD_REACTORS
330
103
102
}
330
103
100
AcDbScale
 70
     0
300
3\32" = 1'-0"
140
0.09375
141
12.0
290
     0
  0
SCALE
  5
11A
102
{ACAD_REACTORS
330
103
102
}
330
103
100
AcDbScale
 70
     0
300
1\8" = 1'-0"
140
0.125
141
12.0
290
     0
  0
SCALE
  5
11B
102
{ACAD_REACTORS
330
103
102
}
330
103
100
AcDbScale
 70
     0
300
3\16" = 1'-0"
140
0.1875
141
12.0
290
     0
  0
SCALE
  5
11C
102
{ACAD_REACTORS
330
103
102
}
330
103
100
AcDbScale
 70
     0
300
1\4" = 1'-0"
140
0.25
141
12.0
290
     0
  0
SCALE
  5
11D
102
{ACAD_REACTORS
330
103
102
}
330
103
100
AcDbScale
 70
     0
300
3\8" = 1'-0"
140
0.375
141
12.0
290
     0
  0
SCALE
  5
11E
102
{ACAD_REACTORS
330
103
102
}
330
103
100
AcDbScale
 70
     0
300
1\2" = 1'-0"
140
0.5
141
12.0
290
     0
  0
SCALE
  5
11F
102
{ACAD_REACTORS
330
103
102
}
330
103
100
AcDbScale
 70
     0
300
3\4" = 1'-0"
140
0.75
141
12.0
290
     0
  0
SCALE
  5
120
102
{ACAD_REACTORS
330
103
102
}
330
103
100
AcDbScale
 70
     0
300
1" = 1'-0"
140
1.0
141
12.0
290
     0
  0
SCALE
  5
121
102
{ACAD_REACTORS
330
103
102
}
330
103
100
AcDbScale
 70
     0
300
1-1\2" = 1'-0"
140
1.5
141
12.0
290
     0
  0
SCALE
  5
122
102
{ACAD_REACTORS
330
103
102
}
330
103
100
AcDbScale
 70
     0
300
3" = 1'-0"
140
3.0
141
12.0
290
     0
  0
SCALE
  5
123
102
{ACAD_REACTORS
330
103
102
}
330
103
100
AcDbScale
 70
     0
300
6" = 1'-0"
140
6.0
141
12.0
290
     0
  0
SCALE
  5
124
102
{ACAD_REACTORS
330
103
102
}
330
103
100
AcDbScale
 70
     0
300
1'-0" = 1'-0"
140
12.0
141
12.0
290
     0
  0
TABLESTYLE
  5
102
102
{ACAD_XDICTIONARY
360
231F
102
}
102
{ACAD_REACTORS
330
101
102
}
330
101
100
AcDbTableStyle
  3
Standard
 70
     0
 71
     0
 40
1.5
 41
1.5
280
     0
281
     0
  7
Standard
140
4.5
170
     2
 62
     0
 63
     7
283
     0
 90
      512
 91
        0
  1

274
    -2
284
     1
 64
     0
275
    -2
285
     1
 65
     0
276
    -2
286
     1
 66
     0
277
    -2
287
     1
 67
     0
278
    -2
288
     1
 68
     0
279
    -2
289
     1
 69
     0
  7
Standard
140
6.0
170
     5
 62
     0
 63
     7
283
     0
 90
      512
 91
        0
  1

274
    -2
284
     1
 64
     0
275
    -2
285
     1
 65
     0
276
    -2
286
     1
 66
     0
277
    -2
287
     1
 67
     0
278
    -2
288
     1
 68
     0
279
    -2
289
     1
 69
     0
  7
Standard
140
4.5
170
     5
 62
     0
 63
     7
283
     0
 90
      512
 91
        0
  1

274
    -2
284
     1
 64
     0
275
    -2
285
     1
 65
     0
276
    -2
286
     1
 66
     0
277
    -2
287
     1
 67
     0
278
    -2
288
     1
 68
     0
279
    -2
289
     1
 69
     0
  0
VISUALSTYLE
  5
F5
102
{ACAD_REACTORS
330
EF
102
}
330
EF
100
AcDbVisualStyle
  2
2dWireframe
 70
     4
 71
     0
 72
     2
 73
     0
 90
        0
 40
-0.6
 41
-30.0
 62
     5
 63
     7
421
 16777215
 74
     1
 91
        4
 64
     7
 65
   257
 75
     1
175
     1
 42
1.0
 92
        0
 66
   257
 43
1.0
 76
     1
 77
     6
 78
     2
 67
     7
 79
     5
170
     0
171
     0
290
     0
174
     0
 93
        1
 44
0.0
173
     0
291
     0
 45
0.0
  0
VISUALSTYLE
  5
F7
102
{ACAD_REACTORS
330
EF
102
}
330
EF
100
AcDbVisualStyle
  2
3D Hidden
 70
     6
 71
     1
 72
     2
 73
     2
 90
        0
 40
-0.6
 41
-30.0
 62
     5
 63
     7
421
 16777215
 74
     2
 91
        2
 64
     7
 65
   257
 75
     2
175
     1
 42
40.0
 92
        0
 66
   257
 43
1.0
 76
     1
 77
     6
 78
     2
 67
     7
 79
     3
170
     0
171
     0
290
     0
174
     0
 93
        1
 44
0.0
173
     0
291
     0
 45
0.0
  0
VISUALSTYLE
  5
F6
102
{ACAD_REACTORS
330
EF
102
}
330
EF
100
AcDbVisualStyle
  2
3dWireframe
 70
     5
 71
     0
 72
     2
 73
     0
 90
        0
 40
-0.6
 41
-30.0
 62
     5
 63
     7
421
 16777215
 74
     1
 91
        4
 64
     7
 65
   257
 75
     1
175
     1
 42
1.0
 92
        0
 66
   257
 43
1.0
 76
     1
 77
     6
 78
     2
 67
     7
 79
     5
170
     0
171
     0
290
     0
174
     0
 93
        1
 44
0.0
173
     0
291
     0
 45
0.0
  0
VISUALSTYLE
  5
F4
102
{ACAD_REACTORS
330
EF
102
}
330
EF
100
AcDbVisualStyle
  2
Basic
 70
     7
 71
     1
 72
     0
 73
     1
 90
        0
 40
-0.6
 41
-30.0
 62
     5
 63
     7
421
 16777215
 74
     0
 91
        4
 64
     7
 65
   257
 75
     1
175
     1
 42
1.0
 92
        8
 66
     7
 43
1.0
 76
     1
 77
     6
 78
     2
 67
     7
 79
     5
170
     0
171
     0
290
     0
174
     0
 93
        1
 44
0.0
173
     0
291
     1
 45
0.0
  0
VISUALSTYLE
  5
FB
102
{ACAD_REACTORS
330
EF
102
}
330
EF
100
AcDbVisualStyle
  2
Brighten
 70
    12
 71
     2
 72
     2
 73
     0
 90
        0
 40
-0.6
 41
-30.0
 62
     5
 63
     7
421
 16777215
 74
     1
 91
        4
 64
     7
 65
   257
 75
     1
175
     1
 42
1.0
 92
        8
 66
     7
 43
1.0
 76
     1
 77
     6
 78
     2
 67
     7
 79
     5
170
     0
171
     0
290
     0
174
     0
 93
        1
 44
50.0
173
     0
291
     1
 45
0.0
  0
VISUALSTYLE
  5
FF
102
{ACAD_REACTORS
330
EF
102
}
330
EF
100
AcDbVisualStyle
  2
ColorChange
 70
    16
 71
     2
 72
     2
 73
     3
 90
        0
 40
-0.6
 41
-30.0
 62
     5
 63
     8
421
  8421504
 74
     1
 91
        4
 64
     7
 65
   257
 75
     1
175
     1
 42
1.0
 92
        8
 66
     8
424
  8421504
 43
1.0
 76
     1
 77
     6
 78
     2
 67
     7
 79
     5
170
     0
171
     0
290
     0
174
     0
 93
        1
 44
0.0
173
     0
291
     1
 45
0.0
  0
VISUALSTYLE
  5
F8
102
{ACAD_REACTORS
330
EF
102
}
330
EF
100
AcDbVisualStyle
  2
Conceptual
 70
     9
 71
     3
 72
     2
 73
     0
 90
        0
 40
-0.6
 41
-30.0
 62
     5
 63
     7
421
 16777215
 74
     2
 91
        2
 64
     7
 65
   257
 75
     1
175
     1
 42
40.0
 92
        8
 66
     7
 43
1.0
 76
     1
 77
     6
 78
     2
 67
     7
 79
     3
170
     0
171
     0
290
     0
174
     0
 93
        1
 44
0.0
173
     0
291
     0
 45
0.0
  0
VISUALSTYLE
  5
FA
102
{ACAD_REACTORS
330
EF
102
}
330
EF
100
AcDbVisualStyle
  2
Dim
 70
    11
 71
     2
 72
     2
 73
     0
 90
        0
 40
-0.6
 41
-30.0
 62
     5
 63
     7
421
 16777215
 74
     1
 91
        4
 64
     7
 65
   257
 75
     1
175
     1
 42
1.0
 92
        8
 66
     7
 43
1.0
 76
     1
 77
     6
 78
     2
 67
     7
 79
     5
170
     0
171
     0
290
     0
174
     0
 93
        1
 44
-50.0
173
     0
291
     1
 45
0.0
  0
VISUALSTYLE
  5
FE
102
{ACAD_REACTORS
330
EF
102
}
330
EF
100
AcDbVisualStyle
  2
Facepattern
 70
    15
 71
     2
 72
     2
 73
     0
 90
        0
 40
-0.6
 41
-30.0
 62
     5
 63
     7
421
 16777215
 74
     1
 91
        4
 64
     7
 65
   257
 75
     1
175
     1
 42
1.0
 92
        8
 66
     7
 43
1.0
 76
     1
 77
     6
 78
     2
 67
     7
 79
     5
170
     0
171
     0
290
     0
174
     0
 93
        1
 44
0.0
173
     0
291
     1
 45
0.0
  0
VISUALSTYLE
  5
F0
102
{ACAD_REACTORS
330
EF
102
}
330
EF
100
AcDbVisualStyle
  2
Flat
 70
     0
 71
     2
 72
     1
 73
     1
 90
        2
 40
-0.6
 41
30.0
 62
     5
 63
     7
421
 16777215
 74
     0
 91
        4
 64
     7
 65
   257
 75
     1
175
     1
 42
1.0
 92
        8
 66
     7
 43
1.0
 76
     1
 77
     6
 78
     2
 67
     7
 79
     5
170
     0
171
     0
290
     0
174
     0
 93
       13
 44
0.0
173
     0
291
     1
 45
0.0
  0
VISUALSTYLE
  5
F1
102
{ACAD_REACTORS
330
EF
102
}
330
EF
100
AcDbVisualStyle
  2
FlatWithEdges
 70
     1
 71
     2
 72
     1
 73
     1
 90
        2
 40
-0.6
 41
30.0
 62
     5
 63
     7
421
 16777215
 74
     1
 91
        4
 64
     7
 65
   257
 75
     1
175
     1
 42
1.0
 92
        0
 66
   257
 43
1.0
 76
     1
 77
     6
 78
     2
 67
     7
 79
     5
170
     0
171
     0
290
     0
174
     0
 93
       13
 44
0.0
173
     0
291
     1
 45
0.0
  0
VISUALSTYLE
  5
F2
102
{ACAD_REACTORS
330
EF
102
}
330
EF
100
AcDbVisualStyle
  2
Gouraud
 70
     2
 71
     2
 72
     2
 73
     1
 90
        2
 40
-0.6
 41
30.0
 62
     5
 63
     7
421
 16777215
 74
     0
 91
        4
 64
     7
 65
   257
 75
     1
175
     1
 42
1.0
 92
        0
 66
     7
 43
1.0
 76
     1
 77
     6
 78
     2
 67
     7
 79
     5
170
     0
171
     0
290
     0
174
     0
 93
       13
 44
0.0
173
     0
291
     1
 45
0.0
  0
VISUALSTYLE
  5
F3
102
{ACAD_REACTORS
330
EF
102
}
330
EF
100
AcDbVisualStyle
  2
GouraudWithEdges
 70
     3
 71
     2
 72
     2
 73
     1
 90
        2
 40
-0.6
 41
30.0
 62
     5
 63
     7
421
 16777215
 74
     1
 91
        4
 64
     7
 65
   257
 75
     1
175
     1
 42
1.0
 92
        0
 66
   257
 43
1.0
 76
     1
 77
     6
 78
     2
 67
     7
 79
     5
170
     0
171
     0
290
     0
174
     0
 93
       13
 44
0.0
173
     0
291
     1
 45
0.0
  0
VISUALSTYLE
  5
FD
102
{ACAD_REACTORS
330
EF
102
}
330
EF
100
AcDbVisualStyle
  2
Linepattern
 70
    14
 71
     2
 72
     2
 73
     0
 90
        0
 40
-0.6
 41
-30.0
 62
     5
 63
     7
421
 16777215
 74
     1
 91
        4
 64
     7
 65
   257
 75
     7
175
     7
 42
1.0
 92
        8
 66
     7
 43
1.0
 76
     1
 77
     6
 78
     2
 67
     7
 79
     5
170
     0
171
     0
290
     0
174
     0
 93
        1
 44
0.0
173
     0
291
     1
 45
0.0
  0
VISUALSTYLE
  5
F9
102
{ACAD_REACTORS
330
EF
102
}
330
EF
100
AcDbVisualStyle
  2
Realistic
 70
     8
 71
     2
 72
     2
 73
     0
 90
        0
 40
-0.6
 41
-30.0
 62
     5
 63
     7
421
 16777215
 74
     1
 91
        0
 64
     7
 65
   257
 75
     1
175
     1
 42
1.0
 92
        8
 66
     8
424
  7895160
 43
1.0
 76
     1
 77
     6
 78
     2
 67
     7
 79
     5
170
     0
171
     0
290
     0
174
     0
 93
       13
 44
0.0
173
     0
291
     0
 45
0.0
  0
VISUALSTYLE
  5
FC
102
{ACAD_REACTORS
330
EF
102
}
330
EF
100
AcDbVisualStyle
  2
Thicken
 70
    13
 71
     2
 72
     2
 73
     0
 90
        0
 40
-0.6
 41
-30.0
 62
     5
 63
     7
421
 16777215
 74
     1
 91
        4
 64
     7
 65
   257
 75
     1
175
     1
 42
1.0
 92
       12
 66
     7
 43
1.0
 76
     1
 77
     6
 78
     2
 67
     7
 79
     5
170
     0
171
     0
290
     0
174
     0
 93
        1
 44
0.0
173
     0
291
     1
 45
0.0
  0
DICTIONARYVAR
  5
231D
102
{ACAD_REACTORS
330
2319
102
}
330
2319
100
DictionaryVariables
280
     0
  1
1:1
  0
DICTIONARYVAR
  5
231B
102
{ACAD_REACTORS
330
2319
102
}
330
2319
100
DictionaryVariables
280
     0
  1
STANDARD
  0
DICTIONARYVAR
  5
231A
102
{ACAD_REACTORS
330
2319
102
}
330
2319
100
DictionaryVariables
280
     0
  1
STANDARD
  0
DICTIONARYVAR
  5
231E
102
{ACAD_REACTORS
330
2319
102
}
330
2319
100
DictionaryVariables
280
     0
  1
0
  0
DICTIONARYVAR
  5
231C
102
{ACAD_REACTORS
330
2319
102
}
330
2319
100
DictionaryVariables
280
     0
  1
0
  0
DICTIONARY
  5
E0
330
DF
100
AcDbDictionary
280
     1
281
     1
  3
BUMPTILE
360
E2
  3
DIFFUSETILE
360
E1
  3
OPACITYTILE
360
E5
  3
REFLECTIONTILE
360
E4
  3
REFRACTIONTILE
360
E6
  3
SPECULARTILE
360
E3
  0
DICTIONARY
  5
D8
330
D7
100
AcDbDictionary
280
     1
281
     1
  3
BUMPTILE
360
DA
  3
DIFFUSETILE
360
D9
  3
OPACITYTILE
360
DD
  3
REFLECTIONTILE
360
DC
  3
REFRACTIONTILE
360
DE
  3
SPECULARTILE
360
DB
  0
DICTIONARY
  5
E8
330
E7
100
AcDbDictionary
280
     1
281
     1
  3
BUMPTILE
360
EA
  3
DIFFUSETILE
360
E9
  3
OPACITYTILE
360
ED
  3
REFLECTIONTILE
360
EC
  3
REFRACTIONTILE
360
EE
  3
SPECULARTILE
360
EB
  0
DICTIONARY
  5
231F
330
102
100
AcDbDictionary
280
     1
281
     1
  3
ACAD_ROUNDTRIP_2008_TABLESTYLE_CELLSTYLEMAP
360
2320
  0
XRECORD
  5
E2
102
{ACAD_REACTORS
330
E0
102
}
330
E0
100
AcDbXrecord
280
     1
270
     1
271
     1
  0
XRECORD
  5
E1
102
{ACAD_REACTORS
330
E0
102
}
330
E0
100
AcDbXrecord
280
     1
270
     1
271
     1
  0
XRECORD
  5
E5
102
{ACAD_REACTORS
330
E0
102
}
330
E0
100
AcDbXrecord
280
     1
270
     1
271
     1
  0
XRECORD
  5
E4
102
{ACAD_REACTORS
330
E0
102
}
330
E0
100
AcDbXrecord
280
     1
270
     1
271
     1
  0
XRECORD
  5
E6
102
{ACAD_REACTORS
330
E0
102
}
330
E0
100
AcDbXrecord
280
     1
270
     1
271
     1
  0
XRECORD
  5
E3
102
{ACAD_REACTORS
330
E0
102
}
330
E0
100
AcDbXrecord
280
     1
270
     1
271
     1
  0
XRECORD
  5
DA
102
{ACAD_REACTORS
330
D8
102
}
330
D8
100
AcDbXrecord
280
     1
270
     1
271
     1
  0
XRECORD
  5
D9
102
{ACAD_REACTORS
330
D8
102
}
330
D8
100
AcDbXrecord
280
     1
270
     1
271
     1
  0
XRECORD
  5
DD
102
{ACAD_REACTORS
330
D8
102
}
330
D8
100
AcDbXrecord
280
     1
270
     1
271
     1
  0
XRECORD
  5
DC
102
{ACAD_REACTORS
330
D8
102
}
330
D8
100
AcDbXrecord
280
     1
270
     1
271
     1
  0
XRECORD
  5
DE
102
{ACAD_REACTORS
330
D8
102
}
330
D8
100
AcDbXrecord
280
     1
270
     1
271
     1
  0
XRECORD
  5
DB
102
{ACAD_REACTORS
330
D8
102
}
330
D8
100
AcDbXrecord
280
     1
270
     1
271
     1
  0
XRECORD
  5
EA
102
{ACAD_REACTORS
330
E8
102
}
330
E8
100
AcDbXrecord
280
     1
270
     1
271
     1
  0
XRECORD
  5
E9
102
{ACAD_REACTORS
330
E8
102
}
330
E8
100
AcDbXrecord
280
     1
270
     1
271
     1
  0
XRECORD
  5
ED
102
{ACAD_REACTORS
330
E8
102
}
330
E8
100
AcDbXrecord
280
     1
270
     1
271
     1
  0
XRECORD
  5
EC
102
{ACAD_REACTORS
330
E8
102
}
330
E8
100
AcDbXrecord
280
     1
270
     1
271
     1
  0
XRECORD
  5
EE
102
{ACAD_REACTORS
330
E8
102
}
330
E8
100
AcDbXrecord
280
     1
270
     1
271
     1
  0
XRECORD
  5
EB
102
{ACAD_REACTORS
330
E8
102
}
330
E8
100
AcDbXrecord
280
     1
270
     1
271
     1
  0
CELLSTYLEMAP
  5
2320
102
{ACAD_REACTORS
330
231F
102
}
330
231F
100
AcDbCellStyleMap
 90
        3
300
CELLSTYLE
  1
TABLEFORMAT_BEGIN
 90
        5
170
     1
 91
        0
 92
    32768
 62
   257
 93
        1
300
CONTENTFORMAT
  1
CONTENTFORMAT_BEGIN
 90
        0
 91
        0
 92
      512
 93
        0
300

 40
0.0
140
1.0
 94
        5
 62
     0
340
11
144
6.0
309
CONTENTFORMAT_END
171
     1
301
MARGIN
  1
CELLMARGIN_BEGIN
 40
1.5
 40
1.5
 40
1.5
 40
1.5
 40
4.5
 40
4.5
309
CELLMARGIN_END
 94
        6
 95
        1
302
GRIDFORMAT
  1
GRIDFORMAT_BEGIN
 90
        0
 91
        1
 62
     0
 92
       -2
340
0
 93
        0
 40
1.125
309
GRIDFORMAT_END
 95
        2
302
GRIDFORMAT
  1
GRIDFORMAT_BEGIN
 90
        0
 91
        1
 62
     0
 92
       -2
340
0
 93
        0
 40
1.125
309
GRIDFORMAT_END
 95
        4
302
GRIDFORMAT
  1
GRIDFORMAT_BEGIN
 90
        0
 91
        1
 62
     0
 92
       -2
340
0
 93
        0
 40
1.125
309
GRIDFORMAT_END
 95
        8
302
GRIDFORMAT
  1
GRIDFORMAT_BEGIN
 90
        0
 91
        1
 62
     0
 92
       -2
340
0
 93
        0
 40
1.125
309
GRIDFORMAT_END
 95
       16
302
GRIDFORMAT
  1
GRIDFORMAT_BEGIN
 90
        0
 91
        1
 62
     0
 92
       -2
340
0
 93
        0
 40
1.125
309
GRIDFORMAT_END
 95
       32
302
GRIDFORMAT
  1
GRIDFORMAT_BEGIN
 90
        0
 91
        1
 62
     0
 92
       -2
340
0
 93
        0
 40
1.125
309
GRIDFORMAT_END
309
TABLEFORMAT_END
  1
CELLSTYLE_BEGIN
 90
        1
 91
        1
300
_TITLE
309
CELLSTYLE_END
300
CELLSTYLE
  1
TABLEFORMAT_BEGIN
 90
        5
170
     1
 91
        0
 92
        0
 62
   257
 93
        1
300
CONTENTFORMAT
  1
CONTENTFORMAT_BEGIN
 90
        0
 91
        0
 92
      512
 93
        0
300

 40
0.0
140
1.0
 94
        5
 62
     0
340
11
144
4.5
309
CONTENTFORMAT_END
171
     1
301
MARGIN
  1
CELLMARGIN_BEGIN
 40
1.5
 40
1.5
 40
1.5
 40
1.5
 40
4.5
 40
4.5
309
CELLMARGIN_END
 94
        6
 95
        1
302
GRIDFORMAT
  1
GRIDFORMAT_BEGIN
 90
        0
 91
        1
 62
     0
 92
       -2
340
0
 93
        0
 40
1.125
309
GRIDFORMAT_END
 95
        2
302
GRIDFORMAT
  1
GRIDFORMAT_BEGIN
 90
        0
 91
        1
 62
     0
 92
       -2
340
0
 93
        0
 40
1.125
309
GRIDFORMAT_END
 95
        4
302
GRIDFORMAT
  1
GRIDFORMAT_BEGIN
 90
        0
 91
        1
 62
     0
 92
       -2
340
0
 93
        0
 40
1.125
309
GRIDFORMAT_END
 95
        8
302
GRIDFORMAT
  1
GRIDFORMAT_BEGIN
 90
        0
 91
        1
 62
     0
 92
       -2
340
0
 93
        0
 40
1.125
309
GRIDFORMAT_END
 95
       16
302
GRIDFORMAT
  1
GRIDFORMAT_BEGIN
 90
        0
 91
        1
 62
     0
 92
       -2
340
0
 93
        0
 40
1.125
309
GRIDFORMAT_END
 95
       32
302
GRIDFORMAT
  1
GRIDFORMAT_BEGIN
 90
        0
 91
        1
 62
     0
 92
       -2
340
0
 93
        0
 40
1.125
309
GRIDFORMAT_END
309
TABLEFORMAT_END
  1
CELLSTYLE_BEGIN
 90
        2
 91
        1
300
_HEADER
309
CELLSTYLE_END
300
CELLSTYLE
  1
TABLEFORMAT_BEGIN
 90
        5
170
     1
 91
        0
 92
        0
 62
   257
 93
        1
300
CONTENTFORMAT
  1
CONTENTFORMAT_BEGIN
 90
        0
 91
        0
 92
      512
 93
        0
300

 40
0.0
140
1.0
 94
        2
 62
     0
340
11
144
4.5
309
CONTENTFORMAT_END
171
     1
301
MARGIN
  1
CELLMARGIN_BEGIN
 40
1.5
 40
1.5
 40
1.5
 40
1.5
 40
4.5
 40
4.5
309
CELLMARGIN_END
 94
        6
 95
        1
302
GRIDFORMAT
  1
GRIDFORMAT_BEGIN
 90
        0
 91
        1
 62
     0
 92
       -2
340
0
 93
        0
 40
1.125
309
GRIDFORMAT_END
 95
        2
302
GRIDFORMAT
  1
GRIDFORMAT_BEGIN
 90
        0
 91
        1
 62
     0
 92
       -2
340
0
 93
        0
 40
1.125
309
GRIDFORMAT_END
 95
        4
302
GRIDFORMAT
  1
GRIDFORMAT_BEGIN
 90
        0
 91
        1
 62
     0
 92
       -2
340
0
 93
        0
 40
1.125
309
GRIDFORMAT_END
 95
        8
302
GRIDFORMAT
  1
GRIDFORMAT_BEGIN
 90
        0
 91
        1
 62
     0
 92
       -2
340
0
 93
        0
 40
1.125
309
GRIDFORMAT_END
 95
       16
302
GRIDFORMAT
  1
GRIDFORMAT_BEGIN
 90
        0
 91
        1
 62
     0
 92
       -2
340
0
 93
        0
 40
1.125
309
GRIDFORMAT_END
 95
       32
302
GRIDFORMAT
  1
GRIDFORMAT_BEGIN
 90
        0
 91
        1
 62
     0
 92
       -2
340
0
 93
        0
 40
1.125
309
GRIDFORMAT_END
309
TABLEFORMAT_END
  1
CELLSTYLE_BEGIN
 90
        3
 91
        2
300
_DATA
309
CELLSTYLE_END
  0
ENDSEC
  0
EOF
